%TF.GenerationSoftware,KiCad,Pcbnew,7.0.10*%
%TF.CreationDate,2024-02-08T22:37:52+01:00*%
%TF.ProjectId,LNA_1MHz,4c4e415f-314d-4487-9a2e-6b696361645f,V0*%
%TF.SameCoordinates,PX62ccf80PY8214c80*%
%TF.FileFunction,Plated,1,4,PTH,Drill*%
%TF.FilePolarity,Positive*%
%FSLAX46Y46*%
G04 Gerber Fmt 4.6, Leading zero omitted, Abs format (unit mm)*
G04 Created by KiCad (PCBNEW 7.0.10) date 2024-02-08 22:37:52*
%MOMM*%
%LPD*%
G01*
G04 APERTURE LIST*
%TA.AperFunction,ViaDrill*%
%ADD10C,0.400000*%
%TD*%
%TA.AperFunction,ComponentDrill*%
%ADD11C,0.800000*%
%TD*%
%TA.AperFunction,ComponentDrill*%
%ADD12C,0.900000*%
%TD*%
%TA.AperFunction,ComponentDrill*%
%ADD13C,1.000000*%
%TD*%
%TA.AperFunction,ComponentDrill*%
%ADD14C,2.000000*%
%TD*%
G04 APERTURE END LIST*
D10*
X1000000Y73400000D03*
X1000000Y58400000D03*
X1000000Y47400000D03*
X1000000Y43900000D03*
X1000000Y40400000D03*
X1000000Y36400000D03*
X1000000Y28400000D03*
X1000000Y23400000D03*
X1000000Y18400000D03*
X1000000Y13400000D03*
X1000000Y8400000D03*
X2500000Y4400000D03*
X5000000Y47400000D03*
X5000000Y1900000D03*
X8500000Y900000D03*
X13500000Y900000D03*
X20712500Y35600000D03*
X20712500Y28100000D03*
X20812500Y56040000D03*
X20812500Y48540000D03*
X20850000Y15100000D03*
X20850000Y7600000D03*
X20862500Y76690000D03*
X20862500Y69190000D03*
X21000000Y66800000D03*
X21000000Y25400000D03*
X21200000Y46000000D03*
X24150000Y43200000D03*
X24212500Y33100000D03*
X24312500Y53540000D03*
X24350000Y12600000D03*
X24362500Y74190000D03*
X24412500Y30580000D03*
X24512500Y51020000D03*
X24550000Y10080000D03*
X24562500Y71670000D03*
X24962500Y31850000D03*
X25062500Y52290000D03*
X25100000Y11350000D03*
X25112500Y72940000D03*
X25598750Y44960000D03*
X25598750Y24560000D03*
X25598750Y3960000D03*
X25600000Y65600000D03*
X25712500Y28100000D03*
X25812500Y48540000D03*
X25812500Y35600000D03*
X25812500Y29300000D03*
X25826103Y34313603D03*
X25850000Y7600000D03*
X25862500Y69190000D03*
X25912500Y56040000D03*
X25912500Y49740000D03*
X25926103Y54753603D03*
X25950000Y15100000D03*
X25950000Y8800000D03*
X25962500Y76690000D03*
X25962500Y70390000D03*
X25963603Y13813603D03*
X25976103Y75403603D03*
X29212500Y28100000D03*
X29312500Y48540000D03*
X29350000Y7600000D03*
X29362500Y69190000D03*
X29426103Y30713603D03*
X29526103Y51153603D03*
X29563603Y10213603D03*
X29576103Y71803603D03*
X29862500Y36650000D03*
X29962500Y57090000D03*
X30000000Y16150000D03*
X30012500Y77740000D03*
X30398750Y43360000D03*
X30398750Y22960000D03*
X30398750Y2360000D03*
X30400000Y64000000D03*
X30796815Y26715685D03*
X30912500Y47140000D03*
X30950000Y6200000D03*
X30962500Y67790000D03*
X32938750Y59400000D03*
X33000000Y80000000D03*
X33000000Y73200000D03*
X33000000Y52650000D03*
X33000000Y32200000D03*
X33000000Y11800000D03*
X33138750Y39000000D03*
X33138750Y18400000D03*
X37500000Y55650000D03*
X37600000Y7800000D03*
X37750000Y76150000D03*
X37750000Y35150000D03*
X37750000Y14650000D03*
X41000000Y900000D03*
X52000000Y2900000D03*
X52800000Y24000000D03*
X53000000Y79900000D03*
X53000000Y52900000D03*
X54200000Y27600000D03*
X55500000Y77400000D03*
X55500000Y6400000D03*
X56000000Y73400000D03*
X57000000Y68900000D03*
X57500000Y34900000D03*
X57500000Y25600000D03*
X57800000Y65000000D03*
X58500000Y8400000D03*
X59000000Y20400000D03*
X59200000Y55400000D03*
X61000000Y68400000D03*
X61000000Y48650000D03*
X61200000Y31200000D03*
X61600000Y44050000D03*
X62200000Y35400000D03*
X62800000Y58000000D03*
X63500000Y8400000D03*
X64200000Y64650000D03*
X65800000Y30850000D03*
X66000000Y68400000D03*
X66400000Y53200000D03*
X66400000Y39200000D03*
X66600000Y64650000D03*
X68200000Y34600000D03*
X68500000Y8400000D03*
X69000000Y20400000D03*
X69400000Y41200000D03*
X69800000Y27800000D03*
X71000000Y68400000D03*
X72000000Y49400000D03*
X72500000Y55900000D03*
X72500000Y22900000D03*
X73000000Y42400000D03*
X73000000Y35600000D03*
X73000000Y32900000D03*
X73200000Y65200000D03*
X75900000Y31650000D03*
X76000000Y68400000D03*
X76000000Y8400000D03*
X77500000Y61900000D03*
X77500000Y55900000D03*
X78000000Y42900000D03*
X78400000Y15000000D03*
X78600000Y48459000D03*
X81000000Y68400000D03*
X81000000Y8400000D03*
X86000000Y68400000D03*
X86000000Y60900000D03*
X86000000Y27400000D03*
X86000000Y8400000D03*
X89000000Y60900000D03*
X89000000Y55400000D03*
X89000000Y27400000D03*
X89000000Y21900000D03*
X91000000Y68400000D03*
X91000000Y8400000D03*
X92000000Y60900000D03*
X92000000Y55400000D03*
X92000000Y27400000D03*
X92000000Y21900000D03*
X96000000Y68200000D03*
X96000000Y8400000D03*
X98500000Y65900000D03*
X98500000Y10900000D03*
X101000000Y63400000D03*
X101000000Y58400000D03*
X101000000Y53400000D03*
X101000000Y48400000D03*
X101000000Y43400000D03*
X101000000Y38400000D03*
X101000000Y33400000D03*
X101000000Y28400000D03*
X101000000Y23400000D03*
X101000000Y18400000D03*
X101000000Y13400000D03*
D11*
%TO.C,C59*%
X5000000Y60500000D03*
X5000000Y57000000D03*
%TO.C,C60*%
X5200000Y77400000D03*
X5200000Y73900000D03*
%TO.C,C43*%
X35262500Y65140000D03*
%TO.C,C48*%
X35262500Y44500000D03*
%TO.C,C53*%
X35262500Y24100000D03*
%TO.C,C58*%
X35300000Y3550000D03*
%TO.C,C43*%
X40262500Y65140000D03*
%TO.C,C48*%
X40262500Y44500000D03*
%TO.C,C53*%
X40262500Y24100000D03*
%TO.C,C58*%
X40300000Y3550000D03*
%TO.C,C42*%
X44562500Y77890000D03*
X44562500Y72890000D03*
%TO.C,C47*%
X44562500Y57250000D03*
X44562500Y52250000D03*
%TO.C,C52*%
X44562500Y36850000D03*
X44562500Y31850000D03*
%TO.C,C57*%
X44600000Y16300000D03*
X44600000Y11300000D03*
%TO.C,C4*%
X54400000Y37750000D03*
X54400000Y32750000D03*
%TO.C,C5*%
X54400000Y29850000D03*
X54400000Y24850000D03*
%TO.C,C38*%
X55200000Y59650000D03*
X55200000Y54650000D03*
%TO.C,C37*%
X55200000Y51100000D03*
X55200000Y46100000D03*
%TO.C,RV2*%
X55650000Y20830000D03*
X55650000Y18290000D03*
X55650000Y15750000D03*
%TO.C,C35*%
X59700000Y38200000D03*
X64700000Y38200000D03*
%TO.C,C36*%
X68000000Y38200000D03*
X73000000Y38200000D03*
%TO.C,RV1*%
X73250000Y20830000D03*
X73250000Y18290000D03*
X73250000Y15750000D03*
D12*
%TO.C,J1*%
X7960000Y41350000D03*
X10500000Y41350000D03*
%TO.C,J3*%
X92000000Y58000000D03*
%TO.C,J2*%
X92000000Y24700000D03*
%TO.C,J3*%
X94540000Y58000000D03*
%TO.C,J2*%
X94540000Y24700000D03*
D13*
%TO.C,H3*%
X2600000Y69400000D03*
%TO.C,H2*%
X2600000Y65000000D03*
%TO.C,H4*%
X2600000Y52400000D03*
%TO.C,H1*%
X11400000Y78600000D03*
%TO.C,H5*%
X55650000Y9550000D03*
%TO.C,H6*%
X73250000Y9550000D03*
D14*
%TO.C,J1*%
X5420000Y36270000D03*
X15580000Y46430000D03*
%TO.C,J3*%
X86920000Y52920000D03*
%TO.C,J2*%
X86920000Y19620000D03*
%TO.C,J3*%
X97080000Y63080000D03*
%TO.C,J2*%
X97080000Y29780000D03*
M02*
