%TF.GenerationSoftware,KiCad,Pcbnew,7.0.10*%
%TF.CreationDate,2024-02-08T22:37:46+01:00*%
%TF.ProjectId,LNA_1MHz,4c4e415f-314d-4487-9a2e-6b696361645f,V0*%
%TF.SameCoordinates,PX62ccf80PY8214c80*%
%TF.FileFunction,Copper,L2,Inr*%
%TF.FilePolarity,Positive*%
%FSLAX46Y46*%
G04 Gerber Fmt 4.6, Leading zero omitted, Abs format (unit mm)*
G04 Created by KiCad (PCBNEW 7.0.10) date 2024-02-08 22:37:46*
%MOMM*%
%LPD*%
G01*
G04 APERTURE LIST*
G04 Aperture macros list*
%AMRoundRect*
0 Rectangle with rounded corners*
0 $1 Rounding radius*
0 $2 $3 $4 $5 $6 $7 $8 $9 X,Y pos of 4 corners*
0 Add a 4 corners polygon primitive as box body*
4,1,4,$2,$3,$4,$5,$6,$7,$8,$9,$2,$3,0*
0 Add four circle primitives for the rounded corners*
1,1,$1+$1,$2,$3*
1,1,$1+$1,$4,$5*
1,1,$1+$1,$6,$7*
1,1,$1+$1,$8,$9*
0 Add four rect primitives between the rounded corners*
20,1,$1+$1,$2,$3,$4,$5,0*
20,1,$1+$1,$4,$5,$6,$7,0*
20,1,$1+$1,$6,$7,$8,$9,0*
20,1,$1+$1,$8,$9,$2,$3,0*%
G04 Aperture macros list end*
%ADD10C,0.160000*%
%TA.AperFunction,NonConductor*%
%ADD11C,0.160000*%
%TD*%
%TA.AperFunction,ComponentPad*%
%ADD12C,4.000000*%
%TD*%
%TA.AperFunction,ComponentPad*%
%ADD13RoundRect,0.400000X-0.400000X-0.400000X0.400000X-0.400000X0.400000X0.400000X-0.400000X0.400000X0*%
%TD*%
%TA.AperFunction,ComponentPad*%
%ADD14C,1.600000*%
%TD*%
%TA.AperFunction,ComponentPad*%
%ADD15R,1.600000X1.600000*%
%TD*%
%TA.AperFunction,ComponentPad*%
%ADD16R,2.000000X2.000000*%
%TD*%
%TA.AperFunction,ComponentPad*%
%ADD17RoundRect,0.400000X0.400000X0.400000X-0.400000X0.400000X-0.400000X-0.400000X0.400000X-0.400000X0*%
%TD*%
%TA.AperFunction,ComponentPad*%
%ADD18C,1.440000*%
%TD*%
%TA.AperFunction,ViaPad*%
%ADD19C,0.800000*%
%TD*%
%TA.AperFunction,Profile*%
%ADD20C,0.200000*%
%TD*%
G04 APERTURE END LIST*
D10*
D11*
X3235462Y12504261D02*
X3283081Y12456642D01*
X3283081Y12456642D02*
X3330700Y12361404D01*
X3330700Y12361404D02*
X3330700Y12123309D01*
X3330700Y12123309D02*
X3283081Y12028071D01*
X3283081Y12028071D02*
X3235462Y11980452D01*
X3235462Y11980452D02*
X3140224Y11932833D01*
X3140224Y11932833D02*
X3044986Y11932833D01*
X3044986Y11932833D02*
X2902129Y11980452D01*
X2902129Y11980452D02*
X2330700Y12551880D01*
X2330700Y12551880D02*
X2330700Y11932833D01*
D12*
X15580000Y46430000D03*
X5420000Y36270000D03*
D13*
X10500000Y41350000D03*
D14*
X7960000Y41350000D03*
D15*
X5000000Y60500000D03*
D14*
X5000000Y57000000D03*
X44562500Y57250000D03*
X44562500Y52250000D03*
D16*
X2600000Y65000000D03*
X11400000Y78600000D03*
D12*
X86920000Y19620000D03*
X97080000Y29780000D03*
D17*
X92000000Y24700000D03*
D14*
X94540000Y24700000D03*
X55200000Y59650000D03*
X55200000Y54650000D03*
X54400000Y24850000D03*
X54400000Y29850000D03*
X40300000Y3550000D03*
X35300000Y3550000D03*
D16*
X2600000Y52400000D03*
D14*
X55200000Y46100000D03*
X55200000Y51100000D03*
D18*
X55650000Y20830000D03*
X55650000Y18290000D03*
X55650000Y15750000D03*
D16*
X73250000Y9550000D03*
D12*
X86920000Y52920000D03*
X97080000Y63080000D03*
D17*
X92000000Y58000000D03*
D14*
X94540000Y58000000D03*
X44600000Y16300000D03*
X44600000Y11300000D03*
X40262500Y44500000D03*
X35262500Y44500000D03*
X54400000Y37750000D03*
X54400000Y32750000D03*
D16*
X55650000Y9550000D03*
D14*
X59700000Y38200000D03*
X64700000Y38200000D03*
X44562500Y77890000D03*
X44562500Y72890000D03*
X44562500Y36850000D03*
X44562500Y31850000D03*
D18*
X73250000Y20830000D03*
X73250000Y18290000D03*
X73250000Y15750000D03*
D16*
X2600000Y69400000D03*
D14*
X40262500Y65140000D03*
X35262500Y65140000D03*
X40262500Y24100000D03*
X35262500Y24100000D03*
X73000000Y38200000D03*
X68000000Y38200000D03*
D15*
X5200000Y77400000D03*
D14*
X5200000Y73900000D03*
D19*
X62800000Y58000000D03*
X73200000Y65200000D03*
X37750000Y14650000D03*
X96000000Y8400000D03*
X66400000Y53200000D03*
X89000000Y21900000D03*
X25100000Y11350000D03*
X53000000Y79900000D03*
X71000000Y68400000D03*
X81000000Y68400000D03*
X77500000Y61900000D03*
X68200000Y34600000D03*
X101000000Y48400000D03*
X69000000Y20400000D03*
X57500000Y25600000D03*
X61000000Y48650000D03*
X73000000Y32900000D03*
X30000000Y16150000D03*
X78600000Y48459000D03*
X25112500Y72940000D03*
X55500000Y6400000D03*
X33000000Y32200000D03*
X37600000Y7800000D03*
X37750000Y35150000D03*
X86000000Y8400000D03*
X1000000Y8400000D03*
X101000000Y23400000D03*
X5000000Y47400000D03*
X101000000Y13400000D03*
X1000000Y73400000D03*
X8500000Y900000D03*
X57000000Y68900000D03*
X24150000Y43200000D03*
X1000000Y23400000D03*
X55500000Y77400000D03*
X101000000Y58400000D03*
X92000000Y55400000D03*
X78400000Y15000000D03*
X1000000Y47400000D03*
X96000000Y68200000D03*
X101000000Y43400000D03*
X101000000Y38400000D03*
X54200000Y27600000D03*
X89000000Y27400000D03*
X72500000Y55900000D03*
X33000000Y52650000D03*
X1000000Y40400000D03*
X66000000Y68400000D03*
X24962500Y31850000D03*
X101000000Y33400000D03*
X86000000Y60900000D03*
X52000000Y2900000D03*
X61200000Y31200000D03*
X37500000Y55650000D03*
X69400000Y41200000D03*
X21000000Y66800000D03*
X30012500Y77740000D03*
X89000000Y55400000D03*
X53000000Y52900000D03*
X61600000Y44050000D03*
X1000000Y36400000D03*
X98500000Y10900000D03*
X86000000Y68400000D03*
X1000000Y18400000D03*
X68500000Y8400000D03*
X101000000Y28400000D03*
X72000000Y49400000D03*
X86000000Y27400000D03*
X2500000Y4400000D03*
X21200000Y46000000D03*
X1000000Y43900000D03*
X59200000Y55400000D03*
X25062500Y52290000D03*
X52800000Y24000000D03*
X33000000Y11800000D03*
X64200000Y64650000D03*
X72500000Y22900000D03*
X101000000Y18400000D03*
X61000000Y68400000D03*
X101000000Y63400000D03*
X65800000Y30850000D03*
X91000000Y68400000D03*
X29962500Y57090000D03*
X98500000Y65900000D03*
X81000000Y8400000D03*
X77500000Y55900000D03*
X21000000Y25400000D03*
X78000000Y42900000D03*
X58500000Y8400000D03*
X37750000Y76150000D03*
X59000000Y20400000D03*
X57500000Y34900000D03*
X62200000Y35400000D03*
X5000000Y1900000D03*
X92000000Y27400000D03*
X76000000Y8400000D03*
X92000000Y60900000D03*
X13500000Y900000D03*
X66600000Y64650000D03*
X1000000Y28400000D03*
X92000000Y21900000D03*
X89000000Y60900000D03*
X1000000Y58400000D03*
X29862500Y36650000D03*
X33000000Y73200000D03*
X75900000Y31650000D03*
X63500000Y8400000D03*
X91000000Y8400000D03*
X41000000Y900000D03*
X56000000Y73400000D03*
X1000000Y13400000D03*
X66400000Y39200000D03*
X101000000Y53400000D03*
X76000000Y68400000D03*
X73000000Y42400000D03*
X73000000Y35600000D03*
X33000000Y80000000D03*
X33138750Y39000000D03*
X32938750Y59400000D03*
X33138750Y18400000D03*
X30398750Y43360000D03*
X30400000Y64000000D03*
X30398750Y22960000D03*
X30398750Y2360000D03*
X69800000Y27800000D03*
X57800000Y65000000D03*
X29576103Y71803603D03*
X20862500Y69190000D03*
X25862500Y69190000D03*
X20862500Y76690000D03*
X25962500Y76690000D03*
X29362500Y69190000D03*
X20812500Y48540000D03*
X20812500Y56040000D03*
X29526103Y51153603D03*
X25812500Y48540000D03*
X25912500Y56040000D03*
X29312500Y48540000D03*
X20712500Y35600000D03*
X20712500Y28100000D03*
X29426103Y30713603D03*
X25712500Y28100000D03*
X25812500Y35600000D03*
X29212500Y28100000D03*
X29563603Y10213603D03*
X20850000Y7600000D03*
X20850000Y15100000D03*
X25850000Y7600000D03*
X25950000Y15100000D03*
X29350000Y7600000D03*
X25962500Y70390000D03*
X25976103Y75403603D03*
X24362500Y74190000D03*
X25600000Y65600000D03*
X30962500Y67790000D03*
X24562500Y71670000D03*
X25926103Y54753603D03*
X25912500Y49740000D03*
X25598750Y44960000D03*
X24312500Y53540000D03*
X30912500Y47140000D03*
X24512500Y51020000D03*
X25826103Y34313603D03*
X25812500Y29300000D03*
X25598750Y24560000D03*
X24212500Y33100000D03*
X24412500Y30580000D03*
X30796815Y26715685D03*
X25963603Y13813603D03*
X25950000Y8800000D03*
X24350000Y12600000D03*
X25598750Y3960000D03*
X24550000Y10080000D03*
X30950000Y6200000D03*
%TA.AperFunction,Conductor*%
G36*
X50716063Y82249499D02*
G01*
X50767513Y82249500D01*
X50775620Y82249236D01*
X50978777Y82235923D01*
X50994847Y82233807D01*
X51190539Y82194884D01*
X51206189Y82190691D01*
X51392817Y82127342D01*
X51395120Y82126560D01*
X51410105Y82120353D01*
X51589044Y82032113D01*
X51603087Y82024006D01*
X51603120Y82023984D01*
X51768981Y81913162D01*
X51781849Y81903288D01*
X51934693Y81769250D01*
X51940616Y81763702D01*
X56348191Y77356126D01*
X56363494Y77340823D01*
X56369042Y77334900D01*
X56503271Y77181838D01*
X56513145Y77168969D01*
X56623986Y77003079D01*
X56632096Y76989033D01*
X56720332Y76810103D01*
X56726539Y76795118D01*
X56790668Y76606195D01*
X56794866Y76590526D01*
X56833785Y76394852D01*
X56835902Y76378772D01*
X56849234Y76175328D01*
X56849499Y76167219D01*
X56849499Y76106077D01*
X56849500Y76106064D01*
X56849500Y71057819D01*
X56854159Y71019452D01*
X56883776Y70775536D01*
X56916668Y70642087D01*
X56951828Y70499435D01*
X57052663Y70233558D01*
X57112365Y70119807D01*
X57184810Y69981775D01*
X57184813Y69981771D01*
X57184814Y69981769D01*
X57346340Y69747756D01*
X57346345Y69747750D01*
X57534906Y69534909D01*
X57534908Y69534907D01*
X57747749Y69346346D01*
X57747755Y69346341D01*
X57872166Y69260467D01*
X57981775Y69184810D01*
X58139666Y69101943D01*
X58233557Y69052664D01*
X58499434Y68951829D01*
X58499438Y68951828D01*
X58499441Y68951827D01*
X58775536Y68883776D01*
X59011678Y68855103D01*
X59057819Y68849500D01*
X95516060Y68849500D01*
X95516063Y68849499D01*
X95567513Y68849500D01*
X95575620Y68849236D01*
X95778777Y68835923D01*
X95794847Y68833807D01*
X95990539Y68794884D01*
X96006189Y68790691D01*
X96192817Y68727342D01*
X96195120Y68726560D01*
X96210105Y68720353D01*
X96389044Y68632113D01*
X96403087Y68624006D01*
X96477702Y68574151D01*
X96568981Y68513162D01*
X96581849Y68503288D01*
X96734693Y68369250D01*
X96740616Y68363702D01*
X101148191Y63956126D01*
X101163494Y63940823D01*
X101169042Y63934900D01*
X101303271Y63781838D01*
X101313145Y63768969D01*
X101423986Y63603079D01*
X101432096Y63589033D01*
X101520332Y63410103D01*
X101526539Y63395118D01*
X101590668Y63206195D01*
X101594866Y63190526D01*
X101633785Y62994852D01*
X101635902Y62978772D01*
X101649234Y62775328D01*
X101649499Y62767219D01*
X101649499Y62706077D01*
X101649500Y62706064D01*
X101649500Y13491547D01*
X101649499Y13491529D01*
X101649499Y13432486D01*
X101649234Y13424378D01*
X101635922Y13221229D01*
X101633805Y13205148D01*
X101594885Y13009468D01*
X101590687Y12993800D01*
X101526559Y12804879D01*
X101520352Y12789893D01*
X101432110Y12610951D01*
X101424000Y12596905D01*
X101313164Y12431022D01*
X101303289Y12418153D01*
X101169261Y12265322D01*
X101163714Y12259399D01*
X96740822Y7836506D01*
X96734899Y7830958D01*
X96581837Y7696729D01*
X96568968Y7686855D01*
X96403078Y7576014D01*
X96389031Y7567904D01*
X96210102Y7479669D01*
X96195118Y7473462D01*
X96006191Y7409331D01*
X95990522Y7405133D01*
X95794850Y7366215D01*
X95778770Y7364098D01*
X95575326Y7350766D01*
X95567217Y7350501D01*
X95506075Y7350501D01*
X95506063Y7350500D01*
X58194670Y7350500D01*
X58194219Y7350483D01*
X58096435Y7350483D01*
X58096434Y7350483D01*
X58096431Y7350483D01*
X57834089Y7320928D01*
X57834087Y7320928D01*
X57834082Y7320927D01*
X57834072Y7320926D01*
X57576714Y7262188D01*
X57576699Y7262183D01*
X57327522Y7174997D01*
X57089660Y7060451D01*
X56866121Y6919996D01*
X56659705Y6755388D01*
X56566373Y6662056D01*
X56527122Y6622808D01*
X56527118Y6622802D01*
X50740822Y836506D01*
X50734899Y830958D01*
X50581837Y696729D01*
X50568968Y686855D01*
X50403078Y576014D01*
X50389031Y567904D01*
X50210102Y479669D01*
X50195118Y473462D01*
X50006191Y409331D01*
X49990522Y405133D01*
X49794850Y366215D01*
X49778770Y364098D01*
X49575326Y350766D01*
X49567217Y350501D01*
X49506075Y350501D01*
X49506063Y350500D01*
X6493936Y350500D01*
X6493924Y350501D01*
X6432485Y350501D01*
X6424377Y350766D01*
X6221228Y364078D01*
X6205147Y366195D01*
X6009467Y405115D01*
X5993799Y409313D01*
X5804878Y473441D01*
X5789892Y479648D01*
X5610950Y567890D01*
X5596904Y576000D01*
X5431021Y686836D01*
X5418152Y696710D01*
X5418130Y696729D01*
X5265304Y830752D01*
X5259381Y836300D01*
X3735681Y2360000D01*
X29493290Y2360000D01*
X29513076Y2171744D01*
X29513077Y2171741D01*
X29571568Y1991723D01*
X29571571Y1991716D01*
X29666217Y1827784D01*
X29792879Y1687112D01*
X29946015Y1575852D01*
X29946020Y1575849D01*
X30118942Y1498858D01*
X30118947Y1498856D01*
X30304104Y1459500D01*
X30304105Y1459500D01*
X30493394Y1459500D01*
X30493396Y1459500D01*
X30678553Y1498856D01*
X30851480Y1575849D01*
X31004621Y1687112D01*
X31131283Y1827784D01*
X31225929Y1991716D01*
X31284424Y2171744D01*
X31304210Y2360000D01*
X31284424Y2548256D01*
X31225929Y2728284D01*
X31131283Y2892216D01*
X31004621Y3032888D01*
X30967993Y3059500D01*
X30851484Y3144149D01*
X30851479Y3144152D01*
X30678557Y3221143D01*
X30678552Y3221145D01*
X30532751Y3252135D01*
X30493396Y3260500D01*
X30304104Y3260500D01*
X30271647Y3253602D01*
X30118947Y3221145D01*
X30118942Y3221143D01*
X29946020Y3144152D01*
X29946015Y3144149D01*
X29792879Y3032889D01*
X29666216Y2892215D01*
X29571571Y2728285D01*
X29571568Y2728278D01*
X29513628Y2549955D01*
X29513076Y2548256D01*
X29493290Y2360000D01*
X3735681Y2360000D01*
X2135682Y3960000D01*
X24693290Y3960000D01*
X24713076Y3771744D01*
X24713077Y3771741D01*
X24771568Y3591723D01*
X24771571Y3591716D01*
X24866217Y3427784D01*
X24970510Y3311955D01*
X24992879Y3287112D01*
X25146015Y3175852D01*
X25146020Y3175849D01*
X25318942Y3098858D01*
X25318947Y3098856D01*
X25504104Y3059500D01*
X25504105Y3059500D01*
X25693394Y3059500D01*
X25693396Y3059500D01*
X25878553Y3098856D01*
X26051480Y3175849D01*
X26204621Y3287112D01*
X26331283Y3427784D01*
X26401844Y3549999D01*
X33994532Y3549999D01*
X34014364Y3323314D01*
X34014366Y3323303D01*
X34073258Y3103512D01*
X34073261Y3103503D01*
X34169431Y2897268D01*
X34169432Y2897266D01*
X34299954Y2710859D01*
X34460858Y2549955D01*
X34507693Y2517161D01*
X34647266Y2419432D01*
X34853504Y2323261D01*
X35073308Y2264365D01*
X35235230Y2250199D01*
X35299998Y2244532D01*
X35300000Y2244532D01*
X35300002Y2244532D01*
X35356673Y2249491D01*
X35526692Y2264365D01*
X35746496Y2323261D01*
X35952734Y2419432D01*
X36139139Y2549953D01*
X36300047Y2710861D01*
X36430568Y2897266D01*
X36526739Y3103504D01*
X36585635Y3323308D01*
X36605468Y3549998D01*
X38995034Y3549998D01*
X39014858Y3323401D01*
X39014860Y3323390D01*
X39073730Y3103683D01*
X39073735Y3103669D01*
X39169863Y2897522D01*
X39220974Y2824528D01*
X39902046Y3505600D01*
X39914835Y3424852D01*
X39972359Y3311955D01*
X40061955Y3222359D01*
X40174852Y3164835D01*
X40255599Y3152047D01*
X39574526Y2470975D01*
X39647513Y2419868D01*
X39647521Y2419864D01*
X39853668Y2323736D01*
X39853682Y2323731D01*
X40073389Y2264861D01*
X40073400Y2264859D01*
X40299998Y2245034D01*
X40300002Y2245034D01*
X40526599Y2264859D01*
X40526610Y2264861D01*
X40746317Y2323731D01*
X40746331Y2323736D01*
X40952478Y2419864D01*
X41025471Y2470976D01*
X40344400Y3152047D01*
X40425148Y3164835D01*
X40538045Y3222359D01*
X40627641Y3311955D01*
X40685165Y3424852D01*
X40697953Y3505600D01*
X41379024Y2824529D01*
X41430136Y2897522D01*
X41526264Y3103669D01*
X41526269Y3103683D01*
X41585139Y3323390D01*
X41585141Y3323401D01*
X41604966Y3549998D01*
X41604966Y3550003D01*
X41585141Y3776600D01*
X41585139Y3776611D01*
X41526269Y3996318D01*
X41526264Y3996332D01*
X41430136Y4202479D01*
X41430132Y4202487D01*
X41379025Y4275474D01*
X40697953Y3594402D01*
X40685165Y3675148D01*
X40627641Y3788045D01*
X40538045Y3877641D01*
X40425148Y3935165D01*
X40344401Y3947954D01*
X41025472Y4629026D01*
X40952478Y4680137D01*
X40746331Y4776265D01*
X40746317Y4776270D01*
X40526610Y4835140D01*
X40526599Y4835142D01*
X40300002Y4854966D01*
X40299998Y4854966D01*
X40073400Y4835142D01*
X40073389Y4835140D01*
X39853682Y4776270D01*
X39853673Y4776266D01*
X39647516Y4680134D01*
X39647512Y4680132D01*
X39574526Y4629027D01*
X39574526Y4629026D01*
X40255599Y3947954D01*
X40174852Y3935165D01*
X40061955Y3877641D01*
X39972359Y3788045D01*
X39914835Y3675148D01*
X39902046Y3594402D01*
X39220974Y4275474D01*
X39220973Y4275474D01*
X39169868Y4202488D01*
X39169866Y4202484D01*
X39073734Y3996327D01*
X39073730Y3996318D01*
X39014860Y3776611D01*
X39014858Y3776600D01*
X38995034Y3550003D01*
X38995034Y3549998D01*
X36605468Y3549998D01*
X36605468Y3550000D01*
X36585635Y3776692D01*
X36526739Y3996496D01*
X36430568Y4202734D01*
X36300047Y4389139D01*
X36300045Y4389142D01*
X36139141Y4550046D01*
X35952734Y4680568D01*
X35952732Y4680569D01*
X35746497Y4776739D01*
X35746488Y4776742D01*
X35526697Y4835634D01*
X35526693Y4835635D01*
X35526692Y4835635D01*
X35526691Y4835636D01*
X35526686Y4835636D01*
X35300002Y4855468D01*
X35299998Y4855468D01*
X35073313Y4835636D01*
X35073302Y4835634D01*
X34853511Y4776742D01*
X34853502Y4776739D01*
X34647267Y4680569D01*
X34647265Y4680568D01*
X34460858Y4550046D01*
X34299954Y4389142D01*
X34169432Y4202735D01*
X34169431Y4202733D01*
X34073261Y3996498D01*
X34073258Y3996489D01*
X34014366Y3776698D01*
X34014364Y3776687D01*
X33994532Y3550002D01*
X33994532Y3549999D01*
X26401844Y3549999D01*
X26425929Y3591716D01*
X26484424Y3771744D01*
X26504210Y3960000D01*
X26484424Y4148256D01*
X26425929Y4328284D01*
X26331283Y4492216D01*
X26204621Y4632888D01*
X26204620Y4632889D01*
X26051484Y4744149D01*
X26051479Y4744152D01*
X25878557Y4821143D01*
X25878552Y4821145D01*
X25732751Y4852135D01*
X25693396Y4860500D01*
X25504104Y4860500D01*
X25471647Y4853602D01*
X25318947Y4821145D01*
X25318942Y4821143D01*
X25146020Y4744152D01*
X25146015Y4744149D01*
X24992879Y4632889D01*
X24866216Y4492215D01*
X24771571Y4328285D01*
X24771568Y4328278D01*
X24730694Y4202479D01*
X24713076Y4148256D01*
X24693290Y3960000D01*
X2135682Y3960000D01*
X836507Y5259175D01*
X830969Y5265087D01*
X696727Y5418164D01*
X686854Y5431032D01*
X576013Y5596922D01*
X567903Y5610968D01*
X539884Y5667786D01*
X479664Y5789904D01*
X473460Y5804883D01*
X464352Y5831716D01*
X409328Y5993816D01*
X405133Y6009475D01*
X367238Y6200000D01*
X30044540Y6200000D01*
X30064326Y6011744D01*
X30064327Y6011741D01*
X30122818Y5831723D01*
X30122821Y5831716D01*
X30217467Y5667784D01*
X30281272Y5596922D01*
X30344129Y5527112D01*
X30497265Y5415852D01*
X30497270Y5415849D01*
X30670192Y5338858D01*
X30670197Y5338856D01*
X30855354Y5299500D01*
X30855355Y5299500D01*
X31044644Y5299500D01*
X31044646Y5299500D01*
X31229803Y5338856D01*
X31402730Y5415849D01*
X31555871Y5527112D01*
X31682533Y5667784D01*
X31777179Y5831716D01*
X31835674Y6011744D01*
X31855460Y6200000D01*
X31835674Y6388256D01*
X31777179Y6568284D01*
X31682533Y6732216D01*
X31555871Y6872888D01*
X31491034Y6919995D01*
X31402734Y6984149D01*
X31402729Y6984152D01*
X31229807Y7061143D01*
X31229802Y7061145D01*
X31084001Y7092135D01*
X31044646Y7100500D01*
X30855354Y7100500D01*
X30822897Y7093602D01*
X30670197Y7061145D01*
X30670192Y7061143D01*
X30497270Y6984152D01*
X30497265Y6984149D01*
X30344129Y6872889D01*
X30217466Y6732215D01*
X30122821Y6568285D01*
X30122818Y6568278D01*
X30064327Y6388260D01*
X30064326Y6388256D01*
X30044540Y6200000D01*
X367238Y6200000D01*
X366212Y6205158D01*
X364098Y6221219D01*
X350764Y6424694D01*
X350500Y6432784D01*
X350501Y6483936D01*
X350500Y6483940D01*
X350500Y7600000D01*
X19944540Y7600000D01*
X19964326Y7411744D01*
X19964327Y7411741D01*
X20022818Y7231723D01*
X20022821Y7231716D01*
X20117467Y7067784D01*
X20123446Y7061144D01*
X20244129Y6927112D01*
X20397265Y6815852D01*
X20397270Y6815849D01*
X20570192Y6738858D01*
X20570197Y6738856D01*
X20755354Y6699500D01*
X20755355Y6699500D01*
X20944644Y6699500D01*
X20944646Y6699500D01*
X21129803Y6738856D01*
X21302730Y6815849D01*
X21455871Y6927112D01*
X21582533Y7067784D01*
X21677179Y7231716D01*
X21735674Y7411744D01*
X21755460Y7600000D01*
X21735674Y7788256D01*
X21677179Y7968284D01*
X21582533Y8132216D01*
X21455871Y8272888D01*
X21455870Y8272889D01*
X21302734Y8384149D01*
X21302729Y8384152D01*
X21129807Y8461143D01*
X21129802Y8461145D01*
X20984001Y8492135D01*
X20944646Y8500500D01*
X20755354Y8500500D01*
X20722897Y8493602D01*
X20570197Y8461145D01*
X20570192Y8461143D01*
X20397270Y8384152D01*
X20397265Y8384149D01*
X20244129Y8272889D01*
X20117466Y8132215D01*
X20022821Y7968285D01*
X20022818Y7968278D01*
X19964327Y7788260D01*
X19964326Y7788256D01*
X19944540Y7600000D01*
X350500Y7600000D01*
X350500Y14000000D01*
X1600000Y14000000D01*
X1600000Y9600000D01*
X4000000Y9600000D01*
X4000000Y10080000D01*
X23644540Y10080000D01*
X23664326Y9891744D01*
X23664327Y9891741D01*
X23722818Y9711723D01*
X23722821Y9711716D01*
X23817467Y9547784D01*
X23884903Y9472889D01*
X23944129Y9407112D01*
X24097265Y9295852D01*
X24097270Y9295849D01*
X24270192Y9218858D01*
X24270197Y9218856D01*
X24455354Y9179500D01*
X24455355Y9179500D01*
X24644644Y9179500D01*
X24644646Y9179500D01*
X24829803Y9218856D01*
X24937160Y9266656D01*
X25006408Y9275941D01*
X25069685Y9246313D01*
X25106899Y9187178D01*
X25106235Y9117312D01*
X25105526Y9115058D01*
X25064327Y8988260D01*
X25064326Y8988256D01*
X25044540Y8800000D01*
X25064326Y8611744D01*
X25064327Y8611741D01*
X25122818Y8431723D01*
X25122821Y8431716D01*
X25181042Y8330874D01*
X25197515Y8262973D01*
X25174662Y8196947D01*
X25165806Y8185903D01*
X25117466Y8132215D01*
X25022821Y7968285D01*
X25022818Y7968278D01*
X24964327Y7788260D01*
X24964326Y7788256D01*
X24944540Y7600000D01*
X24964326Y7411744D01*
X24964327Y7411741D01*
X25022818Y7231723D01*
X25022821Y7231716D01*
X25117467Y7067784D01*
X25123446Y7061144D01*
X25244129Y6927112D01*
X25397265Y6815852D01*
X25397270Y6815849D01*
X25570192Y6738858D01*
X25570197Y6738856D01*
X25755354Y6699500D01*
X25755355Y6699500D01*
X25944644Y6699500D01*
X25944646Y6699500D01*
X26129803Y6738856D01*
X26302730Y6815849D01*
X26455871Y6927112D01*
X26582533Y7067784D01*
X26677179Y7231716D01*
X26735674Y7411744D01*
X26755460Y7600000D01*
X28444540Y7600000D01*
X28464326Y7411744D01*
X28464327Y7411741D01*
X28522818Y7231723D01*
X28522821Y7231716D01*
X28617467Y7067784D01*
X28623446Y7061144D01*
X28744129Y6927112D01*
X28897265Y6815852D01*
X28897270Y6815849D01*
X29070192Y6738858D01*
X29070197Y6738856D01*
X29255354Y6699500D01*
X29255355Y6699500D01*
X29444644Y6699500D01*
X29444646Y6699500D01*
X29629803Y6738856D01*
X29802730Y6815849D01*
X29955871Y6927112D01*
X30082533Y7067784D01*
X30177179Y7231716D01*
X30235674Y7411744D01*
X30255460Y7600000D01*
X30235674Y7788256D01*
X30177179Y7968284D01*
X30082533Y8132216D01*
X29955871Y8272888D01*
X29955870Y8272889D01*
X29802734Y8384149D01*
X29802729Y8384152D01*
X29629807Y8461143D01*
X29629802Y8461145D01*
X29484001Y8492135D01*
X29444646Y8500500D01*
X29255354Y8500500D01*
X29222897Y8493602D01*
X29070197Y8461145D01*
X29070192Y8461143D01*
X28897270Y8384152D01*
X28897265Y8384149D01*
X28744129Y8272889D01*
X28617466Y8132215D01*
X28522821Y7968285D01*
X28522818Y7968278D01*
X28464327Y7788260D01*
X28464326Y7788256D01*
X28444540Y7600000D01*
X26755460Y7600000D01*
X26735674Y7788256D01*
X26677179Y7968284D01*
X26630289Y8049500D01*
X26618957Y8069128D01*
X26602484Y8137029D01*
X26625337Y8203056D01*
X26634180Y8214084D01*
X26682533Y8267784D01*
X26777179Y8431716D01*
X26800058Y8502130D01*
X54149500Y8502130D01*
X54149501Y8502124D01*
X54155908Y8442517D01*
X54206202Y8307672D01*
X54206206Y8307665D01*
X54292452Y8192456D01*
X54292455Y8192453D01*
X54407664Y8106207D01*
X54407671Y8106203D01*
X54542517Y8055909D01*
X54542516Y8055909D01*
X54549444Y8055165D01*
X54602127Y8049500D01*
X56697872Y8049501D01*
X56757483Y8055909D01*
X56892331Y8106204D01*
X57007546Y8192454D01*
X57093796Y8307669D01*
X57144091Y8442517D01*
X57150500Y8502127D01*
X57150500Y8502130D01*
X71749500Y8502130D01*
X71749501Y8502124D01*
X71755908Y8442517D01*
X71806202Y8307672D01*
X71806206Y8307665D01*
X71892452Y8192456D01*
X71892455Y8192453D01*
X72007664Y8106207D01*
X72007671Y8106203D01*
X72142517Y8055909D01*
X72142516Y8055909D01*
X72149444Y8055165D01*
X72202127Y8049500D01*
X74297872Y8049501D01*
X74357483Y8055909D01*
X74492331Y8106204D01*
X74607546Y8192454D01*
X74693796Y8307669D01*
X74744091Y8442517D01*
X74750500Y8502127D01*
X74750499Y10597872D01*
X74744091Y10657483D01*
X74711144Y10745818D01*
X74693797Y10792329D01*
X74693793Y10792336D01*
X74607547Y10907545D01*
X74607544Y10907548D01*
X74492335Y10993794D01*
X74492328Y10993798D01*
X74357482Y11044092D01*
X74357483Y11044092D01*
X74297883Y11050499D01*
X74297881Y11050500D01*
X74297873Y11050500D01*
X74297864Y11050500D01*
X72202129Y11050500D01*
X72202123Y11050499D01*
X72142516Y11044092D01*
X72007671Y10993798D01*
X72007664Y10993794D01*
X71892455Y10907548D01*
X71892452Y10907545D01*
X71806206Y10792336D01*
X71806202Y10792329D01*
X71755908Y10657483D01*
X71751042Y10612216D01*
X71749501Y10597877D01*
X71749500Y10597865D01*
X71749500Y8502130D01*
X57150500Y8502130D01*
X57150499Y10597872D01*
X57144091Y10657483D01*
X57111144Y10745818D01*
X57093797Y10792329D01*
X57093793Y10792336D01*
X57007547Y10907545D01*
X57007544Y10907548D01*
X56892335Y10993794D01*
X56892328Y10993798D01*
X56757482Y11044092D01*
X56757483Y11044092D01*
X56697883Y11050499D01*
X56697881Y11050500D01*
X56697873Y11050500D01*
X56697864Y11050500D01*
X54602129Y11050500D01*
X54602123Y11050499D01*
X54542516Y11044092D01*
X54407671Y10993798D01*
X54407664Y10993794D01*
X54292455Y10907548D01*
X54292452Y10907545D01*
X54206206Y10792336D01*
X54206202Y10792329D01*
X54155908Y10657483D01*
X54151042Y10612216D01*
X54149501Y10597877D01*
X54149500Y10597865D01*
X54149500Y8502130D01*
X26800058Y8502130D01*
X26835674Y8611744D01*
X26855460Y8800000D01*
X26835674Y8988256D01*
X26777179Y9168284D01*
X26682533Y9332216D01*
X26555871Y9472888D01*
X26555870Y9472889D01*
X26402734Y9584149D01*
X26402729Y9584152D01*
X26229807Y9661143D01*
X26229802Y9661145D01*
X26080759Y9692824D01*
X26044646Y9700500D01*
X25855354Y9700500D01*
X25819241Y9692824D01*
X25670199Y9661145D01*
X25562840Y9613345D01*
X25493590Y9604061D01*
X25430313Y9633689D01*
X25393100Y9692824D01*
X25393765Y9762691D01*
X25394445Y9764857D01*
X25435674Y9891744D01*
X25455460Y10080000D01*
X25441418Y10213603D01*
X28658143Y10213603D01*
X28677929Y10025347D01*
X28677930Y10025344D01*
X28736421Y9845326D01*
X28736424Y9845319D01*
X28831070Y9681387D01*
X28918621Y9584152D01*
X28957732Y9540715D01*
X29110868Y9429455D01*
X29110873Y9429452D01*
X29283795Y9352461D01*
X29283800Y9352459D01*
X29468957Y9313103D01*
X29468958Y9313103D01*
X29658247Y9313103D01*
X29658249Y9313103D01*
X29843406Y9352459D01*
X30016333Y9429452D01*
X30169474Y9540715D01*
X30296136Y9681387D01*
X30390782Y9845319D01*
X30449277Y10025347D01*
X30469063Y10213603D01*
X30449277Y10401859D01*
X30390782Y10581887D01*
X30296136Y10745819D01*
X30169474Y10886491D01*
X30140496Y10907545D01*
X30016337Y10997752D01*
X30016332Y10997755D01*
X29843410Y11074746D01*
X29843405Y11074748D01*
X29697604Y11105738D01*
X29658249Y11114103D01*
X29468957Y11114103D01*
X29436500Y11107205D01*
X29283800Y11074748D01*
X29283795Y11074746D01*
X29110873Y10997755D01*
X29110868Y10997752D01*
X28957732Y10886492D01*
X28831069Y10745818D01*
X28736424Y10581888D01*
X28736421Y10581881D01*
X28677930Y10401863D01*
X28677929Y10401859D01*
X28658143Y10213603D01*
X25441418Y10213603D01*
X25435674Y10268256D01*
X25377179Y10448284D01*
X25282533Y10612216D01*
X25155871Y10752888D01*
X25155870Y10752889D01*
X25002734Y10864149D01*
X25002729Y10864152D01*
X24829807Y10941143D01*
X24829802Y10941145D01*
X24684001Y10972135D01*
X24644646Y10980500D01*
X24455354Y10980500D01*
X24422897Y10973602D01*
X24270197Y10941145D01*
X24270192Y10941143D01*
X24097270Y10864152D01*
X24097265Y10864149D01*
X23944129Y10752889D01*
X23817466Y10612215D01*
X23722821Y10448285D01*
X23722818Y10448278D01*
X23674625Y10299953D01*
X23664326Y10268256D01*
X23644540Y10080000D01*
X4000000Y10080000D01*
X4000000Y11299999D01*
X43294532Y11299999D01*
X43314364Y11073314D01*
X43314366Y11073303D01*
X43373258Y10853512D01*
X43373261Y10853503D01*
X43469431Y10647268D01*
X43469432Y10647266D01*
X43599954Y10460859D01*
X43760858Y10299955D01*
X43760861Y10299953D01*
X43947266Y10169432D01*
X44153504Y10073261D01*
X44373308Y10014365D01*
X44535230Y10000199D01*
X44599998Y9994532D01*
X44600000Y9994532D01*
X44600002Y9994532D01*
X44656673Y9999491D01*
X44826692Y10014365D01*
X45046496Y10073261D01*
X45252734Y10169432D01*
X45439139Y10299953D01*
X45600047Y10460861D01*
X45730568Y10647266D01*
X45826739Y10853504D01*
X45885635Y11073308D01*
X45905468Y11300000D01*
X45885635Y11526692D01*
X45831931Y11727120D01*
X45826741Y11746489D01*
X45826738Y11746498D01*
X45794399Y11815849D01*
X45730568Y11952734D01*
X45600047Y12139139D01*
X45600045Y12139142D01*
X45439141Y12300046D01*
X45252734Y12430568D01*
X45252732Y12430569D01*
X45046497Y12526739D01*
X45046488Y12526742D01*
X44826697Y12585634D01*
X44826693Y12585635D01*
X44826692Y12585635D01*
X44826691Y12585636D01*
X44826686Y12585636D01*
X44600002Y12605468D01*
X44599998Y12605468D01*
X44373313Y12585636D01*
X44373302Y12585634D01*
X44153511Y12526742D01*
X44153502Y12526739D01*
X43947267Y12430569D01*
X43947265Y12430568D01*
X43760858Y12300046D01*
X43599954Y12139142D01*
X43469432Y11952735D01*
X43469431Y11952733D01*
X43373261Y11746498D01*
X43373258Y11746489D01*
X43314366Y11526698D01*
X43314364Y11526687D01*
X43294532Y11300002D01*
X43294532Y11299999D01*
X4000000Y11299999D01*
X4000000Y12600000D01*
X23444540Y12600000D01*
X23464326Y12411744D01*
X23464327Y12411741D01*
X23522818Y12231723D01*
X23522821Y12231716D01*
X23617467Y12067784D01*
X23721058Y11952735D01*
X23744129Y11927112D01*
X23897265Y11815852D01*
X23897270Y11815849D01*
X24070192Y11738858D01*
X24070197Y11738856D01*
X24255354Y11699500D01*
X24255355Y11699500D01*
X24444644Y11699500D01*
X24444646Y11699500D01*
X24629803Y11738856D01*
X24802730Y11815849D01*
X24955871Y11927112D01*
X25082533Y12067784D01*
X25177179Y12231716D01*
X25235674Y12411744D01*
X25255460Y12600000D01*
X25235674Y12788256D01*
X25177179Y12968284D01*
X25165812Y12987971D01*
X25149340Y13055870D01*
X25172193Y13121897D01*
X25227114Y13165088D01*
X25296667Y13171729D01*
X25352166Y13144113D01*
X25352474Y13144535D01*
X25354987Y13142710D01*
X25356175Y13142118D01*
X25357725Y13140723D01*
X25357732Y13140715D01*
X25383633Y13121897D01*
X25510868Y13029455D01*
X25510873Y13029452D01*
X25683795Y12952461D01*
X25683800Y12952459D01*
X25868957Y12913103D01*
X25868958Y12913103D01*
X26058247Y12913103D01*
X26058249Y12913103D01*
X26243406Y12952459D01*
X26416333Y13029452D01*
X26569474Y13140715D01*
X26696136Y13281387D01*
X26790782Y13445319D01*
X26849277Y13625347D01*
X26869063Y13813603D01*
X26849277Y14001859D01*
X26790782Y14181887D01*
X26696136Y14345819D01*
X26664112Y14381385D01*
X26633883Y14444375D01*
X26642508Y14513711D01*
X26664110Y14547324D01*
X26682533Y14567784D01*
X26777179Y14731716D01*
X26835674Y14911744D01*
X26855460Y15100000D01*
X26835674Y15288256D01*
X26777179Y15468284D01*
X26682533Y15632216D01*
X26555871Y15772888D01*
X26555870Y15772889D01*
X26402734Y15884149D01*
X26402729Y15884152D01*
X26229807Y15961143D01*
X26229802Y15961145D01*
X26084001Y15992135D01*
X26044646Y16000500D01*
X25855354Y16000500D01*
X25822897Y15993602D01*
X25670197Y15961145D01*
X25670192Y15961143D01*
X25497270Y15884152D01*
X25497265Y15884149D01*
X25344129Y15772889D01*
X25217466Y15632215D01*
X25122821Y15468285D01*
X25122818Y15468278D01*
X25078204Y15330969D01*
X25064326Y15288256D01*
X25044540Y15100000D01*
X25064326Y14911744D01*
X25064327Y14911741D01*
X25122818Y14731723D01*
X25122821Y14731716D01*
X25217467Y14567784D01*
X25249489Y14532220D01*
X25279719Y14469229D01*
X25271094Y14399893D01*
X25249490Y14366277D01*
X25231071Y14345821D01*
X25231067Y14345816D01*
X25136424Y14181888D01*
X25136421Y14181881D01*
X25077930Y14001863D01*
X25077929Y14001859D01*
X25058143Y13813603D01*
X25077929Y13625347D01*
X25077930Y13625344D01*
X25136421Y13445326D01*
X25136423Y13445321D01*
X25136424Y13445319D01*
X25146179Y13428422D01*
X25147790Y13425633D01*
X25164261Y13357732D01*
X25141408Y13291706D01*
X25086487Y13248516D01*
X25016933Y13241875D01*
X24961436Y13269492D01*
X24961129Y13269068D01*
X24958611Y13270898D01*
X24957428Y13271486D01*
X24955874Y13272884D01*
X24955871Y13272888D01*
X24904824Y13309976D01*
X24802734Y13384149D01*
X24802729Y13384152D01*
X24629807Y13461143D01*
X24629802Y13461145D01*
X24484001Y13492135D01*
X24444646Y13500500D01*
X24255354Y13500500D01*
X24222897Y13493602D01*
X24070197Y13461145D01*
X24070192Y13461143D01*
X23897270Y13384152D01*
X23897265Y13384149D01*
X23744129Y13272889D01*
X23617466Y13132215D01*
X23522821Y12968285D01*
X23522818Y12968278D01*
X23504891Y12913103D01*
X23464326Y12788256D01*
X23444540Y12600000D01*
X4000000Y12600000D01*
X4000000Y14000000D01*
X1600000Y14000000D01*
X350500Y14000000D01*
X350500Y15100000D01*
X19944540Y15100000D01*
X19964326Y14911744D01*
X19964327Y14911741D01*
X20022818Y14731723D01*
X20022821Y14731716D01*
X20117467Y14567784D01*
X20156136Y14524838D01*
X20244129Y14427112D01*
X20397265Y14315852D01*
X20397270Y14315849D01*
X20570192Y14238858D01*
X20570197Y14238856D01*
X20755354Y14199500D01*
X20755355Y14199500D01*
X20944644Y14199500D01*
X20944646Y14199500D01*
X21129803Y14238856D01*
X21302730Y14315849D01*
X21455871Y14427112D01*
X21582533Y14567784D01*
X21677179Y14731716D01*
X21735674Y14911744D01*
X21755460Y15100000D01*
X21735674Y15288256D01*
X21677179Y15468284D01*
X21582533Y15632216D01*
X21455871Y15772888D01*
X21455870Y15772889D01*
X21302734Y15884149D01*
X21302729Y15884152D01*
X21129807Y15961143D01*
X21129802Y15961145D01*
X20984001Y15992135D01*
X20944646Y16000500D01*
X20755354Y16000500D01*
X20722897Y15993602D01*
X20570197Y15961145D01*
X20570192Y15961143D01*
X20397270Y15884152D01*
X20397265Y15884149D01*
X20244129Y15772889D01*
X20117466Y15632215D01*
X20022821Y15468285D01*
X20022818Y15468278D01*
X19978204Y15330969D01*
X19964326Y15288256D01*
X19944540Y15100000D01*
X350500Y15100000D01*
X350500Y16299998D01*
X43295034Y16299998D01*
X43314858Y16073401D01*
X43314860Y16073390D01*
X43373730Y15853683D01*
X43373735Y15853669D01*
X43469863Y15647522D01*
X43520974Y15574528D01*
X44202046Y16255600D01*
X44214835Y16174852D01*
X44272359Y16061955D01*
X44361955Y15972359D01*
X44474852Y15914835D01*
X44555599Y15902047D01*
X43874526Y15220975D01*
X43947513Y15169868D01*
X43947521Y15169864D01*
X44153668Y15073736D01*
X44153682Y15073731D01*
X44373389Y15014861D01*
X44373400Y15014859D01*
X44599998Y14995034D01*
X44600002Y14995034D01*
X44826599Y15014859D01*
X44826610Y15014861D01*
X45046317Y15073731D01*
X45046331Y15073736D01*
X45252478Y15169864D01*
X45325471Y15220976D01*
X44644400Y15902047D01*
X44725148Y15914835D01*
X44838045Y15972359D01*
X44927641Y16061955D01*
X44985165Y16174852D01*
X44997953Y16255600D01*
X45679024Y15574529D01*
X45730136Y15647522D01*
X45777922Y15749999D01*
X54424838Y15749999D01*
X54443450Y15537259D01*
X54443452Y15537248D01*
X54498721Y15330978D01*
X54498723Y15330974D01*
X54498724Y15330970D01*
X54518640Y15288260D01*
X54588977Y15137422D01*
X54711472Y14962479D01*
X54862478Y14811473D01*
X54862481Y14811471D01*
X55037419Y14688979D01*
X55037421Y14688978D01*
X55037420Y14688978D01*
X55101936Y14658894D01*
X55230970Y14598724D01*
X55437253Y14543451D01*
X55565624Y14532220D01*
X55649998Y14524838D01*
X55650000Y14524838D01*
X55650002Y14524838D01*
X55703186Y14529492D01*
X55862747Y14543451D01*
X56069030Y14598724D01*
X56262581Y14688979D01*
X56437519Y14811471D01*
X56588529Y14962481D01*
X56711021Y15137419D01*
X56801276Y15330970D01*
X56856549Y15537253D01*
X56875162Y15749999D01*
X72024838Y15749999D01*
X72043450Y15537259D01*
X72043452Y15537248D01*
X72098721Y15330978D01*
X72098723Y15330974D01*
X72098724Y15330970D01*
X72118640Y15288260D01*
X72188977Y15137422D01*
X72311472Y14962479D01*
X72462478Y14811473D01*
X72462481Y14811471D01*
X72637419Y14688979D01*
X72637421Y14688978D01*
X72637420Y14688978D01*
X72701936Y14658894D01*
X72830970Y14598724D01*
X73037253Y14543451D01*
X73165624Y14532220D01*
X73249998Y14524838D01*
X73250000Y14524838D01*
X73250002Y14524838D01*
X73303186Y14529492D01*
X73462747Y14543451D01*
X73669030Y14598724D01*
X73862581Y14688979D01*
X74037519Y14811471D01*
X74188529Y14962481D01*
X74311021Y15137419D01*
X74401276Y15330970D01*
X74456549Y15537253D01*
X74475162Y15750000D01*
X74473159Y15772889D01*
X74463425Y15884152D01*
X74456549Y15962747D01*
X74401276Y16169030D01*
X74311021Y16362581D01*
X74188529Y16537519D01*
X74188527Y16537522D01*
X74037521Y16688528D01*
X73862578Y16811023D01*
X73862579Y16811023D01*
X73733547Y16871191D01*
X73669030Y16901276D01*
X73669023Y16901278D01*
X73663936Y16903130D01*
X73664709Y16905254D01*
X73613305Y16936576D01*
X73582766Y16999419D01*
X73591050Y17068796D01*
X73635528Y17122680D01*
X73664315Y17135828D01*
X73663936Y17136870D01*
X73669013Y17138720D01*
X73669030Y17138724D01*
X73862581Y17228979D01*
X74037519Y17351471D01*
X74188529Y17502481D01*
X74311021Y17677419D01*
X74401276Y17870970D01*
X74456549Y18077253D01*
X74475162Y18290000D01*
X74456549Y18502747D01*
X74414581Y18659373D01*
X74401278Y18709023D01*
X74401277Y18709024D01*
X74401276Y18709030D01*
X74311021Y18902581D01*
X74188529Y19077519D01*
X74188527Y19077522D01*
X74037521Y19228528D01*
X73862578Y19351023D01*
X73862579Y19351023D01*
X73733547Y19411191D01*
X73669030Y19441276D01*
X73669023Y19441278D01*
X73663936Y19443130D01*
X73664709Y19445254D01*
X73613305Y19476576D01*
X73582766Y19539419D01*
X73591050Y19608796D01*
X73600294Y19619995D01*
X84414556Y19619995D01*
X84434310Y19305996D01*
X84434311Y19305989D01*
X84493270Y18996917D01*
X84590497Y18697684D01*
X84590499Y18697679D01*
X84724461Y18412997D01*
X84724464Y18412991D01*
X84893051Y18147339D01*
X84893054Y18147335D01*
X85093606Y17904910D01*
X85093608Y17904908D01*
X85322968Y17689524D01*
X85322978Y17689516D01*
X85577504Y17504592D01*
X85577509Y17504590D01*
X85577516Y17504584D01*
X85853234Y17353006D01*
X85853239Y17353004D01*
X85853241Y17353003D01*
X85853242Y17353002D01*
X86145771Y17237182D01*
X86145774Y17237181D01*
X86450523Y17158935D01*
X86450527Y17158934D01*
X86516010Y17150662D01*
X86762670Y17119501D01*
X86762679Y17119501D01*
X86762682Y17119500D01*
X86762684Y17119500D01*
X87077316Y17119500D01*
X87077318Y17119500D01*
X87077321Y17119501D01*
X87077329Y17119501D01*
X87263593Y17143032D01*
X87389473Y17158934D01*
X87694225Y17237181D01*
X87694228Y17237182D01*
X87986757Y17353002D01*
X87986758Y17353003D01*
X87986756Y17353003D01*
X87986766Y17353006D01*
X88262484Y17504584D01*
X88517030Y17689522D01*
X88746390Y17904906D01*
X88946947Y18147337D01*
X89115537Y18412993D01*
X89249503Y18697685D01*
X89346731Y18996921D01*
X89405688Y19305985D01*
X89405689Y19305996D01*
X89425444Y19619995D01*
X89425444Y19620006D01*
X89405689Y19934005D01*
X89405688Y19934012D01*
X89405688Y19934015D01*
X89346731Y20243079D01*
X89249503Y20542315D01*
X89115537Y20827007D01*
X88946947Y21092663D01*
X88946945Y21092666D01*
X88746393Y21335091D01*
X88746391Y21335093D01*
X88517031Y21550477D01*
X88517021Y21550485D01*
X88262495Y21735409D01*
X88262488Y21735414D01*
X88262484Y21735416D01*
X87986766Y21886994D01*
X87986763Y21886996D01*
X87986758Y21886998D01*
X87986757Y21886999D01*
X87694228Y22002819D01*
X87694225Y22002820D01*
X87389476Y22081066D01*
X87389463Y22081068D01*
X87077329Y22120500D01*
X87077318Y22120500D01*
X86762682Y22120500D01*
X86762670Y22120500D01*
X86450536Y22081068D01*
X86450523Y22081066D01*
X86145774Y22002820D01*
X86145771Y22002819D01*
X85853242Y21886999D01*
X85853241Y21886998D01*
X85577516Y21735416D01*
X85577504Y21735409D01*
X85322978Y21550485D01*
X85322968Y21550477D01*
X85093608Y21335093D01*
X85093606Y21335091D01*
X84893054Y21092666D01*
X84893051Y21092662D01*
X84724464Y20827010D01*
X84724461Y20827004D01*
X84590499Y20542322D01*
X84590497Y20542317D01*
X84493270Y20243084D01*
X84434311Y19934012D01*
X84434310Y19934005D01*
X84414556Y19620006D01*
X84414556Y19619995D01*
X73600294Y19619995D01*
X73635528Y19662680D01*
X73664315Y19675828D01*
X73663936Y19676870D01*
X73669013Y19678720D01*
X73669030Y19678724D01*
X73862581Y19768979D01*
X74037519Y19891471D01*
X74188529Y20042481D01*
X74311021Y20217419D01*
X74401276Y20410970D01*
X74456549Y20617253D01*
X74475162Y20830000D01*
X74456549Y21042747D01*
X74401276Y21249030D01*
X74311021Y21442581D01*
X74188529Y21617519D01*
X74188527Y21617522D01*
X74037521Y21768528D01*
X73862578Y21891023D01*
X73862579Y21891023D01*
X73733547Y21951191D01*
X73669030Y21981276D01*
X73669026Y21981277D01*
X73669022Y21981279D01*
X73462752Y22036548D01*
X73462748Y22036549D01*
X73462747Y22036549D01*
X73462746Y22036550D01*
X73462741Y22036550D01*
X73250002Y22055162D01*
X73249998Y22055162D01*
X73037258Y22036550D01*
X73037247Y22036548D01*
X72830977Y21981279D01*
X72830968Y21981275D01*
X72637421Y21891023D01*
X72462478Y21768528D01*
X72311472Y21617522D01*
X72188977Y21442579D01*
X72098725Y21249032D01*
X72098721Y21249023D01*
X72043452Y21042753D01*
X72043450Y21042742D01*
X72024838Y20830002D01*
X72024838Y20829999D01*
X72043450Y20617259D01*
X72043452Y20617248D01*
X72098721Y20410978D01*
X72098723Y20410974D01*
X72098724Y20410970D01*
X72141171Y20319942D01*
X72188977Y20217422D01*
X72311472Y20042479D01*
X72462478Y19891473D01*
X72462481Y19891471D01*
X72637419Y19768979D01*
X72637421Y19768978D01*
X72637420Y19768978D01*
X72701936Y19738894D01*
X72830970Y19678724D01*
X72830983Y19678721D01*
X72836064Y19676870D01*
X72835292Y19674750D01*
X72886710Y19643406D01*
X72917237Y19580558D01*
X72908939Y19511183D01*
X72864452Y19457307D01*
X72835685Y19444170D01*
X72836064Y19443130D01*
X72830972Y19441277D01*
X72830970Y19441276D01*
X72830968Y19441275D01*
X72637421Y19351023D01*
X72462478Y19228528D01*
X72311472Y19077522D01*
X72188977Y18902579D01*
X72098725Y18709032D01*
X72098721Y18709023D01*
X72043452Y18502753D01*
X72043450Y18502742D01*
X72024838Y18290002D01*
X72024838Y18289999D01*
X72043450Y18077259D01*
X72043452Y18077248D01*
X72098721Y17870978D01*
X72098723Y17870974D01*
X72098724Y17870970D01*
X72100209Y17867786D01*
X72188977Y17677422D01*
X72311472Y17502479D01*
X72462478Y17351473D01*
X72462481Y17351471D01*
X72637419Y17228979D01*
X72637421Y17228978D01*
X72637420Y17228978D01*
X72701936Y17198894D01*
X72830970Y17138724D01*
X72830983Y17138721D01*
X72836064Y17136870D01*
X72835292Y17134750D01*
X72886710Y17103406D01*
X72917237Y17040558D01*
X72908939Y16971183D01*
X72864452Y16917307D01*
X72835685Y16904170D01*
X72836064Y16903130D01*
X72830972Y16901277D01*
X72830970Y16901276D01*
X72830968Y16901275D01*
X72637421Y16811023D01*
X72462478Y16688528D01*
X72311472Y16537522D01*
X72188977Y16362579D01*
X72098725Y16169032D01*
X72098721Y16169023D01*
X72043452Y15962753D01*
X72043450Y15962742D01*
X72024838Y15750002D01*
X72024838Y15749999D01*
X56875162Y15749999D01*
X56875162Y15750000D01*
X56873159Y15772889D01*
X56863425Y15884152D01*
X56856549Y15962747D01*
X56801276Y16169030D01*
X56711021Y16362581D01*
X56588529Y16537519D01*
X56588527Y16537522D01*
X56437521Y16688528D01*
X56262578Y16811023D01*
X56262579Y16811023D01*
X56133547Y16871191D01*
X56069030Y16901276D01*
X56069023Y16901278D01*
X56063936Y16903130D01*
X56064709Y16905254D01*
X56013305Y16936576D01*
X55982766Y16999419D01*
X55991050Y17068796D01*
X56035528Y17122680D01*
X56064315Y17135828D01*
X56063936Y17136870D01*
X56069013Y17138720D01*
X56069030Y17138724D01*
X56262581Y17228979D01*
X56437519Y17351471D01*
X56588529Y17502481D01*
X56711021Y17677419D01*
X56801276Y17870970D01*
X56856549Y18077253D01*
X56875162Y18290000D01*
X56856549Y18502747D01*
X56814581Y18659373D01*
X56801278Y18709023D01*
X56801277Y18709024D01*
X56801276Y18709030D01*
X56711021Y18902581D01*
X56588529Y19077519D01*
X56588527Y19077522D01*
X56437521Y19228528D01*
X56262578Y19351023D01*
X56262579Y19351023D01*
X56133547Y19411191D01*
X56069030Y19441276D01*
X56069023Y19441278D01*
X56063936Y19443130D01*
X56064709Y19445254D01*
X56013305Y19476576D01*
X55982766Y19539419D01*
X55991050Y19608796D01*
X56035528Y19662680D01*
X56064315Y19675828D01*
X56063936Y19676870D01*
X56069013Y19678720D01*
X56069030Y19678724D01*
X56262581Y19768979D01*
X56437519Y19891471D01*
X56588529Y20042481D01*
X56711021Y20217419D01*
X56801276Y20410970D01*
X56856549Y20617253D01*
X56875162Y20830000D01*
X56856549Y21042747D01*
X56801276Y21249030D01*
X56711021Y21442581D01*
X56588529Y21617519D01*
X56588527Y21617522D01*
X56437521Y21768528D01*
X56262578Y21891023D01*
X56262579Y21891023D01*
X56133547Y21951191D01*
X56069030Y21981276D01*
X56069026Y21981277D01*
X56069022Y21981279D01*
X55862752Y22036548D01*
X55862748Y22036549D01*
X55862747Y22036549D01*
X55862746Y22036550D01*
X55862741Y22036550D01*
X55650002Y22055162D01*
X55649998Y22055162D01*
X55437258Y22036550D01*
X55437247Y22036548D01*
X55230977Y21981279D01*
X55230968Y21981275D01*
X55037421Y21891023D01*
X54862478Y21768528D01*
X54711472Y21617522D01*
X54588977Y21442579D01*
X54498725Y21249032D01*
X54498721Y21249023D01*
X54443452Y21042753D01*
X54443450Y21042742D01*
X54424838Y20830002D01*
X54424838Y20829999D01*
X54443450Y20617259D01*
X54443452Y20617248D01*
X54498721Y20410978D01*
X54498723Y20410974D01*
X54498724Y20410970D01*
X54541171Y20319942D01*
X54588977Y20217422D01*
X54711472Y20042479D01*
X54862478Y19891473D01*
X54862481Y19891471D01*
X55037419Y19768979D01*
X55037421Y19768978D01*
X55037420Y19768978D01*
X55101936Y19738894D01*
X55230970Y19678724D01*
X55230983Y19678721D01*
X55236064Y19676870D01*
X55235292Y19674750D01*
X55286710Y19643406D01*
X55317237Y19580558D01*
X55308939Y19511183D01*
X55264452Y19457307D01*
X55235685Y19444170D01*
X55236064Y19443130D01*
X55230972Y19441277D01*
X55230970Y19441276D01*
X55230968Y19441275D01*
X55037421Y19351023D01*
X54862478Y19228528D01*
X54711472Y19077522D01*
X54588977Y18902579D01*
X54498725Y18709032D01*
X54498721Y18709023D01*
X54443452Y18502753D01*
X54443450Y18502742D01*
X54424838Y18290002D01*
X54424838Y18289999D01*
X54443450Y18077259D01*
X54443452Y18077248D01*
X54498721Y17870978D01*
X54498723Y17870974D01*
X54498724Y17870970D01*
X54500209Y17867786D01*
X54588977Y17677422D01*
X54711472Y17502479D01*
X54862478Y17351473D01*
X54862481Y17351471D01*
X55037419Y17228979D01*
X55037421Y17228978D01*
X55037420Y17228978D01*
X55101936Y17198894D01*
X55230970Y17138724D01*
X55230983Y17138721D01*
X55236064Y17136870D01*
X55235292Y17134750D01*
X55286710Y17103406D01*
X55317237Y17040558D01*
X55308939Y16971183D01*
X55264452Y16917307D01*
X55235685Y16904170D01*
X55236064Y16903130D01*
X55230972Y16901277D01*
X55230970Y16901276D01*
X55230968Y16901275D01*
X55037421Y16811023D01*
X54862478Y16688528D01*
X54711472Y16537522D01*
X54588977Y16362579D01*
X54498725Y16169032D01*
X54498721Y16169023D01*
X54443452Y15962753D01*
X54443450Y15962742D01*
X54424838Y15750002D01*
X54424838Y15749999D01*
X45777922Y15749999D01*
X45826264Y15853669D01*
X45826269Y15853683D01*
X45885139Y16073390D01*
X45885141Y16073401D01*
X45904966Y16299998D01*
X45904966Y16300003D01*
X45885141Y16526600D01*
X45885139Y16526611D01*
X45826269Y16746318D01*
X45826264Y16746332D01*
X45730136Y16952479D01*
X45730132Y16952487D01*
X45679025Y17025474D01*
X44997953Y16344402D01*
X44985165Y16425148D01*
X44927641Y16538045D01*
X44838045Y16627641D01*
X44725148Y16685165D01*
X44644401Y16697954D01*
X45325472Y17379026D01*
X45252478Y17430137D01*
X45046331Y17526265D01*
X45046317Y17526270D01*
X44826610Y17585140D01*
X44826599Y17585142D01*
X44600002Y17604966D01*
X44599998Y17604966D01*
X44373400Y17585142D01*
X44373389Y17585140D01*
X44153682Y17526270D01*
X44153673Y17526266D01*
X43947516Y17430134D01*
X43947512Y17430132D01*
X43874526Y17379027D01*
X43874526Y17379026D01*
X44555599Y16697954D01*
X44474852Y16685165D01*
X44361955Y16627641D01*
X44272359Y16538045D01*
X44214835Y16425148D01*
X44202046Y16344402D01*
X43520974Y17025474D01*
X43520973Y17025474D01*
X43469868Y16952488D01*
X43469866Y16952484D01*
X43373734Y16746327D01*
X43373730Y16746318D01*
X43314860Y16526611D01*
X43314858Y16526600D01*
X43295034Y16300003D01*
X43295034Y16299998D01*
X350500Y16299998D01*
X350500Y18400000D01*
X32233290Y18400000D01*
X32253076Y18211744D01*
X32253077Y18211741D01*
X32311568Y18031723D01*
X32311571Y18031716D01*
X32406217Y17867784D01*
X32532879Y17727112D01*
X32686015Y17615852D01*
X32686020Y17615849D01*
X32858942Y17538858D01*
X32858947Y17538856D01*
X33044104Y17499500D01*
X33044105Y17499500D01*
X33233394Y17499500D01*
X33233396Y17499500D01*
X33418553Y17538856D01*
X33591480Y17615849D01*
X33744621Y17727112D01*
X33871283Y17867784D01*
X33965929Y18031716D01*
X34024424Y18211744D01*
X34044210Y18400000D01*
X34024424Y18588256D01*
X33965929Y18768284D01*
X33871283Y18932216D01*
X33744621Y19072888D01*
X33738243Y19077522D01*
X33591484Y19184149D01*
X33591479Y19184152D01*
X33418557Y19261143D01*
X33418552Y19261145D01*
X33272751Y19292135D01*
X33233396Y19300500D01*
X33044104Y19300500D01*
X33011647Y19293602D01*
X32858947Y19261145D01*
X32858942Y19261143D01*
X32686020Y19184152D01*
X32686015Y19184149D01*
X32532879Y19072889D01*
X32406216Y18932215D01*
X32311571Y18768285D01*
X32311568Y18768278D01*
X32253077Y18588260D01*
X32253076Y18588256D01*
X32233290Y18400000D01*
X350500Y18400000D01*
X350500Y22960000D01*
X29493290Y22960000D01*
X29513076Y22771744D01*
X29513077Y22771741D01*
X29571568Y22591723D01*
X29571571Y22591716D01*
X29666217Y22427784D01*
X29792879Y22287112D01*
X29946015Y22175852D01*
X29946020Y22175849D01*
X30118942Y22098858D01*
X30118947Y22098856D01*
X30304104Y22059500D01*
X30304105Y22059500D01*
X30493394Y22059500D01*
X30493396Y22059500D01*
X30678553Y22098856D01*
X30851480Y22175849D01*
X31004621Y22287112D01*
X31131283Y22427784D01*
X31225929Y22591716D01*
X31284424Y22771744D01*
X31304210Y22960000D01*
X31284424Y23148256D01*
X31225929Y23328284D01*
X31131283Y23492216D01*
X31004621Y23632888D01*
X30976247Y23653503D01*
X30851484Y23744149D01*
X30851479Y23744152D01*
X30678557Y23821143D01*
X30678552Y23821145D01*
X30532751Y23852135D01*
X30493396Y23860500D01*
X30304104Y23860500D01*
X30271647Y23853602D01*
X30118947Y23821145D01*
X30118942Y23821143D01*
X29946020Y23744152D01*
X29946015Y23744149D01*
X29792879Y23632889D01*
X29666216Y23492215D01*
X29571571Y23328285D01*
X29571568Y23328278D01*
X29513077Y23148260D01*
X29513076Y23148256D01*
X29493290Y22960000D01*
X350500Y22960000D01*
X350500Y24560000D01*
X24693290Y24560000D01*
X24713076Y24371744D01*
X24713077Y24371741D01*
X24771568Y24191723D01*
X24771571Y24191716D01*
X24866217Y24027784D01*
X24992879Y23887112D01*
X25146015Y23775852D01*
X25146020Y23775849D01*
X25318942Y23698858D01*
X25318947Y23698856D01*
X25504104Y23659500D01*
X25504105Y23659500D01*
X25693394Y23659500D01*
X25693396Y23659500D01*
X25878553Y23698856D01*
X26051480Y23775849D01*
X26204621Y23887112D01*
X26331283Y24027784D01*
X26372976Y24099999D01*
X33957032Y24099999D01*
X33976864Y23873314D01*
X33976866Y23873303D01*
X34035758Y23653512D01*
X34035761Y23653503D01*
X34131931Y23447268D01*
X34131932Y23447266D01*
X34262454Y23260859D01*
X34423358Y23099955D01*
X34423361Y23099953D01*
X34609766Y22969432D01*
X34816004Y22873261D01*
X35035808Y22814365D01*
X35197730Y22800199D01*
X35262498Y22794532D01*
X35262500Y22794532D01*
X35262502Y22794532D01*
X35319173Y22799491D01*
X35489192Y22814365D01*
X35708996Y22873261D01*
X35915234Y22969432D01*
X36101639Y23099953D01*
X36262547Y23260861D01*
X36393068Y23447266D01*
X36489239Y23653504D01*
X36548135Y23873308D01*
X36567968Y24099998D01*
X38957534Y24099998D01*
X38977358Y23873401D01*
X38977360Y23873390D01*
X39036230Y23653683D01*
X39036235Y23653669D01*
X39132363Y23447522D01*
X39183474Y23374528D01*
X39864546Y24055600D01*
X39877335Y23974852D01*
X39934859Y23861955D01*
X40024455Y23772359D01*
X40137352Y23714835D01*
X40218099Y23702047D01*
X39537026Y23020975D01*
X39610013Y22969868D01*
X39610021Y22969864D01*
X39816168Y22873736D01*
X39816182Y22873731D01*
X40035889Y22814861D01*
X40035900Y22814859D01*
X40262498Y22795034D01*
X40262502Y22795034D01*
X40489099Y22814859D01*
X40489110Y22814861D01*
X40708817Y22873731D01*
X40708831Y22873736D01*
X40914978Y22969864D01*
X40987971Y23020976D01*
X40306900Y23702047D01*
X40387648Y23714835D01*
X40500545Y23772359D01*
X40590141Y23861955D01*
X40647665Y23974852D01*
X40660453Y24055600D01*
X41341524Y23374529D01*
X41392636Y23447522D01*
X41488764Y23653669D01*
X41488769Y23653683D01*
X41547639Y23873390D01*
X41547641Y23873401D01*
X41567466Y24099998D01*
X41567466Y24100003D01*
X41547641Y24326600D01*
X41547639Y24326611D01*
X41488769Y24546318D01*
X41488764Y24546332D01*
X41392636Y24752479D01*
X41392632Y24752487D01*
X41341525Y24825474D01*
X40660453Y24144402D01*
X40647665Y24225148D01*
X40590141Y24338045D01*
X40500545Y24427641D01*
X40387648Y24485165D01*
X40306901Y24497954D01*
X40658945Y24849999D01*
X53094532Y24849999D01*
X53114364Y24623314D01*
X53114366Y24623303D01*
X53173258Y24403512D01*
X53173261Y24403503D01*
X53269431Y24197268D01*
X53269432Y24197266D01*
X53399954Y24010859D01*
X53560858Y23849955D01*
X53560861Y23849953D01*
X53747266Y23719432D01*
X53953504Y23623261D01*
X53953509Y23623260D01*
X53953511Y23623259D01*
X54006415Y23609084D01*
X54173308Y23564365D01*
X54335230Y23550199D01*
X54399998Y23544532D01*
X54400000Y23544532D01*
X54400002Y23544532D01*
X54456673Y23549491D01*
X54626692Y23564365D01*
X54846496Y23623261D01*
X55052734Y23719432D01*
X55239139Y23849953D01*
X55400047Y24010861D01*
X55530568Y24197266D01*
X55549092Y24236990D01*
X90699500Y24236990D01*
X90699501Y24236971D01*
X90705687Y24158357D01*
X90735385Y24047522D01*
X90754680Y23975512D01*
X90757830Y23969330D01*
X90840614Y23806854D01*
X90865722Y23775849D01*
X90959743Y23659743D01*
X91066311Y23573446D01*
X91106853Y23540615D01*
X91190371Y23498062D01*
X91275512Y23454680D01*
X91458355Y23405688D01*
X91536979Y23399500D01*
X92463020Y23399501D01*
X92541645Y23405688D01*
X92724488Y23454680D01*
X92853008Y23520165D01*
X92893146Y23540615D01*
X92893147Y23540617D01*
X92893149Y23540617D01*
X93040257Y23659743D01*
X93159383Y23806851D01*
X93242171Y23969333D01*
X93290143Y24020126D01*
X93357963Y24036922D01*
X93424099Y24014385D01*
X93454228Y23984161D01*
X93460973Y23974528D01*
X93460974Y23974528D01*
X94095550Y24609104D01*
X94096327Y24598735D01*
X94145887Y24472459D01*
X94230465Y24366401D01*
X94342547Y24289984D01*
X94450299Y24256747D01*
X93814526Y23620975D01*
X93887513Y23569868D01*
X93887521Y23569864D01*
X94093668Y23473736D01*
X94093682Y23473731D01*
X94313389Y23414861D01*
X94313400Y23414859D01*
X94539998Y23395034D01*
X94540002Y23395034D01*
X94766599Y23414859D01*
X94766610Y23414861D01*
X94986317Y23473731D01*
X94986331Y23473736D01*
X95192478Y23569864D01*
X95265471Y23620976D01*
X94628231Y24258216D01*
X94674138Y24265135D01*
X94796357Y24323993D01*
X94895798Y24416260D01*
X94963625Y24533740D01*
X94981499Y24612054D01*
X95619024Y23974529D01*
X95670136Y24047522D01*
X95766264Y24253669D01*
X95766269Y24253683D01*
X95825139Y24473390D01*
X95825141Y24473401D01*
X95844966Y24699998D01*
X95844966Y24700003D01*
X95825141Y24926600D01*
X95825139Y24926611D01*
X95766269Y25146318D01*
X95766264Y25146332D01*
X95670136Y25352479D01*
X95670132Y25352487D01*
X95619025Y25425474D01*
X94984449Y24790899D01*
X94983673Y24801265D01*
X94934113Y24927541D01*
X94849535Y25033599D01*
X94737453Y25110016D01*
X94629700Y25143253D01*
X95265472Y25779026D01*
X95192478Y25830137D01*
X94986331Y25926265D01*
X94986317Y25926270D01*
X94766610Y25985140D01*
X94766599Y25985142D01*
X94540002Y26004966D01*
X94539998Y26004966D01*
X94313400Y25985142D01*
X94313389Y25985140D01*
X94093682Y25926270D01*
X94093673Y25926266D01*
X93887516Y25830134D01*
X93887512Y25830132D01*
X93814526Y25779027D01*
X93814526Y25779026D01*
X94451768Y25141785D01*
X94405862Y25134865D01*
X94283643Y25076007D01*
X94184202Y24983740D01*
X94116375Y24866260D01*
X94098500Y24787948D01*
X93460974Y25425474D01*
X93460973Y25425474D01*
X93454229Y25415841D01*
X93399652Y25372216D01*
X93330153Y25365024D01*
X93267799Y25396546D01*
X93242170Y25430669D01*
X93205451Y25502735D01*
X93159385Y25593147D01*
X93126554Y25633689D01*
X93040257Y25740257D01*
X92929271Y25830132D01*
X92893146Y25859386D01*
X92767868Y25923217D01*
X92724488Y25945320D01*
X92657562Y25963253D01*
X92541643Y25994313D01*
X92469736Y25999972D01*
X92463021Y26000500D01*
X92463020Y26000500D01*
X91536989Y26000500D01*
X91536970Y26000499D01*
X91458356Y25994313D01*
X91275512Y25945320D01*
X91106853Y25859386D01*
X90959743Y25740257D01*
X90840614Y25593147D01*
X90754680Y25424488D01*
X90705687Y25241644D01*
X90705687Y25241643D01*
X90699500Y25163027D01*
X90699500Y24236990D01*
X55549092Y24236990D01*
X55626739Y24403504D01*
X55685635Y24623308D01*
X55705468Y24850000D01*
X55704045Y24866260D01*
X55687659Y25053553D01*
X55685635Y25076692D01*
X55626739Y25296496D01*
X55530568Y25502734D01*
X55400047Y25689139D01*
X55400045Y25689142D01*
X55239141Y25850046D01*
X55052734Y25980568D01*
X55052732Y25980569D01*
X54846497Y26076739D01*
X54846488Y26076742D01*
X54626697Y26135634D01*
X54626693Y26135635D01*
X54626692Y26135635D01*
X54626691Y26135636D01*
X54626686Y26135636D01*
X54400002Y26155468D01*
X54399998Y26155468D01*
X54173313Y26135636D01*
X54173302Y26135634D01*
X53953511Y26076742D01*
X53953502Y26076739D01*
X53747267Y25980569D01*
X53747265Y25980568D01*
X53560858Y25850046D01*
X53399954Y25689142D01*
X53269432Y25502735D01*
X53269431Y25502733D01*
X53173261Y25296498D01*
X53173258Y25296489D01*
X53114366Y25076698D01*
X53114364Y25076687D01*
X53094532Y24850002D01*
X53094532Y24849999D01*
X40658945Y24849999D01*
X40987972Y25179026D01*
X40914978Y25230137D01*
X40708831Y25326265D01*
X40708817Y25326270D01*
X40489110Y25385140D01*
X40489099Y25385142D01*
X40262502Y25404966D01*
X40262498Y25404966D01*
X40035900Y25385142D01*
X40035889Y25385140D01*
X39816182Y25326270D01*
X39816173Y25326266D01*
X39610016Y25230134D01*
X39610012Y25230132D01*
X39537026Y25179027D01*
X39537026Y25179026D01*
X40218099Y24497954D01*
X40137352Y24485165D01*
X40024455Y24427641D01*
X39934859Y24338045D01*
X39877335Y24225148D01*
X39864546Y24144402D01*
X39183474Y24825474D01*
X39183473Y24825474D01*
X39132368Y24752488D01*
X39132366Y24752484D01*
X39036234Y24546327D01*
X39036230Y24546318D01*
X38977360Y24326611D01*
X38977358Y24326600D01*
X38957534Y24100003D01*
X38957534Y24099998D01*
X36567968Y24099998D01*
X36567968Y24100000D01*
X36548135Y24326692D01*
X36489239Y24546496D01*
X36393068Y24752734D01*
X36262547Y24939139D01*
X36262545Y24939142D01*
X36101641Y25100046D01*
X35915234Y25230568D01*
X35915232Y25230569D01*
X35708997Y25326739D01*
X35708988Y25326742D01*
X35489197Y25385634D01*
X35489193Y25385635D01*
X35489192Y25385635D01*
X35489191Y25385636D01*
X35489186Y25385636D01*
X35262502Y25405468D01*
X35262498Y25405468D01*
X35035813Y25385636D01*
X35035802Y25385634D01*
X34816011Y25326742D01*
X34816002Y25326739D01*
X34609767Y25230569D01*
X34609765Y25230568D01*
X34423358Y25100046D01*
X34262454Y24939142D01*
X34131932Y24752735D01*
X34131931Y24752733D01*
X34035761Y24546498D01*
X34035758Y24546489D01*
X33976866Y24326698D01*
X33976864Y24326687D01*
X33957032Y24100002D01*
X33957032Y24099999D01*
X26372976Y24099999D01*
X26425929Y24191716D01*
X26484424Y24371744D01*
X26504210Y24560000D01*
X26484424Y24748256D01*
X26425929Y24928284D01*
X26331283Y25092216D01*
X26204621Y25232888D01*
X26192571Y25241643D01*
X26051484Y25344149D01*
X26051479Y25344152D01*
X25878557Y25421143D01*
X25878552Y25421145D01*
X25732751Y25452135D01*
X25693396Y25460500D01*
X25504104Y25460500D01*
X25471647Y25453602D01*
X25318947Y25421145D01*
X25318942Y25421143D01*
X25146020Y25344152D01*
X25146015Y25344149D01*
X24992879Y25232889D01*
X24866216Y25092215D01*
X24771571Y24928285D01*
X24771568Y24928278D01*
X24714448Y24752479D01*
X24713076Y24748256D01*
X24693290Y24560000D01*
X350500Y24560000D01*
X350500Y26715685D01*
X29891355Y26715685D01*
X29911141Y26527429D01*
X29911142Y26527426D01*
X29969633Y26347408D01*
X29969636Y26347401D01*
X30064282Y26183469D01*
X30190944Y26042797D01*
X30344080Y25931537D01*
X30344085Y25931534D01*
X30517007Y25854543D01*
X30517012Y25854541D01*
X30702169Y25815185D01*
X30702170Y25815185D01*
X30891459Y25815185D01*
X30891461Y25815185D01*
X31076618Y25854541D01*
X31249545Y25931534D01*
X31402686Y26042797D01*
X31529348Y26183469D01*
X31623994Y26347401D01*
X31682489Y26527429D01*
X31702275Y26715685D01*
X31682489Y26903941D01*
X31623994Y27083969D01*
X31529348Y27247901D01*
X31402686Y27388573D01*
X31402685Y27388574D01*
X31249549Y27499834D01*
X31249544Y27499837D01*
X31076622Y27576828D01*
X31076617Y27576830D01*
X30930816Y27607820D01*
X30891461Y27616185D01*
X30702169Y27616185D01*
X30669712Y27609287D01*
X30517012Y27576830D01*
X30517007Y27576828D01*
X30344085Y27499837D01*
X30344080Y27499834D01*
X30190944Y27388574D01*
X30064281Y27247900D01*
X29969636Y27083970D01*
X29969633Y27083963D01*
X29911142Y26903945D01*
X29911141Y26903941D01*
X29891355Y26715685D01*
X350500Y26715685D01*
X350500Y28100000D01*
X19807040Y28100000D01*
X19826826Y27911744D01*
X19826827Y27911741D01*
X19885318Y27731723D01*
X19885321Y27731716D01*
X19979967Y27567784D01*
X20041147Y27499837D01*
X20106629Y27427112D01*
X20259765Y27315852D01*
X20259770Y27315849D01*
X20432692Y27238858D01*
X20432697Y27238856D01*
X20617854Y27199500D01*
X20617855Y27199500D01*
X20807144Y27199500D01*
X20807146Y27199500D01*
X20992303Y27238856D01*
X21165230Y27315849D01*
X21318371Y27427112D01*
X21445033Y27567784D01*
X21539679Y27731716D01*
X21598174Y27911744D01*
X21617960Y28100000D01*
X21598174Y28288256D01*
X21539679Y28468284D01*
X21445033Y28632216D01*
X21318371Y28772888D01*
X21318370Y28772889D01*
X21165234Y28884149D01*
X21165229Y28884152D01*
X20992307Y28961143D01*
X20992302Y28961145D01*
X20846501Y28992135D01*
X20807146Y29000500D01*
X20617854Y29000500D01*
X20585397Y28993602D01*
X20432697Y28961145D01*
X20432692Y28961143D01*
X20259770Y28884152D01*
X20259765Y28884149D01*
X20106629Y28772889D01*
X19979966Y28632215D01*
X19885321Y28468285D01*
X19885318Y28468278D01*
X19833025Y28307335D01*
X19826826Y28288256D01*
X19807040Y28100000D01*
X350500Y28100000D01*
X350500Y30580000D01*
X23507040Y30580000D01*
X23526826Y30391744D01*
X23526827Y30391741D01*
X23585318Y30211723D01*
X23585321Y30211716D01*
X23679967Y30047784D01*
X23747403Y29972889D01*
X23806629Y29907112D01*
X23959765Y29795852D01*
X23959770Y29795849D01*
X24132692Y29718858D01*
X24132697Y29718856D01*
X24317854Y29679500D01*
X24317855Y29679500D01*
X24507144Y29679500D01*
X24507146Y29679500D01*
X24692303Y29718856D01*
X24799660Y29766656D01*
X24868908Y29775941D01*
X24932185Y29746313D01*
X24969399Y29687178D01*
X24968735Y29617312D01*
X24968026Y29615058D01*
X24926827Y29488260D01*
X24926826Y29488256D01*
X24907040Y29300000D01*
X24926826Y29111744D01*
X24926827Y29111741D01*
X24985318Y28931723D01*
X24985321Y28931716D01*
X25043542Y28830874D01*
X25060015Y28762973D01*
X25037162Y28696947D01*
X25028306Y28685903D01*
X24979966Y28632215D01*
X24885321Y28468285D01*
X24885318Y28468278D01*
X24833025Y28307335D01*
X24826826Y28288256D01*
X24807040Y28100000D01*
X24826826Y27911744D01*
X24826827Y27911741D01*
X24885318Y27731723D01*
X24885321Y27731716D01*
X24979967Y27567784D01*
X25041147Y27499837D01*
X25106629Y27427112D01*
X25259765Y27315852D01*
X25259770Y27315849D01*
X25432692Y27238858D01*
X25432697Y27238856D01*
X25617854Y27199500D01*
X25617855Y27199500D01*
X25807144Y27199500D01*
X25807146Y27199500D01*
X25992303Y27238856D01*
X26165230Y27315849D01*
X26318371Y27427112D01*
X26445033Y27567784D01*
X26539679Y27731716D01*
X26598174Y27911744D01*
X26617960Y28100000D01*
X28307040Y28100000D01*
X28326826Y27911744D01*
X28326827Y27911741D01*
X28385318Y27731723D01*
X28385321Y27731716D01*
X28479967Y27567784D01*
X28541147Y27499837D01*
X28606629Y27427112D01*
X28759765Y27315852D01*
X28759770Y27315849D01*
X28932692Y27238858D01*
X28932697Y27238856D01*
X29117854Y27199500D01*
X29117855Y27199500D01*
X29307144Y27199500D01*
X29307146Y27199500D01*
X29492303Y27238856D01*
X29665230Y27315849D01*
X29818371Y27427112D01*
X29945033Y27567784D01*
X30039679Y27731716D01*
X30061866Y27800000D01*
X68894540Y27800000D01*
X68914326Y27611744D01*
X68914327Y27611741D01*
X68972818Y27431723D01*
X68972821Y27431716D01*
X69067467Y27267784D01*
X69194129Y27127112D01*
X69347265Y27015852D01*
X69347270Y27015849D01*
X69520192Y26938858D01*
X69520197Y26938856D01*
X69705354Y26899500D01*
X69705355Y26899500D01*
X69894644Y26899500D01*
X69894646Y26899500D01*
X70079803Y26938856D01*
X70252730Y27015849D01*
X70405871Y27127112D01*
X70532533Y27267784D01*
X70627179Y27431716D01*
X70685674Y27611744D01*
X70705460Y27800000D01*
X70685674Y27988256D01*
X70627179Y28168284D01*
X70532533Y28332216D01*
X70405871Y28472888D01*
X70405870Y28472889D01*
X70252734Y28584149D01*
X70252729Y28584152D01*
X70079807Y28661143D01*
X70079802Y28661145D01*
X69934001Y28692135D01*
X69894646Y28700500D01*
X69705354Y28700500D01*
X69672897Y28693602D01*
X69520197Y28661145D01*
X69520192Y28661143D01*
X69347270Y28584152D01*
X69347265Y28584149D01*
X69194129Y28472889D01*
X69067466Y28332215D01*
X68972821Y28168285D01*
X68972818Y28168278D01*
X68939231Y28064906D01*
X68914326Y27988256D01*
X68894540Y27800000D01*
X30061866Y27800000D01*
X30098174Y27911744D01*
X30117960Y28100000D01*
X30098174Y28288256D01*
X30039679Y28468284D01*
X29945033Y28632216D01*
X29818371Y28772888D01*
X29818370Y28772889D01*
X29665234Y28884149D01*
X29665229Y28884152D01*
X29492307Y28961143D01*
X29492302Y28961145D01*
X29346501Y28992135D01*
X29307146Y29000500D01*
X29117854Y29000500D01*
X29085397Y28993602D01*
X28932697Y28961145D01*
X28932692Y28961143D01*
X28759770Y28884152D01*
X28759765Y28884149D01*
X28606629Y28772889D01*
X28479966Y28632215D01*
X28385321Y28468285D01*
X28385318Y28468278D01*
X28333025Y28307335D01*
X28326826Y28288256D01*
X28307040Y28100000D01*
X26617960Y28100000D01*
X26598174Y28288256D01*
X26539679Y28468284D01*
X26481457Y28569128D01*
X26464984Y28637029D01*
X26487837Y28703056D01*
X26496680Y28714084D01*
X26545033Y28767784D01*
X26639679Y28931716D01*
X26698174Y29111744D01*
X26717960Y29300000D01*
X26698174Y29488256D01*
X26639679Y29668284D01*
X26545033Y29832216D01*
X26418371Y29972888D01*
X26418370Y29972889D01*
X26265234Y30084149D01*
X26265229Y30084152D01*
X26092307Y30161143D01*
X26092302Y30161145D01*
X25943259Y30192824D01*
X25907146Y30200500D01*
X25717854Y30200500D01*
X25681741Y30192824D01*
X25532699Y30161145D01*
X25425340Y30113345D01*
X25356090Y30104061D01*
X25292813Y30133689D01*
X25255600Y30192824D01*
X25256265Y30262691D01*
X25256945Y30264857D01*
X25298174Y30391744D01*
X25317960Y30580000D01*
X25303918Y30713603D01*
X28520643Y30713603D01*
X28540429Y30525347D01*
X28540430Y30525344D01*
X28598921Y30345326D01*
X28598924Y30345319D01*
X28693570Y30181387D01*
X28781121Y30084152D01*
X28820232Y30040715D01*
X28973368Y29929455D01*
X28973373Y29929452D01*
X29146295Y29852461D01*
X29146300Y29852459D01*
X29331457Y29813103D01*
X29331458Y29813103D01*
X29520747Y29813103D01*
X29520749Y29813103D01*
X29694333Y29849999D01*
X53094532Y29849999D01*
X53114364Y29623314D01*
X53114366Y29623303D01*
X53173258Y29403512D01*
X53173261Y29403503D01*
X53269431Y29197268D01*
X53269432Y29197266D01*
X53399954Y29010859D01*
X53560858Y28849955D01*
X53560861Y28849953D01*
X53747266Y28719432D01*
X53953504Y28623261D01*
X54173308Y28564365D01*
X54335230Y28550199D01*
X54399998Y28544532D01*
X54400000Y28544532D01*
X54400002Y28544532D01*
X54456673Y28549491D01*
X54626692Y28564365D01*
X54846496Y28623261D01*
X55052734Y28719432D01*
X55239139Y28849953D01*
X55400047Y29010861D01*
X55530568Y29197266D01*
X55626739Y29403504D01*
X55685635Y29623308D01*
X55699343Y29779995D01*
X94574556Y29779995D01*
X94594310Y29465996D01*
X94594311Y29465989D01*
X94594312Y29465985D01*
X94645572Y29197268D01*
X94653270Y29156917D01*
X94750497Y28857684D01*
X94750499Y28857679D01*
X94884461Y28572997D01*
X94884464Y28572991D01*
X95053051Y28307339D01*
X95053054Y28307335D01*
X95253606Y28064910D01*
X95253608Y28064908D01*
X95253610Y28064906D01*
X95416711Y27911744D01*
X95482968Y27849524D01*
X95482978Y27849516D01*
X95737504Y27664592D01*
X95737509Y27664590D01*
X95737516Y27664584D01*
X96013234Y27513006D01*
X96013239Y27513004D01*
X96013241Y27513003D01*
X96013242Y27513002D01*
X96305771Y27397182D01*
X96305774Y27397181D01*
X96610523Y27318935D01*
X96610527Y27318934D01*
X96634924Y27315852D01*
X96922670Y27279501D01*
X96922679Y27279501D01*
X96922682Y27279500D01*
X96922684Y27279500D01*
X97237316Y27279500D01*
X97237318Y27279500D01*
X97237321Y27279501D01*
X97237329Y27279501D01*
X97423593Y27303032D01*
X97549473Y27318934D01*
X97854225Y27397181D01*
X97854228Y27397182D01*
X98146757Y27513002D01*
X98146758Y27513003D01*
X98146756Y27513003D01*
X98146766Y27513006D01*
X98422484Y27664584D01*
X98677030Y27849522D01*
X98906390Y28064906D01*
X99106947Y28307337D01*
X99275537Y28572993D01*
X99409503Y28857685D01*
X99506731Y29156921D01*
X99565688Y29465985D01*
X99567089Y29488256D01*
X99585444Y29779995D01*
X99585444Y29780006D01*
X99565689Y30094005D01*
X99565688Y30094012D01*
X99565688Y30094015D01*
X99506731Y30403079D01*
X99409503Y30702315D01*
X99404191Y30713603D01*
X99339986Y30850046D01*
X99275537Y30987007D01*
X99240414Y31042352D01*
X99106948Y31252662D01*
X99106945Y31252666D01*
X98906393Y31495091D01*
X98906391Y31495093D01*
X98903560Y31497752D01*
X98677030Y31710478D01*
X98677027Y31710480D01*
X98677021Y31710485D01*
X98422495Y31895409D01*
X98422488Y31895414D01*
X98422484Y31895416D01*
X98146766Y32046994D01*
X98146763Y32046996D01*
X98146758Y32046998D01*
X98146757Y32046999D01*
X97854228Y32162819D01*
X97854225Y32162820D01*
X97549476Y32241066D01*
X97549463Y32241068D01*
X97237329Y32280500D01*
X97237318Y32280500D01*
X96922682Y32280500D01*
X96922670Y32280500D01*
X96610536Y32241068D01*
X96610523Y32241066D01*
X96305774Y32162820D01*
X96305771Y32162819D01*
X96013242Y32046999D01*
X96013241Y32046998D01*
X95737516Y31895416D01*
X95737504Y31895409D01*
X95482978Y31710485D01*
X95482968Y31710477D01*
X95253608Y31495093D01*
X95253606Y31495091D01*
X95053054Y31252666D01*
X95053051Y31252662D01*
X94884464Y30987010D01*
X94884461Y30987004D01*
X94750499Y30702322D01*
X94750497Y30702317D01*
X94653270Y30403084D01*
X94594311Y30094012D01*
X94594310Y30094005D01*
X94574556Y29780006D01*
X94574556Y29779995D01*
X55699343Y29779995D01*
X55705468Y29850000D01*
X55685635Y30076692D01*
X55626739Y30296496D01*
X55530568Y30502734D01*
X55400047Y30689139D01*
X55400045Y30689142D01*
X55239141Y30850046D01*
X55052734Y30980568D01*
X55052732Y30980569D01*
X54846497Y31076739D01*
X54846488Y31076742D01*
X54626697Y31135634D01*
X54626693Y31135635D01*
X54626692Y31135635D01*
X54626691Y31135636D01*
X54626686Y31135636D01*
X54400002Y31155468D01*
X54399998Y31155468D01*
X54173313Y31135636D01*
X54173302Y31135634D01*
X53953511Y31076742D01*
X53953502Y31076739D01*
X53747267Y30980569D01*
X53747265Y30980568D01*
X53560858Y30850046D01*
X53399954Y30689142D01*
X53269432Y30502735D01*
X53269431Y30502733D01*
X53173261Y30296498D01*
X53173258Y30296489D01*
X53114366Y30076698D01*
X53114364Y30076687D01*
X53094532Y29850002D01*
X53094532Y29849999D01*
X29694333Y29849999D01*
X29705906Y29852459D01*
X29878833Y29929452D01*
X30031974Y30040715D01*
X30158636Y30181387D01*
X30253282Y30345319D01*
X30311777Y30525347D01*
X30331563Y30713603D01*
X30311777Y30901859D01*
X30253282Y31081887D01*
X30158636Y31245819D01*
X30031974Y31386491D01*
X29956752Y31441143D01*
X29878837Y31497752D01*
X29878832Y31497755D01*
X29705910Y31574746D01*
X29705905Y31574748D01*
X29560104Y31605738D01*
X29520749Y31614103D01*
X29331457Y31614103D01*
X29299000Y31607205D01*
X29146300Y31574748D01*
X29146295Y31574746D01*
X28973373Y31497755D01*
X28973368Y31497752D01*
X28820232Y31386492D01*
X28693569Y31245818D01*
X28598924Y31081888D01*
X28598921Y31081881D01*
X28540430Y30901863D01*
X28540429Y30901859D01*
X28520643Y30713603D01*
X25303918Y30713603D01*
X25298174Y30768256D01*
X25239679Y30948284D01*
X25145033Y31112216D01*
X25018371Y31252888D01*
X25018370Y31252889D01*
X24865234Y31364149D01*
X24865229Y31364152D01*
X24692307Y31441143D01*
X24692302Y31441145D01*
X24546501Y31472135D01*
X24507146Y31480500D01*
X24317854Y31480500D01*
X24285397Y31473602D01*
X24132697Y31441145D01*
X24132692Y31441143D01*
X23959770Y31364152D01*
X23959765Y31364149D01*
X23806629Y31252889D01*
X23679966Y31112215D01*
X23585321Y30948285D01*
X23585318Y30948278D01*
X23526827Y30768260D01*
X23526826Y30768256D01*
X23507040Y30580000D01*
X350500Y30580000D01*
X350500Y31849999D01*
X43257032Y31849999D01*
X43276864Y31623314D01*
X43276866Y31623303D01*
X43335758Y31403512D01*
X43335761Y31403503D01*
X43431931Y31197268D01*
X43431932Y31197266D01*
X43562454Y31010859D01*
X43723358Y30849955D01*
X43723361Y30849953D01*
X43909766Y30719432D01*
X44116004Y30623261D01*
X44335808Y30564365D01*
X44497730Y30550199D01*
X44562498Y30544532D01*
X44562500Y30544532D01*
X44562502Y30544532D01*
X44619173Y30549491D01*
X44789192Y30564365D01*
X45008996Y30623261D01*
X45215234Y30719432D01*
X45401639Y30849953D01*
X45562547Y31010861D01*
X45693068Y31197266D01*
X45789239Y31403504D01*
X45848135Y31623308D01*
X45867968Y31850000D01*
X45848135Y32076692D01*
X45789239Y32296496D01*
X45693068Y32502734D01*
X45562547Y32689139D01*
X45562545Y32689142D01*
X45501688Y32749999D01*
X53094532Y32749999D01*
X53114364Y32523314D01*
X53114366Y32523303D01*
X53173258Y32303512D01*
X53173261Y32303503D01*
X53269431Y32097268D01*
X53269432Y32097266D01*
X53399954Y31910859D01*
X53560858Y31749955D01*
X53560861Y31749953D01*
X53747266Y31619432D01*
X53953504Y31523261D01*
X54173308Y31464365D01*
X54335230Y31450199D01*
X54399998Y31444532D01*
X54400000Y31444532D01*
X54400002Y31444532D01*
X54456673Y31449491D01*
X54626692Y31464365D01*
X54846496Y31523261D01*
X55052734Y31619432D01*
X55239139Y31749953D01*
X55400047Y31910861D01*
X55530568Y32097266D01*
X55626739Y32303504D01*
X55685635Y32523308D01*
X55705468Y32750000D01*
X55685635Y32976692D01*
X55626739Y33196496D01*
X55530568Y33402734D01*
X55400047Y33589139D01*
X55400045Y33589142D01*
X55239141Y33750046D01*
X55052734Y33880568D01*
X55052732Y33880569D01*
X54846497Y33976739D01*
X54846488Y33976742D01*
X54626697Y34035634D01*
X54626693Y34035635D01*
X54626692Y34035635D01*
X54626691Y34035636D01*
X54626686Y34035636D01*
X54400002Y34055468D01*
X54399998Y34055468D01*
X54173313Y34035636D01*
X54173302Y34035634D01*
X53953511Y33976742D01*
X53953502Y33976739D01*
X53747267Y33880569D01*
X53747265Y33880568D01*
X53560858Y33750046D01*
X53399954Y33589142D01*
X53269432Y33402735D01*
X53269431Y33402733D01*
X53173261Y33196498D01*
X53173258Y33196489D01*
X53114366Y32976698D01*
X53114364Y32976687D01*
X53094532Y32750002D01*
X53094532Y32749999D01*
X45501688Y32749999D01*
X45401641Y32850046D01*
X45215234Y32980568D01*
X45215232Y32980569D01*
X45008997Y33076739D01*
X45008988Y33076742D01*
X44789197Y33135634D01*
X44789193Y33135635D01*
X44789192Y33135635D01*
X44789191Y33135636D01*
X44789186Y33135636D01*
X44562502Y33155468D01*
X44562498Y33155468D01*
X44335813Y33135636D01*
X44335802Y33135634D01*
X44116011Y33076742D01*
X44116002Y33076739D01*
X43909767Y32980569D01*
X43909765Y32980568D01*
X43723358Y32850046D01*
X43562454Y32689142D01*
X43431932Y32502735D01*
X43431931Y32502733D01*
X43335761Y32296498D01*
X43335758Y32296489D01*
X43276866Y32076698D01*
X43276864Y32076687D01*
X43257032Y31850002D01*
X43257032Y31849999D01*
X350500Y31849999D01*
X350500Y33095737D01*
X351752Y33100000D01*
X23307040Y33100000D01*
X23326826Y32911744D01*
X23326827Y32911741D01*
X23385318Y32731723D01*
X23385321Y32731716D01*
X23479967Y32567784D01*
X23606629Y32427112D01*
X23759765Y32315852D01*
X23759770Y32315849D01*
X23932692Y32238858D01*
X23932697Y32238856D01*
X24117854Y32199500D01*
X24117855Y32199500D01*
X24307144Y32199500D01*
X24307146Y32199500D01*
X24492303Y32238856D01*
X24665230Y32315849D01*
X24818371Y32427112D01*
X24945033Y32567784D01*
X25039679Y32731716D01*
X25098174Y32911744D01*
X25117960Y33100000D01*
X25098174Y33288256D01*
X25039679Y33468284D01*
X25028312Y33487971D01*
X25011840Y33555870D01*
X25034693Y33621897D01*
X25089614Y33665088D01*
X25159167Y33671729D01*
X25214666Y33644113D01*
X25214974Y33644535D01*
X25217487Y33642710D01*
X25218675Y33642118D01*
X25220225Y33640723D01*
X25220232Y33640715D01*
X25246133Y33621897D01*
X25373368Y33529455D01*
X25373373Y33529452D01*
X25546295Y33452461D01*
X25546300Y33452459D01*
X25731457Y33413103D01*
X25731458Y33413103D01*
X25920747Y33413103D01*
X25920749Y33413103D01*
X26105906Y33452459D01*
X26278833Y33529452D01*
X26431974Y33640715D01*
X26558636Y33781387D01*
X26653282Y33945319D01*
X26711777Y34125347D01*
X26731563Y34313603D01*
X26711777Y34501859D01*
X26653282Y34681887D01*
X26558636Y34845819D01*
X26526612Y34881385D01*
X26496383Y34944375D01*
X26505008Y35013711D01*
X26526610Y35047324D01*
X26545033Y35067784D01*
X26639679Y35231716D01*
X26698174Y35411744D01*
X26717960Y35600000D01*
X26698174Y35788256D01*
X26639679Y35968284D01*
X26545033Y36132216D01*
X26418371Y36272888D01*
X26418370Y36272889D01*
X26265234Y36384149D01*
X26265229Y36384152D01*
X26092307Y36461143D01*
X26092302Y36461145D01*
X25926214Y36496447D01*
X25907146Y36500500D01*
X25717854Y36500500D01*
X25698786Y36496447D01*
X25532697Y36461145D01*
X25532692Y36461143D01*
X25359770Y36384152D01*
X25359765Y36384149D01*
X25206629Y36272889D01*
X25079966Y36132215D01*
X24985321Y35968285D01*
X24985318Y35968278D01*
X24926827Y35788260D01*
X24926826Y35788256D01*
X24907040Y35600000D01*
X24926826Y35411744D01*
X24926827Y35411741D01*
X24985318Y35231723D01*
X24985321Y35231716D01*
X25079967Y35067784D01*
X25084283Y35062991D01*
X25111989Y35032220D01*
X25142219Y34969229D01*
X25133594Y34899893D01*
X25111990Y34866277D01*
X25093571Y34845821D01*
X25093567Y34845816D01*
X24998924Y34681888D01*
X24998921Y34681881D01*
X24957665Y34554906D01*
X24940429Y34501859D01*
X24920643Y34313603D01*
X24940429Y34125347D01*
X24940430Y34125344D01*
X24998921Y33945326D01*
X24998923Y33945321D01*
X25010290Y33925633D01*
X25026761Y33857732D01*
X25003908Y33791706D01*
X24948987Y33748516D01*
X24879433Y33741875D01*
X24823936Y33769492D01*
X24823629Y33769068D01*
X24821111Y33770898D01*
X24819928Y33771486D01*
X24818374Y33772884D01*
X24818371Y33772888D01*
X24767324Y33809976D01*
X24665234Y33884149D01*
X24665229Y33884152D01*
X24492307Y33961143D01*
X24492302Y33961145D01*
X24346501Y33992135D01*
X24307146Y34000500D01*
X24117854Y34000500D01*
X24085397Y33993602D01*
X23932697Y33961145D01*
X23932692Y33961143D01*
X23759770Y33884152D01*
X23759765Y33884149D01*
X23606629Y33772889D01*
X23479966Y33632215D01*
X23385321Y33468285D01*
X23385318Y33468278D01*
X23339552Y33327423D01*
X23326826Y33288256D01*
X23307040Y33100000D01*
X351752Y33100000D01*
X370185Y33162776D01*
X395832Y33191587D01*
X434995Y33223728D01*
X455195Y33237225D01*
X606549Y33318125D01*
X628994Y33327423D01*
X793232Y33377243D01*
X817056Y33381982D01*
X993939Y33399403D01*
X1006093Y33400000D01*
X17500003Y33400000D01*
X18200000Y33400000D01*
X18200000Y34800000D01*
X17500006Y34800000D01*
X7674192Y34800000D01*
X7607153Y34819685D01*
X7561398Y34872489D01*
X7551454Y34941647D01*
X7569495Y34990442D01*
X7596008Y35032220D01*
X7615537Y35062993D01*
X7749503Y35347685D01*
X7831485Y35600000D01*
X19807040Y35600000D01*
X19826826Y35411744D01*
X19826827Y35411741D01*
X19885318Y35231723D01*
X19885321Y35231716D01*
X19979967Y35067784D01*
X20062360Y34976278D01*
X20106629Y34927112D01*
X20259765Y34815852D01*
X20259770Y34815849D01*
X20432692Y34738858D01*
X20432697Y34738856D01*
X20617854Y34699500D01*
X20617855Y34699500D01*
X20807144Y34699500D01*
X20807146Y34699500D01*
X20992303Y34738856D01*
X21165230Y34815849D01*
X21318371Y34927112D01*
X21445033Y35067784D01*
X21539679Y35231716D01*
X21598174Y35411744D01*
X21617960Y35600000D01*
X21598174Y35788256D01*
X21539679Y35968284D01*
X21445033Y36132216D01*
X21318371Y36272888D01*
X21318370Y36272889D01*
X21165234Y36384149D01*
X21165229Y36384152D01*
X20992307Y36461143D01*
X20992302Y36461145D01*
X20826214Y36496447D01*
X20807146Y36500500D01*
X20617854Y36500500D01*
X20598786Y36496447D01*
X20432697Y36461145D01*
X20432692Y36461143D01*
X20259770Y36384152D01*
X20259765Y36384149D01*
X20106629Y36272889D01*
X19979966Y36132215D01*
X19885321Y35968285D01*
X19885318Y35968278D01*
X19826827Y35788260D01*
X19826826Y35788256D01*
X19807040Y35600000D01*
X7831485Y35600000D01*
X7846731Y35646921D01*
X7905688Y35955985D01*
X7905689Y35955996D01*
X7925444Y36269995D01*
X7925444Y36270006D01*
X7905689Y36584005D01*
X7905688Y36584012D01*
X7905688Y36584015D01*
X7854949Y36849998D01*
X43257534Y36849998D01*
X43277358Y36623401D01*
X43277360Y36623390D01*
X43336230Y36403683D01*
X43336235Y36403669D01*
X43432363Y36197522D01*
X43483474Y36124528D01*
X44164546Y36805600D01*
X44177335Y36724852D01*
X44234859Y36611955D01*
X44324455Y36522359D01*
X44437352Y36464835D01*
X44518099Y36452047D01*
X43837026Y35770975D01*
X43910013Y35719868D01*
X43910021Y35719864D01*
X44116168Y35623736D01*
X44116182Y35623731D01*
X44335889Y35564861D01*
X44335900Y35564859D01*
X44562498Y35545034D01*
X44562502Y35545034D01*
X44789099Y35564859D01*
X44789110Y35564861D01*
X44920251Y35600000D01*
X72094540Y35600000D01*
X72114326Y35411744D01*
X72114327Y35411741D01*
X72172818Y35231723D01*
X72172821Y35231716D01*
X72267467Y35067784D01*
X72349860Y34976278D01*
X72394129Y34927112D01*
X72547265Y34815852D01*
X72547270Y34815849D01*
X72720192Y34738858D01*
X72720197Y34738856D01*
X72905354Y34699500D01*
X72905355Y34699500D01*
X73094644Y34699500D01*
X73094646Y34699500D01*
X73279803Y34738856D01*
X73452730Y34815849D01*
X73605871Y34927112D01*
X73732533Y35067784D01*
X73827179Y35231716D01*
X73885674Y35411744D01*
X73905460Y35600000D01*
X73885674Y35788256D01*
X73827179Y35968284D01*
X73732533Y36132216D01*
X73605871Y36272888D01*
X73605870Y36272889D01*
X73452734Y36384149D01*
X73452729Y36384152D01*
X73279807Y36461143D01*
X73279802Y36461145D01*
X73113714Y36496447D01*
X73094646Y36500500D01*
X72905354Y36500500D01*
X72886286Y36496447D01*
X72720197Y36461145D01*
X72720192Y36461143D01*
X72547270Y36384152D01*
X72547265Y36384149D01*
X72394129Y36272889D01*
X72267466Y36132215D01*
X72172821Y35968285D01*
X72172818Y35968278D01*
X72114327Y35788260D01*
X72114326Y35788256D01*
X72094540Y35600000D01*
X44920251Y35600000D01*
X45008817Y35623731D01*
X45008831Y35623736D01*
X45214978Y35719864D01*
X45287971Y35770976D01*
X44606900Y36452047D01*
X44687648Y36464835D01*
X44800545Y36522359D01*
X44890141Y36611955D01*
X44947665Y36724852D01*
X44960453Y36805600D01*
X45641524Y36124529D01*
X45692636Y36197522D01*
X45788764Y36403669D01*
X45788769Y36403683D01*
X45847639Y36623390D01*
X45847641Y36623401D01*
X45867466Y36849998D01*
X45867466Y36850003D01*
X45847641Y37076600D01*
X45847639Y37076611D01*
X45788769Y37296318D01*
X45788764Y37296332D01*
X45692636Y37502479D01*
X45692632Y37502487D01*
X45641525Y37575474D01*
X44960453Y36894402D01*
X44947665Y36975148D01*
X44890141Y37088045D01*
X44800545Y37177641D01*
X44687648Y37235165D01*
X44606901Y37247954D01*
X45108945Y37749999D01*
X53094532Y37749999D01*
X53114364Y37523314D01*
X53114366Y37523303D01*
X53173258Y37303512D01*
X53173261Y37303503D01*
X53269431Y37097268D01*
X53269432Y37097266D01*
X53399954Y36910859D01*
X53560858Y36749955D01*
X53560861Y36749953D01*
X53747266Y36619432D01*
X53953504Y36523261D01*
X54173308Y36464365D01*
X54335230Y36450199D01*
X54399998Y36444532D01*
X54400000Y36444532D01*
X54400002Y36444532D01*
X54462499Y36450000D01*
X54626692Y36464365D01*
X54846496Y36523261D01*
X55052734Y36619432D01*
X55239139Y36749953D01*
X55400047Y36910861D01*
X55530568Y37097266D01*
X55626739Y37303504D01*
X55685635Y37523308D01*
X55705468Y37750000D01*
X55705161Y37753504D01*
X55685931Y37973308D01*
X55685635Y37976692D01*
X55626739Y38196496D01*
X55625106Y38199998D01*
X58395034Y38199998D01*
X58414858Y37973401D01*
X58414860Y37973390D01*
X58473730Y37753683D01*
X58473735Y37753669D01*
X58569863Y37547522D01*
X58620974Y37474528D01*
X59302046Y38155600D01*
X59314835Y38074852D01*
X59372359Y37961955D01*
X59461955Y37872359D01*
X59574852Y37814835D01*
X59655599Y37802047D01*
X58974526Y37120975D01*
X59047513Y37069868D01*
X59047521Y37069864D01*
X59253668Y36973736D01*
X59253682Y36973731D01*
X59473389Y36914861D01*
X59473400Y36914859D01*
X59699998Y36895034D01*
X59700002Y36895034D01*
X59926599Y36914859D01*
X59926610Y36914861D01*
X60146317Y36973731D01*
X60146331Y36973736D01*
X60352478Y37069864D01*
X60425471Y37120976D01*
X59744400Y37802047D01*
X59825148Y37814835D01*
X59938045Y37872359D01*
X60027641Y37961955D01*
X60085165Y38074852D01*
X60097953Y38155600D01*
X60779024Y37474529D01*
X60830136Y37547522D01*
X60926264Y37753669D01*
X60926269Y37753683D01*
X60985139Y37973390D01*
X60985141Y37973401D01*
X61004966Y38199998D01*
X61004966Y38199999D01*
X63394532Y38199999D01*
X63414364Y37973314D01*
X63414366Y37973303D01*
X63473258Y37753512D01*
X63473261Y37753503D01*
X63569431Y37547268D01*
X63569432Y37547266D01*
X63699954Y37360859D01*
X63860858Y37199955D01*
X63860861Y37199953D01*
X64047266Y37069432D01*
X64253504Y36973261D01*
X64473308Y36914365D01*
X64635230Y36900199D01*
X64699998Y36894532D01*
X64700000Y36894532D01*
X64700002Y36894532D01*
X64756673Y36899491D01*
X64926692Y36914365D01*
X65146496Y36973261D01*
X65352734Y37069432D01*
X65539139Y37199953D01*
X65700047Y37360861D01*
X65830568Y37547266D01*
X65926739Y37753504D01*
X65985635Y37973308D01*
X66005161Y38196489D01*
X66005468Y38199999D01*
X66694532Y38199999D01*
X66714364Y37973314D01*
X66714366Y37973303D01*
X66773258Y37753512D01*
X66773261Y37753503D01*
X66869431Y37547268D01*
X66869432Y37547266D01*
X66999954Y37360859D01*
X67160858Y37199955D01*
X67160861Y37199953D01*
X67347266Y37069432D01*
X67553504Y36973261D01*
X67773308Y36914365D01*
X67935230Y36900199D01*
X67999998Y36894532D01*
X68000000Y36894532D01*
X68000002Y36894532D01*
X68056673Y36899491D01*
X68226692Y36914365D01*
X68446496Y36973261D01*
X68652734Y37069432D01*
X68839139Y37199953D01*
X69000047Y37360861D01*
X69130568Y37547266D01*
X69226739Y37753504D01*
X69285635Y37973308D01*
X69305161Y38196489D01*
X69305468Y38199998D01*
X71695034Y38199998D01*
X71714858Y37973401D01*
X71714860Y37973390D01*
X71773730Y37753683D01*
X71773735Y37753669D01*
X71869863Y37547522D01*
X71920974Y37474528D01*
X72602046Y38155600D01*
X72614835Y38074852D01*
X72672359Y37961955D01*
X72761955Y37872359D01*
X72874852Y37814835D01*
X72955599Y37802047D01*
X72274526Y37120975D01*
X72347513Y37069868D01*
X72347521Y37069864D01*
X72553668Y36973736D01*
X72553682Y36973731D01*
X72773389Y36914861D01*
X72773400Y36914859D01*
X72999998Y36895034D01*
X73000002Y36895034D01*
X73226599Y36914859D01*
X73226610Y36914861D01*
X73446317Y36973731D01*
X73446331Y36973736D01*
X73652478Y37069864D01*
X73725471Y37120976D01*
X73044400Y37802047D01*
X73125148Y37814835D01*
X73238045Y37872359D01*
X73327641Y37961955D01*
X73385165Y38074852D01*
X73397953Y38155600D01*
X74079024Y37474529D01*
X74130136Y37547522D01*
X74226264Y37753669D01*
X74226269Y37753683D01*
X74285139Y37973390D01*
X74285141Y37973401D01*
X74304966Y38199998D01*
X74304966Y38200003D01*
X74285141Y38426600D01*
X74285139Y38426611D01*
X74226269Y38646318D01*
X74226264Y38646332D01*
X74130136Y38852479D01*
X74130132Y38852487D01*
X74079025Y38925474D01*
X73397953Y38244402D01*
X73385165Y38325148D01*
X73327641Y38438045D01*
X73238045Y38527641D01*
X73125148Y38585165D01*
X73044401Y38597954D01*
X73725472Y39279026D01*
X73652478Y39330137D01*
X73446331Y39426265D01*
X73446317Y39426270D01*
X73226610Y39485140D01*
X73226599Y39485142D01*
X73000002Y39504966D01*
X72999998Y39504966D01*
X72773400Y39485142D01*
X72773389Y39485140D01*
X72553682Y39426270D01*
X72553673Y39426266D01*
X72347516Y39330134D01*
X72347512Y39330132D01*
X72274526Y39279027D01*
X72274526Y39279026D01*
X72955599Y38597954D01*
X72874852Y38585165D01*
X72761955Y38527641D01*
X72672359Y38438045D01*
X72614835Y38325148D01*
X72602046Y38244402D01*
X71920974Y38925474D01*
X71920973Y38925474D01*
X71869868Y38852488D01*
X71869866Y38852484D01*
X71773734Y38646327D01*
X71773730Y38646318D01*
X71714860Y38426611D01*
X71714858Y38426600D01*
X71695034Y38200003D01*
X71695034Y38199998D01*
X69305468Y38199998D01*
X69305468Y38199999D01*
X69305468Y38200002D01*
X69294347Y38327112D01*
X69285635Y38426692D01*
X69226739Y38646496D01*
X69130568Y38852734D01*
X69000047Y39039139D01*
X69000045Y39039142D01*
X68839141Y39200046D01*
X68652734Y39330568D01*
X68652732Y39330569D01*
X68446497Y39426739D01*
X68446488Y39426742D01*
X68226697Y39485634D01*
X68226693Y39485635D01*
X68226692Y39485635D01*
X68226691Y39485636D01*
X68226686Y39485636D01*
X68000002Y39505468D01*
X67999998Y39505468D01*
X67773313Y39485636D01*
X67773302Y39485634D01*
X67553511Y39426742D01*
X67553502Y39426739D01*
X67347267Y39330569D01*
X67347265Y39330568D01*
X67160858Y39200046D01*
X66999954Y39039142D01*
X66869432Y38852735D01*
X66869431Y38852733D01*
X66773261Y38646498D01*
X66773258Y38646489D01*
X66714366Y38426698D01*
X66714364Y38426687D01*
X66694532Y38200002D01*
X66694532Y38199999D01*
X66005468Y38199999D01*
X66005468Y38200002D01*
X65994347Y38327112D01*
X65985635Y38426692D01*
X65926739Y38646496D01*
X65830568Y38852734D01*
X65700047Y39039139D01*
X65700045Y39039142D01*
X65539141Y39200046D01*
X65352734Y39330568D01*
X65352732Y39330569D01*
X65146497Y39426739D01*
X65146488Y39426742D01*
X64926697Y39485634D01*
X64926693Y39485635D01*
X64926692Y39485635D01*
X64926691Y39485636D01*
X64926686Y39485636D01*
X64700002Y39505468D01*
X64699998Y39505468D01*
X64473313Y39485636D01*
X64473302Y39485634D01*
X64253511Y39426742D01*
X64253502Y39426739D01*
X64047267Y39330569D01*
X64047265Y39330568D01*
X63860858Y39200046D01*
X63699954Y39039142D01*
X63569432Y38852735D01*
X63569431Y38852733D01*
X63473261Y38646498D01*
X63473258Y38646489D01*
X63414366Y38426698D01*
X63414364Y38426687D01*
X63394532Y38200002D01*
X63394532Y38199999D01*
X61004966Y38199999D01*
X61004966Y38200003D01*
X60985141Y38426600D01*
X60985139Y38426611D01*
X60926269Y38646318D01*
X60926264Y38646332D01*
X60830136Y38852479D01*
X60830132Y38852487D01*
X60779025Y38925474D01*
X60097953Y38244402D01*
X60085165Y38325148D01*
X60027641Y38438045D01*
X59938045Y38527641D01*
X59825148Y38585165D01*
X59744401Y38597954D01*
X60425472Y39279026D01*
X60352478Y39330137D01*
X60146331Y39426265D01*
X60146317Y39426270D01*
X59926610Y39485140D01*
X59926599Y39485142D01*
X59700002Y39504966D01*
X59699998Y39504966D01*
X59473400Y39485142D01*
X59473389Y39485140D01*
X59253682Y39426270D01*
X59253673Y39426266D01*
X59047516Y39330134D01*
X59047512Y39330132D01*
X58974526Y39279027D01*
X58974526Y39279026D01*
X59655599Y38597954D01*
X59574852Y38585165D01*
X59461955Y38527641D01*
X59372359Y38438045D01*
X59314835Y38325148D01*
X59302046Y38244402D01*
X58620974Y38925474D01*
X58620973Y38925474D01*
X58569868Y38852488D01*
X58569866Y38852484D01*
X58473734Y38646327D01*
X58473730Y38646318D01*
X58414860Y38426611D01*
X58414858Y38426600D01*
X58395034Y38200003D01*
X58395034Y38199998D01*
X55625106Y38199998D01*
X55530568Y38402734D01*
X55400047Y38589139D01*
X55400045Y38589142D01*
X55239141Y38750046D01*
X55052734Y38880568D01*
X55052732Y38880569D01*
X54846497Y38976739D01*
X54846488Y38976742D01*
X54626697Y39035634D01*
X54626693Y39035635D01*
X54626692Y39035635D01*
X54626691Y39035636D01*
X54626686Y39035636D01*
X54400002Y39055468D01*
X54399998Y39055468D01*
X54173313Y39035636D01*
X54173302Y39035634D01*
X53953511Y38976742D01*
X53953502Y38976739D01*
X53747267Y38880569D01*
X53747265Y38880568D01*
X53560858Y38750046D01*
X53399954Y38589142D01*
X53269432Y38402735D01*
X53269431Y38402733D01*
X53173261Y38196498D01*
X53173258Y38196489D01*
X53114366Y37976698D01*
X53114364Y37976687D01*
X53094532Y37750002D01*
X53094532Y37749999D01*
X45108945Y37749999D01*
X45287972Y37929026D01*
X45214978Y37980137D01*
X45008831Y38076265D01*
X45008817Y38076270D01*
X44789110Y38135140D01*
X44789099Y38135142D01*
X44562502Y38154966D01*
X44562498Y38154966D01*
X44335900Y38135142D01*
X44335889Y38135140D01*
X44116182Y38076270D01*
X44116173Y38076266D01*
X43910016Y37980134D01*
X43910012Y37980132D01*
X43837026Y37929027D01*
X43837026Y37929026D01*
X44518099Y37247954D01*
X44437352Y37235165D01*
X44324455Y37177641D01*
X44234859Y37088045D01*
X44177335Y36975148D01*
X44164546Y36894402D01*
X43483474Y37575474D01*
X43483473Y37575474D01*
X43432368Y37502488D01*
X43432366Y37502484D01*
X43336234Y37296327D01*
X43336230Y37296318D01*
X43277360Y37076611D01*
X43277358Y37076600D01*
X43257534Y36850003D01*
X43257534Y36849998D01*
X7854949Y36849998D01*
X7846731Y36893079D01*
X7749503Y37192315D01*
X7722358Y37250000D01*
X7670191Y37360861D01*
X7615537Y37477007D01*
X7446947Y37742663D01*
X7446945Y37742666D01*
X7246393Y37985091D01*
X7246391Y37985093D01*
X7017031Y38200477D01*
X7017021Y38200485D01*
X6762495Y38385409D01*
X6762488Y38385414D01*
X6762484Y38385416D01*
X6486766Y38536994D01*
X6486763Y38536996D01*
X6486758Y38536998D01*
X6486757Y38536999D01*
X6194228Y38652819D01*
X6194225Y38652820D01*
X5889476Y38731066D01*
X5889463Y38731068D01*
X5577329Y38770500D01*
X5577318Y38770500D01*
X5262682Y38770500D01*
X5262670Y38770500D01*
X4950536Y38731068D01*
X4950523Y38731066D01*
X4645774Y38652820D01*
X4645771Y38652819D01*
X4353242Y38536999D01*
X4353241Y38536998D01*
X4077516Y38385416D01*
X4077504Y38385409D01*
X3822978Y38200485D01*
X3822968Y38200477D01*
X3593608Y37985093D01*
X3593606Y37985091D01*
X3393054Y37742666D01*
X3393051Y37742662D01*
X3224464Y37477010D01*
X3224461Y37477004D01*
X3090499Y37192322D01*
X3090497Y37192317D01*
X2993270Y36893084D01*
X2934311Y36584012D01*
X2934310Y36584005D01*
X2914556Y36270006D01*
X2914556Y36269995D01*
X2934310Y35955996D01*
X2934311Y35955989D01*
X2934312Y35955985D01*
X2979354Y35719864D01*
X2993270Y35646917D01*
X3090497Y35347684D01*
X3090499Y35347679D01*
X3224461Y35062997D01*
X3224464Y35062991D01*
X3270505Y34990442D01*
X3289806Y34923292D01*
X3269739Y34856366D01*
X3216674Y34810913D01*
X3165808Y34800000D01*
X1006093Y34800000D01*
X993939Y34800597D01*
X817065Y34818018D01*
X793224Y34822760D01*
X629001Y34872576D01*
X606544Y34881878D01*
X455201Y34962773D01*
X434990Y34976278D01*
X395835Y35008412D01*
X356501Y35066158D01*
X350500Y35104265D01*
X350500Y39000000D01*
X32233290Y39000000D01*
X32253076Y38811744D01*
X32253077Y38811741D01*
X32311568Y38631723D01*
X32311571Y38631716D01*
X32406217Y38467784D01*
X32480382Y38385416D01*
X32532879Y38327112D01*
X32686015Y38215852D01*
X32686020Y38215849D01*
X32858942Y38138858D01*
X32858947Y38138856D01*
X33044104Y38099500D01*
X33044105Y38099500D01*
X33233394Y38099500D01*
X33233396Y38099500D01*
X33418553Y38138856D01*
X33591480Y38215849D01*
X33744621Y38327112D01*
X33871283Y38467784D01*
X33965929Y38631716D01*
X34024424Y38811744D01*
X34044210Y39000000D01*
X34024424Y39188256D01*
X33965929Y39368284D01*
X33871283Y39532216D01*
X33744621Y39672888D01*
X33744620Y39672889D01*
X33591484Y39784149D01*
X33591479Y39784152D01*
X33418557Y39861143D01*
X33418552Y39861145D01*
X33272751Y39892135D01*
X33233396Y39900500D01*
X33044104Y39900500D01*
X33011647Y39893602D01*
X32858947Y39861145D01*
X32858942Y39861143D01*
X32686020Y39784152D01*
X32686015Y39784149D01*
X32532879Y39672889D01*
X32406216Y39532215D01*
X32311571Y39368285D01*
X32311568Y39368278D01*
X32253077Y39188260D01*
X32253076Y39188256D01*
X32233290Y39000000D01*
X350500Y39000000D01*
X350500Y41349998D01*
X6655034Y41349998D01*
X6674858Y41123401D01*
X6674860Y41123390D01*
X6733730Y40903683D01*
X6733735Y40903669D01*
X6829863Y40697522D01*
X6880974Y40624528D01*
X7515550Y41259104D01*
X7516327Y41248735D01*
X7565887Y41122459D01*
X7650465Y41016401D01*
X7762547Y40939984D01*
X7870299Y40906747D01*
X7234526Y40270975D01*
X7307513Y40219868D01*
X7307521Y40219864D01*
X7513668Y40123736D01*
X7513682Y40123731D01*
X7733389Y40064861D01*
X7733400Y40064859D01*
X7959998Y40045034D01*
X7960002Y40045034D01*
X8186599Y40064859D01*
X8186610Y40064861D01*
X8406317Y40123731D01*
X8406331Y40123736D01*
X8612478Y40219864D01*
X8685471Y40270976D01*
X8048231Y40908216D01*
X8094138Y40915135D01*
X8216357Y40973993D01*
X8315798Y41066260D01*
X8383625Y41183740D01*
X8401499Y41262054D01*
X9039024Y40624529D01*
X9045770Y40634161D01*
X9100347Y40677786D01*
X9169845Y40684978D01*
X9232200Y40653455D01*
X9257828Y40619333D01*
X9340617Y40456851D01*
X9459743Y40309743D01*
X9566311Y40223446D01*
X9606853Y40190615D01*
X9690371Y40148062D01*
X9775512Y40104680D01*
X9958355Y40055688D01*
X10036979Y40049500D01*
X10963020Y40049501D01*
X11041645Y40055688D01*
X11224488Y40104680D01*
X11353008Y40170165D01*
X11393146Y40190615D01*
X11393147Y40190617D01*
X11393149Y40190617D01*
X11540257Y40309743D01*
X11659383Y40456851D01*
X11745320Y40625512D01*
X11794312Y40808355D01*
X11800500Y40886979D01*
X11800499Y41813020D01*
X11794312Y41891645D01*
X11745320Y42074488D01*
X11701938Y42159629D01*
X11659385Y42243147D01*
X11626554Y42283689D01*
X11540257Y42390257D01*
X11528225Y42400000D01*
X72094540Y42400000D01*
X72114326Y42211744D01*
X72114327Y42211741D01*
X72172818Y42031723D01*
X72172821Y42031716D01*
X72267467Y41867784D01*
X72342128Y41784865D01*
X72394129Y41727112D01*
X72547265Y41615852D01*
X72547270Y41615849D01*
X72720192Y41538858D01*
X72720197Y41538856D01*
X72905354Y41499500D01*
X72905355Y41499500D01*
X73094644Y41499500D01*
X73094646Y41499500D01*
X73279803Y41538856D01*
X73452730Y41615849D01*
X73605871Y41727112D01*
X73732533Y41867784D01*
X73827179Y42031716D01*
X73885674Y42211744D01*
X73905460Y42400000D01*
X73885674Y42588256D01*
X73827179Y42768284D01*
X73732533Y42932216D01*
X73605871Y43072888D01*
X73605870Y43072889D01*
X73452734Y43184149D01*
X73452729Y43184152D01*
X73279807Y43261143D01*
X73279802Y43261145D01*
X73134001Y43292135D01*
X73094646Y43300500D01*
X72905354Y43300500D01*
X72872897Y43293602D01*
X72720197Y43261145D01*
X72720192Y43261143D01*
X72547270Y43184152D01*
X72547265Y43184149D01*
X72394129Y43072889D01*
X72267466Y42932215D01*
X72172821Y42768285D01*
X72172818Y42768278D01*
X72116621Y42595320D01*
X72114326Y42588256D01*
X72094540Y42400000D01*
X11528225Y42400000D01*
X11429271Y42480132D01*
X11393146Y42509386D01*
X11262696Y42575852D01*
X11224488Y42595320D01*
X11157562Y42613253D01*
X11041643Y42644313D01*
X10969736Y42649972D01*
X10963021Y42650500D01*
X10963020Y42650500D01*
X10036989Y42650500D01*
X10036970Y42650499D01*
X9958356Y42644313D01*
X9775512Y42595320D01*
X9606853Y42509386D01*
X9459743Y42390257D01*
X9340616Y42243148D01*
X9257829Y42080669D01*
X9209854Y42029873D01*
X9142033Y42013078D01*
X9075898Y42035615D01*
X9045769Y42065841D01*
X9039024Y42075473D01*
X8404449Y41440899D01*
X8403673Y41451265D01*
X8354113Y41577541D01*
X8269535Y41683599D01*
X8157453Y41760016D01*
X8049700Y41793253D01*
X8685472Y42429026D01*
X8612478Y42480137D01*
X8406331Y42576265D01*
X8406317Y42576270D01*
X8186610Y42635140D01*
X8186599Y42635142D01*
X7960002Y42654966D01*
X7959998Y42654966D01*
X7733400Y42635142D01*
X7733389Y42635140D01*
X7513682Y42576270D01*
X7513673Y42576266D01*
X7307516Y42480134D01*
X7307512Y42480132D01*
X7234526Y42429027D01*
X7234526Y42429026D01*
X7871768Y41791785D01*
X7825862Y41784865D01*
X7703643Y41726007D01*
X7604202Y41633740D01*
X7536375Y41516260D01*
X7518500Y41437948D01*
X6880974Y42075474D01*
X6880973Y42075474D01*
X6829868Y42002488D01*
X6829866Y42002484D01*
X6733734Y41796327D01*
X6733730Y41796318D01*
X6674860Y41576611D01*
X6674858Y41576600D01*
X6655034Y41350003D01*
X6655034Y41349998D01*
X350500Y41349998D01*
X350500Y43360000D01*
X29493290Y43360000D01*
X29513076Y43171744D01*
X29513077Y43171741D01*
X29571568Y42991723D01*
X29571571Y42991716D01*
X29666217Y42827784D01*
X29719797Y42768278D01*
X29792879Y42687112D01*
X29946015Y42575852D01*
X29946020Y42575849D01*
X30118942Y42498858D01*
X30118947Y42498856D01*
X30304104Y42459500D01*
X30304105Y42459500D01*
X30493394Y42459500D01*
X30493396Y42459500D01*
X30678553Y42498856D01*
X30851480Y42575849D01*
X31004621Y42687112D01*
X31131283Y42827784D01*
X31225929Y42991716D01*
X31284424Y43171744D01*
X31304210Y43360000D01*
X31284424Y43548256D01*
X31225929Y43728284D01*
X31131283Y43892216D01*
X31004621Y44032888D01*
X31004620Y44032889D01*
X30851484Y44144149D01*
X30851479Y44144152D01*
X30678557Y44221143D01*
X30678552Y44221145D01*
X30532751Y44252135D01*
X30493396Y44260500D01*
X30304104Y44260500D01*
X30271647Y44253602D01*
X30118947Y44221145D01*
X30118942Y44221143D01*
X29946020Y44144152D01*
X29946015Y44144149D01*
X29792879Y44032889D01*
X29666216Y43892215D01*
X29571571Y43728285D01*
X29571568Y43728278D01*
X29513077Y43548260D01*
X29513076Y43548256D01*
X29493290Y43360000D01*
X350500Y43360000D01*
X350500Y48295737D01*
X370185Y48362776D01*
X395832Y48391587D01*
X434995Y48423728D01*
X455195Y48437225D01*
X606549Y48518125D01*
X628994Y48527423D01*
X793232Y48577243D01*
X817056Y48581982D01*
X993939Y48599403D01*
X1006093Y48600000D01*
X13931010Y48600000D01*
X13998049Y48580315D01*
X14043804Y48527511D01*
X14053748Y48458353D01*
X14024723Y48394797D01*
X14003896Y48375683D01*
X13982981Y48360488D01*
X13982968Y48360477D01*
X13753608Y48145093D01*
X13753606Y48145091D01*
X13553054Y47902666D01*
X13553051Y47902662D01*
X13384464Y47637010D01*
X13384461Y47637004D01*
X13250499Y47352322D01*
X13250497Y47352317D01*
X13153270Y47053084D01*
X13094311Y46744012D01*
X13094310Y46744005D01*
X13074556Y46430006D01*
X13074556Y46429995D01*
X13094310Y46115996D01*
X13094311Y46115989D01*
X13123790Y45961453D01*
X13140589Y45873390D01*
X13153270Y45806917D01*
X13250497Y45507684D01*
X13250499Y45507679D01*
X13384461Y45222997D01*
X13384464Y45222991D01*
X13553051Y44957339D01*
X13553054Y44957335D01*
X13753606Y44714910D01*
X13753608Y44714908D01*
X13982968Y44499524D01*
X13982978Y44499516D01*
X14237504Y44314592D01*
X14237509Y44314590D01*
X14237516Y44314584D01*
X14513234Y44163006D01*
X14513239Y44163004D01*
X14513241Y44163003D01*
X14513242Y44163002D01*
X14805771Y44047182D01*
X14805774Y44047181D01*
X15110523Y43968935D01*
X15110527Y43968934D01*
X15176010Y43960662D01*
X15422670Y43929501D01*
X15422679Y43929501D01*
X15422682Y43929500D01*
X15422684Y43929500D01*
X15737316Y43929500D01*
X15737318Y43929500D01*
X15737321Y43929501D01*
X15737329Y43929501D01*
X15923593Y43953032D01*
X16049473Y43968934D01*
X16354225Y44047181D01*
X16370193Y44053503D01*
X16646757Y44163002D01*
X16646758Y44163003D01*
X16646756Y44163003D01*
X16646766Y44163006D01*
X16922484Y44314584D01*
X17177030Y44499522D01*
X17406390Y44714906D01*
X17606947Y44957337D01*
X17608637Y44960000D01*
X24693290Y44960000D01*
X24713076Y44771744D01*
X24713077Y44771741D01*
X24771568Y44591723D01*
X24771571Y44591716D01*
X24866217Y44427784D01*
X24968136Y44314592D01*
X24992879Y44287112D01*
X25146015Y44175852D01*
X25146020Y44175849D01*
X25318942Y44098858D01*
X25318947Y44098856D01*
X25504104Y44059500D01*
X25504105Y44059500D01*
X25693394Y44059500D01*
X25693396Y44059500D01*
X25878553Y44098856D01*
X26051480Y44175849D01*
X26204621Y44287112D01*
X26331283Y44427784D01*
X26372976Y44499999D01*
X33957032Y44499999D01*
X33976864Y44273314D01*
X33976866Y44273303D01*
X34035758Y44053512D01*
X34035761Y44053503D01*
X34131931Y43847268D01*
X34131932Y43847266D01*
X34262454Y43660859D01*
X34423358Y43499955D01*
X34423361Y43499953D01*
X34609766Y43369432D01*
X34816004Y43273261D01*
X35035808Y43214365D01*
X35197730Y43200199D01*
X35262498Y43194532D01*
X35262500Y43194532D01*
X35262502Y43194532D01*
X35319173Y43199491D01*
X35489192Y43214365D01*
X35708996Y43273261D01*
X35915234Y43369432D01*
X36101639Y43499953D01*
X36262547Y43660861D01*
X36393068Y43847266D01*
X36489239Y44053504D01*
X36548135Y44273308D01*
X36567968Y44499998D01*
X38957534Y44499998D01*
X38977358Y44273401D01*
X38977360Y44273390D01*
X39036230Y44053683D01*
X39036235Y44053669D01*
X39132363Y43847522D01*
X39183474Y43774528D01*
X39864546Y44455600D01*
X39877335Y44374852D01*
X39934859Y44261955D01*
X40024455Y44172359D01*
X40137352Y44114835D01*
X40218099Y44102047D01*
X39537026Y43420975D01*
X39610013Y43369868D01*
X39610021Y43369864D01*
X39816168Y43273736D01*
X39816182Y43273731D01*
X40035889Y43214861D01*
X40035900Y43214859D01*
X40262498Y43195034D01*
X40262502Y43195034D01*
X40489099Y43214859D01*
X40489110Y43214861D01*
X40708817Y43273731D01*
X40708831Y43273736D01*
X40914978Y43369864D01*
X40987971Y43420976D01*
X40306900Y44102047D01*
X40387648Y44114835D01*
X40500545Y44172359D01*
X40590141Y44261955D01*
X40647665Y44374852D01*
X40660453Y44455600D01*
X41341524Y43774529D01*
X41392636Y43847522D01*
X41488764Y44053669D01*
X41488769Y44053683D01*
X41547639Y44273390D01*
X41547641Y44273401D01*
X41567466Y44499998D01*
X41567466Y44500003D01*
X41547641Y44726600D01*
X41547639Y44726611D01*
X41488769Y44946318D01*
X41488764Y44946332D01*
X41392636Y45152479D01*
X41392632Y45152487D01*
X41341525Y45225474D01*
X40660453Y44544402D01*
X40647665Y44625148D01*
X40590141Y44738045D01*
X40500545Y44827641D01*
X40387648Y44885165D01*
X40306901Y44897954D01*
X40987972Y45579026D01*
X40914978Y45630137D01*
X40708831Y45726265D01*
X40708817Y45726270D01*
X40489110Y45785140D01*
X40489099Y45785142D01*
X40262502Y45804966D01*
X40262498Y45804966D01*
X40035900Y45785142D01*
X40035889Y45785140D01*
X39816182Y45726270D01*
X39816173Y45726266D01*
X39610016Y45630134D01*
X39610012Y45630132D01*
X39537026Y45579027D01*
X39537026Y45579026D01*
X40218099Y44897954D01*
X40137352Y44885165D01*
X40024455Y44827641D01*
X39934859Y44738045D01*
X39877335Y44625148D01*
X39864546Y44544402D01*
X39183474Y45225474D01*
X39183473Y45225474D01*
X39132368Y45152488D01*
X39132366Y45152484D01*
X39036234Y44946327D01*
X39036230Y44946318D01*
X38977360Y44726611D01*
X38977358Y44726600D01*
X38957534Y44500003D01*
X38957534Y44499998D01*
X36567968Y44499998D01*
X36567968Y44500000D01*
X36548135Y44726692D01*
X36489239Y44946496D01*
X36393068Y45152734D01*
X36262547Y45339139D01*
X36262545Y45339142D01*
X36101641Y45500046D01*
X35915234Y45630568D01*
X35915232Y45630569D01*
X35708997Y45726739D01*
X35708988Y45726742D01*
X35489197Y45785634D01*
X35489193Y45785635D01*
X35489192Y45785635D01*
X35489191Y45785636D01*
X35489186Y45785636D01*
X35262502Y45805468D01*
X35262498Y45805468D01*
X35035813Y45785636D01*
X35035802Y45785634D01*
X34816011Y45726742D01*
X34816002Y45726739D01*
X34609767Y45630569D01*
X34609765Y45630568D01*
X34423358Y45500046D01*
X34262454Y45339142D01*
X34131932Y45152735D01*
X34131931Y45152733D01*
X34035761Y44946498D01*
X34035758Y44946489D01*
X33976866Y44726698D01*
X33976864Y44726687D01*
X33957032Y44500002D01*
X33957032Y44499999D01*
X26372976Y44499999D01*
X26425929Y44591716D01*
X26484424Y44771744D01*
X26504210Y44960000D01*
X26484424Y45148256D01*
X26425929Y45328284D01*
X26331283Y45492216D01*
X26204621Y45632888D01*
X26204620Y45632889D01*
X26051484Y45744149D01*
X26051479Y45744152D01*
X25878557Y45821143D01*
X25878552Y45821145D01*
X25732751Y45852135D01*
X25693396Y45860500D01*
X25504104Y45860500D01*
X25471647Y45853602D01*
X25318947Y45821145D01*
X25318942Y45821143D01*
X25146020Y45744152D01*
X25146015Y45744149D01*
X24992879Y45632889D01*
X24866216Y45492215D01*
X24771571Y45328285D01*
X24771568Y45328278D01*
X24714448Y45152479D01*
X24713076Y45148256D01*
X24693290Y44960000D01*
X17608637Y44960000D01*
X17775537Y45222993D01*
X17909503Y45507685D01*
X18006731Y45806921D01*
X18062638Y46099998D01*
X53895034Y46099998D01*
X53914858Y45873401D01*
X53914860Y45873390D01*
X53973730Y45653683D01*
X53973735Y45653669D01*
X54069863Y45447522D01*
X54120974Y45374528D01*
X54802046Y46055600D01*
X54814835Y45974852D01*
X54872359Y45861955D01*
X54961955Y45772359D01*
X55074852Y45714835D01*
X55155599Y45702047D01*
X54474526Y45020975D01*
X54547513Y44969868D01*
X54547521Y44969864D01*
X54753668Y44873736D01*
X54753682Y44873731D01*
X54973389Y44814861D01*
X54973400Y44814859D01*
X55199998Y44795034D01*
X55200002Y44795034D01*
X55426599Y44814859D01*
X55426610Y44814861D01*
X55646317Y44873731D01*
X55646331Y44873736D01*
X55852478Y44969864D01*
X55925471Y45020976D01*
X55244400Y45702047D01*
X55325148Y45714835D01*
X55438045Y45772359D01*
X55527641Y45861955D01*
X55585165Y45974852D01*
X55597953Y46055600D01*
X56279024Y45374529D01*
X56330136Y45447522D01*
X56426264Y45653669D01*
X56426269Y45653683D01*
X56485139Y45873390D01*
X56485141Y45873401D01*
X56504966Y46099998D01*
X56504966Y46100003D01*
X56485141Y46326600D01*
X56485139Y46326611D01*
X56426269Y46546318D01*
X56426264Y46546332D01*
X56330136Y46752479D01*
X56330132Y46752487D01*
X56279025Y46825474D01*
X55597953Y46144402D01*
X55585165Y46225148D01*
X55527641Y46338045D01*
X55438045Y46427641D01*
X55325148Y46485165D01*
X55244401Y46497954D01*
X55925472Y47179026D01*
X55852478Y47230137D01*
X55646331Y47326265D01*
X55646317Y47326270D01*
X55426610Y47385140D01*
X55426599Y47385142D01*
X55200002Y47404966D01*
X55199998Y47404966D01*
X54973400Y47385142D01*
X54973389Y47385140D01*
X54753682Y47326270D01*
X54753673Y47326266D01*
X54547516Y47230134D01*
X54547512Y47230132D01*
X54474526Y47179027D01*
X54474526Y47179026D01*
X55155599Y46497954D01*
X55074852Y46485165D01*
X54961955Y46427641D01*
X54872359Y46338045D01*
X54814835Y46225148D01*
X54802046Y46144402D01*
X54120974Y46825474D01*
X54120973Y46825474D01*
X54069868Y46752488D01*
X54069866Y46752484D01*
X53973734Y46546327D01*
X53973730Y46546318D01*
X53914860Y46326611D01*
X53914858Y46326600D01*
X53895034Y46100003D01*
X53895034Y46099998D01*
X18062638Y46099998D01*
X18065688Y46115985D01*
X18078939Y46326600D01*
X18085444Y46429995D01*
X18085444Y46430006D01*
X18065689Y46744005D01*
X18065688Y46744012D01*
X18065688Y46744015D01*
X18006731Y47053079D01*
X17978489Y47140000D01*
X30007040Y47140000D01*
X30026826Y46951744D01*
X30026827Y46951741D01*
X30085318Y46771723D01*
X30085321Y46771716D01*
X30179967Y46607784D01*
X30290374Y46485165D01*
X30306629Y46467112D01*
X30459765Y46355852D01*
X30459770Y46355849D01*
X30632692Y46278858D01*
X30632697Y46278856D01*
X30817854Y46239500D01*
X30817855Y46239500D01*
X31007144Y46239500D01*
X31007146Y46239500D01*
X31192303Y46278856D01*
X31365230Y46355849D01*
X31518371Y46467112D01*
X31645033Y46607784D01*
X31739679Y46771716D01*
X31798174Y46951744D01*
X31817960Y47140000D01*
X31798174Y47328256D01*
X31739679Y47508284D01*
X31645033Y47672216D01*
X31518371Y47812888D01*
X31518370Y47812889D01*
X31365234Y47924149D01*
X31365229Y47924152D01*
X31192307Y48001143D01*
X31192302Y48001145D01*
X31046501Y48032135D01*
X31007146Y48040500D01*
X30817854Y48040500D01*
X30785397Y48033602D01*
X30632697Y48001145D01*
X30632692Y48001143D01*
X30459770Y47924152D01*
X30459765Y47924149D01*
X30306629Y47812889D01*
X30179966Y47672215D01*
X30085321Y47508285D01*
X30085318Y47508278D01*
X30034644Y47352317D01*
X30026826Y47328256D01*
X30007040Y47140000D01*
X17978489Y47140000D01*
X17909503Y47352315D01*
X17775537Y47637007D01*
X17663919Y47812889D01*
X17606948Y47902662D01*
X17606945Y47902666D01*
X17406393Y48145091D01*
X17406391Y48145093D01*
X17378041Y48171716D01*
X17177030Y48360478D01*
X17177028Y48360479D01*
X17177018Y48360488D01*
X17156104Y48375683D01*
X17113438Y48431013D01*
X17107460Y48500626D01*
X17128236Y48540000D01*
X19907040Y48540000D01*
X19926826Y48351744D01*
X19926827Y48351741D01*
X19985318Y48171723D01*
X19985321Y48171716D01*
X20079967Y48007784D01*
X20085946Y48001144D01*
X20206629Y47867112D01*
X20359765Y47755852D01*
X20359770Y47755849D01*
X20532692Y47678858D01*
X20532697Y47678856D01*
X20717854Y47639500D01*
X20717855Y47639500D01*
X20907144Y47639500D01*
X20907146Y47639500D01*
X21092303Y47678856D01*
X21265230Y47755849D01*
X21418371Y47867112D01*
X21545033Y48007784D01*
X21639679Y48171716D01*
X21698174Y48351744D01*
X21717960Y48540000D01*
X21698174Y48728256D01*
X21639679Y48908284D01*
X21545033Y49072216D01*
X21418371Y49212888D01*
X21418370Y49212889D01*
X21265234Y49324149D01*
X21265229Y49324152D01*
X21092307Y49401143D01*
X21092302Y49401145D01*
X20946501Y49432135D01*
X20907146Y49440500D01*
X20717854Y49440500D01*
X20685397Y49433602D01*
X20532697Y49401145D01*
X20532692Y49401143D01*
X20359770Y49324152D01*
X20359765Y49324149D01*
X20206629Y49212889D01*
X20079966Y49072215D01*
X19985321Y48908285D01*
X19985318Y48908278D01*
X19979726Y48891066D01*
X19926826Y48728256D01*
X19907040Y48540000D01*
X17128236Y48540000D01*
X17140066Y48562421D01*
X17200905Y48596778D01*
X17228990Y48600000D01*
X17500003Y48600000D01*
X18200000Y48600000D01*
X18200000Y50000000D01*
X17500006Y50000000D01*
X1006093Y50000000D01*
X993939Y50000597D01*
X817065Y50018018D01*
X793224Y50022760D01*
X629001Y50072576D01*
X606544Y50081878D01*
X455201Y50162773D01*
X434990Y50176278D01*
X395835Y50208412D01*
X356501Y50266158D01*
X350500Y50304265D01*
X350500Y51352130D01*
X1099500Y51352130D01*
X1099501Y51352124D01*
X1105908Y51292517D01*
X1156202Y51157672D01*
X1156206Y51157665D01*
X1242452Y51042456D01*
X1242455Y51042453D01*
X1357664Y50956207D01*
X1357671Y50956203D01*
X1492517Y50905909D01*
X1492516Y50905909D01*
X1499444Y50905165D01*
X1552127Y50899500D01*
X3647872Y50899501D01*
X3707483Y50905909D01*
X3842331Y50956204D01*
X3927551Y51020000D01*
X23607040Y51020000D01*
X23626826Y50831744D01*
X23626827Y50831741D01*
X23685318Y50651723D01*
X23685321Y50651716D01*
X23779967Y50487784D01*
X23847403Y50412889D01*
X23906629Y50347112D01*
X24059765Y50235852D01*
X24059770Y50235849D01*
X24232692Y50158858D01*
X24232697Y50158856D01*
X24417854Y50119500D01*
X24417855Y50119500D01*
X24607144Y50119500D01*
X24607146Y50119500D01*
X24792303Y50158856D01*
X24899660Y50206656D01*
X24968908Y50215941D01*
X25032185Y50186313D01*
X25069399Y50127178D01*
X25068735Y50057312D01*
X25068026Y50055058D01*
X25050331Y50000597D01*
X25026826Y49928256D01*
X25007040Y49740000D01*
X25026826Y49551744D01*
X25026827Y49551741D01*
X25085318Y49371723D01*
X25085321Y49371716D01*
X25143542Y49270874D01*
X25160015Y49202973D01*
X25137162Y49136947D01*
X25128306Y49125903D01*
X25079966Y49072215D01*
X24985321Y48908285D01*
X24985318Y48908278D01*
X24979726Y48891066D01*
X24926826Y48728256D01*
X24907040Y48540000D01*
X24926826Y48351744D01*
X24926827Y48351741D01*
X24985318Y48171723D01*
X24985321Y48171716D01*
X25079967Y48007784D01*
X25085946Y48001144D01*
X25206629Y47867112D01*
X25359765Y47755852D01*
X25359770Y47755849D01*
X25532692Y47678858D01*
X25532697Y47678856D01*
X25717854Y47639500D01*
X25717855Y47639500D01*
X25907144Y47639500D01*
X25907146Y47639500D01*
X26092303Y47678856D01*
X26265230Y47755849D01*
X26418371Y47867112D01*
X26545033Y48007784D01*
X26639679Y48171716D01*
X26698174Y48351744D01*
X26717960Y48540000D01*
X28407040Y48540000D01*
X28426826Y48351744D01*
X28426827Y48351741D01*
X28485318Y48171723D01*
X28485321Y48171716D01*
X28579967Y48007784D01*
X28585946Y48001144D01*
X28706629Y47867112D01*
X28859765Y47755852D01*
X28859770Y47755849D01*
X29032692Y47678858D01*
X29032697Y47678856D01*
X29217854Y47639500D01*
X29217855Y47639500D01*
X29407144Y47639500D01*
X29407146Y47639500D01*
X29592303Y47678856D01*
X29765230Y47755849D01*
X29918371Y47867112D01*
X30045033Y48007784D01*
X30139679Y48171716D01*
X30198174Y48351744D01*
X30217960Y48540000D01*
X30198174Y48728256D01*
X30139679Y48908284D01*
X30045033Y49072216D01*
X29918371Y49212888D01*
X29918370Y49212889D01*
X29765234Y49324149D01*
X29765229Y49324152D01*
X29592307Y49401143D01*
X29592302Y49401145D01*
X29446501Y49432135D01*
X29407146Y49440500D01*
X29217854Y49440500D01*
X29185397Y49433602D01*
X29032697Y49401145D01*
X29032692Y49401143D01*
X28859770Y49324152D01*
X28859765Y49324149D01*
X28706629Y49212889D01*
X28579966Y49072215D01*
X28485321Y48908285D01*
X28485318Y48908278D01*
X28479726Y48891066D01*
X28426826Y48728256D01*
X28407040Y48540000D01*
X26717960Y48540000D01*
X26698174Y48728256D01*
X26639679Y48908284D01*
X26581457Y49009128D01*
X26564984Y49077029D01*
X26587837Y49143056D01*
X26596680Y49154084D01*
X26645033Y49207784D01*
X26739679Y49371716D01*
X26798174Y49551744D01*
X26817960Y49740000D01*
X26798174Y49928256D01*
X26739679Y50108284D01*
X26645033Y50272216D01*
X26518371Y50412888D01*
X26518370Y50412889D01*
X26365234Y50524149D01*
X26365229Y50524152D01*
X26192307Y50601143D01*
X26192302Y50601145D01*
X26043259Y50632824D01*
X26007146Y50640500D01*
X25817854Y50640500D01*
X25781741Y50632824D01*
X25632699Y50601145D01*
X25525340Y50553345D01*
X25456090Y50544061D01*
X25392813Y50573689D01*
X25355600Y50632824D01*
X25356265Y50702691D01*
X25356945Y50704857D01*
X25398174Y50831744D01*
X25417960Y51020000D01*
X25403918Y51153603D01*
X28620643Y51153603D01*
X28640429Y50965347D01*
X28640430Y50965344D01*
X28698921Y50785326D01*
X28698924Y50785319D01*
X28793570Y50621387D01*
X28863195Y50544061D01*
X28920232Y50480715D01*
X29073368Y50369455D01*
X29073373Y50369452D01*
X29246295Y50292461D01*
X29246300Y50292459D01*
X29431457Y50253103D01*
X29431458Y50253103D01*
X29620747Y50253103D01*
X29620749Y50253103D01*
X29805906Y50292459D01*
X29978833Y50369452D01*
X30131974Y50480715D01*
X30258636Y50621387D01*
X30353282Y50785319D01*
X30411777Y50965347D01*
X30431563Y51153603D01*
X30411777Y51341859D01*
X30353282Y51521887D01*
X30258636Y51685819D01*
X30131974Y51826491D01*
X30056752Y51881143D01*
X29978837Y51937752D01*
X29978832Y51937755D01*
X29805910Y52014746D01*
X29805905Y52014748D01*
X29660104Y52045738D01*
X29620749Y52054103D01*
X29431457Y52054103D01*
X29399000Y52047205D01*
X29246300Y52014748D01*
X29246295Y52014746D01*
X29073373Y51937755D01*
X29073368Y51937752D01*
X28920232Y51826492D01*
X28793569Y51685818D01*
X28698924Y51521888D01*
X28698921Y51521881D01*
X28643765Y51352127D01*
X28640429Y51341859D01*
X28620643Y51153603D01*
X25403918Y51153603D01*
X25398174Y51208256D01*
X25339679Y51388284D01*
X25245033Y51552216D01*
X25118371Y51692888D01*
X25118370Y51692889D01*
X24965234Y51804149D01*
X24965229Y51804152D01*
X24792307Y51881143D01*
X24792302Y51881145D01*
X24646501Y51912135D01*
X24607146Y51920500D01*
X24417854Y51920500D01*
X24385397Y51913602D01*
X24232697Y51881145D01*
X24232692Y51881143D01*
X24059770Y51804152D01*
X24059765Y51804149D01*
X23906629Y51692889D01*
X23779966Y51552215D01*
X23685321Y51388285D01*
X23685318Y51388278D01*
X23640374Y51249953D01*
X23626826Y51208256D01*
X23607040Y51020000D01*
X3927551Y51020000D01*
X3957546Y51042454D01*
X4043796Y51157669D01*
X4094091Y51292517D01*
X4100500Y51352127D01*
X4100500Y52249999D01*
X43257032Y52249999D01*
X43276864Y52023314D01*
X43276866Y52023303D01*
X43335758Y51803512D01*
X43335761Y51803503D01*
X43431931Y51597268D01*
X43431932Y51597266D01*
X43562454Y51410859D01*
X43723358Y51249955D01*
X43723361Y51249953D01*
X43909766Y51119432D01*
X44116004Y51023261D01*
X44335808Y50964365D01*
X44497730Y50950199D01*
X44562498Y50944532D01*
X44562500Y50944532D01*
X44562502Y50944532D01*
X44619173Y50949491D01*
X44789192Y50964365D01*
X45008996Y51023261D01*
X45173560Y51099999D01*
X53894532Y51099999D01*
X53914364Y50873314D01*
X53914366Y50873303D01*
X53973258Y50653512D01*
X53973261Y50653503D01*
X54069431Y50447268D01*
X54069432Y50447266D01*
X54199954Y50260859D01*
X54360858Y50099955D01*
X54360861Y50099953D01*
X54547266Y49969432D01*
X54753504Y49873261D01*
X54973308Y49814365D01*
X55135230Y49800199D01*
X55199998Y49794532D01*
X55200000Y49794532D01*
X55200002Y49794532D01*
X55256673Y49799491D01*
X55426692Y49814365D01*
X55646496Y49873261D01*
X55852734Y49969432D01*
X56039139Y50099953D01*
X56200047Y50260861D01*
X56330568Y50447266D01*
X56426739Y50653504D01*
X56485635Y50873308D01*
X56505468Y51100000D01*
X56485635Y51326692D01*
X56426739Y51546496D01*
X56330568Y51752734D01*
X56200047Y51939139D01*
X56200045Y51939142D01*
X56039141Y52100046D01*
X55852734Y52230568D01*
X55852732Y52230569D01*
X55646497Y52326739D01*
X55646488Y52326742D01*
X55426697Y52385634D01*
X55426693Y52385635D01*
X55426692Y52385635D01*
X55426691Y52385636D01*
X55426686Y52385636D01*
X55200002Y52405468D01*
X55199998Y52405468D01*
X54973313Y52385636D01*
X54973302Y52385634D01*
X54753511Y52326742D01*
X54753502Y52326739D01*
X54547267Y52230569D01*
X54547265Y52230568D01*
X54360858Y52100046D01*
X54199954Y51939142D01*
X54069432Y51752735D01*
X54069431Y51752733D01*
X53973261Y51546498D01*
X53973258Y51546489D01*
X53914366Y51326698D01*
X53914364Y51326687D01*
X53894532Y51100002D01*
X53894532Y51099999D01*
X45173560Y51099999D01*
X45215234Y51119432D01*
X45401639Y51249953D01*
X45562547Y51410861D01*
X45693068Y51597266D01*
X45789239Y51803504D01*
X45848135Y52023308D01*
X45867968Y52250000D01*
X45848135Y52476692D01*
X45789239Y52696496D01*
X45693068Y52902734D01*
X45680982Y52919995D01*
X84414556Y52919995D01*
X84434310Y52605996D01*
X84434311Y52605989D01*
X84434312Y52605985D01*
X84487580Y52326742D01*
X84493270Y52296917D01*
X84590497Y51997684D01*
X84590499Y51997679D01*
X84724461Y51712997D01*
X84724464Y51712991D01*
X84893051Y51447339D01*
X84893054Y51447335D01*
X85093606Y51204910D01*
X85093608Y51204908D01*
X85093610Y51204906D01*
X85266605Y51042453D01*
X85322968Y50989524D01*
X85322978Y50989516D01*
X85577504Y50804592D01*
X85577509Y50804590D01*
X85577516Y50804584D01*
X85853234Y50653006D01*
X85853239Y50653004D01*
X85853241Y50653003D01*
X85853242Y50653002D01*
X86145771Y50537182D01*
X86145774Y50537181D01*
X86450523Y50458935D01*
X86450527Y50458934D01*
X86516010Y50450662D01*
X86762670Y50419501D01*
X86762679Y50419501D01*
X86762682Y50419500D01*
X86762684Y50419500D01*
X87077316Y50419500D01*
X87077318Y50419500D01*
X87077321Y50419501D01*
X87077329Y50419501D01*
X87297126Y50447268D01*
X87389473Y50458934D01*
X87694225Y50537181D01*
X87786434Y50573689D01*
X87986757Y50653002D01*
X87986758Y50653003D01*
X87986756Y50653003D01*
X87986766Y50653006D01*
X88262484Y50804584D01*
X88517030Y50989522D01*
X88746390Y51204906D01*
X88946947Y51447337D01*
X89115537Y51712993D01*
X89249503Y51997685D01*
X89346731Y52296921D01*
X89405688Y52605985D01*
X89411382Y52696489D01*
X89425444Y52919995D01*
X89425444Y52920006D01*
X89405689Y53234005D01*
X89405688Y53234012D01*
X89405688Y53234015D01*
X89346731Y53543079D01*
X89249503Y53842315D01*
X89115537Y54127007D01*
X88990426Y54324151D01*
X88946948Y54392662D01*
X88946945Y54392666D01*
X88746393Y54635091D01*
X88746391Y54635093D01*
X88517031Y54850477D01*
X88517021Y54850485D01*
X88262495Y55035409D01*
X88262488Y55035414D01*
X88262484Y55035416D01*
X87986766Y55186994D01*
X87986763Y55186996D01*
X87986758Y55186998D01*
X87986757Y55186999D01*
X87694228Y55302819D01*
X87694225Y55302820D01*
X87389476Y55381066D01*
X87389463Y55381068D01*
X87077329Y55420500D01*
X87077318Y55420500D01*
X86762682Y55420500D01*
X86762670Y55420500D01*
X86450536Y55381068D01*
X86450523Y55381066D01*
X86145774Y55302820D01*
X86145771Y55302819D01*
X85853242Y55186999D01*
X85853241Y55186998D01*
X85577516Y55035416D01*
X85577504Y55035409D01*
X85322978Y54850485D01*
X85322968Y54850477D01*
X85093608Y54635093D01*
X85093606Y54635091D01*
X84893054Y54392666D01*
X84893051Y54392662D01*
X84724464Y54127010D01*
X84724461Y54127004D01*
X84590499Y53842322D01*
X84590497Y53842317D01*
X84493270Y53543084D01*
X84434311Y53234012D01*
X84434310Y53234005D01*
X84414556Y52920006D01*
X84414556Y52919995D01*
X45680982Y52919995D01*
X45562547Y53089139D01*
X45562545Y53089142D01*
X45401641Y53250046D01*
X45215234Y53380568D01*
X45215232Y53380569D01*
X45008997Y53476739D01*
X45008988Y53476742D01*
X44789197Y53535634D01*
X44789193Y53535635D01*
X44789192Y53535635D01*
X44789191Y53535636D01*
X44789186Y53535636D01*
X44562502Y53555468D01*
X44562498Y53555468D01*
X44335813Y53535636D01*
X44335802Y53535634D01*
X44116011Y53476742D01*
X44116002Y53476739D01*
X43909767Y53380569D01*
X43909765Y53380568D01*
X43723358Y53250046D01*
X43562454Y53089142D01*
X43431932Y52902735D01*
X43431931Y52902733D01*
X43335761Y52696498D01*
X43335758Y52696489D01*
X43276866Y52476698D01*
X43276864Y52476687D01*
X43257032Y52250002D01*
X43257032Y52249999D01*
X4100500Y52249999D01*
X4100499Y53447872D01*
X4094091Y53507483D01*
X4089634Y53519432D01*
X4081963Y53540000D01*
X23407040Y53540000D01*
X23426826Y53351744D01*
X23426827Y53351741D01*
X23485318Y53171723D01*
X23485321Y53171716D01*
X23579967Y53007784D01*
X23659013Y52919995D01*
X23706629Y52867112D01*
X23859765Y52755852D01*
X23859770Y52755849D01*
X24032692Y52678858D01*
X24032697Y52678856D01*
X24217854Y52639500D01*
X24217855Y52639500D01*
X24407144Y52639500D01*
X24407146Y52639500D01*
X24592303Y52678856D01*
X24765230Y52755849D01*
X24918371Y52867112D01*
X25045033Y53007784D01*
X25139679Y53171716D01*
X25198174Y53351744D01*
X25217960Y53540000D01*
X25198174Y53728256D01*
X25139679Y53908284D01*
X25128312Y53927971D01*
X25111840Y53995870D01*
X25134693Y54061897D01*
X25189614Y54105088D01*
X25259167Y54111729D01*
X25314666Y54084113D01*
X25314974Y54084535D01*
X25317487Y54082710D01*
X25318675Y54082118D01*
X25320225Y54080723D01*
X25320232Y54080715D01*
X25346133Y54061897D01*
X25473368Y53969455D01*
X25473373Y53969452D01*
X25646295Y53892461D01*
X25646300Y53892459D01*
X25831457Y53853103D01*
X25831458Y53853103D01*
X26020747Y53853103D01*
X26020749Y53853103D01*
X26205906Y53892459D01*
X26378833Y53969452D01*
X26531974Y54080715D01*
X26658636Y54221387D01*
X26753282Y54385319D01*
X26811777Y54565347D01*
X26820674Y54649999D01*
X53894532Y54649999D01*
X53914364Y54423314D01*
X53914366Y54423303D01*
X53973258Y54203512D01*
X53973261Y54203503D01*
X54069431Y53997268D01*
X54069432Y53997266D01*
X54199954Y53810859D01*
X54360858Y53649955D01*
X54360861Y53649953D01*
X54547266Y53519432D01*
X54753504Y53423261D01*
X54973308Y53364365D01*
X55117567Y53351744D01*
X55199998Y53344532D01*
X55200000Y53344532D01*
X55200002Y53344532D01*
X55256673Y53349491D01*
X55426692Y53364365D01*
X55646496Y53423261D01*
X55852734Y53519432D01*
X56039139Y53649953D01*
X56200047Y53810861D01*
X56330568Y53997266D01*
X56426739Y54203504D01*
X56485635Y54423308D01*
X56505468Y54650000D01*
X56485635Y54876692D01*
X56426739Y55096496D01*
X56330568Y55302734D01*
X56200047Y55489139D01*
X56200045Y55489142D01*
X56039141Y55650046D01*
X55852734Y55780568D01*
X55852732Y55780569D01*
X55646497Y55876739D01*
X55646488Y55876742D01*
X55426697Y55935634D01*
X55426693Y55935635D01*
X55426692Y55935635D01*
X55426691Y55935636D01*
X55426686Y55935636D01*
X55200002Y55955468D01*
X55199998Y55955468D01*
X54973313Y55935636D01*
X54973302Y55935634D01*
X54753511Y55876742D01*
X54753502Y55876739D01*
X54547267Y55780569D01*
X54547265Y55780568D01*
X54360858Y55650046D01*
X54199954Y55489142D01*
X54069432Y55302735D01*
X54069431Y55302733D01*
X53973261Y55096498D01*
X53973258Y55096489D01*
X53914366Y54876698D01*
X53914364Y54876687D01*
X53894532Y54650002D01*
X53894532Y54649999D01*
X26820674Y54649999D01*
X26831563Y54753603D01*
X26811777Y54941859D01*
X26753282Y55121887D01*
X26658636Y55285819D01*
X26626612Y55321385D01*
X26596383Y55384375D01*
X26605008Y55453711D01*
X26626610Y55487324D01*
X26645033Y55507784D01*
X26739679Y55671716D01*
X26798174Y55851744D01*
X26817960Y56040000D01*
X26798174Y56228256D01*
X26739679Y56408284D01*
X26645033Y56572216D01*
X26518371Y56712888D01*
X26518370Y56712889D01*
X26365234Y56824149D01*
X26365229Y56824152D01*
X26192307Y56901143D01*
X26192302Y56901145D01*
X26046501Y56932135D01*
X26007146Y56940500D01*
X25817854Y56940500D01*
X25785397Y56933602D01*
X25632697Y56901145D01*
X25632692Y56901143D01*
X25459770Y56824152D01*
X25459765Y56824149D01*
X25306629Y56712889D01*
X25179966Y56572215D01*
X25085321Y56408285D01*
X25085318Y56408278D01*
X25026827Y56228260D01*
X25026826Y56228256D01*
X25007040Y56040000D01*
X25026826Y55851744D01*
X25026827Y55851741D01*
X25085318Y55671723D01*
X25085321Y55671716D01*
X25179967Y55507784D01*
X25196755Y55489139D01*
X25211989Y55472220D01*
X25242219Y55409229D01*
X25233594Y55339893D01*
X25211990Y55306277D01*
X25193571Y55285821D01*
X25193567Y55285816D01*
X25098924Y55121888D01*
X25098921Y55121881D01*
X25070825Y55035409D01*
X25040429Y54941859D01*
X25020643Y54753603D01*
X25040429Y54565347D01*
X25040430Y54565344D01*
X25098921Y54385326D01*
X25098923Y54385321D01*
X25110290Y54365633D01*
X25126761Y54297732D01*
X25103908Y54231706D01*
X25048987Y54188516D01*
X24979433Y54181875D01*
X24923936Y54209492D01*
X24923629Y54209068D01*
X24921111Y54210898D01*
X24919928Y54211486D01*
X24918374Y54212884D01*
X24918371Y54212888D01*
X24867324Y54249976D01*
X24765234Y54324149D01*
X24765229Y54324152D01*
X24592307Y54401143D01*
X24592302Y54401145D01*
X24446501Y54432135D01*
X24407146Y54440500D01*
X24217854Y54440500D01*
X24185397Y54433602D01*
X24032697Y54401145D01*
X24032692Y54401143D01*
X23859770Y54324152D01*
X23859765Y54324149D01*
X23706629Y54212889D01*
X23579966Y54072215D01*
X23485321Y53908285D01*
X23485318Y53908278D01*
X23426827Y53728260D01*
X23426826Y53728256D01*
X23407040Y53540000D01*
X4081963Y53540000D01*
X4043797Y53642329D01*
X4043793Y53642336D01*
X3957547Y53757545D01*
X3957544Y53757548D01*
X3842335Y53843794D01*
X3842328Y53843798D01*
X3707482Y53894092D01*
X3707483Y53894092D01*
X3647883Y53900499D01*
X3647881Y53900500D01*
X3647873Y53900500D01*
X3647864Y53900500D01*
X1552129Y53900500D01*
X1552123Y53900499D01*
X1492516Y53894092D01*
X1357671Y53843798D01*
X1357664Y53843794D01*
X1242455Y53757548D01*
X1242452Y53757545D01*
X1156206Y53642336D01*
X1156202Y53642329D01*
X1105908Y53507483D01*
X1099501Y53447884D01*
X1099501Y53447877D01*
X1099500Y53447865D01*
X1099500Y51352130D01*
X350500Y51352130D01*
X350500Y56999999D01*
X3694532Y56999999D01*
X3714364Y56773314D01*
X3714366Y56773303D01*
X3773258Y56553512D01*
X3773261Y56553503D01*
X3869431Y56347268D01*
X3869432Y56347266D01*
X3999954Y56160859D01*
X4160858Y55999955D01*
X4160861Y55999953D01*
X4347266Y55869432D01*
X4553504Y55773261D01*
X4773308Y55714365D01*
X4935230Y55700199D01*
X4999998Y55694532D01*
X5000000Y55694532D01*
X5000002Y55694532D01*
X5056673Y55699491D01*
X5226692Y55714365D01*
X5446496Y55773261D01*
X5652734Y55869432D01*
X5839139Y55999953D01*
X5879186Y56040000D01*
X19907040Y56040000D01*
X19926826Y55851744D01*
X19926827Y55851741D01*
X19985318Y55671723D01*
X19985321Y55671716D01*
X20079967Y55507784D01*
X20128655Y55453711D01*
X20206629Y55367112D01*
X20359765Y55255852D01*
X20359770Y55255849D01*
X20532692Y55178858D01*
X20532697Y55178856D01*
X20717854Y55139500D01*
X20717855Y55139500D01*
X20907144Y55139500D01*
X20907146Y55139500D01*
X21092303Y55178856D01*
X21265230Y55255849D01*
X21418371Y55367112D01*
X21545033Y55507784D01*
X21639679Y55671716D01*
X21698174Y55851744D01*
X21717960Y56040000D01*
X21698174Y56228256D01*
X21639679Y56408284D01*
X21545033Y56572216D01*
X21418371Y56712888D01*
X21418370Y56712889D01*
X21265234Y56824149D01*
X21265229Y56824152D01*
X21092307Y56901143D01*
X21092302Y56901145D01*
X20946501Y56932135D01*
X20907146Y56940500D01*
X20717854Y56940500D01*
X20685397Y56933602D01*
X20532697Y56901145D01*
X20532692Y56901143D01*
X20359770Y56824152D01*
X20359765Y56824149D01*
X20206629Y56712889D01*
X20079966Y56572215D01*
X19985321Y56408285D01*
X19985318Y56408278D01*
X19926827Y56228260D01*
X19926826Y56228256D01*
X19907040Y56040000D01*
X5879186Y56040000D01*
X6000047Y56160861D01*
X6130568Y56347266D01*
X6226739Y56553504D01*
X6285635Y56773308D01*
X6305468Y57000000D01*
X6285635Y57226692D01*
X6279390Y57249998D01*
X43257534Y57249998D01*
X43277358Y57023401D01*
X43277360Y57023390D01*
X43336230Y56803683D01*
X43336235Y56803669D01*
X43432363Y56597522D01*
X43483474Y56524528D01*
X44164546Y57205600D01*
X44177335Y57124852D01*
X44234859Y57011955D01*
X44324455Y56922359D01*
X44437352Y56864835D01*
X44518099Y56852047D01*
X43837026Y56170975D01*
X43910013Y56119868D01*
X43910021Y56119864D01*
X44116168Y56023736D01*
X44116182Y56023731D01*
X44335889Y55964861D01*
X44335900Y55964859D01*
X44562498Y55945034D01*
X44562502Y55945034D01*
X44789099Y55964859D01*
X44789110Y55964861D01*
X45008817Y56023731D01*
X45008831Y56023736D01*
X45214978Y56119864D01*
X45287971Y56170976D01*
X44606900Y56852047D01*
X44687648Y56864835D01*
X44800545Y56922359D01*
X44890141Y57011955D01*
X44947665Y57124852D01*
X44960453Y57205600D01*
X45641524Y56524529D01*
X45692636Y56597522D01*
X45788764Y56803669D01*
X45788769Y56803683D01*
X45847639Y57023390D01*
X45847641Y57023401D01*
X45867466Y57249998D01*
X45867466Y57250003D01*
X45847641Y57476600D01*
X45847639Y57476611D01*
X45788769Y57696318D01*
X45788764Y57696332D01*
X45692636Y57902479D01*
X45692632Y57902487D01*
X45641525Y57975474D01*
X44960453Y57294402D01*
X44947665Y57375148D01*
X44890141Y57488045D01*
X44800545Y57577641D01*
X44687648Y57635165D01*
X44606901Y57647954D01*
X44958946Y58000000D01*
X61894540Y58000000D01*
X61914326Y57811744D01*
X61914327Y57811741D01*
X61972818Y57631723D01*
X61972821Y57631716D01*
X62067467Y57467784D01*
X62150877Y57375148D01*
X62194129Y57327112D01*
X62347265Y57215852D01*
X62347270Y57215849D01*
X62520192Y57138858D01*
X62520197Y57138856D01*
X62705354Y57099500D01*
X62705355Y57099500D01*
X62894644Y57099500D01*
X62894646Y57099500D01*
X63079803Y57138856D01*
X63252730Y57215849D01*
X63405871Y57327112D01*
X63532533Y57467784D01*
X63572489Y57536990D01*
X90699500Y57536990D01*
X90699501Y57536971D01*
X90705687Y57458357D01*
X90708867Y57446489D01*
X90754680Y57275512D01*
X90767679Y57250000D01*
X90840614Y57106854D01*
X90889859Y57046042D01*
X90959743Y56959743D01*
X91032107Y56901144D01*
X91106853Y56840615D01*
X91190371Y56798062D01*
X91275512Y56754680D01*
X91458355Y56705688D01*
X91536979Y56699500D01*
X92463020Y56699501D01*
X92541645Y56705688D01*
X92724488Y56754680D01*
X92860835Y56824152D01*
X92893146Y56840615D01*
X92893147Y56840617D01*
X92893149Y56840617D01*
X93040257Y56959743D01*
X93159383Y57106851D01*
X93175691Y57138856D01*
X93214920Y57215849D01*
X93242171Y57269333D01*
X93290143Y57320126D01*
X93357963Y57336922D01*
X93424099Y57314385D01*
X93454228Y57284161D01*
X93460973Y57274528D01*
X93460974Y57274528D01*
X94095550Y57909104D01*
X94096327Y57898735D01*
X94145887Y57772459D01*
X94230465Y57666401D01*
X94342547Y57589984D01*
X94450299Y57556747D01*
X93814526Y56920975D01*
X93887513Y56869868D01*
X93887521Y56869864D01*
X94093668Y56773736D01*
X94093682Y56773731D01*
X94313389Y56714861D01*
X94313400Y56714859D01*
X94539998Y56695034D01*
X94540002Y56695034D01*
X94766599Y56714859D01*
X94766610Y56714861D01*
X94986317Y56773731D01*
X94986331Y56773736D01*
X95192478Y56869864D01*
X95265471Y56920976D01*
X94628231Y57558216D01*
X94674138Y57565135D01*
X94796357Y57623993D01*
X94895798Y57716260D01*
X94963625Y57833740D01*
X94981499Y57912054D01*
X95619024Y57274529D01*
X95670136Y57347522D01*
X95766264Y57553669D01*
X95766269Y57553683D01*
X95825139Y57773390D01*
X95825141Y57773401D01*
X95844966Y57999998D01*
X95844966Y58000003D01*
X95825141Y58226600D01*
X95825139Y58226611D01*
X95766269Y58446318D01*
X95766264Y58446332D01*
X95670136Y58652479D01*
X95670132Y58652487D01*
X95619025Y58725474D01*
X94984449Y58090899D01*
X94983673Y58101265D01*
X94934113Y58227541D01*
X94849535Y58333599D01*
X94737453Y58410016D01*
X94629700Y58443253D01*
X95265472Y59079026D01*
X95192478Y59130137D01*
X94986331Y59226265D01*
X94986317Y59226270D01*
X94766610Y59285140D01*
X94766599Y59285142D01*
X94540002Y59304966D01*
X94539998Y59304966D01*
X94313400Y59285142D01*
X94313389Y59285140D01*
X94093682Y59226270D01*
X94093673Y59226266D01*
X93887516Y59130134D01*
X93887512Y59130132D01*
X93814526Y59079027D01*
X93814526Y59079026D01*
X94451768Y58441785D01*
X94405862Y58434865D01*
X94283643Y58376007D01*
X94184202Y58283740D01*
X94116375Y58166260D01*
X94098500Y58087948D01*
X93460974Y58725474D01*
X93460973Y58725474D01*
X93454229Y58715841D01*
X93399652Y58672216D01*
X93330153Y58665024D01*
X93267799Y58696546D01*
X93242170Y58730669D01*
X93210531Y58792765D01*
X93159385Y58893147D01*
X93074863Y58997522D01*
X93040257Y59040257D01*
X92929271Y59130132D01*
X92893146Y59159386D01*
X92767868Y59223217D01*
X92724488Y59245320D01*
X92651656Y59264835D01*
X92541643Y59294313D01*
X92469736Y59299972D01*
X92463021Y59300500D01*
X92463020Y59300500D01*
X91536989Y59300500D01*
X91536970Y59300499D01*
X91458356Y59294313D01*
X91275512Y59245320D01*
X91106853Y59159386D01*
X90959743Y59040257D01*
X90840614Y58893147D01*
X90754680Y58724488D01*
X90705687Y58541644D01*
X90705687Y58541643D01*
X90699500Y58463027D01*
X90699500Y57536990D01*
X63572489Y57536990D01*
X63627179Y57631716D01*
X63685674Y57811744D01*
X63705460Y58000000D01*
X63685674Y58188256D01*
X63627179Y58368284D01*
X63532533Y58532216D01*
X63405871Y58672888D01*
X63405870Y58672889D01*
X63252734Y58784149D01*
X63252729Y58784152D01*
X63079807Y58861143D01*
X63079802Y58861145D01*
X62929230Y58893149D01*
X62894646Y58900500D01*
X62705354Y58900500D01*
X62672897Y58893602D01*
X62520197Y58861145D01*
X62520192Y58861143D01*
X62347270Y58784152D01*
X62347265Y58784149D01*
X62194129Y58672889D01*
X62067466Y58532215D01*
X61972821Y58368285D01*
X61972818Y58368278D01*
X61914327Y58188260D01*
X61914326Y58188256D01*
X61894540Y58000000D01*
X44958946Y58000000D01*
X45287972Y58329026D01*
X45214978Y58380137D01*
X45008831Y58476265D01*
X45008817Y58476270D01*
X44789110Y58535140D01*
X44789099Y58535142D01*
X44562502Y58554966D01*
X44562498Y58554966D01*
X44335900Y58535142D01*
X44335889Y58535140D01*
X44116182Y58476270D01*
X44116173Y58476266D01*
X43910016Y58380134D01*
X43910012Y58380132D01*
X43837026Y58329027D01*
X43837026Y58329026D01*
X44518099Y57647954D01*
X44437352Y57635165D01*
X44324455Y57577641D01*
X44234859Y57488045D01*
X44177335Y57375148D01*
X44164546Y57294402D01*
X43483474Y57975474D01*
X43483473Y57975474D01*
X43432368Y57902488D01*
X43432366Y57902484D01*
X43336234Y57696327D01*
X43336230Y57696318D01*
X43277360Y57476611D01*
X43277358Y57476600D01*
X43257534Y57250003D01*
X43257534Y57249998D01*
X6279390Y57249998D01*
X6226739Y57446496D01*
X6130568Y57652734D01*
X6000047Y57839139D01*
X6000045Y57839142D01*
X5839141Y58000046D01*
X5652734Y58130568D01*
X5652732Y58130569D01*
X5446497Y58226739D01*
X5446488Y58226742D01*
X5226697Y58285634D01*
X5226693Y58285635D01*
X5226692Y58285635D01*
X5226691Y58285636D01*
X5226686Y58285636D01*
X5000002Y58305468D01*
X4999998Y58305468D01*
X4773313Y58285636D01*
X4773302Y58285634D01*
X4553511Y58226742D01*
X4553502Y58226739D01*
X4347267Y58130569D01*
X4347265Y58130568D01*
X4160858Y58000046D01*
X3999954Y57839142D01*
X3869432Y57652735D01*
X3869431Y57652733D01*
X3773261Y57446498D01*
X3773258Y57446489D01*
X3714366Y57226698D01*
X3714364Y57226687D01*
X3694532Y57000002D01*
X3694532Y56999999D01*
X350500Y56999999D01*
X350500Y59652156D01*
X3700000Y59652156D01*
X3706401Y59592628D01*
X3706403Y59592621D01*
X3756645Y59457914D01*
X3756649Y59457907D01*
X3842809Y59342813D01*
X3842812Y59342810D01*
X3957906Y59256650D01*
X3957913Y59256646D01*
X4092620Y59206404D01*
X4092627Y59206402D01*
X4152155Y59200001D01*
X4152172Y59200000D01*
X4750000Y59200000D01*
X4750000Y60184314D01*
X4761955Y60172359D01*
X4874852Y60114835D01*
X4968519Y60100000D01*
X5031481Y60100000D01*
X5125148Y60114835D01*
X5238045Y60172359D01*
X5250000Y60184314D01*
X5250000Y59200000D01*
X5847828Y59200000D01*
X5847844Y59200001D01*
X5907372Y59206402D01*
X5907379Y59206404D01*
X6042086Y59256646D01*
X6042093Y59256650D01*
X6157187Y59342810D01*
X6157190Y59342813D01*
X6200001Y59400000D01*
X32033290Y59400000D01*
X32053076Y59211744D01*
X32053077Y59211741D01*
X32111568Y59031723D01*
X32111571Y59031716D01*
X32206217Y58867784D01*
X32212196Y58861144D01*
X32332879Y58727112D01*
X32486015Y58615852D01*
X32486020Y58615849D01*
X32658942Y58538858D01*
X32658947Y58538856D01*
X32844104Y58499500D01*
X32844105Y58499500D01*
X33033394Y58499500D01*
X33033396Y58499500D01*
X33218553Y58538856D01*
X33391480Y58615849D01*
X33544621Y58727112D01*
X33671283Y58867784D01*
X33765929Y59031716D01*
X33824424Y59211744D01*
X33844210Y59400000D01*
X33824424Y59588256D01*
X33804363Y59649998D01*
X53895034Y59649998D01*
X53914858Y59423401D01*
X53914860Y59423390D01*
X53973728Y59203691D01*
X53973735Y59203669D01*
X54069863Y58997522D01*
X54120974Y58924528D01*
X54802046Y59605600D01*
X54814835Y59524852D01*
X54872359Y59411955D01*
X54961955Y59322359D01*
X55074852Y59264835D01*
X55155599Y59252047D01*
X54474526Y58570975D01*
X54547513Y58519868D01*
X54547521Y58519864D01*
X54753668Y58423736D01*
X54753682Y58423731D01*
X54973389Y58364861D01*
X54973400Y58364859D01*
X55199998Y58345034D01*
X55200002Y58345034D01*
X55426599Y58364859D01*
X55426610Y58364861D01*
X55646317Y58423731D01*
X55646331Y58423736D01*
X55852478Y58519864D01*
X55925471Y58570976D01*
X55244400Y59252047D01*
X55325148Y59264835D01*
X55438045Y59322359D01*
X55527641Y59411955D01*
X55585165Y59524852D01*
X55597953Y59605600D01*
X56279024Y58924529D01*
X56330136Y58997522D01*
X56426264Y59203669D01*
X56426272Y59203691D01*
X56485139Y59423390D01*
X56485141Y59423401D01*
X56504966Y59649998D01*
X56504966Y59650003D01*
X56485141Y59876600D01*
X56485139Y59876611D01*
X56426269Y60096318D01*
X56426264Y60096332D01*
X56330136Y60302479D01*
X56330132Y60302487D01*
X56279025Y60375474D01*
X55597953Y59694402D01*
X55585165Y59775148D01*
X55527641Y59888045D01*
X55438045Y59977641D01*
X55325148Y60035165D01*
X55244401Y60047954D01*
X55925472Y60729026D01*
X55852478Y60780137D01*
X55646331Y60876265D01*
X55646317Y60876270D01*
X55426610Y60935140D01*
X55426599Y60935142D01*
X55200002Y60954966D01*
X55199998Y60954966D01*
X54973400Y60935142D01*
X54973389Y60935140D01*
X54753682Y60876270D01*
X54753673Y60876266D01*
X54547516Y60780134D01*
X54547512Y60780132D01*
X54474526Y60729027D01*
X54474526Y60729026D01*
X55155599Y60047954D01*
X55074852Y60035165D01*
X54961955Y59977641D01*
X54872359Y59888045D01*
X54814835Y59775148D01*
X54802046Y59694402D01*
X54120974Y60375474D01*
X54120973Y60375474D01*
X54069868Y60302488D01*
X54069866Y60302484D01*
X53973734Y60096327D01*
X53973730Y60096318D01*
X53914860Y59876611D01*
X53914858Y59876600D01*
X53895034Y59650003D01*
X53895034Y59649998D01*
X33804363Y59649998D01*
X33765929Y59768284D01*
X33671283Y59932216D01*
X33544621Y60072888D01*
X33544620Y60072889D01*
X33391484Y60184149D01*
X33391479Y60184152D01*
X33218557Y60261143D01*
X33218552Y60261145D01*
X33072751Y60292135D01*
X33033396Y60300500D01*
X32844104Y60300500D01*
X32811647Y60293602D01*
X32658947Y60261145D01*
X32658942Y60261143D01*
X32486020Y60184152D01*
X32486015Y60184149D01*
X32332879Y60072889D01*
X32206216Y59932215D01*
X32111571Y59768285D01*
X32111568Y59768278D01*
X32054494Y59592621D01*
X32053076Y59588256D01*
X32033290Y59400000D01*
X6200001Y59400000D01*
X6243350Y59457907D01*
X6243354Y59457914D01*
X6293596Y59592621D01*
X6293598Y59592628D01*
X6299999Y59652156D01*
X6300000Y59652173D01*
X6300000Y60250000D01*
X5315686Y60250000D01*
X5327641Y60261955D01*
X5385165Y60374852D01*
X5404986Y60500000D01*
X5385165Y60625148D01*
X5327641Y60738045D01*
X5315686Y60750000D01*
X6300000Y60750000D01*
X6300000Y61347828D01*
X6299999Y61347845D01*
X6293598Y61407373D01*
X6293596Y61407380D01*
X6243354Y61542087D01*
X6243350Y61542094D01*
X6157190Y61657188D01*
X6157187Y61657191D01*
X6042093Y61743351D01*
X6042086Y61743355D01*
X5907379Y61793597D01*
X5907372Y61793599D01*
X5847844Y61800000D01*
X5250000Y61800000D01*
X5250000Y60815686D01*
X5238045Y60827641D01*
X5125148Y60885165D01*
X5031481Y60900000D01*
X4968519Y60900000D01*
X4874852Y60885165D01*
X4761955Y60827641D01*
X4750000Y60815686D01*
X4750000Y61800000D01*
X4152155Y61800000D01*
X4092627Y61793599D01*
X4092620Y61793597D01*
X3957913Y61743355D01*
X3957906Y61743351D01*
X3842812Y61657191D01*
X3842809Y61657188D01*
X3756649Y61542094D01*
X3756645Y61542087D01*
X3706403Y61407380D01*
X3706401Y61407373D01*
X3700000Y61347845D01*
X3700000Y60750000D01*
X4684314Y60750000D01*
X4672359Y60738045D01*
X4614835Y60625148D01*
X4595014Y60500000D01*
X4614835Y60374852D01*
X4672359Y60261955D01*
X4684314Y60250000D01*
X3700000Y60250000D01*
X3700000Y59652156D01*
X350500Y59652156D01*
X350500Y63079995D01*
X94574556Y63079995D01*
X94594310Y62765996D01*
X94594311Y62765989D01*
X94653270Y62456917D01*
X94750497Y62157684D01*
X94750499Y62157679D01*
X94884461Y61872997D01*
X94884464Y61872991D01*
X95053051Y61607339D01*
X95053054Y61607335D01*
X95253606Y61364910D01*
X95253608Y61364908D01*
X95482968Y61149524D01*
X95482978Y61149516D01*
X95737504Y60964592D01*
X95737509Y60964590D01*
X95737516Y60964584D01*
X96013234Y60813006D01*
X96013239Y60813004D01*
X96013241Y60813003D01*
X96013242Y60813002D01*
X96305771Y60697182D01*
X96305774Y60697181D01*
X96586325Y60625148D01*
X96610527Y60618934D01*
X96676010Y60610662D01*
X96922670Y60579501D01*
X96922679Y60579501D01*
X96922682Y60579500D01*
X96922684Y60579500D01*
X97237316Y60579500D01*
X97237318Y60579500D01*
X97237321Y60579501D01*
X97237329Y60579501D01*
X97423593Y60603032D01*
X97549473Y60618934D01*
X97854225Y60697181D01*
X97854228Y60697182D01*
X98146757Y60813002D01*
X98146758Y60813003D01*
X98146756Y60813003D01*
X98146766Y60813006D01*
X98422484Y60964584D01*
X98677030Y61149522D01*
X98906390Y61364906D01*
X99106947Y61607337D01*
X99275537Y61872993D01*
X99409503Y62157685D01*
X99506731Y62456921D01*
X99565688Y62765985D01*
X99574344Y62903569D01*
X99585444Y63079995D01*
X99585444Y63080006D01*
X99565689Y63394005D01*
X99565688Y63394012D01*
X99565688Y63394015D01*
X99506731Y63703079D01*
X99409503Y64002315D01*
X99275537Y64287007D01*
X99160813Y64467784D01*
X99106948Y64552662D01*
X99106945Y64552666D01*
X98906393Y64795091D01*
X98906391Y64795093D01*
X98765806Y64927112D01*
X98677030Y65010478D01*
X98677027Y65010480D01*
X98677021Y65010485D01*
X98422495Y65195409D01*
X98422488Y65195414D01*
X98422484Y65195416D01*
X98146766Y65346994D01*
X98146763Y65346996D01*
X98146758Y65346998D01*
X98146757Y65346999D01*
X97854228Y65462819D01*
X97854225Y65462820D01*
X97549476Y65541066D01*
X97549463Y65541068D01*
X97237329Y65580500D01*
X97237318Y65580500D01*
X96922682Y65580500D01*
X96922670Y65580500D01*
X96610536Y65541068D01*
X96610523Y65541066D01*
X96305774Y65462820D01*
X96305771Y65462819D01*
X96013242Y65346999D01*
X96013241Y65346998D01*
X95737516Y65195416D01*
X95737504Y65195409D01*
X95482978Y65010485D01*
X95482968Y65010477D01*
X95253608Y64795093D01*
X95253606Y64795091D01*
X95053054Y64552666D01*
X95053051Y64552662D01*
X94884464Y64287010D01*
X94884461Y64287004D01*
X94750499Y64002322D01*
X94750497Y64002317D01*
X94653270Y63703084D01*
X94594311Y63394012D01*
X94594310Y63394005D01*
X94574556Y63080006D01*
X94574556Y63079995D01*
X350500Y63079995D01*
X350500Y63952156D01*
X1100000Y63952156D01*
X1106401Y63892628D01*
X1106403Y63892621D01*
X1156645Y63757914D01*
X1156649Y63757907D01*
X1242809Y63642813D01*
X1242812Y63642810D01*
X1357906Y63556650D01*
X1357913Y63556646D01*
X1492620Y63506404D01*
X1492627Y63506402D01*
X1552155Y63500001D01*
X1552172Y63500000D01*
X2350000Y63500000D01*
X2350000Y64564499D01*
X2457685Y64515320D01*
X2564237Y64500000D01*
X2635763Y64500000D01*
X2742315Y64515320D01*
X2850000Y64564499D01*
X2850000Y63500000D01*
X3647828Y63500000D01*
X3647844Y63500001D01*
X3707372Y63506402D01*
X3707379Y63506404D01*
X3842086Y63556646D01*
X3842093Y63556650D01*
X3957187Y63642810D01*
X3957190Y63642813D01*
X4043350Y63757907D01*
X4043354Y63757914D01*
X4093596Y63892621D01*
X4093598Y63892628D01*
X4099999Y63952156D01*
X4100000Y63952173D01*
X4100000Y64000000D01*
X29494540Y64000000D01*
X29514326Y63811744D01*
X29514327Y63811741D01*
X29572818Y63631723D01*
X29572821Y63631716D01*
X29667467Y63467784D01*
X29732896Y63395118D01*
X29794129Y63327112D01*
X29947265Y63215852D01*
X29947270Y63215849D01*
X30120192Y63138858D01*
X30120197Y63138856D01*
X30305354Y63099500D01*
X30305355Y63099500D01*
X30494644Y63099500D01*
X30494646Y63099500D01*
X30679803Y63138856D01*
X30852730Y63215849D01*
X31005871Y63327112D01*
X31132533Y63467784D01*
X31227179Y63631716D01*
X31285674Y63811744D01*
X31305460Y64000000D01*
X31285674Y64188256D01*
X31227179Y64368284D01*
X31132533Y64532216D01*
X31005871Y64672888D01*
X30977497Y64693503D01*
X30852734Y64784149D01*
X30852729Y64784152D01*
X30679807Y64861143D01*
X30679802Y64861145D01*
X30534001Y64892135D01*
X30494646Y64900500D01*
X30305354Y64900500D01*
X30272897Y64893602D01*
X30120197Y64861145D01*
X30120192Y64861143D01*
X29947270Y64784152D01*
X29947265Y64784149D01*
X29794129Y64672889D01*
X29667466Y64532215D01*
X29572821Y64368285D01*
X29572818Y64368278D01*
X29514327Y64188260D01*
X29514326Y64188256D01*
X29494540Y64000000D01*
X4100000Y64000000D01*
X4100000Y64750000D01*
X3033686Y64750000D01*
X3059493Y64790156D01*
X3100000Y64928111D01*
X3100000Y65071889D01*
X3059493Y65209844D01*
X3033686Y65250000D01*
X4100000Y65250000D01*
X4100000Y65600000D01*
X24694540Y65600000D01*
X24714326Y65411744D01*
X24714327Y65411741D01*
X24772818Y65231723D01*
X24772821Y65231716D01*
X24867467Y65067784D01*
X24993229Y64928111D01*
X24994129Y64927112D01*
X25147265Y64815852D01*
X25147270Y64815849D01*
X25320192Y64738858D01*
X25320197Y64738856D01*
X25505354Y64699500D01*
X25505355Y64699500D01*
X25694644Y64699500D01*
X25694646Y64699500D01*
X25879803Y64738856D01*
X26052730Y64815849D01*
X26205871Y64927112D01*
X26332533Y65067784D01*
X26374226Y65139999D01*
X33957032Y65139999D01*
X33976864Y64913314D01*
X33976866Y64913303D01*
X34035758Y64693512D01*
X34035761Y64693503D01*
X34131931Y64487268D01*
X34131932Y64487266D01*
X34262454Y64300859D01*
X34423358Y64139955D01*
X34423361Y64139953D01*
X34609766Y64009432D01*
X34816004Y63913261D01*
X34816009Y63913260D01*
X34816011Y63913259D01*
X34868915Y63899084D01*
X35035808Y63854365D01*
X35197730Y63840199D01*
X35262498Y63834532D01*
X35262500Y63834532D01*
X35262502Y63834532D01*
X35319173Y63839491D01*
X35489192Y63854365D01*
X35708996Y63913261D01*
X35915234Y64009432D01*
X36101639Y64139953D01*
X36262547Y64300861D01*
X36393068Y64487266D01*
X36489239Y64693504D01*
X36548135Y64913308D01*
X36567968Y65139998D01*
X38957534Y65139998D01*
X38977358Y64913401D01*
X38977360Y64913390D01*
X39036230Y64693683D01*
X39036235Y64693669D01*
X39132363Y64487522D01*
X39183474Y64414528D01*
X39864546Y65095600D01*
X39877335Y65014852D01*
X39934859Y64901955D01*
X40024455Y64812359D01*
X40137352Y64754835D01*
X40218099Y64742047D01*
X39537026Y64060975D01*
X39610013Y64009868D01*
X39610021Y64009864D01*
X39816168Y63913736D01*
X39816182Y63913731D01*
X40035889Y63854861D01*
X40035900Y63854859D01*
X40262498Y63835034D01*
X40262502Y63835034D01*
X40489099Y63854859D01*
X40489110Y63854861D01*
X40708817Y63913731D01*
X40708831Y63913736D01*
X40914978Y64009864D01*
X40987971Y64060976D01*
X40306900Y64742047D01*
X40387648Y64754835D01*
X40500545Y64812359D01*
X40590141Y64901955D01*
X40647665Y65014852D01*
X40660453Y65095600D01*
X41341524Y64414529D01*
X41392636Y64487522D01*
X41488764Y64693669D01*
X41488769Y64693683D01*
X41547639Y64913390D01*
X41547641Y64913401D01*
X41555218Y65000000D01*
X56894540Y65000000D01*
X56914326Y64811744D01*
X56914327Y64811741D01*
X56972818Y64631723D01*
X56972821Y64631716D01*
X57067467Y64467784D01*
X57157063Y64368278D01*
X57194129Y64327112D01*
X57347265Y64215852D01*
X57347270Y64215849D01*
X57520192Y64138858D01*
X57520197Y64138856D01*
X57705354Y64099500D01*
X57705355Y64099500D01*
X57894644Y64099500D01*
X57894646Y64099500D01*
X58079803Y64138856D01*
X58252730Y64215849D01*
X58405871Y64327112D01*
X58532533Y64467784D01*
X58627179Y64631716D01*
X58685674Y64811744D01*
X58705460Y65000000D01*
X58685674Y65188256D01*
X58681858Y65200000D01*
X72294540Y65200000D01*
X72314326Y65011744D01*
X72314327Y65011741D01*
X72372818Y64831723D01*
X72372821Y64831716D01*
X72467467Y64667784D01*
X72499937Y64631723D01*
X72594129Y64527112D01*
X72747265Y64415852D01*
X72747270Y64415849D01*
X72920192Y64338858D01*
X72920197Y64338856D01*
X73105354Y64299500D01*
X73105355Y64299500D01*
X73294644Y64299500D01*
X73294646Y64299500D01*
X73479803Y64338856D01*
X73652730Y64415849D01*
X73805871Y64527112D01*
X73932533Y64667784D01*
X74027179Y64831716D01*
X74085674Y65011744D01*
X74105460Y65200000D01*
X74085674Y65388256D01*
X74027179Y65568284D01*
X73932533Y65732216D01*
X73805871Y65872888D01*
X73805870Y65872889D01*
X73652734Y65984149D01*
X73652729Y65984152D01*
X73479807Y66061143D01*
X73479802Y66061145D01*
X73334001Y66092135D01*
X73294646Y66100500D01*
X73105354Y66100500D01*
X73072897Y66093602D01*
X72920197Y66061145D01*
X72920192Y66061143D01*
X72747270Y65984152D01*
X72747265Y65984149D01*
X72594129Y65872889D01*
X72467466Y65732215D01*
X72372821Y65568285D01*
X72372818Y65568278D01*
X72314327Y65388260D01*
X72314326Y65388256D01*
X72294540Y65200000D01*
X58681858Y65200000D01*
X58627179Y65368284D01*
X58532533Y65532216D01*
X58405871Y65672888D01*
X58405870Y65672889D01*
X58252734Y65784149D01*
X58252729Y65784152D01*
X58079807Y65861143D01*
X58079802Y65861145D01*
X57934001Y65892135D01*
X57894646Y65900500D01*
X57705354Y65900500D01*
X57672897Y65893602D01*
X57520197Y65861145D01*
X57520192Y65861143D01*
X57347270Y65784152D01*
X57347265Y65784149D01*
X57194129Y65672889D01*
X57067466Y65532215D01*
X56972821Y65368285D01*
X56972818Y65368278D01*
X56928449Y65231723D01*
X56914326Y65188256D01*
X56894540Y65000000D01*
X41555218Y65000000D01*
X41567466Y65139998D01*
X41567466Y65140003D01*
X41547641Y65366600D01*
X41547639Y65366611D01*
X41488769Y65586318D01*
X41488764Y65586332D01*
X41392636Y65792479D01*
X41392632Y65792487D01*
X41341525Y65865474D01*
X40660453Y65184402D01*
X40647665Y65265148D01*
X40590141Y65378045D01*
X40500545Y65467641D01*
X40387648Y65525165D01*
X40306901Y65537954D01*
X40987972Y66219026D01*
X40914978Y66270137D01*
X40708831Y66366265D01*
X40708817Y66366270D01*
X40489110Y66425140D01*
X40489099Y66425142D01*
X40262502Y66444966D01*
X40262498Y66444966D01*
X40035900Y66425142D01*
X40035889Y66425140D01*
X39816182Y66366270D01*
X39816173Y66366266D01*
X39610016Y66270134D01*
X39610012Y66270132D01*
X39537026Y66219027D01*
X39537026Y66219026D01*
X40218099Y65537954D01*
X40137352Y65525165D01*
X40024455Y65467641D01*
X39934859Y65378045D01*
X39877335Y65265148D01*
X39864546Y65184402D01*
X39183474Y65865474D01*
X39183473Y65865474D01*
X39132368Y65792488D01*
X39132366Y65792484D01*
X39036234Y65586327D01*
X39036230Y65586318D01*
X38977360Y65366611D01*
X38977358Y65366600D01*
X38957534Y65140003D01*
X38957534Y65139998D01*
X36567968Y65139998D01*
X36567968Y65140000D01*
X36548135Y65366692D01*
X36501411Y65541068D01*
X36489241Y65586489D01*
X36489238Y65586498D01*
X36448953Y65672889D01*
X36393068Y65792734D01*
X36262547Y65979139D01*
X36262545Y65979142D01*
X36101641Y66140046D01*
X35915234Y66270568D01*
X35915232Y66270569D01*
X35708997Y66366739D01*
X35708988Y66366742D01*
X35489197Y66425634D01*
X35489193Y66425635D01*
X35489192Y66425635D01*
X35489191Y66425636D01*
X35489186Y66425636D01*
X35262502Y66445468D01*
X35262498Y66445468D01*
X35035813Y66425636D01*
X35035802Y66425634D01*
X34816011Y66366742D01*
X34816002Y66366739D01*
X34609767Y66270569D01*
X34609765Y66270568D01*
X34423358Y66140046D01*
X34262454Y65979142D01*
X34131932Y65792735D01*
X34131931Y65792733D01*
X34035761Y65586498D01*
X34035758Y65586489D01*
X33976866Y65366698D01*
X33976864Y65366687D01*
X33957032Y65140002D01*
X33957032Y65139999D01*
X26374226Y65139999D01*
X26427179Y65231716D01*
X26485674Y65411744D01*
X26505460Y65600000D01*
X26485674Y65788256D01*
X26427179Y65968284D01*
X26332533Y66132216D01*
X26205871Y66272888D01*
X26205870Y66272889D01*
X26052734Y66384149D01*
X26052729Y66384152D01*
X25879807Y66461143D01*
X25879802Y66461145D01*
X25727113Y66493599D01*
X25694646Y66500500D01*
X25505354Y66500500D01*
X25472897Y66493602D01*
X25320197Y66461145D01*
X25320192Y66461143D01*
X25147270Y66384152D01*
X25147265Y66384149D01*
X24994129Y66272889D01*
X24867466Y66132215D01*
X24772821Y65968285D01*
X24772818Y65968278D01*
X24715698Y65792479D01*
X24714326Y65788256D01*
X24694540Y65600000D01*
X4100000Y65600000D01*
X4100000Y66047828D01*
X4099999Y66047845D01*
X4093598Y66107373D01*
X4093596Y66107380D01*
X4043354Y66242087D01*
X4043350Y66242094D01*
X3957190Y66357188D01*
X3957187Y66357191D01*
X3842093Y66443351D01*
X3842086Y66443355D01*
X3707379Y66493597D01*
X3707372Y66493599D01*
X3647844Y66500000D01*
X2850000Y66500000D01*
X2850000Y65435502D01*
X2742315Y65484680D01*
X2635763Y65500000D01*
X2564237Y65500000D01*
X2457685Y65484680D01*
X2350000Y65435502D01*
X2350000Y66500000D01*
X1552155Y66500000D01*
X1492627Y66493599D01*
X1492620Y66493597D01*
X1357913Y66443355D01*
X1357906Y66443351D01*
X1242812Y66357191D01*
X1242809Y66357188D01*
X1156649Y66242094D01*
X1156645Y66242087D01*
X1106403Y66107380D01*
X1106401Y66107373D01*
X1100000Y66047845D01*
X1100000Y65250000D01*
X2166314Y65250000D01*
X2140507Y65209844D01*
X2100000Y65071889D01*
X2100000Y64928111D01*
X2140507Y64790156D01*
X2166314Y64750000D01*
X1100000Y64750000D01*
X1100000Y63952156D01*
X350500Y63952156D01*
X350500Y67790000D01*
X30057040Y67790000D01*
X30076826Y67601744D01*
X30076827Y67601741D01*
X30135318Y67421723D01*
X30135321Y67421716D01*
X30229967Y67257784D01*
X30356629Y67117112D01*
X30509765Y67005852D01*
X30509770Y67005849D01*
X30682692Y66928858D01*
X30682697Y66928856D01*
X30867854Y66889500D01*
X30867855Y66889500D01*
X31057144Y66889500D01*
X31057146Y66889500D01*
X31242303Y66928856D01*
X31415230Y67005849D01*
X31568371Y67117112D01*
X31695033Y67257784D01*
X31789679Y67421716D01*
X31848174Y67601744D01*
X31867960Y67790000D01*
X31848174Y67978256D01*
X31793612Y68146177D01*
X31789681Y68158278D01*
X31789680Y68158279D01*
X31789679Y68158284D01*
X31695033Y68322216D01*
X31568371Y68462888D01*
X31568370Y68462889D01*
X31415234Y68574149D01*
X31415229Y68574152D01*
X31242307Y68651143D01*
X31242302Y68651145D01*
X31096501Y68682135D01*
X31057146Y68690500D01*
X30867854Y68690500D01*
X30835397Y68683602D01*
X30682697Y68651145D01*
X30682692Y68651143D01*
X30509770Y68574152D01*
X30509765Y68574149D01*
X30356629Y68462889D01*
X30229966Y68322215D01*
X30135321Y68158285D01*
X30135318Y68158278D01*
X30076827Y67978260D01*
X30076826Y67978256D01*
X30057040Y67790000D01*
X350500Y67790000D01*
X350500Y68352156D01*
X1100000Y68352156D01*
X1106401Y68292628D01*
X1106403Y68292621D01*
X1156645Y68157914D01*
X1156649Y68157907D01*
X1242809Y68042813D01*
X1242812Y68042810D01*
X1357906Y67956650D01*
X1357913Y67956646D01*
X1492620Y67906404D01*
X1492627Y67906402D01*
X1552155Y67900001D01*
X1552172Y67900000D01*
X2350000Y67900000D01*
X2350000Y68964499D01*
X2457685Y68915320D01*
X2564237Y68900000D01*
X2635763Y68900000D01*
X2742315Y68915320D01*
X2850000Y68964499D01*
X2850000Y67900000D01*
X3647828Y67900000D01*
X3647844Y67900001D01*
X3707372Y67906402D01*
X3707379Y67906404D01*
X3842086Y67956646D01*
X3842093Y67956650D01*
X3957187Y68042810D01*
X3957190Y68042813D01*
X4043350Y68157907D01*
X4043354Y68157914D01*
X4093596Y68292621D01*
X4093598Y68292628D01*
X4099999Y68352156D01*
X4100000Y68352173D01*
X4100000Y69150000D01*
X3033686Y69150000D01*
X3059393Y69190000D01*
X19957040Y69190000D01*
X19976826Y69001744D01*
X19976827Y69001741D01*
X20035318Y68821723D01*
X20035321Y68821716D01*
X20129967Y68657784D01*
X20160384Y68624003D01*
X20256629Y68517112D01*
X20409765Y68405852D01*
X20409770Y68405849D01*
X20582692Y68328858D01*
X20582697Y68328856D01*
X20767854Y68289500D01*
X20767855Y68289500D01*
X20957144Y68289500D01*
X20957146Y68289500D01*
X21142303Y68328856D01*
X21315230Y68405849D01*
X21468371Y68517112D01*
X21595033Y68657784D01*
X21689679Y68821716D01*
X21748174Y69001744D01*
X21767960Y69190000D01*
X21748174Y69378256D01*
X21689679Y69558284D01*
X21595033Y69722216D01*
X21468371Y69862888D01*
X21417291Y69900000D01*
X21315234Y69974149D01*
X21315229Y69974152D01*
X21142307Y70051143D01*
X21142302Y70051145D01*
X20996501Y70082135D01*
X20957146Y70090500D01*
X20767854Y70090500D01*
X20735397Y70083602D01*
X20582697Y70051145D01*
X20582692Y70051143D01*
X20409770Y69974152D01*
X20409765Y69974149D01*
X20256629Y69862889D01*
X20129966Y69722215D01*
X20035321Y69558285D01*
X20035318Y69558278D01*
X19976827Y69378260D01*
X19976826Y69378256D01*
X19957040Y69190000D01*
X3059393Y69190000D01*
X3059493Y69190156D01*
X3100000Y69328111D01*
X3100000Y69471889D01*
X3059493Y69609844D01*
X3033686Y69650000D01*
X4100000Y69650000D01*
X4100000Y70447828D01*
X4099999Y70447845D01*
X4093598Y70507373D01*
X4093596Y70507380D01*
X4043354Y70642087D01*
X4043350Y70642094D01*
X3957190Y70757188D01*
X3957187Y70757191D01*
X3842093Y70843351D01*
X3842086Y70843355D01*
X3707379Y70893597D01*
X3707372Y70893599D01*
X3647844Y70900000D01*
X2850000Y70900000D01*
X2850000Y69835502D01*
X2742315Y69884680D01*
X2635763Y69900000D01*
X2564237Y69900000D01*
X2457685Y69884680D01*
X2350000Y69835502D01*
X2350000Y70900000D01*
X1552155Y70900000D01*
X1492627Y70893599D01*
X1492620Y70893597D01*
X1357913Y70843355D01*
X1357906Y70843351D01*
X1242812Y70757191D01*
X1242809Y70757188D01*
X1156649Y70642094D01*
X1156645Y70642087D01*
X1106403Y70507380D01*
X1106401Y70507373D01*
X1100000Y70447845D01*
X1100000Y69650000D01*
X2166314Y69650000D01*
X2140507Y69609844D01*
X2100000Y69471889D01*
X2100000Y69328111D01*
X2140507Y69190156D01*
X2166314Y69150000D01*
X1100000Y69150000D01*
X1100000Y68352156D01*
X350500Y68352156D01*
X350500Y71670000D01*
X23657040Y71670000D01*
X23676826Y71481744D01*
X23676827Y71481741D01*
X23735318Y71301723D01*
X23735321Y71301716D01*
X23829967Y71137784D01*
X23901968Y71057819D01*
X23956629Y70997112D01*
X24109765Y70885852D01*
X24109770Y70885849D01*
X24282692Y70808858D01*
X24282697Y70808856D01*
X24467854Y70769500D01*
X24467855Y70769500D01*
X24657144Y70769500D01*
X24657146Y70769500D01*
X24842303Y70808856D01*
X24949660Y70856656D01*
X25018908Y70865941D01*
X25082185Y70836313D01*
X25119399Y70777178D01*
X25118735Y70707312D01*
X25118026Y70705058D01*
X25097568Y70642094D01*
X25076826Y70578256D01*
X25057040Y70390000D01*
X25076826Y70201744D01*
X25076827Y70201741D01*
X25135318Y70021723D01*
X25135321Y70021716D01*
X25193542Y69920874D01*
X25210015Y69852973D01*
X25187162Y69786947D01*
X25178306Y69775903D01*
X25129966Y69722215D01*
X25035321Y69558285D01*
X25035318Y69558278D01*
X24976827Y69378260D01*
X24976826Y69378256D01*
X24957040Y69190000D01*
X24976826Y69001744D01*
X24976827Y69001741D01*
X25035318Y68821723D01*
X25035321Y68821716D01*
X25129967Y68657784D01*
X25160384Y68624003D01*
X25256629Y68517112D01*
X25409765Y68405852D01*
X25409770Y68405849D01*
X25582692Y68328858D01*
X25582697Y68328856D01*
X25767854Y68289500D01*
X25767855Y68289500D01*
X25957144Y68289500D01*
X25957146Y68289500D01*
X26142303Y68328856D01*
X26315230Y68405849D01*
X26468371Y68517112D01*
X26595033Y68657784D01*
X26689679Y68821716D01*
X26748174Y69001744D01*
X26767960Y69190000D01*
X28457040Y69190000D01*
X28476826Y69001744D01*
X28476827Y69001741D01*
X28535318Y68821723D01*
X28535321Y68821716D01*
X28629967Y68657784D01*
X28660384Y68624003D01*
X28756629Y68517112D01*
X28909765Y68405852D01*
X28909770Y68405849D01*
X29082692Y68328858D01*
X29082697Y68328856D01*
X29267854Y68289500D01*
X29267855Y68289500D01*
X29457144Y68289500D01*
X29457146Y68289500D01*
X29642303Y68328856D01*
X29815230Y68405849D01*
X29968371Y68517112D01*
X30095033Y68657784D01*
X30189679Y68821716D01*
X30248174Y69001744D01*
X30267960Y69190000D01*
X30248174Y69378256D01*
X30189679Y69558284D01*
X30095033Y69722216D01*
X29968371Y69862888D01*
X29917291Y69900000D01*
X29815234Y69974149D01*
X29815229Y69974152D01*
X29642307Y70051143D01*
X29642302Y70051145D01*
X29496501Y70082135D01*
X29457146Y70090500D01*
X29267854Y70090500D01*
X29235397Y70083602D01*
X29082697Y70051145D01*
X29082692Y70051143D01*
X28909770Y69974152D01*
X28909765Y69974149D01*
X28756629Y69862889D01*
X28629966Y69722215D01*
X28535321Y69558285D01*
X28535318Y69558278D01*
X28476827Y69378260D01*
X28476826Y69378256D01*
X28457040Y69190000D01*
X26767960Y69190000D01*
X26748174Y69378256D01*
X26689679Y69558284D01*
X26631457Y69659128D01*
X26614984Y69727029D01*
X26637837Y69793056D01*
X26646680Y69804084D01*
X26695033Y69857784D01*
X26789679Y70021716D01*
X26848174Y70201744D01*
X26867960Y70390000D01*
X26848174Y70578256D01*
X26789679Y70758284D01*
X26695033Y70922216D01*
X26568371Y71062888D01*
X26568370Y71062889D01*
X26415234Y71174149D01*
X26415229Y71174152D01*
X26242307Y71251143D01*
X26242302Y71251145D01*
X26093259Y71282824D01*
X26057146Y71290500D01*
X25867854Y71290500D01*
X25831741Y71282824D01*
X25682699Y71251145D01*
X25575340Y71203345D01*
X25506090Y71194061D01*
X25442813Y71223689D01*
X25405600Y71282824D01*
X25406265Y71352691D01*
X25406945Y71354857D01*
X25448174Y71481744D01*
X25467960Y71670000D01*
X25453918Y71803603D01*
X28670643Y71803603D01*
X28690429Y71615347D01*
X28690430Y71615344D01*
X28748921Y71435326D01*
X28748924Y71435319D01*
X28843570Y71271387D01*
X28913195Y71194061D01*
X28970232Y71130715D01*
X29123368Y71019455D01*
X29123373Y71019452D01*
X29296295Y70942461D01*
X29296300Y70942459D01*
X29481457Y70903103D01*
X29481458Y70903103D01*
X29670747Y70903103D01*
X29670749Y70903103D01*
X29855906Y70942459D01*
X30028833Y71019452D01*
X30181974Y71130715D01*
X30308636Y71271387D01*
X30403282Y71435319D01*
X30461777Y71615347D01*
X30481563Y71803603D01*
X30461777Y71991859D01*
X30403282Y72171887D01*
X30308636Y72335819D01*
X30181974Y72476491D01*
X30106752Y72531143D01*
X30028837Y72587752D01*
X30028832Y72587755D01*
X29855910Y72664746D01*
X29855905Y72664748D01*
X29710104Y72695738D01*
X29670749Y72704103D01*
X29481457Y72704103D01*
X29449000Y72697205D01*
X29296300Y72664748D01*
X29296295Y72664746D01*
X29123373Y72587755D01*
X29123368Y72587752D01*
X28970232Y72476492D01*
X28843569Y72335818D01*
X28748924Y72171888D01*
X28748921Y72171881D01*
X28690430Y71991863D01*
X28690429Y71991859D01*
X28670643Y71803603D01*
X25453918Y71803603D01*
X25448174Y71858256D01*
X25389679Y72038284D01*
X25295033Y72202216D01*
X25168371Y72342888D01*
X25168370Y72342889D01*
X25015234Y72454149D01*
X25015229Y72454152D01*
X24842307Y72531143D01*
X24842302Y72531145D01*
X24696501Y72562135D01*
X24657146Y72570500D01*
X24467854Y72570500D01*
X24435397Y72563602D01*
X24282697Y72531145D01*
X24282692Y72531143D01*
X24109770Y72454152D01*
X24109765Y72454149D01*
X23956629Y72342889D01*
X23829966Y72202215D01*
X23735321Y72038285D01*
X23735318Y72038278D01*
X23687125Y71889953D01*
X23676826Y71858256D01*
X23657040Y71670000D01*
X350500Y71670000D01*
X350500Y73899998D01*
X3895034Y73899998D01*
X3914858Y73673401D01*
X3914860Y73673390D01*
X3973730Y73453683D01*
X3973735Y73453669D01*
X4069863Y73247522D01*
X4120974Y73174528D01*
X4802046Y73855600D01*
X4814835Y73774852D01*
X4872359Y73661955D01*
X4961955Y73572359D01*
X5074852Y73514835D01*
X5155599Y73502047D01*
X4474526Y72820975D01*
X4547513Y72769868D01*
X4547521Y72769864D01*
X4753668Y72673736D01*
X4753682Y72673731D01*
X4973389Y72614861D01*
X4973400Y72614859D01*
X5199998Y72595034D01*
X5200002Y72595034D01*
X5426599Y72614859D01*
X5426610Y72614861D01*
X5646317Y72673731D01*
X5646331Y72673736D01*
X5852478Y72769864D01*
X5925471Y72820976D01*
X5856448Y72889999D01*
X43257032Y72889999D01*
X43276864Y72663314D01*
X43276866Y72663303D01*
X43335758Y72443512D01*
X43335761Y72443503D01*
X43431931Y72237268D01*
X43431932Y72237266D01*
X43562454Y72050859D01*
X43723358Y71889955D01*
X43723361Y71889953D01*
X43909766Y71759432D01*
X44116004Y71663261D01*
X44335808Y71604365D01*
X44497730Y71590199D01*
X44562498Y71584532D01*
X44562500Y71584532D01*
X44562502Y71584532D01*
X44619173Y71589491D01*
X44789192Y71604365D01*
X45008996Y71663261D01*
X45215234Y71759432D01*
X45401639Y71889953D01*
X45562547Y72050861D01*
X45693068Y72237266D01*
X45789239Y72443504D01*
X45848135Y72663308D01*
X45867968Y72890000D01*
X45848135Y73116692D01*
X45789239Y73336496D01*
X45693068Y73542734D01*
X45562547Y73729139D01*
X45562545Y73729142D01*
X45401641Y73890046D01*
X45215234Y74020568D01*
X45215232Y74020569D01*
X45008997Y74116739D01*
X45008988Y74116742D01*
X44789197Y74175634D01*
X44789193Y74175635D01*
X44789192Y74175635D01*
X44789191Y74175636D01*
X44789186Y74175636D01*
X44562502Y74195468D01*
X44562498Y74195468D01*
X44335813Y74175636D01*
X44335802Y74175634D01*
X44116011Y74116742D01*
X44116002Y74116739D01*
X43909767Y74020569D01*
X43909765Y74020568D01*
X43723358Y73890046D01*
X43562454Y73729142D01*
X43431932Y73542735D01*
X43431931Y73542733D01*
X43335761Y73336498D01*
X43335758Y73336489D01*
X43276866Y73116698D01*
X43276864Y73116687D01*
X43257032Y72890002D01*
X43257032Y72889999D01*
X5856448Y72889999D01*
X5244400Y73502047D01*
X5325148Y73514835D01*
X5438045Y73572359D01*
X5527641Y73661955D01*
X5585165Y73774852D01*
X5597953Y73855600D01*
X6279024Y73174529D01*
X6330136Y73247522D01*
X6426264Y73453669D01*
X6426269Y73453683D01*
X6485139Y73673390D01*
X6485141Y73673401D01*
X6504966Y73899998D01*
X6504966Y73900003D01*
X6485141Y74126600D01*
X6485139Y74126611D01*
X6468154Y74190000D01*
X23457040Y74190000D01*
X23476826Y74001744D01*
X23476827Y74001741D01*
X23535318Y73821723D01*
X23535321Y73821716D01*
X23629967Y73657784D01*
X23730216Y73546447D01*
X23756629Y73517112D01*
X23909765Y73405852D01*
X23909770Y73405849D01*
X24082692Y73328858D01*
X24082697Y73328856D01*
X24267854Y73289500D01*
X24267855Y73289500D01*
X24457144Y73289500D01*
X24457146Y73289500D01*
X24642303Y73328856D01*
X24815230Y73405849D01*
X24968371Y73517112D01*
X25095033Y73657784D01*
X25189679Y73821716D01*
X25248174Y74001744D01*
X25267960Y74190000D01*
X25248174Y74378256D01*
X25189679Y74558284D01*
X25178312Y74577971D01*
X25161840Y74645870D01*
X25184693Y74711897D01*
X25239614Y74755088D01*
X25309167Y74761729D01*
X25364666Y74734113D01*
X25364974Y74734535D01*
X25367487Y74732710D01*
X25368675Y74732118D01*
X25370225Y74730723D01*
X25370232Y74730715D01*
X25396133Y74711897D01*
X25523368Y74619455D01*
X25523373Y74619452D01*
X25696295Y74542461D01*
X25696300Y74542459D01*
X25881457Y74503103D01*
X25881458Y74503103D01*
X26070747Y74503103D01*
X26070749Y74503103D01*
X26255906Y74542459D01*
X26428833Y74619452D01*
X26581974Y74730715D01*
X26708636Y74871387D01*
X26803282Y75035319D01*
X26861777Y75215347D01*
X26881563Y75403603D01*
X26861777Y75591859D01*
X26803282Y75771887D01*
X26708636Y75935819D01*
X26676612Y75971385D01*
X26646383Y76034375D01*
X26655008Y76103711D01*
X26676610Y76137324D01*
X26695033Y76157784D01*
X26789679Y76321716D01*
X26848174Y76501744D01*
X26867960Y76690000D01*
X26848174Y76878256D01*
X26789679Y77058284D01*
X26695033Y77222216D01*
X26568371Y77362888D01*
X26568370Y77362889D01*
X26415234Y77474149D01*
X26415229Y77474152D01*
X26242307Y77551143D01*
X26242302Y77551145D01*
X26096501Y77582135D01*
X26057146Y77590500D01*
X25867854Y77590500D01*
X25835397Y77583602D01*
X25682697Y77551145D01*
X25682692Y77551143D01*
X25509770Y77474152D01*
X25509765Y77474149D01*
X25356629Y77362889D01*
X25229966Y77222215D01*
X25135321Y77058285D01*
X25135318Y77058278D01*
X25076827Y76878260D01*
X25076826Y76878256D01*
X25057040Y76690000D01*
X25076826Y76501744D01*
X25076827Y76501741D01*
X25135318Y76321723D01*
X25135321Y76321716D01*
X25229967Y76157784D01*
X25231390Y76156204D01*
X25261989Y76122220D01*
X25292219Y76059229D01*
X25283594Y75989893D01*
X25261990Y75956277D01*
X25243571Y75935821D01*
X25243567Y75935816D01*
X25148924Y75771888D01*
X25148921Y75771881D01*
X25090430Y75591863D01*
X25090429Y75591859D01*
X25070643Y75403603D01*
X25090429Y75215347D01*
X25090430Y75215344D01*
X25148921Y75035326D01*
X25148923Y75035321D01*
X25160290Y75015633D01*
X25176761Y74947732D01*
X25153908Y74881706D01*
X25098987Y74838516D01*
X25029433Y74831875D01*
X24973936Y74859492D01*
X24973629Y74859068D01*
X24971111Y74860898D01*
X24969928Y74861486D01*
X24968374Y74862884D01*
X24968371Y74862888D01*
X24917324Y74899976D01*
X24815234Y74974149D01*
X24815229Y74974152D01*
X24642307Y75051143D01*
X24642302Y75051145D01*
X24496501Y75082135D01*
X24457146Y75090500D01*
X24267854Y75090500D01*
X24235397Y75083602D01*
X24082697Y75051145D01*
X24082692Y75051143D01*
X23909770Y74974152D01*
X23909765Y74974149D01*
X23756629Y74862889D01*
X23629966Y74722215D01*
X23535321Y74558285D01*
X23535318Y74558278D01*
X23517391Y74503103D01*
X23476826Y74378256D01*
X23457040Y74190000D01*
X6468154Y74190000D01*
X6426269Y74346318D01*
X6426264Y74346332D01*
X6330136Y74552479D01*
X6330132Y74552487D01*
X6279025Y74625474D01*
X5597953Y73944402D01*
X5585165Y74025148D01*
X5527641Y74138045D01*
X5438045Y74227641D01*
X5325148Y74285165D01*
X5244401Y74297954D01*
X5925472Y74979026D01*
X5852478Y75030137D01*
X5646331Y75126265D01*
X5646317Y75126270D01*
X5426610Y75185140D01*
X5426599Y75185142D01*
X5200002Y75204966D01*
X5199998Y75204966D01*
X4973400Y75185142D01*
X4973389Y75185140D01*
X4753682Y75126270D01*
X4753673Y75126266D01*
X4547516Y75030134D01*
X4547512Y75030132D01*
X4474526Y74979027D01*
X4474526Y74979026D01*
X5155599Y74297954D01*
X5074852Y74285165D01*
X4961955Y74227641D01*
X4872359Y74138045D01*
X4814835Y74025148D01*
X4802046Y73944402D01*
X4120974Y74625474D01*
X4120973Y74625474D01*
X4069868Y74552488D01*
X4069866Y74552484D01*
X3973734Y74346327D01*
X3973730Y74346318D01*
X3914860Y74126611D01*
X3914858Y74126600D01*
X3895034Y73900003D01*
X3895034Y73899998D01*
X350500Y73899998D01*
X350500Y76116061D01*
X350501Y76116064D01*
X350500Y76167516D01*
X350765Y76175623D01*
X355144Y76242453D01*
X364078Y76378781D01*
X366194Y76394853D01*
X397476Y76552130D01*
X3899500Y76552130D01*
X3899501Y76552124D01*
X3905908Y76492517D01*
X3956202Y76357672D01*
X3956206Y76357665D01*
X4042452Y76242456D01*
X4042455Y76242453D01*
X4157664Y76156207D01*
X4157671Y76156203D01*
X4292517Y76105909D01*
X4292516Y76105909D01*
X4299444Y76105165D01*
X4352127Y76099500D01*
X6047872Y76099501D01*
X6107483Y76105909D01*
X6242331Y76156204D01*
X6357546Y76242454D01*
X6443796Y76357669D01*
X6494091Y76492517D01*
X6500500Y76552127D01*
X6500500Y76690000D01*
X19957040Y76690000D01*
X19976826Y76501744D01*
X19976827Y76501741D01*
X20035318Y76321723D01*
X20035321Y76321716D01*
X20129967Y76157784D01*
X20218707Y76059229D01*
X20256629Y76017112D01*
X20409765Y75905852D01*
X20409770Y75905849D01*
X20582692Y75828858D01*
X20582697Y75828856D01*
X20767854Y75789500D01*
X20767855Y75789500D01*
X20957144Y75789500D01*
X20957146Y75789500D01*
X21142303Y75828856D01*
X21315230Y75905849D01*
X21468371Y76017112D01*
X21595033Y76157784D01*
X21689679Y76321716D01*
X21748174Y76501744D01*
X21767960Y76690000D01*
X21748174Y76878256D01*
X21689679Y77058284D01*
X21595033Y77222216D01*
X21468371Y77362888D01*
X21468370Y77362889D01*
X21315234Y77474149D01*
X21315229Y77474152D01*
X21142307Y77551143D01*
X21142302Y77551145D01*
X20996501Y77582135D01*
X20957146Y77590500D01*
X20767854Y77590500D01*
X20735397Y77583602D01*
X20582697Y77551145D01*
X20582692Y77551143D01*
X20409770Y77474152D01*
X20409765Y77474149D01*
X20256629Y77362889D01*
X20129966Y77222215D01*
X20035321Y77058285D01*
X20035318Y77058278D01*
X19976827Y76878260D01*
X19976826Y76878256D01*
X19957040Y76690000D01*
X6500500Y76690000D01*
X6500499Y77552130D01*
X9899500Y77552130D01*
X9899501Y77552124D01*
X9905908Y77492517D01*
X9956202Y77357672D01*
X9956206Y77357665D01*
X10042452Y77242456D01*
X10042455Y77242453D01*
X10157664Y77156207D01*
X10157671Y77156203D01*
X10292517Y77105909D01*
X10292516Y77105909D01*
X10299444Y77105165D01*
X10352127Y77099500D01*
X12447872Y77099501D01*
X12507483Y77105909D01*
X12642331Y77156204D01*
X12757546Y77242454D01*
X12843796Y77357669D01*
X12894091Y77492517D01*
X12900500Y77552127D01*
X12900500Y77889998D01*
X43257534Y77889998D01*
X43277358Y77663401D01*
X43277360Y77663390D01*
X43336230Y77443683D01*
X43336235Y77443669D01*
X43432363Y77237522D01*
X43483474Y77164528D01*
X44164546Y77845600D01*
X44177335Y77764852D01*
X44234859Y77651955D01*
X44324455Y77562359D01*
X44437352Y77504835D01*
X44518099Y77492047D01*
X43837026Y76810975D01*
X43910013Y76759868D01*
X43910021Y76759864D01*
X44116168Y76663736D01*
X44116182Y76663731D01*
X44335889Y76604861D01*
X44335900Y76604859D01*
X44562498Y76585034D01*
X44562502Y76585034D01*
X44789099Y76604859D01*
X44789110Y76604861D01*
X45008817Y76663731D01*
X45008831Y76663736D01*
X45214978Y76759864D01*
X45287971Y76810976D01*
X44606900Y77492047D01*
X44687648Y77504835D01*
X44800545Y77562359D01*
X44890141Y77651955D01*
X44947665Y77764852D01*
X44960453Y77845600D01*
X45641524Y77164529D01*
X45692636Y77237522D01*
X45788764Y77443669D01*
X45788769Y77443683D01*
X45847639Y77663390D01*
X45847641Y77663401D01*
X45867466Y77889998D01*
X45867466Y77890003D01*
X45847641Y78116600D01*
X45847639Y78116611D01*
X45788769Y78336318D01*
X45788764Y78336332D01*
X45692636Y78542479D01*
X45692632Y78542487D01*
X45641525Y78615474D01*
X44960453Y77934402D01*
X44947665Y78015148D01*
X44890141Y78128045D01*
X44800545Y78217641D01*
X44687648Y78275165D01*
X44606901Y78287954D01*
X45287972Y78969026D01*
X45214978Y79020137D01*
X45008831Y79116265D01*
X45008817Y79116270D01*
X44789110Y79175140D01*
X44789099Y79175142D01*
X44562502Y79194966D01*
X44562498Y79194966D01*
X44335900Y79175142D01*
X44335889Y79175140D01*
X44116182Y79116270D01*
X44116173Y79116266D01*
X43910016Y79020134D01*
X43910012Y79020132D01*
X43837026Y78969027D01*
X43837026Y78969026D01*
X44518099Y78287954D01*
X44437352Y78275165D01*
X44324455Y78217641D01*
X44234859Y78128045D01*
X44177335Y78015148D01*
X44164546Y77934402D01*
X43483474Y78615474D01*
X43483473Y78615474D01*
X43432368Y78542488D01*
X43432366Y78542484D01*
X43336234Y78336327D01*
X43336230Y78336318D01*
X43277360Y78116611D01*
X43277358Y78116600D01*
X43257534Y77890003D01*
X43257534Y77889998D01*
X12900500Y77889998D01*
X12900499Y79647872D01*
X12894091Y79707483D01*
X12855205Y79811741D01*
X12843797Y79842329D01*
X12843793Y79842336D01*
X12757547Y79957545D01*
X12757544Y79957548D01*
X12700836Y80000000D01*
X32094540Y80000000D01*
X32114326Y79811744D01*
X32114327Y79811741D01*
X32172818Y79631723D01*
X32172821Y79631716D01*
X32267467Y79467784D01*
X32394129Y79327112D01*
X32547265Y79215852D01*
X32547270Y79215849D01*
X32720192Y79138858D01*
X32720197Y79138856D01*
X32905354Y79099500D01*
X32905355Y79099500D01*
X33094644Y79099500D01*
X33094646Y79099500D01*
X33279803Y79138856D01*
X33452730Y79215849D01*
X33605871Y79327112D01*
X33732533Y79467784D01*
X33827179Y79631716D01*
X33885674Y79811744D01*
X33905460Y80000000D01*
X33885674Y80188256D01*
X33827179Y80368284D01*
X33732533Y80532216D01*
X33605871Y80672888D01*
X33605870Y80672889D01*
X33452734Y80784149D01*
X33452729Y80784152D01*
X33279807Y80861143D01*
X33279802Y80861145D01*
X33134001Y80892135D01*
X33094646Y80900500D01*
X32905354Y80900500D01*
X32872897Y80893602D01*
X32720197Y80861145D01*
X32720192Y80861143D01*
X32547270Y80784152D01*
X32547265Y80784149D01*
X32394129Y80672889D01*
X32267466Y80532215D01*
X32172821Y80368285D01*
X32172818Y80368278D01*
X32114327Y80188260D01*
X32114326Y80188256D01*
X32094540Y80000000D01*
X12700836Y80000000D01*
X12642335Y80043794D01*
X12642328Y80043798D01*
X12507482Y80094092D01*
X12507483Y80094092D01*
X12447883Y80100499D01*
X12447881Y80100500D01*
X12447873Y80100500D01*
X12447864Y80100500D01*
X10352129Y80100500D01*
X10352123Y80100499D01*
X10292516Y80094092D01*
X10157671Y80043798D01*
X10157664Y80043794D01*
X10042455Y79957548D01*
X10042452Y79957545D01*
X9956206Y79842336D01*
X9956202Y79842329D01*
X9905908Y79707483D01*
X9899501Y79647884D01*
X9899501Y79647877D01*
X9899500Y79647865D01*
X9899500Y77552130D01*
X6500499Y77552130D01*
X6500499Y78247872D01*
X6494091Y78307483D01*
X6483336Y78336318D01*
X6443797Y78442329D01*
X6443793Y78442336D01*
X6357547Y78557545D01*
X6357544Y78557548D01*
X6242335Y78643794D01*
X6242328Y78643798D01*
X6107482Y78694092D01*
X6107483Y78694092D01*
X6047883Y78700499D01*
X6047881Y78700500D01*
X6047873Y78700500D01*
X6047864Y78700500D01*
X4352129Y78700500D01*
X4352123Y78700499D01*
X4292516Y78694092D01*
X4157671Y78643798D01*
X4157664Y78643794D01*
X4042455Y78557548D01*
X4042452Y78557545D01*
X3956206Y78442336D01*
X3956202Y78442329D01*
X3905908Y78307483D01*
X3904029Y78290000D01*
X3899501Y78247877D01*
X3899500Y78247865D01*
X3899500Y76552130D01*
X397476Y76552130D01*
X405117Y76590544D01*
X409311Y76606195D01*
X473441Y76795126D01*
X479647Y76810106D01*
X513256Y76878260D01*
X567890Y76989052D01*
X575989Y77003081D01*
X686844Y77168992D01*
X696705Y77181842D01*
X830764Y77334711D01*
X836283Y77340603D01*
X5259185Y81763505D01*
X5265073Y81769020D01*
X5418176Y81903286D01*
X5431020Y81913141D01*
X5596924Y82023991D01*
X5610953Y82032091D01*
X5789901Y82120335D01*
X5804881Y82126541D01*
X5993818Y82190673D01*
X6009457Y82194864D01*
X6205158Y82233789D01*
X6221220Y82235903D01*
X6424679Y82249236D01*
X6432765Y82249500D01*
X6483936Y82249499D01*
X6483939Y82249500D01*
X50716060Y82249500D01*
X50716063Y82249499D01*
G37*
%TD.AperFunction*%
D20*
X57200000Y71200000D02*
G75*
G03*
X59200000Y69200000I2000000J0D01*
G01*
X5014213Y82014214D02*
X585786Y77585786D01*
X57200000Y71200000D02*
X57200000Y76171573D01*
X5014200Y585773D02*
G75*
G03*
X6428427Y0I1414200J1414227D01*
G01*
X585786Y5014214D02*
X5014213Y585786D01*
X585772Y77585800D02*
G75*
G03*
X0Y76171573I1414228J-1414200D01*
G01*
X6428427Y82599981D02*
G75*
G03*
X5014213Y82014214I-27J-1999981D01*
G01*
X6428427Y0D02*
X49571572Y0D01*
X102000000Y13428427D02*
X102000000Y62771573D01*
X101414213Y64185786D02*
X96985786Y68614214D01*
X57199980Y76171573D02*
G75*
G03*
X56614213Y77585786I-1999980J27D01*
G01*
X58228427Y6999981D02*
G75*
G03*
X56814213Y6414214I-27J-1999981D01*
G01*
X95571572Y69200000D02*
X59200000Y69200000D01*
X95571572Y7000020D02*
G75*
G03*
X96985785Y7585787I28J1999980D01*
G01*
X101999980Y62771573D02*
G75*
G03*
X101414213Y64185786I-1999980J27D01*
G01*
X96985786Y7585786D02*
X101414213Y12014214D01*
X50985786Y585786D02*
X56814213Y6414214D01*
X56614213Y77585786D02*
X52185786Y82014214D01*
X50771572Y82600000D02*
X6428427Y82600000D01*
X101414227Y12014200D02*
G75*
G03*
X102000000Y13428427I-1414227J1414200D01*
G01*
X58228427Y7000000D02*
X95571572Y7000000D01*
X0Y76171573D02*
X0Y6428427D01*
X49571572Y20D02*
G75*
G03*
X50985785Y585787I28J1999980D01*
G01*
X96985800Y68614228D02*
G75*
G03*
X95571572Y69200000I-1414200J-1414228D01*
G01*
X52185800Y82014228D02*
G75*
G03*
X50771572Y82600000I-1414200J-1414228D01*
G01*
X20Y6428427D02*
G75*
G03*
X585787Y5014215I1999980J-27D01*
G01*
M02*
