%TF.GenerationSoftware,KiCad,Pcbnew,7.0.10*%
%TF.CreationDate,2024-02-08T22:37:46+01:00*%
%TF.ProjectId,LNA_1MHz,4c4e415f-314d-4487-9a2e-6b696361645f,V0*%
%TF.SameCoordinates,PX62ccf80PY8214c80*%
%TF.FileFunction,Legend,Top*%
%TF.FilePolarity,Positive*%
%FSLAX46Y46*%
G04 Gerber Fmt 4.6, Leading zero omitted, Abs format (unit mm)*
G04 Created by KiCad (PCBNEW 7.0.10) date 2024-02-08 22:37:46*
%MOMM*%
%LPD*%
G01*
G04 APERTURE LIST*
%ADD10C,0.150000*%
%ADD11C,0.120000*%
%TA.AperFunction,Profile*%
%ADD12C,0.200000*%
%TD*%
G04 APERTURE END LIST*
D10*
X62650000Y9400000D02*
X65150000Y10400000D01*
X57650000Y9400000D02*
X62650000Y9400000D01*
X65150000Y9400000D02*
X71150000Y9400000D01*
X5238095Y65497562D02*
X5142857Y65545181D01*
X5142857Y65545181D02*
X5000000Y65545181D01*
X5000000Y65545181D02*
X4857143Y65497562D01*
X4857143Y65497562D02*
X4761905Y65402324D01*
X4761905Y65402324D02*
X4714286Y65307086D01*
X4714286Y65307086D02*
X4666667Y65116610D01*
X4666667Y65116610D02*
X4666667Y64973753D01*
X4666667Y64973753D02*
X4714286Y64783277D01*
X4714286Y64783277D02*
X4761905Y64688039D01*
X4761905Y64688039D02*
X4857143Y64592800D01*
X4857143Y64592800D02*
X5000000Y64545181D01*
X5000000Y64545181D02*
X5095238Y64545181D01*
X5095238Y64545181D02*
X5238095Y64592800D01*
X5238095Y64592800D02*
X5285714Y64640420D01*
X5285714Y64640420D02*
X5285714Y64973753D01*
X5285714Y64973753D02*
X5095238Y64973753D01*
X5714286Y64545181D02*
X5714286Y65545181D01*
X5714286Y65545181D02*
X6285714Y64545181D01*
X6285714Y64545181D02*
X6285714Y65545181D01*
X6761905Y64545181D02*
X6761905Y65545181D01*
X6761905Y65545181D02*
X7000000Y65545181D01*
X7000000Y65545181D02*
X7142857Y65497562D01*
X7142857Y65497562D02*
X7238095Y65402324D01*
X7238095Y65402324D02*
X7285714Y65307086D01*
X7285714Y65307086D02*
X7333333Y65116610D01*
X7333333Y65116610D02*
X7333333Y64973753D01*
X7333333Y64973753D02*
X7285714Y64783277D01*
X7285714Y64783277D02*
X7238095Y64688039D01*
X7238095Y64688039D02*
X7142857Y64592800D01*
X7142857Y64592800D02*
X7000000Y64545181D01*
X7000000Y64545181D02*
X6761905Y64545181D01*
X69888866Y15336780D02*
X69888866Y16098684D01*
X70269819Y15717732D02*
X69507914Y15717732D01*
X69698390Y16717732D02*
X69650771Y16622494D01*
X69650771Y16622494D02*
X69603152Y16574875D01*
X69603152Y16574875D02*
X69507914Y16527256D01*
X69507914Y16527256D02*
X69460295Y16527256D01*
X69460295Y16527256D02*
X69365057Y16574875D01*
X69365057Y16574875D02*
X69317438Y16622494D01*
X69317438Y16622494D02*
X69269819Y16717732D01*
X69269819Y16717732D02*
X69269819Y16908208D01*
X69269819Y16908208D02*
X69317438Y17003446D01*
X69317438Y17003446D02*
X69365057Y17051065D01*
X69365057Y17051065D02*
X69460295Y17098684D01*
X69460295Y17098684D02*
X69507914Y17098684D01*
X69507914Y17098684D02*
X69603152Y17051065D01*
X69603152Y17051065D02*
X69650771Y17003446D01*
X69650771Y17003446D02*
X69698390Y16908208D01*
X69698390Y16908208D02*
X69698390Y16717732D01*
X69698390Y16717732D02*
X69746009Y16622494D01*
X69746009Y16622494D02*
X69793628Y16574875D01*
X69793628Y16574875D02*
X69888866Y16527256D01*
X69888866Y16527256D02*
X70079342Y16527256D01*
X70079342Y16527256D02*
X70174580Y16574875D01*
X70174580Y16574875D02*
X70222200Y16622494D01*
X70222200Y16622494D02*
X70269819Y16717732D01*
X70269819Y16717732D02*
X70269819Y16908208D01*
X70269819Y16908208D02*
X70222200Y17003446D01*
X70222200Y17003446D02*
X70174580Y17051065D01*
X70174580Y17051065D02*
X70079342Y17098684D01*
X70079342Y17098684D02*
X69888866Y17098684D01*
X69888866Y17098684D02*
X69793628Y17051065D01*
X69793628Y17051065D02*
X69746009Y17003446D01*
X69746009Y17003446D02*
X69698390Y16908208D01*
X69269819Y17717732D02*
X69269819Y17812970D01*
X69269819Y17812970D02*
X69317438Y17908208D01*
X69317438Y17908208D02*
X69365057Y17955827D01*
X69365057Y17955827D02*
X69460295Y18003446D01*
X69460295Y18003446D02*
X69650771Y18051065D01*
X69650771Y18051065D02*
X69888866Y18051065D01*
X69888866Y18051065D02*
X70079342Y18003446D01*
X70079342Y18003446D02*
X70174580Y17955827D01*
X70174580Y17955827D02*
X70222200Y17908208D01*
X70222200Y17908208D02*
X70269819Y17812970D01*
X70269819Y17812970D02*
X70269819Y17717732D01*
X70269819Y17717732D02*
X70222200Y17622494D01*
X70222200Y17622494D02*
X70174580Y17574875D01*
X70174580Y17574875D02*
X70079342Y17527256D01*
X70079342Y17527256D02*
X69888866Y17479637D01*
X69888866Y17479637D02*
X69650771Y17479637D01*
X69650771Y17479637D02*
X69460295Y17527256D01*
X69460295Y17527256D02*
X69365057Y17574875D01*
X69365057Y17574875D02*
X69317438Y17622494D01*
X69317438Y17622494D02*
X69269819Y17717732D01*
X70269819Y18908208D02*
X69269819Y18908208D01*
X70222200Y18908208D02*
X70269819Y18812970D01*
X70269819Y18812970D02*
X70269819Y18622494D01*
X70269819Y18622494D02*
X70222200Y18527256D01*
X70222200Y18527256D02*
X70174580Y18479637D01*
X70174580Y18479637D02*
X70079342Y18432018D01*
X70079342Y18432018D02*
X69793628Y18432018D01*
X69793628Y18432018D02*
X69698390Y18479637D01*
X69698390Y18479637D02*
X69650771Y18527256D01*
X69650771Y18527256D02*
X69603152Y18622494D01*
X69603152Y18622494D02*
X69603152Y18812970D01*
X69603152Y18812970D02*
X69650771Y18908208D01*
X69746009Y19717732D02*
X69793628Y19860589D01*
X69793628Y19860589D02*
X69841247Y19908208D01*
X69841247Y19908208D02*
X69936485Y19955827D01*
X69936485Y19955827D02*
X70079342Y19955827D01*
X70079342Y19955827D02*
X70174580Y19908208D01*
X70174580Y19908208D02*
X70222200Y19860589D01*
X70222200Y19860589D02*
X70269819Y19765351D01*
X70269819Y19765351D02*
X70269819Y19384399D01*
X70269819Y19384399D02*
X69269819Y19384399D01*
X69269819Y19384399D02*
X69269819Y19717732D01*
X69269819Y19717732D02*
X69317438Y19812970D01*
X69317438Y19812970D02*
X69365057Y19860589D01*
X69365057Y19860589D02*
X69460295Y19908208D01*
X69460295Y19908208D02*
X69555533Y19908208D01*
X69555533Y19908208D02*
X69650771Y19860589D01*
X69650771Y19860589D02*
X69698390Y19812970D01*
X69698390Y19812970D02*
X69746009Y19717732D01*
X69746009Y19717732D02*
X69746009Y19384399D01*
X86860588Y48030181D02*
X86289160Y48030181D01*
X86574874Y48030181D02*
X86574874Y49030181D01*
X86574874Y49030181D02*
X86479636Y48887324D01*
X86479636Y48887324D02*
X86384398Y48792086D01*
X86384398Y48792086D02*
X86289160Y48744467D01*
X87479636Y49030181D02*
X87574874Y49030181D01*
X87574874Y49030181D02*
X87670112Y48982562D01*
X87670112Y48982562D02*
X87717731Y48934943D01*
X87717731Y48934943D02*
X87765350Y48839705D01*
X87765350Y48839705D02*
X87812969Y48649229D01*
X87812969Y48649229D02*
X87812969Y48411134D01*
X87812969Y48411134D02*
X87765350Y48220658D01*
X87765350Y48220658D02*
X87717731Y48125420D01*
X87717731Y48125420D02*
X87670112Y48077800D01*
X87670112Y48077800D02*
X87574874Y48030181D01*
X87574874Y48030181D02*
X87479636Y48030181D01*
X87479636Y48030181D02*
X87384398Y48077800D01*
X87384398Y48077800D02*
X87336779Y48125420D01*
X87336779Y48125420D02*
X87289160Y48220658D01*
X87289160Y48220658D02*
X87241541Y48411134D01*
X87241541Y48411134D02*
X87241541Y48649229D01*
X87241541Y48649229D02*
X87289160Y48839705D01*
X87289160Y48839705D02*
X87336779Y48934943D01*
X87336779Y48934943D02*
X87384398Y48982562D01*
X87384398Y48982562D02*
X87479636Y49030181D01*
X88241541Y48030181D02*
X88241541Y49030181D01*
X88241541Y48553991D02*
X88812969Y48553991D01*
X88812969Y48030181D02*
X88812969Y49030181D01*
X89193922Y48696848D02*
X89717731Y48696848D01*
X89717731Y48696848D02*
X89193922Y48030181D01*
X89193922Y48030181D02*
X89717731Y48030181D01*
X90717732Y48696848D02*
X91098684Y48696848D01*
X90860589Y49030181D02*
X90860589Y48173039D01*
X90860589Y48173039D02*
X90908208Y48077800D01*
X90908208Y48077800D02*
X91003446Y48030181D01*
X91003446Y48030181D02*
X91098684Y48030181D01*
X91574875Y48030181D02*
X91479637Y48077800D01*
X91479637Y48077800D02*
X91432018Y48125420D01*
X91432018Y48125420D02*
X91384399Y48220658D01*
X91384399Y48220658D02*
X91384399Y48506372D01*
X91384399Y48506372D02*
X91432018Y48601610D01*
X91432018Y48601610D02*
X91479637Y48649229D01*
X91479637Y48649229D02*
X91574875Y48696848D01*
X91574875Y48696848D02*
X91717732Y48696848D01*
X91717732Y48696848D02*
X91812970Y48649229D01*
X91812970Y48649229D02*
X91860589Y48601610D01*
X91860589Y48601610D02*
X91908208Y48506372D01*
X91908208Y48506372D02*
X91908208Y48220658D01*
X91908208Y48220658D02*
X91860589Y48125420D01*
X91860589Y48125420D02*
X91812970Y48077800D01*
X91812970Y48077800D02*
X91717732Y48030181D01*
X91717732Y48030181D02*
X91574875Y48030181D01*
X93622494Y48030181D02*
X93051066Y48030181D01*
X93336780Y48030181D02*
X93336780Y49030181D01*
X93336780Y49030181D02*
X93241542Y48887324D01*
X93241542Y48887324D02*
X93146304Y48792086D01*
X93146304Y48792086D02*
X93051066Y48744467D01*
X94241542Y49030181D02*
X94336780Y49030181D01*
X94336780Y49030181D02*
X94432018Y48982562D01*
X94432018Y48982562D02*
X94479637Y48934943D01*
X94479637Y48934943D02*
X94527256Y48839705D01*
X94527256Y48839705D02*
X94574875Y48649229D01*
X94574875Y48649229D02*
X94574875Y48411134D01*
X94574875Y48411134D02*
X94527256Y48220658D01*
X94527256Y48220658D02*
X94479637Y48125420D01*
X94479637Y48125420D02*
X94432018Y48077800D01*
X94432018Y48077800D02*
X94336780Y48030181D01*
X94336780Y48030181D02*
X94241542Y48030181D01*
X94241542Y48030181D02*
X94146304Y48077800D01*
X94146304Y48077800D02*
X94098685Y48125420D01*
X94098685Y48125420D02*
X94051066Y48220658D01*
X94051066Y48220658D02*
X94003447Y48411134D01*
X94003447Y48411134D02*
X94003447Y48649229D01*
X94003447Y48649229D02*
X94051066Y48839705D01*
X94051066Y48839705D02*
X94098685Y48934943D01*
X94098685Y48934943D02*
X94146304Y48982562D01*
X94146304Y48982562D02*
X94241542Y49030181D01*
X95193923Y49030181D02*
X95289161Y49030181D01*
X95289161Y49030181D02*
X95384399Y48982562D01*
X95384399Y48982562D02*
X95432018Y48934943D01*
X95432018Y48934943D02*
X95479637Y48839705D01*
X95479637Y48839705D02*
X95527256Y48649229D01*
X95527256Y48649229D02*
X95527256Y48411134D01*
X95527256Y48411134D02*
X95479637Y48220658D01*
X95479637Y48220658D02*
X95432018Y48125420D01*
X95432018Y48125420D02*
X95384399Y48077800D01*
X95384399Y48077800D02*
X95289161Y48030181D01*
X95289161Y48030181D02*
X95193923Y48030181D01*
X95193923Y48030181D02*
X95098685Y48077800D01*
X95098685Y48077800D02*
X95051066Y48125420D01*
X95051066Y48125420D02*
X95003447Y48220658D01*
X95003447Y48220658D02*
X94955828Y48411134D01*
X94955828Y48411134D02*
X94955828Y48649229D01*
X94955828Y48649229D02*
X95003447Y48839705D01*
X95003447Y48839705D02*
X95051066Y48934943D01*
X95051066Y48934943D02*
X95098685Y48982562D01*
X95098685Y48982562D02*
X95193923Y49030181D01*
X95955828Y48030181D02*
X95955828Y49030181D01*
X96051066Y48411134D02*
X96336780Y48030181D01*
X96336780Y48696848D02*
X95955828Y48315896D01*
X96765352Y48030181D02*
X96765352Y49030181D01*
X96765352Y48553991D02*
X97336780Y48553991D01*
X97336780Y48030181D02*
X97336780Y49030181D01*
X97717733Y48696848D02*
X98241542Y48696848D01*
X98241542Y48696848D02*
X97717733Y48030181D01*
X97717733Y48030181D02*
X98241542Y48030181D01*
X13666667Y79145181D02*
X14000000Y78145181D01*
X14000000Y78145181D02*
X14333333Y79145181D01*
X14666667Y78145181D02*
X14666667Y79145181D01*
X14666667Y79145181D02*
X15047619Y79145181D01*
X15047619Y79145181D02*
X15142857Y79097562D01*
X15142857Y79097562D02*
X15190476Y79049943D01*
X15190476Y79049943D02*
X15238095Y78954705D01*
X15238095Y78954705D02*
X15238095Y78811848D01*
X15238095Y78811848D02*
X15190476Y78716610D01*
X15190476Y78716610D02*
X15142857Y78668991D01*
X15142857Y78668991D02*
X15047619Y78621372D01*
X15047619Y78621372D02*
X14666667Y78621372D01*
X15666667Y78145181D02*
X15666667Y79145181D01*
X15666667Y79145181D02*
X16047619Y79145181D01*
X16047619Y79145181D02*
X16142857Y79097562D01*
X16142857Y79097562D02*
X16190476Y79049943D01*
X16190476Y79049943D02*
X16238095Y78954705D01*
X16238095Y78954705D02*
X16238095Y78811848D01*
X16238095Y78811848D02*
X16190476Y78716610D01*
X16190476Y78716610D02*
X16142857Y78668991D01*
X16142857Y78668991D02*
X16047619Y78621372D01*
X16047619Y78621372D02*
X15666667Y78621372D01*
X59896303Y10581896D02*
X59858207Y10543800D01*
X59858207Y10543800D02*
X59743922Y10505705D01*
X59743922Y10505705D02*
X59667731Y10505705D01*
X59667731Y10505705D02*
X59553445Y10543800D01*
X59553445Y10543800D02*
X59477255Y10619991D01*
X59477255Y10619991D02*
X59439160Y10696181D01*
X59439160Y10696181D02*
X59401064Y10848562D01*
X59401064Y10848562D02*
X59401064Y10962848D01*
X59401064Y10962848D02*
X59439160Y11115229D01*
X59439160Y11115229D02*
X59477255Y11191420D01*
X59477255Y11191420D02*
X59553445Y11267610D01*
X59553445Y11267610D02*
X59667731Y11305705D01*
X59667731Y11305705D02*
X59743922Y11305705D01*
X59743922Y11305705D02*
X59858207Y11267610D01*
X59858207Y11267610D02*
X59896303Y11229515D01*
X60353445Y10505705D02*
X60277255Y10543800D01*
X60277255Y10543800D02*
X60239160Y10619991D01*
X60239160Y10619991D02*
X60239160Y11305705D01*
X60772493Y10505705D02*
X60696303Y10543800D01*
X60696303Y10543800D02*
X60658208Y10581896D01*
X60658208Y10581896D02*
X60620112Y10658086D01*
X60620112Y10658086D02*
X60620112Y10886658D01*
X60620112Y10886658D02*
X60658208Y10962848D01*
X60658208Y10962848D02*
X60696303Y11000943D01*
X60696303Y11000943D02*
X60772493Y11039039D01*
X60772493Y11039039D02*
X60886779Y11039039D01*
X60886779Y11039039D02*
X60962970Y11000943D01*
X60962970Y11000943D02*
X61001065Y10962848D01*
X61001065Y10962848D02*
X61039160Y10886658D01*
X61039160Y10886658D02*
X61039160Y10658086D01*
X61039160Y10658086D02*
X61001065Y10581896D01*
X61001065Y10581896D02*
X60962970Y10543800D01*
X60962970Y10543800D02*
X60886779Y10505705D01*
X60886779Y10505705D02*
X60772493Y10505705D01*
X61343922Y10543800D02*
X61420113Y10505705D01*
X61420113Y10505705D02*
X61572494Y10505705D01*
X61572494Y10505705D02*
X61648684Y10543800D01*
X61648684Y10543800D02*
X61686780Y10619991D01*
X61686780Y10619991D02*
X61686780Y10658086D01*
X61686780Y10658086D02*
X61648684Y10734277D01*
X61648684Y10734277D02*
X61572494Y10772372D01*
X61572494Y10772372D02*
X61458208Y10772372D01*
X61458208Y10772372D02*
X61382018Y10810467D01*
X61382018Y10810467D02*
X61343922Y10886658D01*
X61343922Y10886658D02*
X61343922Y10924753D01*
X61343922Y10924753D02*
X61382018Y11000943D01*
X61382018Y11000943D02*
X61458208Y11039039D01*
X61458208Y11039039D02*
X61572494Y11039039D01*
X61572494Y11039039D02*
X61648684Y11000943D01*
X62334399Y10543800D02*
X62258208Y10505705D01*
X62258208Y10505705D02*
X62105827Y10505705D01*
X62105827Y10505705D02*
X62029637Y10543800D01*
X62029637Y10543800D02*
X61991541Y10619991D01*
X61991541Y10619991D02*
X61991541Y10924753D01*
X61991541Y10924753D02*
X62029637Y11000943D01*
X62029637Y11000943D02*
X62105827Y11039039D01*
X62105827Y11039039D02*
X62258208Y11039039D01*
X62258208Y11039039D02*
X62334399Y11000943D01*
X62334399Y11000943D02*
X62372494Y10924753D01*
X62372494Y10924753D02*
X62372494Y10848562D01*
X62372494Y10848562D02*
X61991541Y10772372D01*
X63210589Y11039039D02*
X63515351Y11039039D01*
X63324875Y10505705D02*
X63324875Y11191420D01*
X63324875Y11191420D02*
X63362970Y11267610D01*
X63362970Y11267610D02*
X63439160Y11305705D01*
X63439160Y11305705D02*
X63515351Y11305705D01*
X63896303Y10505705D02*
X63820113Y10543800D01*
X63820113Y10543800D02*
X63782018Y10581896D01*
X63782018Y10581896D02*
X63743922Y10658086D01*
X63743922Y10658086D02*
X63743922Y10886658D01*
X63743922Y10886658D02*
X63782018Y10962848D01*
X63782018Y10962848D02*
X63820113Y11000943D01*
X63820113Y11000943D02*
X63896303Y11039039D01*
X63896303Y11039039D02*
X64010589Y11039039D01*
X64010589Y11039039D02*
X64086780Y11000943D01*
X64086780Y11000943D02*
X64124875Y10962848D01*
X64124875Y10962848D02*
X64162970Y10886658D01*
X64162970Y10886658D02*
X64162970Y10658086D01*
X64162970Y10658086D02*
X64124875Y10581896D01*
X64124875Y10581896D02*
X64086780Y10543800D01*
X64086780Y10543800D02*
X64010589Y10505705D01*
X64010589Y10505705D02*
X63896303Y10505705D01*
X64505828Y10505705D02*
X64505828Y11039039D01*
X64505828Y10886658D02*
X64543923Y10962848D01*
X64543923Y10962848D02*
X64582018Y11000943D01*
X64582018Y11000943D02*
X64658209Y11039039D01*
X64658209Y11039039D02*
X64734399Y11039039D01*
X65610590Y10810467D02*
X66220114Y10810467D01*
X65915352Y10505705D02*
X65915352Y11115229D01*
X66943923Y11305705D02*
X66791542Y11305705D01*
X66791542Y11305705D02*
X66715351Y11267610D01*
X66715351Y11267610D02*
X66677256Y11229515D01*
X66677256Y11229515D02*
X66601066Y11115229D01*
X66601066Y11115229D02*
X66562970Y10962848D01*
X66562970Y10962848D02*
X66562970Y10658086D01*
X66562970Y10658086D02*
X66601066Y10581896D01*
X66601066Y10581896D02*
X66639161Y10543800D01*
X66639161Y10543800D02*
X66715351Y10505705D01*
X66715351Y10505705D02*
X66867732Y10505705D01*
X66867732Y10505705D02*
X66943923Y10543800D01*
X66943923Y10543800D02*
X66982018Y10581896D01*
X66982018Y10581896D02*
X67020113Y10658086D01*
X67020113Y10658086D02*
X67020113Y10848562D01*
X67020113Y10848562D02*
X66982018Y10924753D01*
X66982018Y10924753D02*
X66943923Y10962848D01*
X66943923Y10962848D02*
X66867732Y11000943D01*
X66867732Y11000943D02*
X66715351Y11000943D01*
X66715351Y11000943D02*
X66639161Y10962848D01*
X66639161Y10962848D02*
X66601066Y10924753D01*
X66601066Y10924753D02*
X66562970Y10848562D01*
X67515352Y11305705D02*
X67591542Y11305705D01*
X67591542Y11305705D02*
X67667733Y11267610D01*
X67667733Y11267610D02*
X67705828Y11229515D01*
X67705828Y11229515D02*
X67743923Y11153324D01*
X67743923Y11153324D02*
X67782018Y11000943D01*
X67782018Y11000943D02*
X67782018Y10810467D01*
X67782018Y10810467D02*
X67743923Y10658086D01*
X67743923Y10658086D02*
X67705828Y10581896D01*
X67705828Y10581896D02*
X67667733Y10543800D01*
X67667733Y10543800D02*
X67591542Y10505705D01*
X67591542Y10505705D02*
X67515352Y10505705D01*
X67515352Y10505705D02*
X67439161Y10543800D01*
X67439161Y10543800D02*
X67401066Y10581896D01*
X67401066Y10581896D02*
X67362971Y10658086D01*
X67362971Y10658086D02*
X67324875Y10810467D01*
X67324875Y10810467D02*
X67324875Y11000943D01*
X67324875Y11000943D02*
X67362971Y11153324D01*
X67362971Y11153324D02*
X67401066Y11229515D01*
X67401066Y11229515D02*
X67439161Y11267610D01*
X67439161Y11267610D02*
X67515352Y11305705D01*
X68467733Y10505705D02*
X68467733Y11305705D01*
X68467733Y10543800D02*
X68391542Y10505705D01*
X68391542Y10505705D02*
X68239161Y10505705D01*
X68239161Y10505705D02*
X68162971Y10543800D01*
X68162971Y10543800D02*
X68124876Y10581896D01*
X68124876Y10581896D02*
X68086780Y10658086D01*
X68086780Y10658086D02*
X68086780Y10886658D01*
X68086780Y10886658D02*
X68124876Y10962848D01*
X68124876Y10962848D02*
X68162971Y11000943D01*
X68162971Y11000943D02*
X68239161Y11039039D01*
X68239161Y11039039D02*
X68391542Y11039039D01*
X68391542Y11039039D02*
X68467733Y11000943D01*
X69115352Y10924753D02*
X69229638Y10886658D01*
X69229638Y10886658D02*
X69267733Y10848562D01*
X69267733Y10848562D02*
X69305829Y10772372D01*
X69305829Y10772372D02*
X69305829Y10658086D01*
X69305829Y10658086D02*
X69267733Y10581896D01*
X69267733Y10581896D02*
X69229638Y10543800D01*
X69229638Y10543800D02*
X69153448Y10505705D01*
X69153448Y10505705D02*
X68848686Y10505705D01*
X68848686Y10505705D02*
X68848686Y11305705D01*
X68848686Y11305705D02*
X69115352Y11305705D01*
X69115352Y11305705D02*
X69191543Y11267610D01*
X69191543Y11267610D02*
X69229638Y11229515D01*
X69229638Y11229515D02*
X69267733Y11153324D01*
X69267733Y11153324D02*
X69267733Y11077134D01*
X69267733Y11077134D02*
X69229638Y11000943D01*
X69229638Y11000943D02*
X69191543Y10962848D01*
X69191543Y10962848D02*
X69115352Y10924753D01*
X69115352Y10924753D02*
X68848686Y10924753D01*
X5238095Y69897562D02*
X5142857Y69945181D01*
X5142857Y69945181D02*
X5000000Y69945181D01*
X5000000Y69945181D02*
X4857143Y69897562D01*
X4857143Y69897562D02*
X4761905Y69802324D01*
X4761905Y69802324D02*
X4714286Y69707086D01*
X4714286Y69707086D02*
X4666667Y69516610D01*
X4666667Y69516610D02*
X4666667Y69373753D01*
X4666667Y69373753D02*
X4714286Y69183277D01*
X4714286Y69183277D02*
X4761905Y69088039D01*
X4761905Y69088039D02*
X4857143Y68992800D01*
X4857143Y68992800D02*
X5000000Y68945181D01*
X5000000Y68945181D02*
X5095238Y68945181D01*
X5095238Y68945181D02*
X5238095Y68992800D01*
X5238095Y68992800D02*
X5285714Y69040420D01*
X5285714Y69040420D02*
X5285714Y69373753D01*
X5285714Y69373753D02*
X5095238Y69373753D01*
X5714286Y68945181D02*
X5714286Y69945181D01*
X5714286Y69945181D02*
X6285714Y68945181D01*
X6285714Y68945181D02*
X6285714Y69945181D01*
X6761905Y68945181D02*
X6761905Y69945181D01*
X6761905Y69945181D02*
X7000000Y69945181D01*
X7000000Y69945181D02*
X7142857Y69897562D01*
X7142857Y69897562D02*
X7238095Y69802324D01*
X7238095Y69802324D02*
X7285714Y69707086D01*
X7285714Y69707086D02*
X7333333Y69516610D01*
X7333333Y69516610D02*
X7333333Y69373753D01*
X7333333Y69373753D02*
X7285714Y69183277D01*
X7285714Y69183277D02*
X7238095Y69088039D01*
X7238095Y69088039D02*
X7142857Y68992800D01*
X7142857Y68992800D02*
X7000000Y68945181D01*
X7000000Y68945181D02*
X6761905Y68945181D01*
X59288866Y15336780D02*
X59288866Y16098684D01*
X59669819Y15717732D02*
X58907914Y15717732D01*
X58669819Y17003446D02*
X58669819Y16812970D01*
X58669819Y16812970D02*
X58717438Y16717732D01*
X58717438Y16717732D02*
X58765057Y16670113D01*
X58765057Y16670113D02*
X58907914Y16574875D01*
X58907914Y16574875D02*
X59098390Y16527256D01*
X59098390Y16527256D02*
X59479342Y16527256D01*
X59479342Y16527256D02*
X59574580Y16574875D01*
X59574580Y16574875D02*
X59622200Y16622494D01*
X59622200Y16622494D02*
X59669819Y16717732D01*
X59669819Y16717732D02*
X59669819Y16908208D01*
X59669819Y16908208D02*
X59622200Y17003446D01*
X59622200Y17003446D02*
X59574580Y17051065D01*
X59574580Y17051065D02*
X59479342Y17098684D01*
X59479342Y17098684D02*
X59241247Y17098684D01*
X59241247Y17098684D02*
X59146009Y17051065D01*
X59146009Y17051065D02*
X59098390Y17003446D01*
X59098390Y17003446D02*
X59050771Y16908208D01*
X59050771Y16908208D02*
X59050771Y16717732D01*
X59050771Y16717732D02*
X59098390Y16622494D01*
X59098390Y16622494D02*
X59146009Y16574875D01*
X59146009Y16574875D02*
X59241247Y16527256D01*
X58669819Y17717732D02*
X58669819Y17812970D01*
X58669819Y17812970D02*
X58717438Y17908208D01*
X58717438Y17908208D02*
X58765057Y17955827D01*
X58765057Y17955827D02*
X58860295Y18003446D01*
X58860295Y18003446D02*
X59050771Y18051065D01*
X59050771Y18051065D02*
X59288866Y18051065D01*
X59288866Y18051065D02*
X59479342Y18003446D01*
X59479342Y18003446D02*
X59574580Y17955827D01*
X59574580Y17955827D02*
X59622200Y17908208D01*
X59622200Y17908208D02*
X59669819Y17812970D01*
X59669819Y17812970D02*
X59669819Y17717732D01*
X59669819Y17717732D02*
X59622200Y17622494D01*
X59622200Y17622494D02*
X59574580Y17574875D01*
X59574580Y17574875D02*
X59479342Y17527256D01*
X59479342Y17527256D02*
X59288866Y17479637D01*
X59288866Y17479637D02*
X59050771Y17479637D01*
X59050771Y17479637D02*
X58860295Y17527256D01*
X58860295Y17527256D02*
X58765057Y17574875D01*
X58765057Y17574875D02*
X58717438Y17622494D01*
X58717438Y17622494D02*
X58669819Y17717732D01*
X59669819Y18908208D02*
X58669819Y18908208D01*
X59622200Y18908208D02*
X59669819Y18812970D01*
X59669819Y18812970D02*
X59669819Y18622494D01*
X59669819Y18622494D02*
X59622200Y18527256D01*
X59622200Y18527256D02*
X59574580Y18479637D01*
X59574580Y18479637D02*
X59479342Y18432018D01*
X59479342Y18432018D02*
X59193628Y18432018D01*
X59193628Y18432018D02*
X59098390Y18479637D01*
X59098390Y18479637D02*
X59050771Y18527256D01*
X59050771Y18527256D02*
X59003152Y18622494D01*
X59003152Y18622494D02*
X59003152Y18812970D01*
X59003152Y18812970D02*
X59050771Y18908208D01*
X59146009Y19717732D02*
X59193628Y19860589D01*
X59193628Y19860589D02*
X59241247Y19908208D01*
X59241247Y19908208D02*
X59336485Y19955827D01*
X59336485Y19955827D02*
X59479342Y19955827D01*
X59479342Y19955827D02*
X59574580Y19908208D01*
X59574580Y19908208D02*
X59622200Y19860589D01*
X59622200Y19860589D02*
X59669819Y19765351D01*
X59669819Y19765351D02*
X59669819Y19384399D01*
X59669819Y19384399D02*
X58669819Y19384399D01*
X58669819Y19384399D02*
X58669819Y19717732D01*
X58669819Y19717732D02*
X58717438Y19812970D01*
X58717438Y19812970D02*
X58765057Y19860589D01*
X58765057Y19860589D02*
X58860295Y19908208D01*
X58860295Y19908208D02*
X58955533Y19908208D01*
X58955533Y19908208D02*
X59050771Y19860589D01*
X59050771Y19860589D02*
X59098390Y19812970D01*
X59098390Y19812970D02*
X59146009Y19717732D01*
X59146009Y19717732D02*
X59146009Y19384399D01*
X4714286Y52945181D02*
X5047619Y51945181D01*
X5047619Y51945181D02*
X5380952Y52945181D01*
X5666667Y51992800D02*
X5809524Y51945181D01*
X5809524Y51945181D02*
X6047619Y51945181D01*
X6047619Y51945181D02*
X6142857Y51992800D01*
X6142857Y51992800D02*
X6190476Y52040420D01*
X6190476Y52040420D02*
X6238095Y52135658D01*
X6238095Y52135658D02*
X6238095Y52230896D01*
X6238095Y52230896D02*
X6190476Y52326134D01*
X6190476Y52326134D02*
X6142857Y52373753D01*
X6142857Y52373753D02*
X6047619Y52421372D01*
X6047619Y52421372D02*
X5857143Y52468991D01*
X5857143Y52468991D02*
X5761905Y52516610D01*
X5761905Y52516610D02*
X5714286Y52564229D01*
X5714286Y52564229D02*
X5666667Y52659467D01*
X5666667Y52659467D02*
X5666667Y52754705D01*
X5666667Y52754705D02*
X5714286Y52849943D01*
X5714286Y52849943D02*
X5761905Y52897562D01*
X5761905Y52897562D02*
X5857143Y52945181D01*
X5857143Y52945181D02*
X6095238Y52945181D01*
X6095238Y52945181D02*
X6238095Y52897562D01*
X6619048Y51992800D02*
X6761905Y51945181D01*
X6761905Y51945181D02*
X7000000Y51945181D01*
X7000000Y51945181D02*
X7095238Y51992800D01*
X7095238Y51992800D02*
X7142857Y52040420D01*
X7142857Y52040420D02*
X7190476Y52135658D01*
X7190476Y52135658D02*
X7190476Y52230896D01*
X7190476Y52230896D02*
X7142857Y52326134D01*
X7142857Y52326134D02*
X7095238Y52373753D01*
X7095238Y52373753D02*
X7000000Y52421372D01*
X7000000Y52421372D02*
X6809524Y52468991D01*
X6809524Y52468991D02*
X6714286Y52516610D01*
X6714286Y52516610D02*
X6666667Y52564229D01*
X6666667Y52564229D02*
X6619048Y52659467D01*
X6619048Y52659467D02*
X6619048Y52754705D01*
X6619048Y52754705D02*
X6666667Y52849943D01*
X6666667Y52849943D02*
X6714286Y52897562D01*
X6714286Y52897562D02*
X6809524Y52945181D01*
X6809524Y52945181D02*
X7047619Y52945181D01*
X7047619Y52945181D02*
X7190476Y52897562D01*
X83312969Y43860181D02*
X82836779Y43860181D01*
X82836779Y43860181D02*
X82836779Y44860181D01*
X83646303Y43860181D02*
X83646303Y44860181D01*
X83646303Y44860181D02*
X84217731Y43860181D01*
X84217731Y43860181D02*
X84217731Y44860181D01*
X84646303Y44145896D02*
X85122493Y44145896D01*
X84551065Y43860181D02*
X84884398Y44860181D01*
X84884398Y44860181D02*
X85217731Y43860181D01*
X86312970Y43860181D02*
X86312970Y44860181D01*
X86312970Y44479229D02*
X86408208Y44526848D01*
X86408208Y44526848D02*
X86598684Y44526848D01*
X86598684Y44526848D02*
X86693922Y44479229D01*
X86693922Y44479229D02*
X86741541Y44431610D01*
X86741541Y44431610D02*
X86789160Y44336372D01*
X86789160Y44336372D02*
X86789160Y44050658D01*
X86789160Y44050658D02*
X86741541Y43955420D01*
X86741541Y43955420D02*
X86693922Y43907800D01*
X86693922Y43907800D02*
X86598684Y43860181D01*
X86598684Y43860181D02*
X86408208Y43860181D01*
X86408208Y43860181D02*
X86312970Y43907800D01*
X87646303Y43860181D02*
X87646303Y44383991D01*
X87646303Y44383991D02*
X87598684Y44479229D01*
X87598684Y44479229D02*
X87503446Y44526848D01*
X87503446Y44526848D02*
X87312970Y44526848D01*
X87312970Y44526848D02*
X87217732Y44479229D01*
X87646303Y43907800D02*
X87551065Y43860181D01*
X87551065Y43860181D02*
X87312970Y43860181D01*
X87312970Y43860181D02*
X87217732Y43907800D01*
X87217732Y43907800D02*
X87170113Y44003039D01*
X87170113Y44003039D02*
X87170113Y44098277D01*
X87170113Y44098277D02*
X87217732Y44193515D01*
X87217732Y44193515D02*
X87312970Y44241134D01*
X87312970Y44241134D02*
X87551065Y44241134D01*
X87551065Y44241134D02*
X87646303Y44288753D01*
X88074875Y43907800D02*
X88170113Y43860181D01*
X88170113Y43860181D02*
X88360589Y43860181D01*
X88360589Y43860181D02*
X88455827Y43907800D01*
X88455827Y43907800D02*
X88503446Y44003039D01*
X88503446Y44003039D02*
X88503446Y44050658D01*
X88503446Y44050658D02*
X88455827Y44145896D01*
X88455827Y44145896D02*
X88360589Y44193515D01*
X88360589Y44193515D02*
X88217732Y44193515D01*
X88217732Y44193515D02*
X88122494Y44241134D01*
X88122494Y44241134D02*
X88074875Y44336372D01*
X88074875Y44336372D02*
X88074875Y44383991D01*
X88074875Y44383991D02*
X88122494Y44479229D01*
X88122494Y44479229D02*
X88217732Y44526848D01*
X88217732Y44526848D02*
X88360589Y44526848D01*
X88360589Y44526848D02*
X88455827Y44479229D01*
X89312970Y43907800D02*
X89217732Y43860181D01*
X89217732Y43860181D02*
X89027256Y43860181D01*
X89027256Y43860181D02*
X88932018Y43907800D01*
X88932018Y43907800D02*
X88884399Y44003039D01*
X88884399Y44003039D02*
X88884399Y44383991D01*
X88884399Y44383991D02*
X88932018Y44479229D01*
X88932018Y44479229D02*
X89027256Y44526848D01*
X89027256Y44526848D02*
X89217732Y44526848D01*
X89217732Y44526848D02*
X89312970Y44479229D01*
X89312970Y44479229D02*
X89360589Y44383991D01*
X89360589Y44383991D02*
X89360589Y44288753D01*
X89360589Y44288753D02*
X88884399Y44193515D01*
X90217732Y43860181D02*
X90217732Y44860181D01*
X90217732Y43907800D02*
X90122494Y43860181D01*
X90122494Y43860181D02*
X89932018Y43860181D01*
X89932018Y43860181D02*
X89836780Y43907800D01*
X89836780Y43907800D02*
X89789161Y43955420D01*
X89789161Y43955420D02*
X89741542Y44050658D01*
X89741542Y44050658D02*
X89741542Y44336372D01*
X89741542Y44336372D02*
X89789161Y44431610D01*
X89789161Y44431610D02*
X89836780Y44479229D01*
X89836780Y44479229D02*
X89932018Y44526848D01*
X89932018Y44526848D02*
X90122494Y44526848D01*
X90122494Y44526848D02*
X90217732Y44479229D01*
X91598685Y43860181D02*
X91503447Y43907800D01*
X91503447Y43907800D02*
X91455828Y43955420D01*
X91455828Y43955420D02*
X91408209Y44050658D01*
X91408209Y44050658D02*
X91408209Y44336372D01*
X91408209Y44336372D02*
X91455828Y44431610D01*
X91455828Y44431610D02*
X91503447Y44479229D01*
X91503447Y44479229D02*
X91598685Y44526848D01*
X91598685Y44526848D02*
X91741542Y44526848D01*
X91741542Y44526848D02*
X91836780Y44479229D01*
X91836780Y44479229D02*
X91884399Y44431610D01*
X91884399Y44431610D02*
X91932018Y44336372D01*
X91932018Y44336372D02*
X91932018Y44050658D01*
X91932018Y44050658D02*
X91884399Y43955420D01*
X91884399Y43955420D02*
X91836780Y43907800D01*
X91836780Y43907800D02*
X91741542Y43860181D01*
X91741542Y43860181D02*
X91598685Y43860181D01*
X92360590Y44526848D02*
X92360590Y43860181D01*
X92360590Y44431610D02*
X92408209Y44479229D01*
X92408209Y44479229D02*
X92503447Y44526848D01*
X92503447Y44526848D02*
X92646304Y44526848D01*
X92646304Y44526848D02*
X92741542Y44479229D01*
X92741542Y44479229D02*
X92789161Y44383991D01*
X92789161Y44383991D02*
X92789161Y43860181D01*
X93979638Y44145896D02*
X94455828Y44145896D01*
X93884400Y43860181D02*
X94217733Y44860181D01*
X94217733Y44860181D02*
X94551066Y43860181D01*
X94884400Y43860181D02*
X94884400Y44860181D01*
X94884400Y44860181D02*
X95455828Y43860181D01*
X95455828Y43860181D02*
X95455828Y44860181D01*
X95932019Y44241134D02*
X96693924Y44241134D01*
X97693923Y43860181D02*
X97122495Y43860181D01*
X97408209Y43860181D02*
X97408209Y44860181D01*
X97408209Y44860181D02*
X97312971Y44717324D01*
X97312971Y44717324D02*
X97217733Y44622086D01*
X97217733Y44622086D02*
X97122495Y44574467D01*
X98598685Y44860181D02*
X98122495Y44860181D01*
X98122495Y44860181D02*
X98074876Y44383991D01*
X98074876Y44383991D02*
X98122495Y44431610D01*
X98122495Y44431610D02*
X98217733Y44479229D01*
X98217733Y44479229D02*
X98455828Y44479229D01*
X98455828Y44479229D02*
X98551066Y44431610D01*
X98551066Y44431610D02*
X98598685Y44383991D01*
X98598685Y44383991D02*
X98646304Y44288753D01*
X98646304Y44288753D02*
X98646304Y44050658D01*
X98646304Y44050658D02*
X98598685Y43955420D01*
X98598685Y43955420D02*
X98551066Y43907800D01*
X98551066Y43907800D02*
X98455828Y43860181D01*
X98455828Y43860181D02*
X98217733Y43860181D01*
X98217733Y43860181D02*
X98122495Y43907800D01*
X98122495Y43907800D02*
X98074876Y43955420D01*
X99122495Y43860181D02*
X99312971Y43860181D01*
X99312971Y43860181D02*
X99408209Y43907800D01*
X99408209Y43907800D02*
X99455828Y43955420D01*
X99455828Y43955420D02*
X99551066Y44098277D01*
X99551066Y44098277D02*
X99598685Y44288753D01*
X99598685Y44288753D02*
X99598685Y44669705D01*
X99598685Y44669705D02*
X99551066Y44764943D01*
X99551066Y44764943D02*
X99503447Y44812562D01*
X99503447Y44812562D02*
X99408209Y44860181D01*
X99408209Y44860181D02*
X99217733Y44860181D01*
X99217733Y44860181D02*
X99122495Y44812562D01*
X99122495Y44812562D02*
X99074876Y44764943D01*
X99074876Y44764943D02*
X99027257Y44669705D01*
X99027257Y44669705D02*
X99027257Y44431610D01*
X99027257Y44431610D02*
X99074876Y44336372D01*
X99074876Y44336372D02*
X99122495Y44288753D01*
X99122495Y44288753D02*
X99217733Y44241134D01*
X99217733Y44241134D02*
X99408209Y44241134D01*
X99408209Y44241134D02*
X99503447Y44288753D01*
X99503447Y44288753D02*
X99551066Y44336372D01*
X99551066Y44336372D02*
X99598685Y44431610D01*
X82836779Y42250181D02*
X82836779Y43250181D01*
X82836779Y42869229D02*
X82932017Y42916848D01*
X82932017Y42916848D02*
X83122493Y42916848D01*
X83122493Y42916848D02*
X83217731Y42869229D01*
X83217731Y42869229D02*
X83265350Y42821610D01*
X83265350Y42821610D02*
X83312969Y42726372D01*
X83312969Y42726372D02*
X83312969Y42440658D01*
X83312969Y42440658D02*
X83265350Y42345420D01*
X83265350Y42345420D02*
X83217731Y42297800D01*
X83217731Y42297800D02*
X83122493Y42250181D01*
X83122493Y42250181D02*
X82932017Y42250181D01*
X82932017Y42250181D02*
X82836779Y42297800D01*
X83646303Y42916848D02*
X83884398Y42250181D01*
X84122493Y42916848D02*
X83884398Y42250181D01*
X83884398Y42250181D02*
X83789160Y42012086D01*
X83789160Y42012086D02*
X83741541Y41964467D01*
X83741541Y41964467D02*
X83646303Y41916848D01*
X85741541Y42250181D02*
X85265351Y42250181D01*
X85265351Y42250181D02*
X85265351Y43250181D01*
X86074875Y42250181D02*
X86074875Y42916848D01*
X86074875Y43250181D02*
X86027256Y43202562D01*
X86027256Y43202562D02*
X86074875Y43154943D01*
X86074875Y43154943D02*
X86122494Y43202562D01*
X86122494Y43202562D02*
X86074875Y43250181D01*
X86074875Y43250181D02*
X86074875Y43154943D01*
X86551065Y42916848D02*
X86551065Y42250181D01*
X86551065Y42821610D02*
X86598684Y42869229D01*
X86598684Y42869229D02*
X86693922Y42916848D01*
X86693922Y42916848D02*
X86836779Y42916848D01*
X86836779Y42916848D02*
X86932017Y42869229D01*
X86932017Y42869229D02*
X86979636Y42773991D01*
X86979636Y42773991D02*
X86979636Y42250181D01*
X87836779Y42297800D02*
X87741541Y42250181D01*
X87741541Y42250181D02*
X87551065Y42250181D01*
X87551065Y42250181D02*
X87455827Y42297800D01*
X87455827Y42297800D02*
X87408208Y42393039D01*
X87408208Y42393039D02*
X87408208Y42773991D01*
X87408208Y42773991D02*
X87455827Y42869229D01*
X87455827Y42869229D02*
X87551065Y42916848D01*
X87551065Y42916848D02*
X87741541Y42916848D01*
X87741541Y42916848D02*
X87836779Y42869229D01*
X87836779Y42869229D02*
X87884398Y42773991D01*
X87884398Y42773991D02*
X87884398Y42678753D01*
X87884398Y42678753D02*
X87408208Y42583515D01*
X88741541Y42250181D02*
X88741541Y42773991D01*
X88741541Y42773991D02*
X88693922Y42869229D01*
X88693922Y42869229D02*
X88598684Y42916848D01*
X88598684Y42916848D02*
X88408208Y42916848D01*
X88408208Y42916848D02*
X88312970Y42869229D01*
X88741541Y42297800D02*
X88646303Y42250181D01*
X88646303Y42250181D02*
X88408208Y42250181D01*
X88408208Y42250181D02*
X88312970Y42297800D01*
X88312970Y42297800D02*
X88265351Y42393039D01*
X88265351Y42393039D02*
X88265351Y42488277D01*
X88265351Y42488277D02*
X88312970Y42583515D01*
X88312970Y42583515D02*
X88408208Y42631134D01*
X88408208Y42631134D02*
X88646303Y42631134D01*
X88646303Y42631134D02*
X88741541Y42678753D01*
X89217732Y42250181D02*
X89217732Y42916848D01*
X89217732Y42726372D02*
X89265351Y42821610D01*
X89265351Y42821610D02*
X89312970Y42869229D01*
X89312970Y42869229D02*
X89408208Y42916848D01*
X89408208Y42916848D02*
X89503446Y42916848D01*
X90455828Y43250181D02*
X91027256Y43250181D01*
X90741542Y42250181D02*
X90741542Y43250181D01*
X91741542Y42297800D02*
X91646304Y42250181D01*
X91646304Y42250181D02*
X91455828Y42250181D01*
X91455828Y42250181D02*
X91360590Y42297800D01*
X91360590Y42297800D02*
X91312971Y42393039D01*
X91312971Y42393039D02*
X91312971Y42773991D01*
X91312971Y42773991D02*
X91360590Y42869229D01*
X91360590Y42869229D02*
X91455828Y42916848D01*
X91455828Y42916848D02*
X91646304Y42916848D01*
X91646304Y42916848D02*
X91741542Y42869229D01*
X91741542Y42869229D02*
X91789161Y42773991D01*
X91789161Y42773991D02*
X91789161Y42678753D01*
X91789161Y42678753D02*
X91312971Y42583515D01*
X92646304Y42297800D02*
X92551066Y42250181D01*
X92551066Y42250181D02*
X92360590Y42250181D01*
X92360590Y42250181D02*
X92265352Y42297800D01*
X92265352Y42297800D02*
X92217733Y42345420D01*
X92217733Y42345420D02*
X92170114Y42440658D01*
X92170114Y42440658D02*
X92170114Y42726372D01*
X92170114Y42726372D02*
X92217733Y42821610D01*
X92217733Y42821610D02*
X92265352Y42869229D01*
X92265352Y42869229D02*
X92360590Y42916848D01*
X92360590Y42916848D02*
X92551066Y42916848D01*
X92551066Y42916848D02*
X92646304Y42869229D01*
X93074876Y42250181D02*
X93074876Y43250181D01*
X93503447Y42250181D02*
X93503447Y42773991D01*
X93503447Y42773991D02*
X93455828Y42869229D01*
X93455828Y42869229D02*
X93360590Y42916848D01*
X93360590Y42916848D02*
X93217733Y42916848D01*
X93217733Y42916848D02*
X93122495Y42869229D01*
X93122495Y42869229D02*
X93074876Y42821610D01*
X93979638Y42916848D02*
X93979638Y42250181D01*
X93979638Y42821610D02*
X94027257Y42869229D01*
X94027257Y42869229D02*
X94122495Y42916848D01*
X94122495Y42916848D02*
X94265352Y42916848D01*
X94265352Y42916848D02*
X94360590Y42869229D01*
X94360590Y42869229D02*
X94408209Y42773991D01*
X94408209Y42773991D02*
X94408209Y42250181D01*
X95027257Y42250181D02*
X94932019Y42297800D01*
X94932019Y42297800D02*
X94884400Y42345420D01*
X94884400Y42345420D02*
X94836781Y42440658D01*
X94836781Y42440658D02*
X94836781Y42726372D01*
X94836781Y42726372D02*
X94884400Y42821610D01*
X94884400Y42821610D02*
X94932019Y42869229D01*
X94932019Y42869229D02*
X95027257Y42916848D01*
X95027257Y42916848D02*
X95170114Y42916848D01*
X95170114Y42916848D02*
X95265352Y42869229D01*
X95265352Y42869229D02*
X95312971Y42821610D01*
X95312971Y42821610D02*
X95360590Y42726372D01*
X95360590Y42726372D02*
X95360590Y42440658D01*
X95360590Y42440658D02*
X95312971Y42345420D01*
X95312971Y42345420D02*
X95265352Y42297800D01*
X95265352Y42297800D02*
X95170114Y42250181D01*
X95170114Y42250181D02*
X95027257Y42250181D01*
X95932019Y42250181D02*
X95836781Y42297800D01*
X95836781Y42297800D02*
X95789162Y42393039D01*
X95789162Y42393039D02*
X95789162Y43250181D01*
X96455829Y42250181D02*
X96360591Y42297800D01*
X96360591Y42297800D02*
X96312972Y42345420D01*
X96312972Y42345420D02*
X96265353Y42440658D01*
X96265353Y42440658D02*
X96265353Y42726372D01*
X96265353Y42726372D02*
X96312972Y42821610D01*
X96312972Y42821610D02*
X96360591Y42869229D01*
X96360591Y42869229D02*
X96455829Y42916848D01*
X96455829Y42916848D02*
X96598686Y42916848D01*
X96598686Y42916848D02*
X96693924Y42869229D01*
X96693924Y42869229D02*
X96741543Y42821610D01*
X96741543Y42821610D02*
X96789162Y42726372D01*
X96789162Y42726372D02*
X96789162Y42440658D01*
X96789162Y42440658D02*
X96741543Y42345420D01*
X96741543Y42345420D02*
X96693924Y42297800D01*
X96693924Y42297800D02*
X96598686Y42250181D01*
X96598686Y42250181D02*
X96455829Y42250181D01*
X97646305Y42916848D02*
X97646305Y42107324D01*
X97646305Y42107324D02*
X97598686Y42012086D01*
X97598686Y42012086D02*
X97551067Y41964467D01*
X97551067Y41964467D02*
X97455829Y41916848D01*
X97455829Y41916848D02*
X97312972Y41916848D01*
X97312972Y41916848D02*
X97217734Y41964467D01*
X97646305Y42297800D02*
X97551067Y42250181D01*
X97551067Y42250181D02*
X97360591Y42250181D01*
X97360591Y42250181D02*
X97265353Y42297800D01*
X97265353Y42297800D02*
X97217734Y42345420D01*
X97217734Y42345420D02*
X97170115Y42440658D01*
X97170115Y42440658D02*
X97170115Y42726372D01*
X97170115Y42726372D02*
X97217734Y42821610D01*
X97217734Y42821610D02*
X97265353Y42869229D01*
X97265353Y42869229D02*
X97360591Y42916848D01*
X97360591Y42916848D02*
X97551067Y42916848D01*
X97551067Y42916848D02*
X97646305Y42869229D01*
X98027258Y42916848D02*
X98265353Y42250181D01*
X98503448Y42916848D02*
X98265353Y42250181D01*
X98265353Y42250181D02*
X98170115Y42012086D01*
X98170115Y42012086D02*
X98122496Y41964467D01*
X98122496Y41964467D02*
X98027258Y41916848D01*
X82693922Y40030181D02*
X83027255Y39030181D01*
X83027255Y39030181D02*
X83360588Y40030181D01*
X83884398Y40030181D02*
X83979636Y40030181D01*
X83979636Y40030181D02*
X84074874Y39982562D01*
X84074874Y39982562D02*
X84122493Y39934943D01*
X84122493Y39934943D02*
X84170112Y39839705D01*
X84170112Y39839705D02*
X84217731Y39649229D01*
X84217731Y39649229D02*
X84217731Y39411134D01*
X84217731Y39411134D02*
X84170112Y39220658D01*
X84170112Y39220658D02*
X84122493Y39125420D01*
X84122493Y39125420D02*
X84074874Y39077800D01*
X84074874Y39077800D02*
X83979636Y39030181D01*
X83979636Y39030181D02*
X83884398Y39030181D01*
X83884398Y39030181D02*
X83789160Y39077800D01*
X83789160Y39077800D02*
X83741541Y39125420D01*
X83741541Y39125420D02*
X83693922Y39220658D01*
X83693922Y39220658D02*
X83646303Y39411134D01*
X83646303Y39411134D02*
X83646303Y39649229D01*
X83646303Y39649229D02*
X83693922Y39839705D01*
X83693922Y39839705D02*
X83741541Y39934943D01*
X83741541Y39934943D02*
X83789160Y39982562D01*
X83789160Y39982562D02*
X83884398Y40030181D01*
X84693922Y39077800D02*
X84693922Y39030181D01*
X84693922Y39030181D02*
X84646303Y38934943D01*
X84646303Y38934943D02*
X84598684Y38887324D01*
X86170112Y40030181D02*
X86170112Y39315896D01*
X86170112Y39315896D02*
X86122493Y39173039D01*
X86122493Y39173039D02*
X86027255Y39077800D01*
X86027255Y39077800D02*
X85884398Y39030181D01*
X85884398Y39030181D02*
X85789160Y39030181D01*
X87074874Y39030181D02*
X87074874Y39553991D01*
X87074874Y39553991D02*
X87027255Y39649229D01*
X87027255Y39649229D02*
X86932017Y39696848D01*
X86932017Y39696848D02*
X86741541Y39696848D01*
X86741541Y39696848D02*
X86646303Y39649229D01*
X87074874Y39077800D02*
X86979636Y39030181D01*
X86979636Y39030181D02*
X86741541Y39030181D01*
X86741541Y39030181D02*
X86646303Y39077800D01*
X86646303Y39077800D02*
X86598684Y39173039D01*
X86598684Y39173039D02*
X86598684Y39268277D01*
X86598684Y39268277D02*
X86646303Y39363515D01*
X86646303Y39363515D02*
X86741541Y39411134D01*
X86741541Y39411134D02*
X86979636Y39411134D01*
X86979636Y39411134D02*
X87074874Y39458753D01*
X87551065Y39696848D02*
X87551065Y39030181D01*
X87551065Y39601610D02*
X87598684Y39649229D01*
X87598684Y39649229D02*
X87693922Y39696848D01*
X87693922Y39696848D02*
X87836779Y39696848D01*
X87836779Y39696848D02*
X87932017Y39649229D01*
X87932017Y39649229D02*
X87979636Y39553991D01*
X87979636Y39553991D02*
X87979636Y39030181D01*
X88455827Y39125420D02*
X88503446Y39077800D01*
X88503446Y39077800D02*
X88455827Y39030181D01*
X88455827Y39030181D02*
X88408208Y39077800D01*
X88408208Y39077800D02*
X88455827Y39125420D01*
X88455827Y39125420D02*
X88455827Y39030181D01*
X89646303Y39934943D02*
X89693922Y39982562D01*
X89693922Y39982562D02*
X89789160Y40030181D01*
X89789160Y40030181D02*
X90027255Y40030181D01*
X90027255Y40030181D02*
X90122493Y39982562D01*
X90122493Y39982562D02*
X90170112Y39934943D01*
X90170112Y39934943D02*
X90217731Y39839705D01*
X90217731Y39839705D02*
X90217731Y39744467D01*
X90217731Y39744467D02*
X90170112Y39601610D01*
X90170112Y39601610D02*
X89598684Y39030181D01*
X89598684Y39030181D02*
X90217731Y39030181D01*
X90836779Y40030181D02*
X90932017Y40030181D01*
X90932017Y40030181D02*
X91027255Y39982562D01*
X91027255Y39982562D02*
X91074874Y39934943D01*
X91074874Y39934943D02*
X91122493Y39839705D01*
X91122493Y39839705D02*
X91170112Y39649229D01*
X91170112Y39649229D02*
X91170112Y39411134D01*
X91170112Y39411134D02*
X91122493Y39220658D01*
X91122493Y39220658D02*
X91074874Y39125420D01*
X91074874Y39125420D02*
X91027255Y39077800D01*
X91027255Y39077800D02*
X90932017Y39030181D01*
X90932017Y39030181D02*
X90836779Y39030181D01*
X90836779Y39030181D02*
X90741541Y39077800D01*
X90741541Y39077800D02*
X90693922Y39125420D01*
X90693922Y39125420D02*
X90646303Y39220658D01*
X90646303Y39220658D02*
X90598684Y39411134D01*
X90598684Y39411134D02*
X90598684Y39649229D01*
X90598684Y39649229D02*
X90646303Y39839705D01*
X90646303Y39839705D02*
X90693922Y39934943D01*
X90693922Y39934943D02*
X90741541Y39982562D01*
X90741541Y39982562D02*
X90836779Y40030181D01*
X91551065Y39934943D02*
X91598684Y39982562D01*
X91598684Y39982562D02*
X91693922Y40030181D01*
X91693922Y40030181D02*
X91932017Y40030181D01*
X91932017Y40030181D02*
X92027255Y39982562D01*
X92027255Y39982562D02*
X92074874Y39934943D01*
X92074874Y39934943D02*
X92122493Y39839705D01*
X92122493Y39839705D02*
X92122493Y39744467D01*
X92122493Y39744467D02*
X92074874Y39601610D01*
X92074874Y39601610D02*
X91503446Y39030181D01*
X91503446Y39030181D02*
X92122493Y39030181D01*
X92979636Y39696848D02*
X92979636Y39030181D01*
X92741541Y40077800D02*
X92503446Y39363515D01*
X92503446Y39363515D02*
X93122493Y39363515D01*
X86860588Y33030181D02*
X86289160Y33030181D01*
X86574874Y33030181D02*
X86574874Y34030181D01*
X86574874Y34030181D02*
X86479636Y33887324D01*
X86479636Y33887324D02*
X86384398Y33792086D01*
X86384398Y33792086D02*
X86289160Y33744467D01*
X87479636Y34030181D02*
X87574874Y34030181D01*
X87574874Y34030181D02*
X87670112Y33982562D01*
X87670112Y33982562D02*
X87717731Y33934943D01*
X87717731Y33934943D02*
X87765350Y33839705D01*
X87765350Y33839705D02*
X87812969Y33649229D01*
X87812969Y33649229D02*
X87812969Y33411134D01*
X87812969Y33411134D02*
X87765350Y33220658D01*
X87765350Y33220658D02*
X87717731Y33125420D01*
X87717731Y33125420D02*
X87670112Y33077800D01*
X87670112Y33077800D02*
X87574874Y33030181D01*
X87574874Y33030181D02*
X87479636Y33030181D01*
X87479636Y33030181D02*
X87384398Y33077800D01*
X87384398Y33077800D02*
X87336779Y33125420D01*
X87336779Y33125420D02*
X87289160Y33220658D01*
X87289160Y33220658D02*
X87241541Y33411134D01*
X87241541Y33411134D02*
X87241541Y33649229D01*
X87241541Y33649229D02*
X87289160Y33839705D01*
X87289160Y33839705D02*
X87336779Y33934943D01*
X87336779Y33934943D02*
X87384398Y33982562D01*
X87384398Y33982562D02*
X87479636Y34030181D01*
X88241541Y33030181D02*
X88241541Y34030181D01*
X88241541Y33553991D02*
X88812969Y33553991D01*
X88812969Y33030181D02*
X88812969Y34030181D01*
X89193922Y33696848D02*
X89717731Y33696848D01*
X89717731Y33696848D02*
X89193922Y33030181D01*
X89193922Y33030181D02*
X89717731Y33030181D01*
X90717732Y33696848D02*
X91098684Y33696848D01*
X90860589Y34030181D02*
X90860589Y33173039D01*
X90860589Y33173039D02*
X90908208Y33077800D01*
X90908208Y33077800D02*
X91003446Y33030181D01*
X91003446Y33030181D02*
X91098684Y33030181D01*
X91574875Y33030181D02*
X91479637Y33077800D01*
X91479637Y33077800D02*
X91432018Y33125420D01*
X91432018Y33125420D02*
X91384399Y33220658D01*
X91384399Y33220658D02*
X91384399Y33506372D01*
X91384399Y33506372D02*
X91432018Y33601610D01*
X91432018Y33601610D02*
X91479637Y33649229D01*
X91479637Y33649229D02*
X91574875Y33696848D01*
X91574875Y33696848D02*
X91717732Y33696848D01*
X91717732Y33696848D02*
X91812970Y33649229D01*
X91812970Y33649229D02*
X91860589Y33601610D01*
X91860589Y33601610D02*
X91908208Y33506372D01*
X91908208Y33506372D02*
X91908208Y33220658D01*
X91908208Y33220658D02*
X91860589Y33125420D01*
X91860589Y33125420D02*
X91812970Y33077800D01*
X91812970Y33077800D02*
X91717732Y33030181D01*
X91717732Y33030181D02*
X91574875Y33030181D01*
X93622494Y33030181D02*
X93051066Y33030181D01*
X93336780Y33030181D02*
X93336780Y34030181D01*
X93336780Y34030181D02*
X93241542Y33887324D01*
X93241542Y33887324D02*
X93146304Y33792086D01*
X93146304Y33792086D02*
X93051066Y33744467D01*
X94051066Y33030181D02*
X94051066Y34030181D01*
X94051066Y34030181D02*
X94384399Y33315896D01*
X94384399Y33315896D02*
X94717732Y34030181D01*
X94717732Y34030181D02*
X94717732Y33030181D01*
X95193923Y33030181D02*
X95193923Y34030181D01*
X95193923Y33553991D02*
X95765351Y33553991D01*
X95765351Y33030181D02*
X95765351Y34030181D01*
X96146304Y33696848D02*
X96670113Y33696848D01*
X96670113Y33696848D02*
X96146304Y33030181D01*
X96146304Y33030181D02*
X96670113Y33030181D01*
X24350595Y27145181D02*
X24350595Y26335658D01*
X24350595Y26335658D02*
X24398214Y26240420D01*
X24398214Y26240420D02*
X24445833Y26192800D01*
X24445833Y26192800D02*
X24541071Y26145181D01*
X24541071Y26145181D02*
X24731547Y26145181D01*
X24731547Y26145181D02*
X24826785Y26192800D01*
X24826785Y26192800D02*
X24874404Y26240420D01*
X24874404Y26240420D02*
X24922023Y26335658D01*
X24922023Y26335658D02*
X24922023Y27145181D01*
X25541071Y26716610D02*
X25445833Y26764229D01*
X25445833Y26764229D02*
X25398214Y26811848D01*
X25398214Y26811848D02*
X25350595Y26907086D01*
X25350595Y26907086D02*
X25350595Y26954705D01*
X25350595Y26954705D02*
X25398214Y27049943D01*
X25398214Y27049943D02*
X25445833Y27097562D01*
X25445833Y27097562D02*
X25541071Y27145181D01*
X25541071Y27145181D02*
X25731547Y27145181D01*
X25731547Y27145181D02*
X25826785Y27097562D01*
X25826785Y27097562D02*
X25874404Y27049943D01*
X25874404Y27049943D02*
X25922023Y26954705D01*
X25922023Y26954705D02*
X25922023Y26907086D01*
X25922023Y26907086D02*
X25874404Y26811848D01*
X25874404Y26811848D02*
X25826785Y26764229D01*
X25826785Y26764229D02*
X25731547Y26716610D01*
X25731547Y26716610D02*
X25541071Y26716610D01*
X25541071Y26716610D02*
X25445833Y26668991D01*
X25445833Y26668991D02*
X25398214Y26621372D01*
X25398214Y26621372D02*
X25350595Y26526134D01*
X25350595Y26526134D02*
X25350595Y26335658D01*
X25350595Y26335658D02*
X25398214Y26240420D01*
X25398214Y26240420D02*
X25445833Y26192800D01*
X25445833Y26192800D02*
X25541071Y26145181D01*
X25541071Y26145181D02*
X25731547Y26145181D01*
X25731547Y26145181D02*
X25826785Y26192800D01*
X25826785Y26192800D02*
X25874404Y26240420D01*
X25874404Y26240420D02*
X25922023Y26335658D01*
X25922023Y26335658D02*
X25922023Y26526134D01*
X25922023Y26526134D02*
X25874404Y26621372D01*
X25874404Y26621372D02*
X25826785Y26668991D01*
X25826785Y26668991D02*
X25731547Y26716610D01*
X4866666Y32945181D02*
X4866666Y32230896D01*
X4866666Y32230896D02*
X4819047Y32088039D01*
X4819047Y32088039D02*
X4723809Y31992800D01*
X4723809Y31992800D02*
X4580952Y31945181D01*
X4580952Y31945181D02*
X4485714Y31945181D01*
X5866666Y31945181D02*
X5295238Y31945181D01*
X5580952Y31945181D02*
X5580952Y32945181D01*
X5580952Y32945181D02*
X5485714Y32802324D01*
X5485714Y32802324D02*
X5390476Y32707086D01*
X5390476Y32707086D02*
X5295238Y32659467D01*
X61054819Y32438096D02*
X61864342Y32438096D01*
X61864342Y32438096D02*
X61959580Y32485715D01*
X61959580Y32485715D02*
X62007200Y32533334D01*
X62007200Y32533334D02*
X62054819Y32628572D01*
X62054819Y32628572D02*
X62054819Y32819048D01*
X62054819Y32819048D02*
X62007200Y32914286D01*
X62007200Y32914286D02*
X61959580Y32961905D01*
X61959580Y32961905D02*
X61864342Y33009524D01*
X61864342Y33009524D02*
X61054819Y33009524D01*
X62054819Y34009524D02*
X62054819Y33438096D01*
X62054819Y33723810D02*
X61054819Y33723810D01*
X61054819Y33723810D02*
X61197676Y33628572D01*
X61197676Y33628572D02*
X61292914Y33533334D01*
X61292914Y33533334D02*
X61340533Y33438096D01*
X37038095Y15745181D02*
X37038095Y14935658D01*
X37038095Y14935658D02*
X37085714Y14840420D01*
X37085714Y14840420D02*
X37133333Y14792800D01*
X37133333Y14792800D02*
X37228571Y14745181D01*
X37228571Y14745181D02*
X37419047Y14745181D01*
X37419047Y14745181D02*
X37514285Y14792800D01*
X37514285Y14792800D02*
X37561904Y14840420D01*
X37561904Y14840420D02*
X37609523Y14935658D01*
X37609523Y14935658D02*
X37609523Y15745181D01*
X38133333Y14745181D02*
X38323809Y14745181D01*
X38323809Y14745181D02*
X38419047Y14792800D01*
X38419047Y14792800D02*
X38466666Y14840420D01*
X38466666Y14840420D02*
X38561904Y14983277D01*
X38561904Y14983277D02*
X38609523Y15173753D01*
X38609523Y15173753D02*
X38609523Y15554705D01*
X38609523Y15554705D02*
X38561904Y15649943D01*
X38561904Y15649943D02*
X38514285Y15697562D01*
X38514285Y15697562D02*
X38419047Y15745181D01*
X38419047Y15745181D02*
X38228571Y15745181D01*
X38228571Y15745181D02*
X38133333Y15697562D01*
X38133333Y15697562D02*
X38085714Y15649943D01*
X38085714Y15649943D02*
X38038095Y15554705D01*
X38038095Y15554705D02*
X38038095Y15316610D01*
X38038095Y15316610D02*
X38085714Y15221372D01*
X38085714Y15221372D02*
X38133333Y15173753D01*
X38133333Y15173753D02*
X38228571Y15126134D01*
X38228571Y15126134D02*
X38419047Y15126134D01*
X38419047Y15126134D02*
X38514285Y15173753D01*
X38514285Y15173753D02*
X38561904Y15221372D01*
X38561904Y15221372D02*
X38609523Y15316610D01*
X85166666Y15486181D02*
X85166666Y14771896D01*
X85166666Y14771896D02*
X85119047Y14629039D01*
X85119047Y14629039D02*
X85023809Y14533800D01*
X85023809Y14533800D02*
X84880952Y14486181D01*
X84880952Y14486181D02*
X84785714Y14486181D01*
X85595238Y15390943D02*
X85642857Y15438562D01*
X85642857Y15438562D02*
X85738095Y15486181D01*
X85738095Y15486181D02*
X85976190Y15486181D01*
X85976190Y15486181D02*
X86071428Y15438562D01*
X86071428Y15438562D02*
X86119047Y15390943D01*
X86119047Y15390943D02*
X86166666Y15295705D01*
X86166666Y15295705D02*
X86166666Y15200467D01*
X86166666Y15200467D02*
X86119047Y15057610D01*
X86119047Y15057610D02*
X85547619Y14486181D01*
X85547619Y14486181D02*
X86166666Y14486181D01*
X37038095Y56545181D02*
X37038095Y55735658D01*
X37038095Y55735658D02*
X37085714Y55640420D01*
X37085714Y55640420D02*
X37133333Y55592800D01*
X37133333Y55592800D02*
X37228571Y55545181D01*
X37228571Y55545181D02*
X37419047Y55545181D01*
X37419047Y55545181D02*
X37514285Y55592800D01*
X37514285Y55592800D02*
X37561904Y55640420D01*
X37561904Y55640420D02*
X37609523Y55735658D01*
X37609523Y55735658D02*
X37609523Y56545181D01*
X38561904Y56545181D02*
X38085714Y56545181D01*
X38085714Y56545181D02*
X38038095Y56068991D01*
X38038095Y56068991D02*
X38085714Y56116610D01*
X38085714Y56116610D02*
X38180952Y56164229D01*
X38180952Y56164229D02*
X38419047Y56164229D01*
X38419047Y56164229D02*
X38514285Y56116610D01*
X38514285Y56116610D02*
X38561904Y56068991D01*
X38561904Y56068991D02*
X38609523Y55973753D01*
X38609523Y55973753D02*
X38609523Y55735658D01*
X38609523Y55735658D02*
X38561904Y55640420D01*
X38561904Y55640420D02*
X38514285Y55592800D01*
X38514285Y55592800D02*
X38419047Y55545181D01*
X38419047Y55545181D02*
X38180952Y55545181D01*
X38180952Y55545181D02*
X38085714Y55592800D01*
X38085714Y55592800D02*
X38038095Y55640420D01*
X23961905Y6345181D02*
X23961905Y5535658D01*
X23961905Y5535658D02*
X24009524Y5440420D01*
X24009524Y5440420D02*
X24057143Y5392800D01*
X24057143Y5392800D02*
X24152381Y5345181D01*
X24152381Y5345181D02*
X24342857Y5345181D01*
X24342857Y5345181D02*
X24438095Y5392800D01*
X24438095Y5392800D02*
X24485714Y5440420D01*
X24485714Y5440420D02*
X24533333Y5535658D01*
X24533333Y5535658D02*
X24533333Y6345181D01*
X25533333Y5345181D02*
X24961905Y5345181D01*
X25247619Y5345181D02*
X25247619Y6345181D01*
X25247619Y6345181D02*
X25152381Y6202324D01*
X25152381Y6202324D02*
X25057143Y6107086D01*
X25057143Y6107086D02*
X24961905Y6059467D01*
X26152381Y6345181D02*
X26247619Y6345181D01*
X26247619Y6345181D02*
X26342857Y6297562D01*
X26342857Y6297562D02*
X26390476Y6249943D01*
X26390476Y6249943D02*
X26438095Y6154705D01*
X26438095Y6154705D02*
X26485714Y5964229D01*
X26485714Y5964229D02*
X26485714Y5726134D01*
X26485714Y5726134D02*
X26438095Y5535658D01*
X26438095Y5535658D02*
X26390476Y5440420D01*
X26390476Y5440420D02*
X26342857Y5392800D01*
X26342857Y5392800D02*
X26247619Y5345181D01*
X26247619Y5345181D02*
X26152381Y5345181D01*
X26152381Y5345181D02*
X26057143Y5392800D01*
X26057143Y5392800D02*
X26009524Y5440420D01*
X26009524Y5440420D02*
X25961905Y5535658D01*
X25961905Y5535658D02*
X25914286Y5726134D01*
X25914286Y5726134D02*
X25914286Y5964229D01*
X25914286Y5964229D02*
X25961905Y6154705D01*
X25961905Y6154705D02*
X26009524Y6249943D01*
X26009524Y6249943D02*
X26057143Y6297562D01*
X26057143Y6297562D02*
X26152381Y6345181D01*
X59554819Y52438096D02*
X60364342Y52438096D01*
X60364342Y52438096D02*
X60459580Y52485715D01*
X60459580Y52485715D02*
X60507200Y52533334D01*
X60507200Y52533334D02*
X60554819Y52628572D01*
X60554819Y52628572D02*
X60554819Y52819048D01*
X60554819Y52819048D02*
X60507200Y52914286D01*
X60507200Y52914286D02*
X60459580Y52961905D01*
X60459580Y52961905D02*
X60364342Y53009524D01*
X60364342Y53009524D02*
X59554819Y53009524D01*
X59650057Y53438096D02*
X59602438Y53485715D01*
X59602438Y53485715D02*
X59554819Y53580953D01*
X59554819Y53580953D02*
X59554819Y53819048D01*
X59554819Y53819048D02*
X59602438Y53914286D01*
X59602438Y53914286D02*
X59650057Y53961905D01*
X59650057Y53961905D02*
X59745295Y54009524D01*
X59745295Y54009524D02*
X59840533Y54009524D01*
X59840533Y54009524D02*
X59983390Y53961905D01*
X59983390Y53961905D02*
X60554819Y53390477D01*
X60554819Y53390477D02*
X60554819Y54009524D01*
X24438095Y67945181D02*
X24438095Y67135658D01*
X24438095Y67135658D02*
X24485714Y67040420D01*
X24485714Y67040420D02*
X24533333Y66992800D01*
X24533333Y66992800D02*
X24628571Y66945181D01*
X24628571Y66945181D02*
X24819047Y66945181D01*
X24819047Y66945181D02*
X24914285Y66992800D01*
X24914285Y66992800D02*
X24961904Y67040420D01*
X24961904Y67040420D02*
X25009523Y67135658D01*
X25009523Y67135658D02*
X25009523Y67945181D01*
X25914285Y67611848D02*
X25914285Y66945181D01*
X25676190Y67992800D02*
X25438095Y67278515D01*
X25438095Y67278515D02*
X26057142Y67278515D01*
X37000595Y36345181D02*
X37000595Y35535658D01*
X37000595Y35535658D02*
X37048214Y35440420D01*
X37048214Y35440420D02*
X37095833Y35392800D01*
X37095833Y35392800D02*
X37191071Y35345181D01*
X37191071Y35345181D02*
X37381547Y35345181D01*
X37381547Y35345181D02*
X37476785Y35392800D01*
X37476785Y35392800D02*
X37524404Y35440420D01*
X37524404Y35440420D02*
X37572023Y35535658D01*
X37572023Y35535658D02*
X37572023Y36345181D01*
X37952976Y36345181D02*
X38619642Y36345181D01*
X38619642Y36345181D02*
X38191071Y35345181D01*
X85166666Y67406181D02*
X85166666Y66691896D01*
X85166666Y66691896D02*
X85119047Y66549039D01*
X85119047Y66549039D02*
X85023809Y66453800D01*
X85023809Y66453800D02*
X84880952Y66406181D01*
X84880952Y66406181D02*
X84785714Y66406181D01*
X85547619Y67406181D02*
X86166666Y67406181D01*
X86166666Y67406181D02*
X85833333Y67025229D01*
X85833333Y67025229D02*
X85976190Y67025229D01*
X85976190Y67025229D02*
X86071428Y66977610D01*
X86071428Y66977610D02*
X86119047Y66929991D01*
X86119047Y66929991D02*
X86166666Y66834753D01*
X86166666Y66834753D02*
X86166666Y66596658D01*
X86166666Y66596658D02*
X86119047Y66501420D01*
X86119047Y66501420D02*
X86071428Y66453800D01*
X86071428Y66453800D02*
X85976190Y66406181D01*
X85976190Y66406181D02*
X85690476Y66406181D01*
X85690476Y66406181D02*
X85595238Y66453800D01*
X85595238Y66453800D02*
X85547619Y66501420D01*
X37000595Y77345181D02*
X37000595Y76535658D01*
X37000595Y76535658D02*
X37048214Y76440420D01*
X37048214Y76440420D02*
X37095833Y76392800D01*
X37095833Y76392800D02*
X37191071Y76345181D01*
X37191071Y76345181D02*
X37381547Y76345181D01*
X37381547Y76345181D02*
X37476785Y76392800D01*
X37476785Y76392800D02*
X37524404Y76440420D01*
X37524404Y76440420D02*
X37572023Y76535658D01*
X37572023Y76535658D02*
X37572023Y77345181D01*
X37952976Y77345181D02*
X38572023Y77345181D01*
X38572023Y77345181D02*
X38238690Y76964229D01*
X38238690Y76964229D02*
X38381547Y76964229D01*
X38381547Y76964229D02*
X38476785Y76916610D01*
X38476785Y76916610D02*
X38524404Y76868991D01*
X38524404Y76868991D02*
X38572023Y76773753D01*
X38572023Y76773753D02*
X38572023Y76535658D01*
X38572023Y76535658D02*
X38524404Y76440420D01*
X38524404Y76440420D02*
X38476785Y76392800D01*
X38476785Y76392800D02*
X38381547Y76345181D01*
X38381547Y76345181D02*
X38095833Y76345181D01*
X38095833Y76345181D02*
X38000595Y76392800D01*
X38000595Y76392800D02*
X37952976Y76440420D01*
X24438095Y47345181D02*
X24438095Y46535658D01*
X24438095Y46535658D02*
X24485714Y46440420D01*
X24485714Y46440420D02*
X24533333Y46392800D01*
X24533333Y46392800D02*
X24628571Y46345181D01*
X24628571Y46345181D02*
X24819047Y46345181D01*
X24819047Y46345181D02*
X24914285Y46392800D01*
X24914285Y46392800D02*
X24961904Y46440420D01*
X24961904Y46440420D02*
X25009523Y46535658D01*
X25009523Y46535658D02*
X25009523Y47345181D01*
X25914285Y47345181D02*
X25723809Y47345181D01*
X25723809Y47345181D02*
X25628571Y47297562D01*
X25628571Y47297562D02*
X25580952Y47249943D01*
X25580952Y47249943D02*
X25485714Y47107086D01*
X25485714Y47107086D02*
X25438095Y46916610D01*
X25438095Y46916610D02*
X25438095Y46535658D01*
X25438095Y46535658D02*
X25485714Y46440420D01*
X25485714Y46440420D02*
X25533333Y46392800D01*
X25533333Y46392800D02*
X25628571Y46345181D01*
X25628571Y46345181D02*
X25819047Y46345181D01*
X25819047Y46345181D02*
X25914285Y46392800D01*
X25914285Y46392800D02*
X25961904Y46440420D01*
X25961904Y46440420D02*
X26009523Y46535658D01*
X26009523Y46535658D02*
X26009523Y46773753D01*
X26009523Y46773753D02*
X25961904Y46868991D01*
X25961904Y46868991D02*
X25914285Y46916610D01*
X25914285Y46916610D02*
X25819047Y46964229D01*
X25819047Y46964229D02*
X25628571Y46964229D01*
X25628571Y46964229D02*
X25533333Y46916610D01*
X25533333Y46916610D02*
X25485714Y46868991D01*
X25485714Y46868991D02*
X25438095Y46773753D01*
D11*
X31735436Y51885000D02*
X32189564Y51885000D01*
X31735436Y50415000D02*
X32189564Y50415000D01*
X25112500Y36335000D02*
X21662500Y36335000D01*
X25112500Y36335000D02*
X27062500Y36335000D01*
X25112500Y27465000D02*
X23162500Y27465000D01*
X25112500Y27465000D02*
X27062500Y27465000D01*
X69310000Y46361252D02*
X69310000Y44938748D01*
X67490000Y46361252D02*
X67490000Y44938748D01*
X9615000Y59660000D02*
X9615000Y55140000D01*
X9615000Y55140000D02*
X17850000Y55140000D01*
X17850000Y59660000D02*
X9615000Y59660000D01*
X82311252Y30949000D02*
X80888748Y30949000D01*
X82311252Y32769000D02*
X80888748Y32769000D01*
X18000000Y33680000D02*
X3000000Y33680000D01*
X18000000Y49780000D02*
X18000000Y33680000D01*
X14850000Y49020000D02*
X14850000Y49780000D01*
X14850000Y49780000D02*
X18000000Y49780000D01*
X6150000Y49020000D02*
X14850000Y49020000D01*
X6150000Y49780000D02*
X6150000Y49020000D01*
X3000000Y33680000D02*
X3000000Y49780000D01*
X3000000Y49780000D02*
X6150000Y49780000D01*
X24489564Y79880000D02*
X23035436Y79880000D01*
X24489564Y81700000D02*
X23035436Y81700000D01*
D10*
X62625000Y33975000D02*
X67900000Y33975000D01*
X63900000Y28575000D02*
X67900000Y28575000D01*
D11*
X82321252Y18949000D02*
X80898748Y18949000D01*
X82321252Y20769000D02*
X80898748Y20769000D01*
X82311252Y26149000D02*
X80888748Y26149000D01*
X82311252Y27969000D02*
X80888748Y27969000D01*
X37051248Y75700000D02*
X38473752Y75700000D01*
X37051248Y73880000D02*
X38473752Y73880000D01*
X30489564Y38040000D02*
X29035436Y38040000D01*
X30489564Y39860000D02*
X29035436Y39860000D01*
X30489564Y58440000D02*
X29035436Y58440000D01*
X30489564Y60260000D02*
X29035436Y60260000D01*
X7315000Y63159698D02*
X7315000Y62359698D01*
X7715000Y62759698D02*
X6915000Y62759698D01*
X9080000Y58750000D02*
X920000Y58750000D01*
X9080000Y58710000D02*
X920000Y58710000D01*
X9080000Y58670000D02*
X920000Y58670000D01*
X9079000Y58630000D02*
X921000Y58630000D01*
X9077000Y58590000D02*
X923000Y58590000D01*
X9076000Y58550000D02*
X924000Y58550000D01*
X9074000Y58510000D02*
X926000Y58510000D01*
X9071000Y58470000D02*
X929000Y58470000D01*
X9068000Y58430000D02*
X932000Y58430000D01*
X9065000Y58390000D02*
X935000Y58390000D01*
X9061000Y58350000D02*
X939000Y58350000D01*
X9057000Y58310000D02*
X943000Y58310000D01*
X9052000Y58270000D02*
X948000Y58270000D01*
X9048000Y58230000D02*
X952000Y58230000D01*
X9042000Y58190000D02*
X958000Y58190000D01*
X9037000Y58150000D02*
X963000Y58150000D01*
X9030000Y58110000D02*
X970000Y58110000D01*
X9024000Y58070000D02*
X976000Y58070000D01*
X9017000Y58029000D02*
X6040000Y58029000D01*
X3960000Y58029000D02*
X983000Y58029000D01*
X9010000Y57989000D02*
X6040000Y57989000D01*
X3960000Y57989000D02*
X990000Y57989000D01*
X9002000Y57949000D02*
X6040000Y57949000D01*
X3960000Y57949000D02*
X998000Y57949000D01*
X8994000Y57909000D02*
X6040000Y57909000D01*
X3960000Y57909000D02*
X1006000Y57909000D01*
X8985000Y57869000D02*
X6040000Y57869000D01*
X3960000Y57869000D02*
X1015000Y57869000D01*
X8976000Y57829000D02*
X6040000Y57829000D01*
X3960000Y57829000D02*
X1024000Y57829000D01*
X8967000Y57789000D02*
X6040000Y57789000D01*
X3960000Y57789000D02*
X1033000Y57789000D01*
X8957000Y57749000D02*
X6040000Y57749000D01*
X3960000Y57749000D02*
X1043000Y57749000D01*
X8947000Y57709000D02*
X6040000Y57709000D01*
X3960000Y57709000D02*
X1053000Y57709000D01*
X8936000Y57669000D02*
X6040000Y57669000D01*
X3960000Y57669000D02*
X1064000Y57669000D01*
X8925000Y57629000D02*
X6040000Y57629000D01*
X3960000Y57629000D02*
X1075000Y57629000D01*
X8914000Y57589000D02*
X6040000Y57589000D01*
X3960000Y57589000D02*
X1086000Y57589000D01*
X8902000Y57549000D02*
X6040000Y57549000D01*
X3960000Y57549000D02*
X1098000Y57549000D01*
X8889000Y57509000D02*
X6040000Y57509000D01*
X3960000Y57509000D02*
X1111000Y57509000D01*
X8877000Y57469000D02*
X6040000Y57469000D01*
X3960000Y57469000D02*
X1123000Y57469000D01*
X8863000Y57429000D02*
X6040000Y57429000D01*
X3960000Y57429000D02*
X1137000Y57429000D01*
X8850000Y57389000D02*
X6040000Y57389000D01*
X3960000Y57389000D02*
X1150000Y57389000D01*
X8835000Y57349000D02*
X6040000Y57349000D01*
X3960000Y57349000D02*
X1165000Y57349000D01*
X8821000Y57309000D02*
X6040000Y57309000D01*
X3960000Y57309000D02*
X1179000Y57309000D01*
X8805000Y57269000D02*
X6040000Y57269000D01*
X3960000Y57269000D02*
X1195000Y57269000D01*
X8790000Y57229000D02*
X6040000Y57229000D01*
X3960000Y57229000D02*
X1210000Y57229000D01*
X8774000Y57189000D02*
X6040000Y57189000D01*
X3960000Y57189000D02*
X1226000Y57189000D01*
X8757000Y57149000D02*
X6040000Y57149000D01*
X3960000Y57149000D02*
X1243000Y57149000D01*
X8740000Y57109000D02*
X6040000Y57109000D01*
X3960000Y57109000D02*
X1260000Y57109000D01*
X8722000Y57069000D02*
X6040000Y57069000D01*
X3960000Y57069000D02*
X1278000Y57069000D01*
X8704000Y57029000D02*
X6040000Y57029000D01*
X3960000Y57029000D02*
X1296000Y57029000D01*
X8686000Y56989000D02*
X6040000Y56989000D01*
X3960000Y56989000D02*
X1314000Y56989000D01*
X8666000Y56949000D02*
X6040000Y56949000D01*
X3960000Y56949000D02*
X1334000Y56949000D01*
X8647000Y56909000D02*
X6040000Y56909000D01*
X3960000Y56909000D02*
X1353000Y56909000D01*
X8627000Y56869000D02*
X6040000Y56869000D01*
X3960000Y56869000D02*
X1373000Y56869000D01*
X8606000Y56829000D02*
X6040000Y56829000D01*
X3960000Y56829000D02*
X1394000Y56829000D01*
X8584000Y56789000D02*
X6040000Y56789000D01*
X3960000Y56789000D02*
X1416000Y56789000D01*
X8562000Y56749000D02*
X6040000Y56749000D01*
X3960000Y56749000D02*
X1438000Y56749000D01*
X8540000Y56709000D02*
X6040000Y56709000D01*
X3960000Y56709000D02*
X1460000Y56709000D01*
X8517000Y56669000D02*
X6040000Y56669000D01*
X3960000Y56669000D02*
X1483000Y56669000D01*
X8493000Y56629000D02*
X6040000Y56629000D01*
X3960000Y56629000D02*
X1507000Y56629000D01*
X8469000Y56589000D02*
X6040000Y56589000D01*
X3960000Y56589000D02*
X1531000Y56589000D01*
X8444000Y56549000D02*
X6040000Y56549000D01*
X3960000Y56549000D02*
X1556000Y56549000D01*
X8418000Y56509000D02*
X6040000Y56509000D01*
X3960000Y56509000D02*
X1582000Y56509000D01*
X8392000Y56469000D02*
X6040000Y56469000D01*
X3960000Y56469000D02*
X1608000Y56469000D01*
X8365000Y56429000D02*
X6040000Y56429000D01*
X3960000Y56429000D02*
X1635000Y56429000D01*
X8338000Y56389000D02*
X6040000Y56389000D01*
X3960000Y56389000D02*
X1662000Y56389000D01*
X8309000Y56349000D02*
X6040000Y56349000D01*
X3960000Y56349000D02*
X1691000Y56349000D01*
X8280000Y56309000D02*
X6040000Y56309000D01*
X3960000Y56309000D02*
X1720000Y56309000D01*
X8250000Y56269000D02*
X6040000Y56269000D01*
X3960000Y56269000D02*
X1750000Y56269000D01*
X8220000Y56229000D02*
X6040000Y56229000D01*
X3960000Y56229000D02*
X1780000Y56229000D01*
X8189000Y56189000D02*
X6040000Y56189000D01*
X3960000Y56189000D02*
X1811000Y56189000D01*
X8156000Y56149000D02*
X6040000Y56149000D01*
X3960000Y56149000D02*
X1844000Y56149000D01*
X8124000Y56109000D02*
X6040000Y56109000D01*
X3960000Y56109000D02*
X1876000Y56109000D01*
X8090000Y56069000D02*
X6040000Y56069000D01*
X3960000Y56069000D02*
X1910000Y56069000D01*
X8055000Y56029000D02*
X6040000Y56029000D01*
X3960000Y56029000D02*
X1945000Y56029000D01*
X8019000Y55989000D02*
X6040000Y55989000D01*
X3960000Y55989000D02*
X1981000Y55989000D01*
X7983000Y55949000D02*
X2017000Y55949000D01*
X7945000Y55909000D02*
X2055000Y55909000D01*
X7907000Y55869000D02*
X2093000Y55869000D01*
X7867000Y55829000D02*
X2133000Y55829000D01*
X7826000Y55789000D02*
X2174000Y55789000D01*
X7784000Y55749000D02*
X2216000Y55749000D01*
X7741000Y55709000D02*
X2259000Y55709000D01*
X7697000Y55669000D02*
X2303000Y55669000D01*
X7651000Y55629000D02*
X2349000Y55629000D01*
X7604000Y55589000D02*
X2396000Y55589000D01*
X7556000Y55549000D02*
X2444000Y55549000D01*
X7505000Y55509000D02*
X2495000Y55509000D01*
X7454000Y55469000D02*
X2546000Y55469000D01*
X7400000Y55429000D02*
X2600000Y55429000D01*
X7345000Y55389000D02*
X2655000Y55389000D01*
X7287000Y55349000D02*
X2713000Y55349000D01*
X7228000Y55309000D02*
X2772000Y55309000D01*
X7166000Y55269000D02*
X2834000Y55269000D01*
X7102000Y55229000D02*
X2898000Y55229000D01*
X7034000Y55189000D02*
X2966000Y55189000D01*
X6964000Y55149000D02*
X3036000Y55149000D01*
X6890000Y55109000D02*
X3110000Y55109000D01*
X6813000Y55069000D02*
X3187000Y55069000D01*
X6731000Y55029000D02*
X3269000Y55029000D01*
X6645000Y54989000D02*
X3355000Y54989000D01*
X6552000Y54949000D02*
X3448000Y54949000D01*
X6453000Y54909000D02*
X3547000Y54909000D01*
X6346000Y54869000D02*
X3654000Y54869000D01*
X6229000Y54829000D02*
X3771000Y54829000D01*
X6098000Y54789000D02*
X3902000Y54789000D01*
X5948000Y54749000D02*
X4052000Y54749000D01*
X5768000Y54709000D02*
X4232000Y54709000D01*
X5533000Y54669000D02*
X4467000Y54669000D01*
X9120000Y58750000D02*
G75*
G03*
X880000Y58750000I-4120000J0D01*
G01*
X880000Y58750000D02*
G75*
G03*
X9120000Y58750000I4120000J0D01*
G01*
X24738748Y17735000D02*
X25261252Y17735000D01*
X24738748Y16265000D02*
X25261252Y16265000D01*
X28072936Y66510000D02*
X29527064Y66510000D01*
X28072936Y64690000D02*
X29527064Y64690000D01*
X20072936Y44110000D02*
X21527064Y44110000D01*
X20072936Y42290000D02*
X21527064Y42290000D01*
X47432500Y58470000D02*
X41692500Y58470000D01*
X47432500Y58470000D02*
X47432500Y51030000D01*
X41692500Y58470000D02*
X41692500Y51030000D01*
X47432500Y51030000D02*
X41692500Y51030000D01*
X1400000Y66200000D02*
X3800000Y66200000D01*
X1400000Y63800000D02*
X1400000Y66200000D01*
X3800000Y66200000D02*
X3800000Y63800000D01*
X3800000Y63800000D02*
X1400000Y63800000D01*
X10200000Y79800000D02*
X12600000Y79800000D01*
X10200000Y77400000D02*
X10200000Y79800000D01*
X12600000Y79800000D02*
X12600000Y77400000D01*
X12600000Y77400000D02*
X10200000Y77400000D01*
X37800000Y11860000D02*
X34350000Y11860000D01*
X37800000Y11860000D02*
X39750000Y11860000D01*
X37800000Y6740000D02*
X35850000Y6740000D01*
X37800000Y6740000D02*
X39750000Y6740000D01*
X63290000Y60888748D02*
X63290000Y62311252D01*
X65110000Y60888748D02*
X65110000Y62311252D01*
X65690000Y60888748D02*
X65690000Y62311252D01*
X67510000Y60888748D02*
X67510000Y62311252D01*
X84500000Y32370000D02*
X99500000Y32370000D01*
X84500000Y16270000D02*
X84500000Y32370000D01*
X87650000Y17030000D02*
X87650000Y16270000D01*
X87650000Y16270000D02*
X84500000Y16270000D01*
X96350000Y17030000D02*
X87650000Y17030000D01*
X96350000Y16270000D02*
X96350000Y17030000D01*
X99500000Y32370000D02*
X99500000Y16270000D01*
X99500000Y16270000D02*
X96350000Y16270000D01*
X73527064Y28290000D02*
X72072936Y28290000D01*
X73527064Y30110000D02*
X72072936Y30110000D01*
X31735436Y70525000D02*
X32189564Y70525000D01*
X31735436Y69055000D02*
X32189564Y69055000D01*
X70490000Y60888748D02*
X70490000Y62311252D01*
X72310000Y60888748D02*
X72310000Y62311252D01*
X33672500Y66317064D02*
X33672500Y64862936D01*
X31852500Y66317064D02*
X31852500Y64862936D01*
X31772936Y10935000D02*
X32227064Y10935000D01*
X31772936Y9465000D02*
X32227064Y9465000D01*
X9615000Y23660000D02*
X9615000Y19140000D01*
X9615000Y19140000D02*
X17850000Y19140000D01*
X17850000Y23660000D02*
X9615000Y23660000D01*
X24489564Y38840000D02*
X23035436Y38840000D01*
X24489564Y40660000D02*
X23035436Y40660000D01*
X65090000Y44922936D02*
X65090000Y46377064D01*
X66910000Y44922936D02*
X66910000Y46377064D01*
X72088748Y34910000D02*
X73511252Y34910000D01*
X72088748Y33090000D02*
X73511252Y33090000D01*
X58070000Y60870000D02*
X52330000Y60870000D01*
X58070000Y60870000D02*
X58070000Y53430000D01*
X52330000Y60870000D02*
X52330000Y53430000D01*
X58070000Y53430000D02*
X52330000Y53430000D01*
X35072500Y35877064D02*
X35072500Y34422936D01*
X33252500Y35877064D02*
X33252500Y34422936D01*
X82311252Y16549000D02*
X80888748Y16549000D01*
X82311252Y18369000D02*
X80888748Y18369000D01*
X37762500Y52810000D02*
X34312500Y52810000D01*
X37762500Y52810000D02*
X39712500Y52810000D01*
X37762500Y47690000D02*
X35812500Y47690000D01*
X37762500Y47690000D02*
X39712500Y47690000D01*
X41940000Y62205000D02*
X46460000Y62205000D01*
X46460000Y62205000D02*
X46460000Y70440000D01*
X41940000Y70440000D02*
X41940000Y62205000D01*
X31735436Y29485000D02*
X32189564Y29485000D01*
X31735436Y28015000D02*
X32189564Y28015000D01*
X37051248Y34660000D02*
X38473752Y34660000D01*
X37051248Y32840000D02*
X38473752Y32840000D01*
X80888748Y66169000D02*
X82311252Y66169000D01*
X80888748Y64349000D02*
X82311252Y64349000D01*
X35072500Y76917064D02*
X35072500Y75462936D01*
X33252500Y76917064D02*
X33252500Y75462936D01*
X30852500Y54822936D02*
X30852500Y56277064D01*
X32672500Y54822936D02*
X32672500Y56277064D01*
X9615000Y74060000D02*
X9615000Y69540000D01*
X9615000Y69540000D02*
X17850000Y69540000D01*
X17850000Y74060000D02*
X9615000Y74060000D01*
X30852500Y34422936D02*
X30852500Y35877064D01*
X32672500Y34422936D02*
X32672500Y35877064D01*
X50680000Y23630000D02*
X58120000Y23630000D01*
X50680000Y23630000D02*
X50680000Y31070000D01*
X58120000Y23630000D02*
X58120000Y31070000D01*
X50680000Y31070000D02*
X58120000Y31070000D01*
X41520000Y680000D02*
X41520000Y6420000D01*
X41520000Y680000D02*
X34080000Y680000D01*
X41520000Y6420000D02*
X34080000Y6420000D01*
X34080000Y680000D02*
X34080000Y6420000D01*
X72072936Y27710000D02*
X73527064Y27710000D01*
X72072936Y25890000D02*
X73527064Y25890000D01*
X59872936Y66110000D02*
X61327064Y66110000D01*
X59872936Y64290000D02*
X61327064Y64290000D01*
X80872936Y49369000D02*
X82327064Y49369000D01*
X80872936Y47549000D02*
X82327064Y47549000D01*
X25150000Y15785000D02*
X21700000Y15785000D01*
X25150000Y15785000D02*
X27100000Y15785000D01*
X25150000Y6915000D02*
X23200000Y6915000D01*
X25150000Y6915000D02*
X27100000Y6915000D01*
X9615000Y69260000D02*
X9615000Y64740000D01*
X9615000Y64740000D02*
X17850000Y64740000D01*
X17850000Y69260000D02*
X9615000Y69260000D01*
X72088748Y32510000D02*
X73511252Y32510000D01*
X72088748Y30690000D02*
X73511252Y30690000D01*
X80888748Y61369000D02*
X82311252Y61369000D01*
X80888748Y59549000D02*
X82311252Y59549000D01*
X9615000Y14060000D02*
X9615000Y9540000D01*
X9615000Y9540000D02*
X17850000Y9540000D01*
X17850000Y14060000D02*
X9615000Y14060000D01*
X46890000Y43972936D02*
X46890000Y45427064D01*
X48710000Y43972936D02*
X48710000Y45427064D01*
X1400000Y53600000D02*
X3800000Y53600000D01*
X1400000Y51200000D02*
X1400000Y53600000D01*
X3800000Y53600000D02*
X3800000Y51200000D01*
X3800000Y51200000D02*
X1400000Y51200000D01*
X65710000Y24127064D02*
X65710000Y22672936D01*
X63890000Y24127064D02*
X63890000Y22672936D01*
X24489564Y59240000D02*
X23035436Y59240000D01*
X24489564Y61060000D02*
X23035436Y61060000D01*
X60940000Y53200000D02*
X60940000Y49750000D01*
X60940000Y53200000D02*
X60940000Y55150000D01*
X71060000Y53200000D02*
X71060000Y51250000D01*
X71060000Y53200000D02*
X71060000Y55150000D01*
X28072936Y45910000D02*
X29527064Y45910000D01*
X28072936Y44090000D02*
X29527064Y44090000D01*
X24701248Y38285000D02*
X25223752Y38285000D01*
X24701248Y36815000D02*
X25223752Y36815000D01*
X71127064Y64290000D02*
X69672936Y64290000D01*
X71127064Y66110000D02*
X69672936Y66110000D01*
X80888748Y56569000D02*
X82311252Y56569000D01*
X80888748Y54749000D02*
X82311252Y54749000D01*
X41940000Y21165000D02*
X46460000Y21165000D01*
X46460000Y21165000D02*
X46460000Y29400000D01*
X41940000Y29400000D02*
X41940000Y21165000D01*
X30489564Y79080000D02*
X29035436Y79080000D01*
X30489564Y80900000D02*
X29035436Y80900000D01*
X9615000Y64460000D02*
X9615000Y59940000D01*
X9615000Y59940000D02*
X17850000Y59940000D01*
X17850000Y64460000D02*
X9615000Y64460000D01*
X52330000Y44880000D02*
X58070000Y44880000D01*
X52330000Y44880000D02*
X52330000Y52320000D01*
X58070000Y44880000D02*
X58070000Y52320000D01*
X52330000Y52320000D02*
X58070000Y52320000D01*
X25112500Y77375000D02*
X21662500Y77375000D01*
X25112500Y77375000D02*
X27062500Y77375000D01*
X25112500Y68505000D02*
X23162500Y68505000D01*
X25112500Y68505000D02*
X27062500Y68505000D01*
X55585000Y11885000D02*
X58015000Y11885000D01*
X55585000Y11885000D02*
X55585000Y13404000D01*
X56800000Y11885000D02*
X56800000Y12644000D01*
X58015000Y11885000D02*
X58015000Y13404000D01*
X55585000Y13404000D02*
X58015000Y13404000D01*
X53120000Y13405000D02*
X58190000Y13405000D01*
X53120000Y13405000D02*
X53120000Y23175000D01*
X58190000Y13405000D02*
X58190000Y23175000D01*
X53120000Y23175000D02*
X58190000Y23175000D01*
X9615000Y54860000D02*
X9615000Y50340000D01*
X9615000Y50340000D02*
X17850000Y50340000D01*
X17850000Y54860000D02*
X9615000Y54860000D01*
X72050000Y10750000D02*
X74450000Y10750000D01*
X72050000Y8350000D02*
X72050000Y10750000D01*
X74450000Y10750000D02*
X74450000Y8350000D01*
X74450000Y8350000D02*
X72050000Y8350000D01*
X37762500Y32410000D02*
X34312500Y32410000D01*
X37762500Y32410000D02*
X39712500Y32410000D01*
X37762500Y27290000D02*
X35812500Y27290000D01*
X37762500Y27290000D02*
X39712500Y27290000D01*
X30890000Y13872936D02*
X30890000Y15327064D01*
X32710000Y13872936D02*
X32710000Y15327064D01*
X84500000Y65670000D02*
X99500000Y65670000D01*
X84500000Y49570000D02*
X84500000Y65670000D01*
X87650000Y50330000D02*
X87650000Y49570000D01*
X87650000Y49570000D02*
X84500000Y49570000D01*
X96350000Y50330000D02*
X87650000Y50330000D01*
X96350000Y49570000D02*
X96350000Y50330000D01*
X99500000Y65670000D02*
X99500000Y49570000D01*
X99500000Y49570000D02*
X96350000Y49570000D01*
X24701248Y79325000D02*
X25223752Y79325000D01*
X24701248Y77855000D02*
X25223752Y77855000D01*
X80888748Y51769000D02*
X82311252Y51769000D01*
X80888748Y49949000D02*
X82311252Y49949000D01*
X47470000Y17520000D02*
X41730000Y17520000D01*
X47470000Y17520000D02*
X47470000Y10080000D01*
X41730000Y17520000D02*
X41730000Y10080000D01*
X47470000Y10080000D02*
X41730000Y10080000D01*
X24701248Y58685000D02*
X25223752Y58685000D01*
X24701248Y57215000D02*
X25223752Y57215000D01*
X62710000Y62327064D02*
X62710000Y60872936D01*
X60890000Y62327064D02*
X60890000Y60872936D01*
X41940000Y41565000D02*
X46460000Y41565000D01*
X46460000Y41565000D02*
X46460000Y49800000D01*
X41940000Y49800000D02*
X41940000Y41565000D01*
X9615000Y28460000D02*
X9615000Y23940000D01*
X9615000Y23940000D02*
X17850000Y23940000D01*
X17850000Y28460000D02*
X9615000Y28460000D01*
X41482500Y41630000D02*
X41482500Y47370000D01*
X41482500Y41630000D02*
X34042500Y41630000D01*
X41482500Y47370000D02*
X34042500Y47370000D01*
X34042500Y41630000D02*
X34042500Y47370000D01*
X82321252Y23749000D02*
X80898748Y23749000D01*
X82321252Y25569000D02*
X80898748Y25569000D01*
X31735436Y72525000D02*
X32189564Y72525000D01*
X31735436Y71055000D02*
X32189564Y71055000D01*
X58120000Y38970000D02*
X50680000Y38970000D01*
X58120000Y38970000D02*
X58120000Y31530000D01*
X50680000Y38970000D02*
X50680000Y31530000D01*
X58120000Y31530000D02*
X50680000Y31530000D01*
X64510000Y46361252D02*
X64510000Y44938748D01*
X62690000Y46361252D02*
X62690000Y44938748D01*
X33710000Y4727064D02*
X33710000Y3272936D01*
X31890000Y4727064D02*
X31890000Y3272936D01*
X82321252Y28549000D02*
X80898748Y28549000D01*
X82321252Y30369000D02*
X80898748Y30369000D01*
X28072936Y4910000D02*
X29527064Y4910000D01*
X28072936Y3090000D02*
X29527064Y3090000D01*
X80888748Y54169000D02*
X82311252Y54169000D01*
X80888748Y52349000D02*
X82311252Y52349000D01*
X46890000Y23572936D02*
X46890000Y25027064D01*
X48710000Y23572936D02*
X48710000Y25027064D01*
X58490000Y60888748D02*
X58490000Y62311252D01*
X60310000Y60888748D02*
X60310000Y62311252D01*
X24527064Y18290000D02*
X23072936Y18290000D01*
X24527064Y20110000D02*
X23072936Y20110000D01*
X58590000Y26472936D02*
X58590000Y27927064D01*
X60410000Y26472936D02*
X60410000Y27927064D01*
X54450000Y10750000D02*
X56850000Y10750000D01*
X54450000Y8350000D02*
X54450000Y10750000D01*
X56850000Y10750000D02*
X56850000Y8350000D01*
X56850000Y8350000D02*
X54450000Y8350000D01*
X68310000Y24127064D02*
X68310000Y22672936D01*
X66490000Y24127064D02*
X66490000Y22672936D01*
X37762500Y73450000D02*
X34312500Y73450000D01*
X37762500Y73450000D02*
X39712500Y73450000D01*
X37762500Y68330000D02*
X35812500Y68330000D01*
X37762500Y68330000D02*
X39712500Y68330000D01*
X31735436Y31485000D02*
X32189564Y31485000D01*
X31735436Y30015000D02*
X32189564Y30015000D01*
X30852500Y75462936D02*
X30852500Y76917064D01*
X32672500Y75462936D02*
X32672500Y76917064D01*
X58480000Y41070000D02*
X58480000Y35330000D01*
X58480000Y41070000D02*
X65920000Y41070000D01*
X58480000Y35330000D02*
X65920000Y35330000D01*
X65920000Y41070000D02*
X65920000Y35330000D01*
X58590000Y31872936D02*
X58590000Y33327064D01*
X60410000Y31872936D02*
X60410000Y33327064D01*
X31735436Y49885000D02*
X32189564Y49885000D01*
X31735436Y48415000D02*
X32189564Y48415000D01*
X47432500Y79110000D02*
X41692500Y79110000D01*
X47432500Y79110000D02*
X47432500Y71670000D01*
X41692500Y79110000D02*
X41692500Y71670000D01*
X47432500Y71670000D02*
X41692500Y71670000D01*
X30527064Y17490000D02*
X29072936Y17490000D01*
X30527064Y19310000D02*
X29072936Y19310000D01*
X37088748Y14110000D02*
X38511252Y14110000D01*
X37088748Y12290000D02*
X38511252Y12290000D01*
X47432500Y38070000D02*
X41692500Y38070000D01*
X47432500Y38070000D02*
X47432500Y30630000D01*
X41692500Y38070000D02*
X41692500Y30630000D01*
X47432500Y30630000D02*
X41692500Y30630000D01*
X9615000Y18860000D02*
X9615000Y14340000D01*
X9615000Y14340000D02*
X17850000Y14340000D01*
X17850000Y18860000D02*
X9615000Y18860000D01*
X35072500Y56277064D02*
X35072500Y54822936D01*
X33252500Y56277064D02*
X33252500Y54822936D01*
X73185000Y11885000D02*
X75615000Y11885000D01*
X73185000Y11885000D02*
X73185000Y13404000D01*
X74400000Y11885000D02*
X74400000Y12644000D01*
X75615000Y11885000D02*
X75615000Y13404000D01*
X73185000Y13404000D02*
X75615000Y13404000D01*
X70720000Y13405000D02*
X75790000Y13405000D01*
X70720000Y13405000D02*
X70720000Y23175000D01*
X75790000Y13405000D02*
X75790000Y23175000D01*
X70720000Y23175000D02*
X75790000Y23175000D01*
X80888748Y58969000D02*
X82311252Y58969000D01*
X80888748Y57149000D02*
X82311252Y57149000D01*
X41940000Y615000D02*
X46460000Y615000D01*
X46460000Y615000D02*
X46460000Y8850000D01*
X41940000Y8850000D02*
X41940000Y615000D01*
X1400000Y70600000D02*
X3800000Y70600000D01*
X1400000Y68200000D02*
X1400000Y70600000D01*
X3800000Y70600000D02*
X3800000Y68200000D01*
X3800000Y68200000D02*
X1400000Y68200000D01*
X82321252Y21349000D02*
X80898748Y21349000D01*
X82321252Y23169000D02*
X80898748Y23169000D01*
X28072936Y25510000D02*
X29527064Y25510000D01*
X28072936Y23690000D02*
X29527064Y23690000D01*
X41482500Y62270000D02*
X41482500Y68010000D01*
X41482500Y62270000D02*
X34042500Y62270000D01*
X41482500Y68010000D02*
X34042500Y68010000D01*
X34042500Y62270000D02*
X34042500Y68010000D01*
X37051248Y55060000D02*
X38473752Y55060000D01*
X37051248Y53240000D02*
X38473752Y53240000D01*
X41482500Y21230000D02*
X41482500Y26970000D01*
X41482500Y21230000D02*
X34042500Y21230000D01*
X41482500Y26970000D02*
X34042500Y26970000D01*
X34042500Y21230000D02*
X34042500Y26970000D01*
X35110000Y15327064D02*
X35110000Y13872936D01*
X33290000Y15327064D02*
X33290000Y13872936D01*
X69890000Y44872936D02*
X69890000Y46327064D01*
X71710000Y44872936D02*
X71710000Y46327064D01*
X74220000Y35330000D02*
X74220000Y41070000D01*
X74220000Y35330000D02*
X66780000Y35330000D01*
X74220000Y41070000D02*
X66780000Y41070000D01*
X66780000Y35330000D02*
X66780000Y41070000D01*
X33672500Y25277064D02*
X33672500Y23822936D01*
X31852500Y25277064D02*
X31852500Y23822936D01*
X69910000Y62327064D02*
X69910000Y60872936D01*
X68090000Y62327064D02*
X68090000Y60872936D01*
X46890000Y2972936D02*
X46890000Y4427064D01*
X48710000Y2972936D02*
X48710000Y4427064D01*
X33672500Y45677064D02*
X33672500Y44222936D01*
X31852500Y45677064D02*
X31852500Y44222936D01*
X31772936Y8935000D02*
X32227064Y8935000D01*
X31772936Y7465000D02*
X32227064Y7465000D01*
X9615000Y33260000D02*
X9615000Y28740000D01*
X9615000Y28740000D02*
X17850000Y28740000D01*
X17850000Y33260000D02*
X9615000Y33260000D01*
X60990000Y24922936D02*
X60990000Y26377064D01*
X62810000Y24922936D02*
X62810000Y26377064D01*
X80872936Y15969000D02*
X82327064Y15969000D01*
X80872936Y14149000D02*
X82327064Y14149000D01*
X65172936Y28060000D02*
X66627064Y28060000D01*
X65172936Y26240000D02*
X66627064Y26240000D01*
X80888748Y63769000D02*
X82311252Y63769000D01*
X80888748Y61949000D02*
X82311252Y61949000D01*
X25112500Y56735000D02*
X21662500Y56735000D01*
X25112500Y56735000D02*
X27062500Y56735000D01*
X25112500Y47865000D02*
X23162500Y47865000D01*
X25112500Y47865000D02*
X27062500Y47865000D01*
X7515000Y80059698D02*
X7515000Y79259698D01*
X7915000Y79659698D02*
X7115000Y79659698D01*
X9280000Y75650000D02*
X1120000Y75650000D01*
X9280000Y75610000D02*
X1120000Y75610000D01*
X9280000Y75570000D02*
X1120000Y75570000D01*
X9279000Y75530000D02*
X1121000Y75530000D01*
X9277000Y75490000D02*
X1123000Y75490000D01*
X9276000Y75450000D02*
X1124000Y75450000D01*
X9274000Y75410000D02*
X1126000Y75410000D01*
X9271000Y75370000D02*
X1129000Y75370000D01*
X9268000Y75330000D02*
X1132000Y75330000D01*
X9265000Y75290000D02*
X1135000Y75290000D01*
X9261000Y75250000D02*
X1139000Y75250000D01*
X9257000Y75210000D02*
X1143000Y75210000D01*
X9252000Y75170000D02*
X1148000Y75170000D01*
X9248000Y75130000D02*
X1152000Y75130000D01*
X9242000Y75090000D02*
X1158000Y75090000D01*
X9237000Y75050000D02*
X1163000Y75050000D01*
X9230000Y75010000D02*
X1170000Y75010000D01*
X9224000Y74970000D02*
X1176000Y74970000D01*
X9217000Y74929000D02*
X6240000Y74929000D01*
X4160000Y74929000D02*
X1183000Y74929000D01*
X9210000Y74889000D02*
X6240000Y74889000D01*
X4160000Y74889000D02*
X1190000Y74889000D01*
X9202000Y74849000D02*
X6240000Y74849000D01*
X4160000Y74849000D02*
X1198000Y74849000D01*
X9194000Y74809000D02*
X6240000Y74809000D01*
X4160000Y74809000D02*
X1206000Y74809000D01*
X9185000Y74769000D02*
X6240000Y74769000D01*
X4160000Y74769000D02*
X1215000Y74769000D01*
X9176000Y74729000D02*
X6240000Y74729000D01*
X4160000Y74729000D02*
X1224000Y74729000D01*
X9167000Y74689000D02*
X6240000Y74689000D01*
X4160000Y74689000D02*
X1233000Y74689000D01*
X9157000Y74649000D02*
X6240000Y74649000D01*
X4160000Y74649000D02*
X1243000Y74649000D01*
X9147000Y74609000D02*
X6240000Y74609000D01*
X4160000Y74609000D02*
X1253000Y74609000D01*
X9136000Y74569000D02*
X6240000Y74569000D01*
X4160000Y74569000D02*
X1264000Y74569000D01*
X9125000Y74529000D02*
X6240000Y74529000D01*
X4160000Y74529000D02*
X1275000Y74529000D01*
X9114000Y74489000D02*
X6240000Y74489000D01*
X4160000Y74489000D02*
X1286000Y74489000D01*
X9102000Y74449000D02*
X6240000Y74449000D01*
X4160000Y74449000D02*
X1298000Y74449000D01*
X9089000Y74409000D02*
X6240000Y74409000D01*
X4160000Y74409000D02*
X1311000Y74409000D01*
X9077000Y74369000D02*
X6240000Y74369000D01*
X4160000Y74369000D02*
X1323000Y74369000D01*
X9063000Y74329000D02*
X6240000Y74329000D01*
X4160000Y74329000D02*
X1337000Y74329000D01*
X9050000Y74289000D02*
X6240000Y74289000D01*
X4160000Y74289000D02*
X1350000Y74289000D01*
X9035000Y74249000D02*
X6240000Y74249000D01*
X4160000Y74249000D02*
X1365000Y74249000D01*
X9021000Y74209000D02*
X6240000Y74209000D01*
X4160000Y74209000D02*
X1379000Y74209000D01*
X9005000Y74169000D02*
X6240000Y74169000D01*
X4160000Y74169000D02*
X1395000Y74169000D01*
X8990000Y74129000D02*
X6240000Y74129000D01*
X4160000Y74129000D02*
X1410000Y74129000D01*
X8974000Y74089000D02*
X6240000Y74089000D01*
X4160000Y74089000D02*
X1426000Y74089000D01*
X8957000Y74049000D02*
X6240000Y74049000D01*
X4160000Y74049000D02*
X1443000Y74049000D01*
X8940000Y74009000D02*
X6240000Y74009000D01*
X4160000Y74009000D02*
X1460000Y74009000D01*
X8922000Y73969000D02*
X6240000Y73969000D01*
X4160000Y73969000D02*
X1478000Y73969000D01*
X8904000Y73929000D02*
X6240000Y73929000D01*
X4160000Y73929000D02*
X1496000Y73929000D01*
X8886000Y73889000D02*
X6240000Y73889000D01*
X4160000Y73889000D02*
X1514000Y73889000D01*
X8866000Y73849000D02*
X6240000Y73849000D01*
X4160000Y73849000D02*
X1534000Y73849000D01*
X8847000Y73809000D02*
X6240000Y73809000D01*
X4160000Y73809000D02*
X1553000Y73809000D01*
X8827000Y73769000D02*
X6240000Y73769000D01*
X4160000Y73769000D02*
X1573000Y73769000D01*
X8806000Y73729000D02*
X6240000Y73729000D01*
X4160000Y73729000D02*
X1594000Y73729000D01*
X8784000Y73689000D02*
X6240000Y73689000D01*
X4160000Y73689000D02*
X1616000Y73689000D01*
X8762000Y73649000D02*
X6240000Y73649000D01*
X4160000Y73649000D02*
X1638000Y73649000D01*
X8740000Y73609000D02*
X6240000Y73609000D01*
X4160000Y73609000D02*
X1660000Y73609000D01*
X8717000Y73569000D02*
X6240000Y73569000D01*
X4160000Y73569000D02*
X1683000Y73569000D01*
X8693000Y73529000D02*
X6240000Y73529000D01*
X4160000Y73529000D02*
X1707000Y73529000D01*
X8669000Y73489000D02*
X6240000Y73489000D01*
X4160000Y73489000D02*
X1731000Y73489000D01*
X8644000Y73449000D02*
X6240000Y73449000D01*
X4160000Y73449000D02*
X1756000Y73449000D01*
X8618000Y73409000D02*
X6240000Y73409000D01*
X4160000Y73409000D02*
X1782000Y73409000D01*
X8592000Y73369000D02*
X6240000Y73369000D01*
X4160000Y73369000D02*
X1808000Y73369000D01*
X8565000Y73329000D02*
X6240000Y73329000D01*
X4160000Y73329000D02*
X1835000Y73329000D01*
X8538000Y73289000D02*
X6240000Y73289000D01*
X4160000Y73289000D02*
X1862000Y73289000D01*
X8509000Y73249000D02*
X6240000Y73249000D01*
X4160000Y73249000D02*
X1891000Y73249000D01*
X8480000Y73209000D02*
X6240000Y73209000D01*
X4160000Y73209000D02*
X1920000Y73209000D01*
X8450000Y73169000D02*
X6240000Y73169000D01*
X4160000Y73169000D02*
X1950000Y73169000D01*
X8420000Y73129000D02*
X6240000Y73129000D01*
X4160000Y73129000D02*
X1980000Y73129000D01*
X8389000Y73089000D02*
X6240000Y73089000D01*
X4160000Y73089000D02*
X2011000Y73089000D01*
X8356000Y73049000D02*
X6240000Y73049000D01*
X4160000Y73049000D02*
X2044000Y73049000D01*
X8324000Y73009000D02*
X6240000Y73009000D01*
X4160000Y73009000D02*
X2076000Y73009000D01*
X8290000Y72969000D02*
X6240000Y72969000D01*
X4160000Y72969000D02*
X2110000Y72969000D01*
X8255000Y72929000D02*
X6240000Y72929000D01*
X4160000Y72929000D02*
X2145000Y72929000D01*
X8219000Y72889000D02*
X6240000Y72889000D01*
X4160000Y72889000D02*
X2181000Y72889000D01*
X8183000Y72849000D02*
X2217000Y72849000D01*
X8145000Y72809000D02*
X2255000Y72809000D01*
X8107000Y72769000D02*
X2293000Y72769000D01*
X8067000Y72729000D02*
X2333000Y72729000D01*
X8026000Y72689000D02*
X2374000Y72689000D01*
X7984000Y72649000D02*
X2416000Y72649000D01*
X7941000Y72609000D02*
X2459000Y72609000D01*
X7897000Y72569000D02*
X2503000Y72569000D01*
X7851000Y72529000D02*
X2549000Y72529000D01*
X7804000Y72489000D02*
X2596000Y72489000D01*
X7756000Y72449000D02*
X2644000Y72449000D01*
X7705000Y72409000D02*
X2695000Y72409000D01*
X7654000Y72369000D02*
X2746000Y72369000D01*
X7600000Y72329000D02*
X2800000Y72329000D01*
X7545000Y72289000D02*
X2855000Y72289000D01*
X7487000Y72249000D02*
X2913000Y72249000D01*
X7428000Y72209000D02*
X2972000Y72209000D01*
X7366000Y72169000D02*
X3034000Y72169000D01*
X7302000Y72129000D02*
X3098000Y72129000D01*
X7234000Y72089000D02*
X3166000Y72089000D01*
X7164000Y72049000D02*
X3236000Y72049000D01*
X7090000Y72009000D02*
X3310000Y72009000D01*
X7013000Y71969000D02*
X3387000Y71969000D01*
X6931000Y71929000D02*
X3469000Y71929000D01*
X6845000Y71889000D02*
X3555000Y71889000D01*
X6752000Y71849000D02*
X3648000Y71849000D01*
X6653000Y71809000D02*
X3747000Y71809000D01*
X6546000Y71769000D02*
X3854000Y71769000D01*
X6429000Y71729000D02*
X3971000Y71729000D01*
X6298000Y71689000D02*
X4102000Y71689000D01*
X6148000Y71649000D02*
X4252000Y71649000D01*
X5968000Y71609000D02*
X4432000Y71609000D01*
X5733000Y71569000D02*
X4667000Y71569000D01*
X9320000Y75650000D02*
G75*
G03*
X1080000Y75650000I-4120000J0D01*
G01*
X1080000Y75650000D02*
G75*
G03*
X9320000Y75650000I4120000J0D01*
G01*
X46890000Y64572936D02*
X46890000Y66027064D01*
X48710000Y64572936D02*
X48710000Y66027064D01*
D12*
X57200000Y71200000D02*
G75*
G03*
X59200000Y69200000I2000000J0D01*
G01*
X5014213Y82014214D02*
X585786Y77585786D01*
X57200000Y71200000D02*
X57200000Y76171573D01*
X5014200Y585773D02*
G75*
G03*
X6428427Y0I1414200J1414227D01*
G01*
X585786Y5014214D02*
X5014213Y585786D01*
X585772Y77585800D02*
G75*
G03*
X0Y76171573I1414228J-1414200D01*
G01*
X6428427Y82599981D02*
G75*
G03*
X5014213Y82014214I-27J-1999981D01*
G01*
X6428427Y0D02*
X49571572Y0D01*
X102000000Y13428427D02*
X102000000Y62771573D01*
X101414213Y64185786D02*
X96985786Y68614214D01*
X57199980Y76171573D02*
G75*
G03*
X56614213Y77585786I-1999980J27D01*
G01*
X58228427Y6999981D02*
G75*
G03*
X56814213Y6414214I-27J-1999981D01*
G01*
X95571572Y69200000D02*
X59200000Y69200000D01*
X95571572Y7000020D02*
G75*
G03*
X96985785Y7585787I28J1999980D01*
G01*
X101999980Y62771573D02*
G75*
G03*
X101414213Y64185786I-1999980J27D01*
G01*
X96985786Y7585786D02*
X101414213Y12014214D01*
X50985786Y585786D02*
X56814213Y6414214D01*
X56614213Y77585786D02*
X52185786Y82014214D01*
X50771572Y82600000D02*
X6428427Y82600000D01*
X101414227Y12014200D02*
G75*
G03*
X102000000Y13428427I-1414227J1414200D01*
G01*
X58228427Y7000000D02*
X95571572Y7000000D01*
X0Y76171573D02*
X0Y6428427D01*
X49571572Y20D02*
G75*
G03*
X50985785Y585787I28J1999980D01*
G01*
X96985800Y68614228D02*
G75*
G03*
X95571572Y69200000I-1414200J-1414228D01*
G01*
X52185800Y82014228D02*
G75*
G03*
X50771572Y82600000I-1414200J-1414228D01*
G01*
X20Y6428427D02*
G75*
G03*
X585787Y5014215I1999980J-27D01*
G01*
M02*
