%TF.GenerationSoftware,KiCad,Pcbnew,7.0.10*%
%TF.CreationDate,2024-02-08T22:37:47+01:00*%
%TF.ProjectId,LNA_1MHz,4c4e415f-314d-4487-9a2e-6b696361645f,V0*%
%TF.SameCoordinates,PX62ccf80PY8214c80*%
%TF.FileFunction,Profile,NP*%
%FSLAX46Y46*%
G04 Gerber Fmt 4.6, Leading zero omitted, Abs format (unit mm)*
G04 Created by KiCad (PCBNEW 7.0.10) date 2024-02-08 22:37:47*
%MOMM*%
%LPD*%
G01*
G04 APERTURE LIST*
%TA.AperFunction,Profile*%
%ADD10C,0.200000*%
%TD*%
G04 APERTURE END LIST*
D10*
X57200000Y71200000D02*
G75*
G03*
X59200000Y69200000I2000000J0D01*
G01*
X5014213Y82014214D02*
X585786Y77585786D01*
X57200000Y71200000D02*
X57200000Y76171573D01*
X5014200Y585773D02*
G75*
G03*
X6428427Y0I1414200J1414227D01*
G01*
X585786Y5014214D02*
X5014213Y585786D01*
X585772Y77585800D02*
G75*
G03*
X0Y76171573I1414228J-1414200D01*
G01*
X6428427Y82599981D02*
G75*
G03*
X5014213Y82014214I-27J-1999981D01*
G01*
X6428427Y0D02*
X49571572Y0D01*
X102000000Y13428427D02*
X102000000Y62771573D01*
X101414213Y64185786D02*
X96985786Y68614214D01*
X57199980Y76171573D02*
G75*
G03*
X56614213Y77585786I-1999980J27D01*
G01*
X58228427Y6999981D02*
G75*
G03*
X56814213Y6414214I-27J-1999981D01*
G01*
X95571572Y69200000D02*
X59200000Y69200000D01*
X95571572Y7000020D02*
G75*
G03*
X96985785Y7585787I28J1999980D01*
G01*
X101999980Y62771573D02*
G75*
G03*
X101414213Y64185786I-1999980J27D01*
G01*
X96985786Y7585786D02*
X101414213Y12014214D01*
X50985786Y585786D02*
X56814213Y6414214D01*
X56614213Y77585786D02*
X52185786Y82014214D01*
X50771572Y82600000D02*
X6428427Y82600000D01*
X101414227Y12014200D02*
G75*
G03*
X102000000Y13428427I-1414227J1414200D01*
G01*
X58228427Y7000000D02*
X95571572Y7000000D01*
X0Y76171573D02*
X0Y6428427D01*
X49571572Y20D02*
G75*
G03*
X50985785Y585787I28J1999980D01*
G01*
X96985800Y68614228D02*
G75*
G03*
X95571572Y69200000I-1414200J-1414228D01*
G01*
X52185800Y82014228D02*
G75*
G03*
X50771572Y82600000I-1414200J-1414228D01*
G01*
X20Y6428427D02*
G75*
G03*
X585787Y5014215I1999980J-27D01*
G01*
M02*
