%TF.GenerationSoftware,KiCad,Pcbnew,7.0.10*%
%TF.CreationDate,2024-02-08T22:37:53+01:00*%
%TF.ProjectId,LNA_1MHz,4c4e415f-314d-4487-9a2e-6b696361645f,V0*%
%TF.SameCoordinates,PX62ccf80PY8214c80*%
%TF.FileFunction,Drillmap*%
%TF.FilePolarity,Positive*%
%FSLAX45Y45*%
G04 Gerber Fmt 4.5, Leading zero omitted, Abs format (unit mm)*
G04 Created by KiCad (PCBNEW 7.0.10) date 2024-02-08 22:37:53*
%MOMM*%
%LPD*%
G01*
G04 APERTURE LIST*
%ADD10C,0.200000*%
%ADD11C,0.100000*%
G04 APERTURE END LIST*
D10*
X5720000Y7120000D02*
G75*
G03*
X5920000Y6920000I200000J0D01*
G01*
X501421Y8201421D02*
X58579Y7758579D01*
X5720000Y7120000D02*
X5720000Y7617157D01*
X501420Y58577D02*
G75*
G03*
X642843Y0I141420J141423D01*
G01*
X58579Y501421D02*
X501421Y58579D01*
X58577Y7758580D02*
G75*
G03*
X0Y7617157I141423J-141420D01*
G01*
X642843Y8259998D02*
G75*
G03*
X501421Y8201421I-3J-199998D01*
G01*
X642843Y0D02*
X4957157Y0D01*
X10200000Y1342843D02*
X10200000Y6277157D01*
X10141421Y6418579D02*
X9698579Y6861421D01*
X5719998Y7617157D02*
G75*
G03*
X5661421Y7758579I-199998J3D01*
G01*
X5822843Y699998D02*
G75*
G03*
X5681421Y641421I-3J-199998D01*
G01*
X9557157Y6920000D02*
X5920000Y6920000D01*
X9557157Y700002D02*
G75*
G03*
X9698579Y758579I3J199998D01*
G01*
X10199998Y6277157D02*
G75*
G03*
X10141421Y6418579I-199998J3D01*
G01*
X9698579Y758579D02*
X10141421Y1201421D01*
X5098579Y58579D02*
X5681421Y641421D01*
X5661421Y7758579D02*
X5218579Y8201421D01*
X5077157Y8260000D02*
X642843Y8260000D01*
X10141423Y1201420D02*
G75*
G03*
X10200000Y1342843I-141423J141420D01*
G01*
X5822843Y700000D02*
X9557157Y700000D01*
X0Y7617157D02*
X0Y642843D01*
X4957157Y2D02*
G75*
G03*
X5098579Y58579I3J199998D01*
G01*
X9698580Y6861423D02*
G75*
G03*
X9557157Y6920000I-141420J-141423D01*
G01*
X5218580Y8201423D02*
G75*
G03*
X5077157Y8260000I-141420J-141423D01*
G01*
X2Y642843D02*
G75*
G03*
X58579Y501421I199998J-3D01*
G01*
D11*
X80000Y7360000D02*
X120000Y7320000D01*
X120000Y7360000D02*
X80000Y7320000D01*
X80000Y5860000D02*
X120000Y5820000D01*
X120000Y5860000D02*
X80000Y5820000D01*
X80000Y4760000D02*
X120000Y4720000D01*
X120000Y4760000D02*
X80000Y4720000D01*
X80000Y4410000D02*
X120000Y4370000D01*
X120000Y4410000D02*
X80000Y4370000D01*
X80000Y4060000D02*
X120000Y4020000D01*
X120000Y4060000D02*
X80000Y4020000D01*
X80000Y3660000D02*
X120000Y3620000D01*
X120000Y3660000D02*
X80000Y3620000D01*
X80000Y2860000D02*
X120000Y2820000D01*
X120000Y2860000D02*
X80000Y2820000D01*
X80000Y2360000D02*
X120000Y2320000D01*
X120000Y2360000D02*
X80000Y2320000D01*
X80000Y1860000D02*
X120000Y1820000D01*
X120000Y1860000D02*
X80000Y1820000D01*
X80000Y1360000D02*
X120000Y1320000D01*
X120000Y1360000D02*
X80000Y1320000D01*
X80000Y860000D02*
X120000Y820000D01*
X120000Y860000D02*
X80000Y820000D01*
X230000Y460000D02*
X270000Y420000D01*
X270000Y460000D02*
X230000Y420000D01*
X480000Y4760000D02*
X520000Y4720000D01*
X520000Y4760000D02*
X480000Y4720000D01*
X480000Y210000D02*
X520000Y170000D01*
X520000Y210000D02*
X480000Y170000D01*
X830000Y110000D02*
X870000Y70000D01*
X870000Y110000D02*
X830000Y70000D01*
X1330000Y110000D02*
X1370000Y70000D01*
X1370000Y110000D02*
X1330000Y70000D01*
X2051250Y3580000D02*
X2091250Y3540000D01*
X2091250Y3580000D02*
X2051250Y3540000D01*
X2051250Y2830000D02*
X2091250Y2790000D01*
X2091250Y2830000D02*
X2051250Y2790000D01*
X2061250Y5624000D02*
X2101250Y5584000D01*
X2101250Y5624000D02*
X2061250Y5584000D01*
X2061250Y4874000D02*
X2101250Y4834000D01*
X2101250Y4874000D02*
X2061250Y4834000D01*
X2065000Y1530000D02*
X2105000Y1490000D01*
X2105000Y1530000D02*
X2065000Y1490000D01*
X2065000Y780000D02*
X2105000Y740000D01*
X2105000Y780000D02*
X2065000Y740000D01*
X2066250Y7689000D02*
X2106250Y7649000D01*
X2106250Y7689000D02*
X2066250Y7649000D01*
X2066250Y6939000D02*
X2106250Y6899000D01*
X2106250Y6939000D02*
X2066250Y6899000D01*
X2080000Y6700000D02*
X2120000Y6660000D01*
X2120000Y6700000D02*
X2080000Y6660000D01*
X2080000Y2560000D02*
X2120000Y2520000D01*
X2120000Y2560000D02*
X2080000Y2520000D01*
X2100000Y4620000D02*
X2140000Y4580000D01*
X2140000Y4620000D02*
X2100000Y4580000D01*
X2395000Y4340000D02*
X2435000Y4300000D01*
X2435000Y4340000D02*
X2395000Y4300000D01*
X2401250Y3330000D02*
X2441250Y3290000D01*
X2441250Y3330000D02*
X2401250Y3290000D01*
X2411250Y5374000D02*
X2451250Y5334000D01*
X2451250Y5374000D02*
X2411250Y5334000D01*
X2415000Y1280000D02*
X2455000Y1240000D01*
X2455000Y1280000D02*
X2415000Y1240000D01*
X2416250Y7439000D02*
X2456250Y7399000D01*
X2456250Y7439000D02*
X2416250Y7399000D01*
X2421250Y3078000D02*
X2461250Y3038000D01*
X2461250Y3078000D02*
X2421250Y3038000D01*
X2431250Y5122000D02*
X2471250Y5082000D01*
X2471250Y5122000D02*
X2431250Y5082000D01*
X2435000Y1028000D02*
X2475000Y988000D01*
X2475000Y1028000D02*
X2435000Y988000D01*
X2436250Y7187000D02*
X2476250Y7147000D01*
X2476250Y7187000D02*
X2436250Y7147000D01*
X2476250Y3205000D02*
X2516250Y3165000D01*
X2516250Y3205000D02*
X2476250Y3165000D01*
X2486250Y5249000D02*
X2526250Y5209000D01*
X2526250Y5249000D02*
X2486250Y5209000D01*
X2490000Y1155000D02*
X2530000Y1115000D01*
X2530000Y1155000D02*
X2490000Y1115000D01*
X2491250Y7314000D02*
X2531250Y7274000D01*
X2531250Y7314000D02*
X2491250Y7274000D01*
X2539875Y4516000D02*
X2579875Y4476000D01*
X2579875Y4516000D02*
X2539875Y4476000D01*
X2539875Y2476000D02*
X2579875Y2436000D01*
X2579875Y2476000D02*
X2539875Y2436000D01*
X2539875Y416000D02*
X2579875Y376000D01*
X2579875Y416000D02*
X2539875Y376000D01*
X2540000Y6580000D02*
X2580000Y6540000D01*
X2580000Y6580000D02*
X2540000Y6540000D01*
X2551250Y2830000D02*
X2591250Y2790000D01*
X2591250Y2830000D02*
X2551250Y2790000D01*
X2561250Y4874000D02*
X2601250Y4834000D01*
X2601250Y4874000D02*
X2561250Y4834000D01*
X2561250Y3580000D02*
X2601250Y3540000D01*
X2601250Y3580000D02*
X2561250Y3540000D01*
X2561250Y2950000D02*
X2601250Y2910000D01*
X2601250Y2950000D02*
X2561250Y2910000D01*
X2562610Y3451360D02*
X2602610Y3411360D01*
X2602610Y3451360D02*
X2562610Y3411360D01*
X2565000Y780000D02*
X2605000Y740000D01*
X2605000Y780000D02*
X2565000Y740000D01*
X2566250Y6939000D02*
X2606250Y6899000D01*
X2606250Y6939000D02*
X2566250Y6899000D01*
X2571250Y5624000D02*
X2611250Y5584000D01*
X2611250Y5624000D02*
X2571250Y5584000D01*
X2571250Y4994000D02*
X2611250Y4954000D01*
X2611250Y4994000D02*
X2571250Y4954000D01*
X2572610Y5495360D02*
X2612610Y5455360D01*
X2612610Y5495360D02*
X2572610Y5455360D01*
X2575000Y1530000D02*
X2615000Y1490000D01*
X2615000Y1530000D02*
X2575000Y1490000D01*
X2575000Y900000D02*
X2615000Y860000D01*
X2615000Y900000D02*
X2575000Y860000D01*
X2576250Y7689000D02*
X2616250Y7649000D01*
X2616250Y7689000D02*
X2576250Y7649000D01*
X2576250Y7059000D02*
X2616250Y7019000D01*
X2616250Y7059000D02*
X2576250Y7019000D01*
X2576360Y1401360D02*
X2616360Y1361360D01*
X2616360Y1401360D02*
X2576360Y1361360D01*
X2577610Y7560360D02*
X2617610Y7520360D01*
X2617610Y7560360D02*
X2577610Y7520360D01*
X2901250Y2830000D02*
X2941250Y2790000D01*
X2941250Y2830000D02*
X2901250Y2790000D01*
X2911250Y4874000D02*
X2951250Y4834000D01*
X2951250Y4874000D02*
X2911250Y4834000D01*
X2915000Y780000D02*
X2955000Y740000D01*
X2955000Y780000D02*
X2915000Y740000D01*
X2916250Y6939000D02*
X2956250Y6899000D01*
X2956250Y6939000D02*
X2916250Y6899000D01*
X2922610Y3091360D02*
X2962610Y3051360D01*
X2962610Y3091360D02*
X2922610Y3051360D01*
X2932610Y5135360D02*
X2972610Y5095360D01*
X2972610Y5135360D02*
X2932610Y5095360D01*
X2936360Y1041360D02*
X2976360Y1001360D01*
X2976360Y1041360D02*
X2936360Y1001360D01*
X2937610Y7200360D02*
X2977610Y7160360D01*
X2977610Y7200360D02*
X2937610Y7160360D01*
X2966250Y3685000D02*
X3006250Y3645000D01*
X3006250Y3685000D02*
X2966250Y3645000D01*
X2976250Y5729000D02*
X3016250Y5689000D01*
X3016250Y5729000D02*
X2976250Y5689000D01*
X2980000Y1635000D02*
X3020000Y1595000D01*
X3020000Y1635000D02*
X2980000Y1595000D01*
X2981250Y7794000D02*
X3021250Y7754000D01*
X3021250Y7794000D02*
X2981250Y7754000D01*
X3019875Y4356000D02*
X3059875Y4316000D01*
X3059875Y4356000D02*
X3019875Y4316000D01*
X3019875Y2316000D02*
X3059875Y2276000D01*
X3059875Y2316000D02*
X3019875Y2276000D01*
X3019875Y256000D02*
X3059875Y216000D01*
X3059875Y256000D02*
X3019875Y216000D01*
X3020000Y6420000D02*
X3060000Y6380000D01*
X3060000Y6420000D02*
X3020000Y6380000D01*
X3059681Y2691569D02*
X3099681Y2651569D01*
X3099681Y2691569D02*
X3059681Y2651569D01*
X3071250Y4734000D02*
X3111250Y4694000D01*
X3111250Y4734000D02*
X3071250Y4694000D01*
X3075000Y640000D02*
X3115000Y600000D01*
X3115000Y640000D02*
X3075000Y600000D01*
X3076250Y6799000D02*
X3116250Y6759000D01*
X3116250Y6799000D02*
X3076250Y6759000D01*
X3273875Y5960000D02*
X3313875Y5920000D01*
X3313875Y5960000D02*
X3273875Y5920000D01*
X3280000Y8020000D02*
X3320000Y7980000D01*
X3320000Y8020000D02*
X3280000Y7980000D01*
X3280000Y7340000D02*
X3320000Y7300000D01*
X3320000Y7340000D02*
X3280000Y7300000D01*
X3280000Y5285000D02*
X3320000Y5245000D01*
X3320000Y5285000D02*
X3280000Y5245000D01*
X3280000Y3240000D02*
X3320000Y3200000D01*
X3320000Y3240000D02*
X3280000Y3200000D01*
X3280000Y1200000D02*
X3320000Y1160000D01*
X3320000Y1200000D02*
X3280000Y1160000D01*
X3293875Y3920000D02*
X3333875Y3880000D01*
X3333875Y3920000D02*
X3293875Y3880000D01*
X3293875Y1860000D02*
X3333875Y1820000D01*
X3333875Y1860000D02*
X3293875Y1820000D01*
X3730000Y5585000D02*
X3770000Y5545000D01*
X3770000Y5585000D02*
X3730000Y5545000D01*
X3740000Y800000D02*
X3780000Y760000D01*
X3780000Y800000D02*
X3740000Y760000D01*
X3755000Y7635000D02*
X3795000Y7595000D01*
X3795000Y7635000D02*
X3755000Y7595000D01*
X3755000Y3535000D02*
X3795000Y3495000D01*
X3795000Y3535000D02*
X3755000Y3495000D01*
X3755000Y1485000D02*
X3795000Y1445000D01*
X3795000Y1485000D02*
X3755000Y1445000D01*
X4080000Y110000D02*
X4120000Y70000D01*
X4120000Y110000D02*
X4080000Y70000D01*
X5180000Y310000D02*
X5220000Y270000D01*
X5220000Y310000D02*
X5180000Y270000D01*
X5260000Y2420000D02*
X5300000Y2380000D01*
X5300000Y2420000D02*
X5260000Y2380000D01*
X5280000Y8010000D02*
X5320000Y7970000D01*
X5320000Y8010000D02*
X5280000Y7970000D01*
X5280000Y5310000D02*
X5320000Y5270000D01*
X5320000Y5310000D02*
X5280000Y5270000D01*
X5400000Y2780000D02*
X5440000Y2740000D01*
X5440000Y2780000D02*
X5400000Y2740000D01*
X5530000Y7760000D02*
X5570000Y7720000D01*
X5570000Y7760000D02*
X5530000Y7720000D01*
X5530000Y660000D02*
X5570000Y620000D01*
X5570000Y660000D02*
X5530000Y620000D01*
X5580000Y7360000D02*
X5620000Y7320000D01*
X5620000Y7360000D02*
X5580000Y7320000D01*
X5680000Y6910000D02*
X5720000Y6870000D01*
X5720000Y6910000D02*
X5680000Y6870000D01*
X5730000Y3510000D02*
X5770000Y3470000D01*
X5770000Y3510000D02*
X5730000Y3470000D01*
X5730000Y2580000D02*
X5770000Y2540000D01*
X5770000Y2580000D02*
X5730000Y2540000D01*
X5760000Y6520000D02*
X5800000Y6480000D01*
X5800000Y6520000D02*
X5760000Y6480000D01*
X5830000Y860000D02*
X5870000Y820000D01*
X5870000Y860000D02*
X5830000Y820000D01*
X5880000Y2060000D02*
X5920000Y2020000D01*
X5920000Y2060000D02*
X5880000Y2020000D01*
X5900000Y5560000D02*
X5940000Y5520000D01*
X5940000Y5560000D02*
X5900000Y5520000D01*
X6080000Y6860000D02*
X6120000Y6820000D01*
X6120000Y6860000D02*
X6080000Y6820000D01*
X6080000Y4885000D02*
X6120000Y4845000D01*
X6120000Y4885000D02*
X6080000Y4845000D01*
X6100000Y3140000D02*
X6140000Y3100000D01*
X6140000Y3140000D02*
X6100000Y3100000D01*
X6140000Y4425000D02*
X6180000Y4385000D01*
X6180000Y4425000D02*
X6140000Y4385000D01*
X6200000Y3560000D02*
X6240000Y3520000D01*
X6240000Y3560000D02*
X6200000Y3520000D01*
X6260000Y5820000D02*
X6300000Y5780000D01*
X6300000Y5820000D02*
X6260000Y5780000D01*
X6330000Y860000D02*
X6370000Y820000D01*
X6370000Y860000D02*
X6330000Y820000D01*
X6400000Y6485000D02*
X6440000Y6445000D01*
X6440000Y6485000D02*
X6400000Y6445000D01*
X6560000Y3105000D02*
X6600000Y3065000D01*
X6600000Y3105000D02*
X6560000Y3065000D01*
X6580000Y6860000D02*
X6620000Y6820000D01*
X6620000Y6860000D02*
X6580000Y6820000D01*
X6620000Y5340000D02*
X6660000Y5300000D01*
X6660000Y5340000D02*
X6620000Y5300000D01*
X6620000Y3940000D02*
X6660000Y3900000D01*
X6660000Y3940000D02*
X6620000Y3900000D01*
X6640000Y6485000D02*
X6680000Y6445000D01*
X6680000Y6485000D02*
X6640000Y6445000D01*
X6800000Y3480000D02*
X6840000Y3440000D01*
X6840000Y3480000D02*
X6800000Y3440000D01*
X6830000Y860000D02*
X6870000Y820000D01*
X6870000Y860000D02*
X6830000Y820000D01*
X6880000Y2060000D02*
X6920000Y2020000D01*
X6920000Y2060000D02*
X6880000Y2020000D01*
X6920000Y4140000D02*
X6960000Y4100000D01*
X6960000Y4140000D02*
X6920000Y4100000D01*
X6960000Y2800000D02*
X7000000Y2760000D01*
X7000000Y2800000D02*
X6960000Y2760000D01*
X7080000Y6860000D02*
X7120000Y6820000D01*
X7120000Y6860000D02*
X7080000Y6820000D01*
X7180000Y4960000D02*
X7220000Y4920000D01*
X7220000Y4960000D02*
X7180000Y4920000D01*
X7230000Y5610000D02*
X7270000Y5570000D01*
X7270000Y5610000D02*
X7230000Y5570000D01*
X7230000Y2310000D02*
X7270000Y2270000D01*
X7270000Y2310000D02*
X7230000Y2270000D01*
X7280000Y4260000D02*
X7320000Y4220000D01*
X7320000Y4260000D02*
X7280000Y4220000D01*
X7280000Y3580000D02*
X7320000Y3540000D01*
X7320000Y3580000D02*
X7280000Y3540000D01*
X7280000Y3310000D02*
X7320000Y3270000D01*
X7320000Y3310000D02*
X7280000Y3270000D01*
X7300000Y6540000D02*
X7340000Y6500000D01*
X7340000Y6540000D02*
X7300000Y6500000D01*
X7570000Y3185000D02*
X7610000Y3145000D01*
X7610000Y3185000D02*
X7570000Y3145000D01*
X7580000Y6860000D02*
X7620000Y6820000D01*
X7620000Y6860000D02*
X7580000Y6820000D01*
X7580000Y860000D02*
X7620000Y820000D01*
X7620000Y860000D02*
X7580000Y820000D01*
X7730000Y6210000D02*
X7770000Y6170000D01*
X7770000Y6210000D02*
X7730000Y6170000D01*
X7730000Y5610000D02*
X7770000Y5570000D01*
X7770000Y5610000D02*
X7730000Y5570000D01*
X7780000Y4310000D02*
X7820000Y4270000D01*
X7820000Y4310000D02*
X7780000Y4270000D01*
X7820000Y1520000D02*
X7860000Y1480000D01*
X7860000Y1520000D02*
X7820000Y1480000D01*
X7840000Y4865900D02*
X7880000Y4825900D01*
X7880000Y4865900D02*
X7840000Y4825900D01*
X8080000Y6860000D02*
X8120000Y6820000D01*
X8120000Y6860000D02*
X8080000Y6820000D01*
X8080000Y860000D02*
X8120000Y820000D01*
X8120000Y860000D02*
X8080000Y820000D01*
X8580000Y6860000D02*
X8620000Y6820000D01*
X8620000Y6860000D02*
X8580000Y6820000D01*
X8580000Y6110000D02*
X8620000Y6070000D01*
X8620000Y6110000D02*
X8580000Y6070000D01*
X8580000Y2760000D02*
X8620000Y2720000D01*
X8620000Y2760000D02*
X8580000Y2720000D01*
X8580000Y860000D02*
X8620000Y820000D01*
X8620000Y860000D02*
X8580000Y820000D01*
X8880000Y6110000D02*
X8920000Y6070000D01*
X8920000Y6110000D02*
X8880000Y6070000D01*
X8880000Y5560000D02*
X8920000Y5520000D01*
X8920000Y5560000D02*
X8880000Y5520000D01*
X8880000Y2760000D02*
X8920000Y2720000D01*
X8920000Y2760000D02*
X8880000Y2720000D01*
X8880000Y2210000D02*
X8920000Y2170000D01*
X8920000Y2210000D02*
X8880000Y2170000D01*
X9080000Y6860000D02*
X9120000Y6820000D01*
X9120000Y6860000D02*
X9080000Y6820000D01*
X9080000Y860000D02*
X9120000Y820000D01*
X9120000Y860000D02*
X9080000Y820000D01*
X9180000Y6110000D02*
X9220000Y6070000D01*
X9220000Y6110000D02*
X9180000Y6070000D01*
X9180000Y5560000D02*
X9220000Y5520000D01*
X9220000Y5560000D02*
X9180000Y5520000D01*
X9180000Y2760000D02*
X9220000Y2720000D01*
X9220000Y2760000D02*
X9180000Y2720000D01*
X9180000Y2210000D02*
X9220000Y2170000D01*
X9220000Y2210000D02*
X9180000Y2170000D01*
X9580000Y6840000D02*
X9620000Y6800000D01*
X9620000Y6840000D02*
X9580000Y6800000D01*
X9580000Y860000D02*
X9620000Y820000D01*
X9620000Y860000D02*
X9580000Y820000D01*
X9830000Y6610000D02*
X9870000Y6570000D01*
X9870000Y6610000D02*
X9830000Y6570000D01*
X9830000Y1110000D02*
X9870000Y1070000D01*
X9870000Y1110000D02*
X9830000Y1070000D01*
X10080000Y6360000D02*
X10120000Y6320000D01*
X10120000Y6360000D02*
X10080000Y6320000D01*
X10080000Y5860000D02*
X10120000Y5820000D01*
X10120000Y5860000D02*
X10080000Y5820000D01*
X10080000Y5360000D02*
X10120000Y5320000D01*
X10120000Y5360000D02*
X10080000Y5320000D01*
X10080000Y4860000D02*
X10120000Y4820000D01*
X10120000Y4860000D02*
X10080000Y4820000D01*
X10080000Y4360000D02*
X10120000Y4320000D01*
X10120000Y4360000D02*
X10080000Y4320000D01*
X10080000Y3860000D02*
X10120000Y3820000D01*
X10120000Y3860000D02*
X10080000Y3820000D01*
X10080000Y3360000D02*
X10120000Y3320000D01*
X10120000Y3360000D02*
X10080000Y3320000D01*
X10080000Y2860000D02*
X10120000Y2820000D01*
X10120000Y2860000D02*
X10080000Y2820000D01*
X10080000Y2360000D02*
X10120000Y2320000D01*
X10120000Y2360000D02*
X10080000Y2320000D01*
X10080000Y1860000D02*
X10120000Y1820000D01*
X10120000Y1860000D02*
X10080000Y1820000D01*
X10080000Y1360000D02*
X10120000Y1320000D01*
X10120000Y1360000D02*
X10080000Y1320000D01*
X540000Y6050000D02*
G75*
G03*
X460000Y6050000I-40000J0D01*
G01*
X460000Y6050000D02*
G75*
G03*
X540000Y6050000I40000J0D01*
G01*
X540000Y5700000D02*
G75*
G03*
X460000Y5700000I-40000J0D01*
G01*
X460000Y5700000D02*
G75*
G03*
X540000Y5700000I40000J0D01*
G01*
X560000Y7740000D02*
G75*
G03*
X480000Y7740000I-40000J0D01*
G01*
X480000Y7740000D02*
G75*
G03*
X560000Y7740000I40000J0D01*
G01*
X560000Y7390000D02*
G75*
G03*
X480000Y7390000I-40000J0D01*
G01*
X480000Y7390000D02*
G75*
G03*
X560000Y7390000I40000J0D01*
G01*
X3566250Y6514000D02*
G75*
G03*
X3486250Y6514000I-40000J0D01*
G01*
X3486250Y6514000D02*
G75*
G03*
X3566250Y6514000I40000J0D01*
G01*
X3566250Y4450000D02*
G75*
G03*
X3486250Y4450000I-40000J0D01*
G01*
X3486250Y4450000D02*
G75*
G03*
X3566250Y4450000I40000J0D01*
G01*
X3566250Y2410000D02*
G75*
G03*
X3486250Y2410000I-40000J0D01*
G01*
X3486250Y2410000D02*
G75*
G03*
X3566250Y2410000I40000J0D01*
G01*
X3570000Y355000D02*
G75*
G03*
X3490000Y355000I-40000J0D01*
G01*
X3490000Y355000D02*
G75*
G03*
X3570000Y355000I40000J0D01*
G01*
X4066250Y6514000D02*
G75*
G03*
X3986250Y6514000I-40000J0D01*
G01*
X3986250Y6514000D02*
G75*
G03*
X4066250Y6514000I40000J0D01*
G01*
X4066250Y4450000D02*
G75*
G03*
X3986250Y4450000I-40000J0D01*
G01*
X3986250Y4450000D02*
G75*
G03*
X4066250Y4450000I40000J0D01*
G01*
X4066250Y2410000D02*
G75*
G03*
X3986250Y2410000I-40000J0D01*
G01*
X3986250Y2410000D02*
G75*
G03*
X4066250Y2410000I40000J0D01*
G01*
X4070000Y355000D02*
G75*
G03*
X3990000Y355000I-40000J0D01*
G01*
X3990000Y355000D02*
G75*
G03*
X4070000Y355000I40000J0D01*
G01*
X4496250Y7789000D02*
G75*
G03*
X4416250Y7789000I-40000J0D01*
G01*
X4416250Y7789000D02*
G75*
G03*
X4496250Y7789000I40000J0D01*
G01*
X4496250Y7289000D02*
G75*
G03*
X4416250Y7289000I-40000J0D01*
G01*
X4416250Y7289000D02*
G75*
G03*
X4496250Y7289000I40000J0D01*
G01*
X4496250Y5725000D02*
G75*
G03*
X4416250Y5725000I-40000J0D01*
G01*
X4416250Y5725000D02*
G75*
G03*
X4496250Y5725000I40000J0D01*
G01*
X4496250Y5225000D02*
G75*
G03*
X4416250Y5225000I-40000J0D01*
G01*
X4416250Y5225000D02*
G75*
G03*
X4496250Y5225000I40000J0D01*
G01*
X4496250Y3685000D02*
G75*
G03*
X4416250Y3685000I-40000J0D01*
G01*
X4416250Y3685000D02*
G75*
G03*
X4496250Y3685000I40000J0D01*
G01*
X4496250Y3185000D02*
G75*
G03*
X4416250Y3185000I-40000J0D01*
G01*
X4416250Y3185000D02*
G75*
G03*
X4496250Y3185000I40000J0D01*
G01*
X4500000Y1630000D02*
G75*
G03*
X4420000Y1630000I-40000J0D01*
G01*
X4420000Y1630000D02*
G75*
G03*
X4500000Y1630000I40000J0D01*
G01*
X4500000Y1130000D02*
G75*
G03*
X4420000Y1130000I-40000J0D01*
G01*
X4420000Y1130000D02*
G75*
G03*
X4500000Y1130000I40000J0D01*
G01*
X5480000Y3775000D02*
G75*
G03*
X5400000Y3775000I-40000J0D01*
G01*
X5400000Y3775000D02*
G75*
G03*
X5480000Y3775000I40000J0D01*
G01*
X5480000Y3275000D02*
G75*
G03*
X5400000Y3275000I-40000J0D01*
G01*
X5400000Y3275000D02*
G75*
G03*
X5480000Y3275000I40000J0D01*
G01*
X5480000Y2985000D02*
G75*
G03*
X5400000Y2985000I-40000J0D01*
G01*
X5400000Y2985000D02*
G75*
G03*
X5480000Y2985000I40000J0D01*
G01*
X5480000Y2485000D02*
G75*
G03*
X5400000Y2485000I-40000J0D01*
G01*
X5400000Y2485000D02*
G75*
G03*
X5480000Y2485000I40000J0D01*
G01*
X5560000Y5965000D02*
G75*
G03*
X5480000Y5965000I-40000J0D01*
G01*
X5480000Y5965000D02*
G75*
G03*
X5560000Y5965000I40000J0D01*
G01*
X5560000Y5465000D02*
G75*
G03*
X5480000Y5465000I-40000J0D01*
G01*
X5480000Y5465000D02*
G75*
G03*
X5560000Y5465000I40000J0D01*
G01*
X5560000Y5110000D02*
G75*
G03*
X5480000Y5110000I-40000J0D01*
G01*
X5480000Y5110000D02*
G75*
G03*
X5560000Y5110000I40000J0D01*
G01*
X5560000Y4610000D02*
G75*
G03*
X5480000Y4610000I-40000J0D01*
G01*
X5480000Y4610000D02*
G75*
G03*
X5560000Y4610000I40000J0D01*
G01*
X5605000Y2083000D02*
G75*
G03*
X5525000Y2083000I-40000J0D01*
G01*
X5525000Y2083000D02*
G75*
G03*
X5605000Y2083000I40000J0D01*
G01*
X5605000Y1829000D02*
G75*
G03*
X5525000Y1829000I-40000J0D01*
G01*
X5525000Y1829000D02*
G75*
G03*
X5605000Y1829000I40000J0D01*
G01*
X5605000Y1575000D02*
G75*
G03*
X5525000Y1575000I-40000J0D01*
G01*
X5525000Y1575000D02*
G75*
G03*
X5605000Y1575000I40000J0D01*
G01*
X6010000Y3820000D02*
G75*
G03*
X5930000Y3820000I-40000J0D01*
G01*
X5930000Y3820000D02*
G75*
G03*
X6010000Y3820000I40000J0D01*
G01*
X6510000Y3820000D02*
G75*
G03*
X6430000Y3820000I-40000J0D01*
G01*
X6430000Y3820000D02*
G75*
G03*
X6510000Y3820000I40000J0D01*
G01*
X6840000Y3820000D02*
G75*
G03*
X6760000Y3820000I-40000J0D01*
G01*
X6760000Y3820000D02*
G75*
G03*
X6840000Y3820000I40000J0D01*
G01*
X7340000Y3820000D02*
G75*
G03*
X7260000Y3820000I-40000J0D01*
G01*
X7260000Y3820000D02*
G75*
G03*
X7340000Y3820000I40000J0D01*
G01*
X7365000Y2083000D02*
G75*
G03*
X7285000Y2083000I-40000J0D01*
G01*
X7285000Y2083000D02*
G75*
G03*
X7365000Y2083000I40000J0D01*
G01*
X7365000Y1829000D02*
G75*
G03*
X7285000Y1829000I-40000J0D01*
G01*
X7285000Y1829000D02*
G75*
G03*
X7365000Y1829000I40000J0D01*
G01*
X7365000Y1575000D02*
G75*
G03*
X7285000Y1575000I-40000J0D01*
G01*
X7285000Y1575000D02*
G75*
G03*
X7365000Y1575000I40000J0D01*
G01*
X796000Y4180000D02*
X796000Y4090000D01*
X751000Y4135000D02*
X841000Y4135000D01*
X1050000Y4180000D02*
X1050000Y4090000D01*
X1005000Y4135000D02*
X1095000Y4135000D01*
X9200000Y5845000D02*
X9200000Y5755000D01*
X9155000Y5800000D02*
X9245000Y5800000D01*
X9200000Y2515000D02*
X9200000Y2425000D01*
X9155000Y2470000D02*
X9245000Y2470000D01*
X9454000Y5845000D02*
X9454000Y5755000D01*
X9409000Y5800000D02*
X9499000Y5800000D01*
X9454000Y2515000D02*
X9454000Y2425000D01*
X9409000Y2470000D02*
X9499000Y2470000D01*
X295356Y6904644D02*
X295356Y6975356D01*
X224644Y6975356D01*
X224644Y6904644D01*
X295356Y6904644D01*
X295356Y6464644D02*
X295356Y6535356D01*
X224644Y6535356D01*
X224644Y6464644D01*
X295356Y6464644D01*
X295356Y5204644D02*
X295356Y5275356D01*
X224644Y5275356D01*
X224644Y5204644D01*
X295356Y5204644D01*
X1175356Y7824644D02*
X1175356Y7895356D01*
X1104644Y7895356D01*
X1104644Y7824644D01*
X1175356Y7824644D01*
X5600356Y919644D02*
X5600356Y990356D01*
X5529644Y990356D01*
X5529644Y919644D01*
X5600356Y919644D01*
X7360356Y919644D02*
X7360356Y990356D01*
X7289644Y990356D01*
X7289644Y919644D01*
X7360356Y919644D01*
D10*
X542000Y3527000D02*
X642000Y3627000D01*
X542000Y3727000D01*
X442000Y3627000D01*
X542000Y3527000D01*
X1558000Y4543000D02*
X1658000Y4643000D01*
X1558000Y4743000D01*
X1458000Y4643000D01*
X1558000Y4543000D01*
X8692000Y5192000D02*
X8792000Y5292000D01*
X8692000Y5392000D01*
X8592000Y5292000D01*
X8692000Y5192000D01*
X8692000Y1862000D02*
X8792000Y1962000D01*
X8692000Y2062000D01*
X8592000Y1962000D01*
X8692000Y1862000D01*
X9708000Y6208000D02*
X9808000Y6308000D01*
X9708000Y6408000D01*
X9608000Y6308000D01*
X9708000Y6208000D01*
X9708000Y2878000D02*
X9808000Y2978000D01*
X9708000Y3078000D01*
X9608000Y2978000D01*
X9708000Y2878000D01*
X250777Y-321484D02*
X250777Y-121484D01*
X250777Y-121484D02*
X298396Y-121484D01*
X298396Y-121484D02*
X326967Y-131008D01*
X326967Y-131008D02*
X346015Y-150055D01*
X346015Y-150055D02*
X355539Y-169103D01*
X355539Y-169103D02*
X365062Y-207198D01*
X365062Y-207198D02*
X365062Y-235769D01*
X365062Y-235769D02*
X355539Y-273865D01*
X355539Y-273865D02*
X346015Y-292912D01*
X346015Y-292912D02*
X326967Y-311960D01*
X326967Y-311960D02*
X298396Y-321484D01*
X298396Y-321484D02*
X250777Y-321484D01*
X450777Y-321484D02*
X450777Y-188150D01*
X450777Y-226246D02*
X460301Y-207198D01*
X460301Y-207198D02*
X469824Y-197674D01*
X469824Y-197674D02*
X488872Y-188150D01*
X488872Y-188150D02*
X507920Y-188150D01*
X574586Y-321484D02*
X574586Y-188150D01*
X574586Y-121484D02*
X565063Y-131008D01*
X565063Y-131008D02*
X574586Y-140531D01*
X574586Y-140531D02*
X584110Y-131008D01*
X584110Y-131008D02*
X574586Y-121484D01*
X574586Y-121484D02*
X574586Y-140531D01*
X698396Y-321484D02*
X679348Y-311960D01*
X679348Y-311960D02*
X669824Y-292912D01*
X669824Y-292912D02*
X669824Y-121484D01*
X803158Y-321484D02*
X784110Y-311960D01*
X784110Y-311960D02*
X774586Y-292912D01*
X774586Y-292912D02*
X774586Y-121484D01*
X1031729Y-321484D02*
X1031729Y-121484D01*
X1031729Y-121484D02*
X1098396Y-264341D01*
X1098396Y-264341D02*
X1165063Y-121484D01*
X1165063Y-121484D02*
X1165063Y-321484D01*
X1346015Y-321484D02*
X1346015Y-216722D01*
X1346015Y-216722D02*
X1336491Y-197674D01*
X1336491Y-197674D02*
X1317444Y-188150D01*
X1317444Y-188150D02*
X1279348Y-188150D01*
X1279348Y-188150D02*
X1260301Y-197674D01*
X1346015Y-311960D02*
X1326967Y-321484D01*
X1326967Y-321484D02*
X1279348Y-321484D01*
X1279348Y-321484D02*
X1260301Y-311960D01*
X1260301Y-311960D02*
X1250777Y-292912D01*
X1250777Y-292912D02*
X1250777Y-273865D01*
X1250777Y-273865D02*
X1260301Y-254817D01*
X1260301Y-254817D02*
X1279348Y-245293D01*
X1279348Y-245293D02*
X1326967Y-245293D01*
X1326967Y-245293D02*
X1346015Y-235769D01*
X1441253Y-188150D02*
X1441253Y-388150D01*
X1441253Y-197674D02*
X1460301Y-188150D01*
X1460301Y-188150D02*
X1498396Y-188150D01*
X1498396Y-188150D02*
X1517443Y-197674D01*
X1517443Y-197674D02*
X1526967Y-207198D01*
X1526967Y-207198D02*
X1536491Y-226246D01*
X1536491Y-226246D02*
X1536491Y-283389D01*
X1536491Y-283389D02*
X1526967Y-302436D01*
X1526967Y-302436D02*
X1517443Y-311960D01*
X1517443Y-311960D02*
X1498396Y-321484D01*
X1498396Y-321484D02*
X1460301Y-321484D01*
X1460301Y-321484D02*
X1441253Y-311960D01*
X1622205Y-302436D02*
X1631729Y-311960D01*
X1631729Y-311960D02*
X1622205Y-321484D01*
X1622205Y-321484D02*
X1612682Y-311960D01*
X1612682Y-311960D02*
X1622205Y-302436D01*
X1622205Y-302436D02*
X1622205Y-321484D01*
X1622205Y-197674D02*
X1631729Y-207198D01*
X1631729Y-207198D02*
X1622205Y-216722D01*
X1622205Y-216722D02*
X1612682Y-207198D01*
X1612682Y-207198D02*
X1622205Y-197674D01*
X1622205Y-197674D02*
X1622205Y-216722D01*
D11*
X-50000Y-630000D02*
X-10000Y-670000D01*
X-10000Y-630000D02*
X-50000Y-670000D01*
D10*
X288872Y-541484D02*
X307920Y-541484D01*
X307920Y-541484D02*
X326967Y-551008D01*
X326967Y-551008D02*
X336491Y-560531D01*
X336491Y-560531D02*
X346015Y-579579D01*
X346015Y-579579D02*
X355539Y-617674D01*
X355539Y-617674D02*
X355539Y-665293D01*
X355539Y-665293D02*
X346015Y-703388D01*
X346015Y-703388D02*
X336491Y-722436D01*
X336491Y-722436D02*
X326967Y-731960D01*
X326967Y-731960D02*
X307920Y-741484D01*
X307920Y-741484D02*
X288872Y-741484D01*
X288872Y-741484D02*
X269824Y-731960D01*
X269824Y-731960D02*
X260301Y-722436D01*
X260301Y-722436D02*
X250777Y-703388D01*
X250777Y-703388D02*
X241253Y-665293D01*
X241253Y-665293D02*
X241253Y-617674D01*
X241253Y-617674D02*
X250777Y-579579D01*
X250777Y-579579D02*
X260301Y-560531D01*
X260301Y-560531D02*
X269824Y-551008D01*
X269824Y-551008D02*
X288872Y-541484D01*
X441253Y-722436D02*
X450777Y-731960D01*
X450777Y-731960D02*
X441253Y-741484D01*
X441253Y-741484D02*
X431729Y-731960D01*
X431729Y-731960D02*
X441253Y-722436D01*
X441253Y-722436D02*
X441253Y-741484D01*
X622205Y-608150D02*
X622205Y-741484D01*
X574586Y-531960D02*
X526967Y-674817D01*
X526967Y-674817D02*
X650777Y-674817D01*
X765062Y-541484D02*
X784110Y-541484D01*
X784110Y-541484D02*
X803158Y-551008D01*
X803158Y-551008D02*
X812682Y-560531D01*
X812682Y-560531D02*
X822205Y-579579D01*
X822205Y-579579D02*
X831729Y-617674D01*
X831729Y-617674D02*
X831729Y-665293D01*
X831729Y-665293D02*
X822205Y-703388D01*
X822205Y-703388D02*
X812682Y-722436D01*
X812682Y-722436D02*
X803158Y-731960D01*
X803158Y-731960D02*
X784110Y-741484D01*
X784110Y-741484D02*
X765062Y-741484D01*
X765062Y-741484D02*
X746015Y-731960D01*
X746015Y-731960D02*
X736491Y-722436D01*
X736491Y-722436D02*
X726967Y-703388D01*
X726967Y-703388D02*
X717443Y-665293D01*
X717443Y-665293D02*
X717443Y-617674D01*
X717443Y-617674D02*
X726967Y-579579D01*
X726967Y-579579D02*
X736491Y-560531D01*
X736491Y-560531D02*
X746015Y-551008D01*
X746015Y-551008D02*
X765062Y-541484D01*
X955539Y-541484D02*
X974586Y-541484D01*
X974586Y-541484D02*
X993634Y-551008D01*
X993634Y-551008D02*
X1003158Y-560531D01*
X1003158Y-560531D02*
X1012682Y-579579D01*
X1012682Y-579579D02*
X1022205Y-617674D01*
X1022205Y-617674D02*
X1022205Y-665293D01*
X1022205Y-665293D02*
X1012682Y-703388D01*
X1012682Y-703388D02*
X1003158Y-722436D01*
X1003158Y-722436D02*
X993634Y-731960D01*
X993634Y-731960D02*
X974586Y-741484D01*
X974586Y-741484D02*
X955539Y-741484D01*
X955539Y-741484D02*
X936491Y-731960D01*
X936491Y-731960D02*
X926967Y-722436D01*
X926967Y-722436D02*
X917443Y-703388D01*
X917443Y-703388D02*
X907920Y-665293D01*
X907920Y-665293D02*
X907920Y-617674D01*
X907920Y-617674D02*
X917443Y-579579D01*
X917443Y-579579D02*
X926967Y-560531D01*
X926967Y-560531D02*
X936491Y-551008D01*
X936491Y-551008D02*
X955539Y-541484D01*
X1107920Y-741484D02*
X1107920Y-608150D01*
X1107920Y-627198D02*
X1117444Y-617674D01*
X1117444Y-617674D02*
X1136491Y-608150D01*
X1136491Y-608150D02*
X1165063Y-608150D01*
X1165063Y-608150D02*
X1184110Y-617674D01*
X1184110Y-617674D02*
X1193634Y-636722D01*
X1193634Y-636722D02*
X1193634Y-741484D01*
X1193634Y-636722D02*
X1203158Y-617674D01*
X1203158Y-617674D02*
X1222205Y-608150D01*
X1222205Y-608150D02*
X1250777Y-608150D01*
X1250777Y-608150D02*
X1269825Y-617674D01*
X1269825Y-617674D02*
X1279348Y-636722D01*
X1279348Y-636722D02*
X1279348Y-741484D01*
X1374586Y-741484D02*
X1374586Y-608150D01*
X1374586Y-627198D02*
X1384110Y-617674D01*
X1384110Y-617674D02*
X1403158Y-608150D01*
X1403158Y-608150D02*
X1431729Y-608150D01*
X1431729Y-608150D02*
X1450777Y-617674D01*
X1450777Y-617674D02*
X1460301Y-636722D01*
X1460301Y-636722D02*
X1460301Y-741484D01*
X1460301Y-636722D02*
X1469824Y-617674D01*
X1469824Y-617674D02*
X1488872Y-608150D01*
X1488872Y-608150D02*
X1517443Y-608150D01*
X1517443Y-608150D02*
X1536491Y-617674D01*
X1536491Y-617674D02*
X1546015Y-636722D01*
X1546015Y-636722D02*
X1546015Y-741484D01*
X1936491Y-531960D02*
X1765063Y-789103D01*
X2193634Y-541484D02*
X2212682Y-541484D01*
X2212682Y-541484D02*
X2231729Y-551008D01*
X2231729Y-551008D02*
X2241253Y-560531D01*
X2241253Y-560531D02*
X2250777Y-579579D01*
X2250777Y-579579D02*
X2260301Y-617674D01*
X2260301Y-617674D02*
X2260301Y-665293D01*
X2260301Y-665293D02*
X2250777Y-703388D01*
X2250777Y-703388D02*
X2241253Y-722436D01*
X2241253Y-722436D02*
X2231729Y-731960D01*
X2231729Y-731960D02*
X2212682Y-741484D01*
X2212682Y-741484D02*
X2193634Y-741484D01*
X2193634Y-741484D02*
X2174587Y-731960D01*
X2174587Y-731960D02*
X2165063Y-722436D01*
X2165063Y-722436D02*
X2155539Y-703388D01*
X2155539Y-703388D02*
X2146015Y-665293D01*
X2146015Y-665293D02*
X2146015Y-617674D01*
X2146015Y-617674D02*
X2155539Y-579579D01*
X2155539Y-579579D02*
X2165063Y-560531D01*
X2165063Y-560531D02*
X2174587Y-551008D01*
X2174587Y-551008D02*
X2193634Y-541484D01*
X2346015Y-722436D02*
X2355539Y-731960D01*
X2355539Y-731960D02*
X2346015Y-741484D01*
X2346015Y-741484D02*
X2336491Y-731960D01*
X2336491Y-731960D02*
X2346015Y-722436D01*
X2346015Y-722436D02*
X2346015Y-741484D01*
X2479348Y-541484D02*
X2498396Y-541484D01*
X2498396Y-541484D02*
X2517444Y-551008D01*
X2517444Y-551008D02*
X2526968Y-560531D01*
X2526968Y-560531D02*
X2536491Y-579579D01*
X2536491Y-579579D02*
X2546015Y-617674D01*
X2546015Y-617674D02*
X2546015Y-665293D01*
X2546015Y-665293D02*
X2536491Y-703388D01*
X2536491Y-703388D02*
X2526968Y-722436D01*
X2526968Y-722436D02*
X2517444Y-731960D01*
X2517444Y-731960D02*
X2498396Y-741484D01*
X2498396Y-741484D02*
X2479348Y-741484D01*
X2479348Y-741484D02*
X2460301Y-731960D01*
X2460301Y-731960D02*
X2450777Y-722436D01*
X2450777Y-722436D02*
X2441253Y-703388D01*
X2441253Y-703388D02*
X2431729Y-665293D01*
X2431729Y-665293D02*
X2431729Y-617674D01*
X2431729Y-617674D02*
X2441253Y-579579D01*
X2441253Y-579579D02*
X2450777Y-560531D01*
X2450777Y-560531D02*
X2460301Y-551008D01*
X2460301Y-551008D02*
X2479348Y-541484D01*
X2736491Y-741484D02*
X2622206Y-741484D01*
X2679348Y-741484D02*
X2679348Y-541484D01*
X2679348Y-541484D02*
X2660301Y-570055D01*
X2660301Y-570055D02*
X2641253Y-589103D01*
X2641253Y-589103D02*
X2622206Y-598627D01*
X2917444Y-541484D02*
X2822206Y-541484D01*
X2822206Y-541484D02*
X2812682Y-636722D01*
X2812682Y-636722D02*
X2822206Y-627198D01*
X2822206Y-627198D02*
X2841253Y-617674D01*
X2841253Y-617674D02*
X2888872Y-617674D01*
X2888872Y-617674D02*
X2907920Y-627198D01*
X2907920Y-627198D02*
X2917444Y-636722D01*
X2917444Y-636722D02*
X2926967Y-655770D01*
X2926967Y-655770D02*
X2926967Y-703388D01*
X2926967Y-703388D02*
X2917444Y-722436D01*
X2917444Y-722436D02*
X2907920Y-731960D01*
X2907920Y-731960D02*
X2888872Y-741484D01*
X2888872Y-741484D02*
X2841253Y-741484D01*
X2841253Y-741484D02*
X2822206Y-731960D01*
X2822206Y-731960D02*
X2812682Y-722436D01*
X2993634Y-541484D02*
X3126967Y-541484D01*
X3126967Y-541484D02*
X3041253Y-741484D01*
X3193634Y-541484D02*
X3193634Y-579579D01*
X3269825Y-541484D02*
X3269825Y-579579D01*
X3565063Y-817674D02*
X3555539Y-808150D01*
X3555539Y-808150D02*
X3536491Y-779579D01*
X3536491Y-779579D02*
X3526968Y-760531D01*
X3526968Y-760531D02*
X3517444Y-731960D01*
X3517444Y-731960D02*
X3507920Y-684341D01*
X3507920Y-684341D02*
X3507920Y-646246D01*
X3507920Y-646246D02*
X3517444Y-598627D01*
X3517444Y-598627D02*
X3526968Y-570055D01*
X3526968Y-570055D02*
X3536491Y-551008D01*
X3536491Y-551008D02*
X3555539Y-522436D01*
X3555539Y-522436D02*
X3565063Y-512912D01*
X3746015Y-741484D02*
X3631729Y-741484D01*
X3688872Y-741484D02*
X3688872Y-541484D01*
X3688872Y-541484D02*
X3669825Y-570055D01*
X3669825Y-570055D02*
X3650777Y-589103D01*
X3650777Y-589103D02*
X3631729Y-598627D01*
X3812682Y-541484D02*
X3946015Y-541484D01*
X3946015Y-541484D02*
X3860301Y-741484D01*
X4107920Y-608150D02*
X4107920Y-741484D01*
X4060301Y-531960D02*
X4012682Y-674817D01*
X4012682Y-674817D02*
X4136491Y-674817D01*
X4365063Y-741484D02*
X4365063Y-541484D01*
X4450777Y-741484D02*
X4450777Y-636722D01*
X4450777Y-636722D02*
X4441253Y-617674D01*
X4441253Y-617674D02*
X4422206Y-608150D01*
X4422206Y-608150D02*
X4393634Y-608150D01*
X4393634Y-608150D02*
X4374587Y-617674D01*
X4374587Y-617674D02*
X4365063Y-627198D01*
X4574587Y-741484D02*
X4555539Y-731960D01*
X4555539Y-731960D02*
X4546015Y-722436D01*
X4546015Y-722436D02*
X4536492Y-703388D01*
X4536492Y-703388D02*
X4536492Y-646246D01*
X4536492Y-646246D02*
X4546015Y-627198D01*
X4546015Y-627198D02*
X4555539Y-617674D01*
X4555539Y-617674D02*
X4574587Y-608150D01*
X4574587Y-608150D02*
X4603158Y-608150D01*
X4603158Y-608150D02*
X4622206Y-617674D01*
X4622206Y-617674D02*
X4631730Y-627198D01*
X4631730Y-627198D02*
X4641253Y-646246D01*
X4641253Y-646246D02*
X4641253Y-703388D01*
X4641253Y-703388D02*
X4631730Y-722436D01*
X4631730Y-722436D02*
X4622206Y-731960D01*
X4622206Y-731960D02*
X4603158Y-741484D01*
X4603158Y-741484D02*
X4574587Y-741484D01*
X4755539Y-741484D02*
X4736492Y-731960D01*
X4736492Y-731960D02*
X4726968Y-712912D01*
X4726968Y-712912D02*
X4726968Y-541484D01*
X4907920Y-731960D02*
X4888873Y-741484D01*
X4888873Y-741484D02*
X4850777Y-741484D01*
X4850777Y-741484D02*
X4831730Y-731960D01*
X4831730Y-731960D02*
X4822206Y-712912D01*
X4822206Y-712912D02*
X4822206Y-636722D01*
X4822206Y-636722D02*
X4831730Y-617674D01*
X4831730Y-617674D02*
X4850777Y-608150D01*
X4850777Y-608150D02*
X4888873Y-608150D01*
X4888873Y-608150D02*
X4907920Y-617674D01*
X4907920Y-617674D02*
X4917444Y-636722D01*
X4917444Y-636722D02*
X4917444Y-655770D01*
X4917444Y-655770D02*
X4822206Y-674817D01*
X4993634Y-731960D02*
X5012682Y-741484D01*
X5012682Y-741484D02*
X5050777Y-741484D01*
X5050777Y-741484D02*
X5069825Y-731960D01*
X5069825Y-731960D02*
X5079349Y-712912D01*
X5079349Y-712912D02*
X5079349Y-703388D01*
X5079349Y-703388D02*
X5069825Y-684341D01*
X5069825Y-684341D02*
X5050777Y-674817D01*
X5050777Y-674817D02*
X5022206Y-674817D01*
X5022206Y-674817D02*
X5003158Y-665293D01*
X5003158Y-665293D02*
X4993634Y-646246D01*
X4993634Y-646246D02*
X4993634Y-636722D01*
X4993634Y-636722D02*
X5003158Y-617674D01*
X5003158Y-617674D02*
X5022206Y-608150D01*
X5022206Y-608150D02*
X5050777Y-608150D01*
X5050777Y-608150D02*
X5069825Y-617674D01*
X5146015Y-817674D02*
X5155539Y-808150D01*
X5155539Y-808150D02*
X5174587Y-779579D01*
X5174587Y-779579D02*
X5184111Y-760531D01*
X5184111Y-760531D02*
X5193634Y-731960D01*
X5193634Y-731960D02*
X5203158Y-684341D01*
X5203158Y-684341D02*
X5203158Y-646246D01*
X5203158Y-646246D02*
X5193634Y-598627D01*
X5193634Y-598627D02*
X5184111Y-570055D01*
X5184111Y-570055D02*
X5174587Y-551008D01*
X5174587Y-551008D02*
X5155539Y-522436D01*
X5155539Y-522436D02*
X5146015Y-512912D01*
D11*
X-10000Y-914000D02*
G75*
G03*
X-90000Y-914000I-40000J0D01*
G01*
X-90000Y-914000D02*
G75*
G03*
X-10000Y-914000I40000J0D01*
G01*
D10*
X288872Y-805484D02*
X307920Y-805484D01*
X307920Y-805484D02*
X326967Y-815008D01*
X326967Y-815008D02*
X336491Y-824531D01*
X336491Y-824531D02*
X346015Y-843579D01*
X346015Y-843579D02*
X355539Y-881674D01*
X355539Y-881674D02*
X355539Y-929293D01*
X355539Y-929293D02*
X346015Y-967388D01*
X346015Y-967388D02*
X336491Y-986436D01*
X336491Y-986436D02*
X326967Y-995960D01*
X326967Y-995960D02*
X307920Y-1005484D01*
X307920Y-1005484D02*
X288872Y-1005484D01*
X288872Y-1005484D02*
X269824Y-995960D01*
X269824Y-995960D02*
X260301Y-986436D01*
X260301Y-986436D02*
X250777Y-967388D01*
X250777Y-967388D02*
X241253Y-929293D01*
X241253Y-929293D02*
X241253Y-881674D01*
X241253Y-881674D02*
X250777Y-843579D01*
X250777Y-843579D02*
X260301Y-824531D01*
X260301Y-824531D02*
X269824Y-815008D01*
X269824Y-815008D02*
X288872Y-805484D01*
X441253Y-986436D02*
X450777Y-995960D01*
X450777Y-995960D02*
X441253Y-1005484D01*
X441253Y-1005484D02*
X431729Y-995960D01*
X431729Y-995960D02*
X441253Y-986436D01*
X441253Y-986436D02*
X441253Y-1005484D01*
X565063Y-891198D02*
X546015Y-881674D01*
X546015Y-881674D02*
X536491Y-872150D01*
X536491Y-872150D02*
X526967Y-853103D01*
X526967Y-853103D02*
X526967Y-843579D01*
X526967Y-843579D02*
X536491Y-824531D01*
X536491Y-824531D02*
X546015Y-815008D01*
X546015Y-815008D02*
X565063Y-805484D01*
X565063Y-805484D02*
X603158Y-805484D01*
X603158Y-805484D02*
X622205Y-815008D01*
X622205Y-815008D02*
X631729Y-824531D01*
X631729Y-824531D02*
X641253Y-843579D01*
X641253Y-843579D02*
X641253Y-853103D01*
X641253Y-853103D02*
X631729Y-872150D01*
X631729Y-872150D02*
X622205Y-881674D01*
X622205Y-881674D02*
X603158Y-891198D01*
X603158Y-891198D02*
X565063Y-891198D01*
X565063Y-891198D02*
X546015Y-900722D01*
X546015Y-900722D02*
X536491Y-910246D01*
X536491Y-910246D02*
X526967Y-929293D01*
X526967Y-929293D02*
X526967Y-967388D01*
X526967Y-967388D02*
X536491Y-986436D01*
X536491Y-986436D02*
X546015Y-995960D01*
X546015Y-995960D02*
X565063Y-1005484D01*
X565063Y-1005484D02*
X603158Y-1005484D01*
X603158Y-1005484D02*
X622205Y-995960D01*
X622205Y-995960D02*
X631729Y-986436D01*
X631729Y-986436D02*
X641253Y-967388D01*
X641253Y-967388D02*
X641253Y-929293D01*
X641253Y-929293D02*
X631729Y-910246D01*
X631729Y-910246D02*
X622205Y-900722D01*
X622205Y-900722D02*
X603158Y-891198D01*
X765062Y-805484D02*
X784110Y-805484D01*
X784110Y-805484D02*
X803158Y-815008D01*
X803158Y-815008D02*
X812682Y-824531D01*
X812682Y-824531D02*
X822205Y-843579D01*
X822205Y-843579D02*
X831729Y-881674D01*
X831729Y-881674D02*
X831729Y-929293D01*
X831729Y-929293D02*
X822205Y-967388D01*
X822205Y-967388D02*
X812682Y-986436D01*
X812682Y-986436D02*
X803158Y-995960D01*
X803158Y-995960D02*
X784110Y-1005484D01*
X784110Y-1005484D02*
X765062Y-1005484D01*
X765062Y-1005484D02*
X746015Y-995960D01*
X746015Y-995960D02*
X736491Y-986436D01*
X736491Y-986436D02*
X726967Y-967388D01*
X726967Y-967388D02*
X717443Y-929293D01*
X717443Y-929293D02*
X717443Y-881674D01*
X717443Y-881674D02*
X726967Y-843579D01*
X726967Y-843579D02*
X736491Y-824531D01*
X736491Y-824531D02*
X746015Y-815008D01*
X746015Y-815008D02*
X765062Y-805484D01*
X955539Y-805484D02*
X974586Y-805484D01*
X974586Y-805484D02*
X993634Y-815008D01*
X993634Y-815008D02*
X1003158Y-824531D01*
X1003158Y-824531D02*
X1012682Y-843579D01*
X1012682Y-843579D02*
X1022205Y-881674D01*
X1022205Y-881674D02*
X1022205Y-929293D01*
X1022205Y-929293D02*
X1012682Y-967388D01*
X1012682Y-967388D02*
X1003158Y-986436D01*
X1003158Y-986436D02*
X993634Y-995960D01*
X993634Y-995960D02*
X974586Y-1005484D01*
X974586Y-1005484D02*
X955539Y-1005484D01*
X955539Y-1005484D02*
X936491Y-995960D01*
X936491Y-995960D02*
X926967Y-986436D01*
X926967Y-986436D02*
X917443Y-967388D01*
X917443Y-967388D02*
X907920Y-929293D01*
X907920Y-929293D02*
X907920Y-881674D01*
X907920Y-881674D02*
X917443Y-843579D01*
X917443Y-843579D02*
X926967Y-824531D01*
X926967Y-824531D02*
X936491Y-815008D01*
X936491Y-815008D02*
X955539Y-805484D01*
X1107920Y-1005484D02*
X1107920Y-872150D01*
X1107920Y-891198D02*
X1117444Y-881674D01*
X1117444Y-881674D02*
X1136491Y-872150D01*
X1136491Y-872150D02*
X1165063Y-872150D01*
X1165063Y-872150D02*
X1184110Y-881674D01*
X1184110Y-881674D02*
X1193634Y-900722D01*
X1193634Y-900722D02*
X1193634Y-1005484D01*
X1193634Y-900722D02*
X1203158Y-881674D01*
X1203158Y-881674D02*
X1222205Y-872150D01*
X1222205Y-872150D02*
X1250777Y-872150D01*
X1250777Y-872150D02*
X1269825Y-881674D01*
X1269825Y-881674D02*
X1279348Y-900722D01*
X1279348Y-900722D02*
X1279348Y-1005484D01*
X1374586Y-1005484D02*
X1374586Y-872150D01*
X1374586Y-891198D02*
X1384110Y-881674D01*
X1384110Y-881674D02*
X1403158Y-872150D01*
X1403158Y-872150D02*
X1431729Y-872150D01*
X1431729Y-872150D02*
X1450777Y-881674D01*
X1450777Y-881674D02*
X1460301Y-900722D01*
X1460301Y-900722D02*
X1460301Y-1005484D01*
X1460301Y-900722D02*
X1469824Y-881674D01*
X1469824Y-881674D02*
X1488872Y-872150D01*
X1488872Y-872150D02*
X1517443Y-872150D01*
X1517443Y-872150D02*
X1536491Y-881674D01*
X1536491Y-881674D02*
X1546015Y-900722D01*
X1546015Y-900722D02*
X1546015Y-1005484D01*
X1936491Y-795960D02*
X1765063Y-1053103D01*
X2193634Y-805484D02*
X2212682Y-805484D01*
X2212682Y-805484D02*
X2231729Y-815008D01*
X2231729Y-815008D02*
X2241253Y-824531D01*
X2241253Y-824531D02*
X2250777Y-843579D01*
X2250777Y-843579D02*
X2260301Y-881674D01*
X2260301Y-881674D02*
X2260301Y-929293D01*
X2260301Y-929293D02*
X2250777Y-967388D01*
X2250777Y-967388D02*
X2241253Y-986436D01*
X2241253Y-986436D02*
X2231729Y-995960D01*
X2231729Y-995960D02*
X2212682Y-1005484D01*
X2212682Y-1005484D02*
X2193634Y-1005484D01*
X2193634Y-1005484D02*
X2174587Y-995960D01*
X2174587Y-995960D02*
X2165063Y-986436D01*
X2165063Y-986436D02*
X2155539Y-967388D01*
X2155539Y-967388D02*
X2146015Y-929293D01*
X2146015Y-929293D02*
X2146015Y-881674D01*
X2146015Y-881674D02*
X2155539Y-843579D01*
X2155539Y-843579D02*
X2165063Y-824531D01*
X2165063Y-824531D02*
X2174587Y-815008D01*
X2174587Y-815008D02*
X2193634Y-805484D01*
X2346015Y-986436D02*
X2355539Y-995960D01*
X2355539Y-995960D02*
X2346015Y-1005484D01*
X2346015Y-1005484D02*
X2336491Y-995960D01*
X2336491Y-995960D02*
X2346015Y-986436D01*
X2346015Y-986436D02*
X2346015Y-1005484D01*
X2479348Y-805484D02*
X2498396Y-805484D01*
X2498396Y-805484D02*
X2517444Y-815008D01*
X2517444Y-815008D02*
X2526968Y-824531D01*
X2526968Y-824531D02*
X2536491Y-843579D01*
X2536491Y-843579D02*
X2546015Y-881674D01*
X2546015Y-881674D02*
X2546015Y-929293D01*
X2546015Y-929293D02*
X2536491Y-967388D01*
X2536491Y-967388D02*
X2526968Y-986436D01*
X2526968Y-986436D02*
X2517444Y-995960D01*
X2517444Y-995960D02*
X2498396Y-1005484D01*
X2498396Y-1005484D02*
X2479348Y-1005484D01*
X2479348Y-1005484D02*
X2460301Y-995960D01*
X2460301Y-995960D02*
X2450777Y-986436D01*
X2450777Y-986436D02*
X2441253Y-967388D01*
X2441253Y-967388D02*
X2431729Y-929293D01*
X2431729Y-929293D02*
X2431729Y-881674D01*
X2431729Y-881674D02*
X2441253Y-843579D01*
X2441253Y-843579D02*
X2450777Y-824531D01*
X2450777Y-824531D02*
X2460301Y-815008D01*
X2460301Y-815008D02*
X2479348Y-805484D01*
X2612682Y-805484D02*
X2736491Y-805484D01*
X2736491Y-805484D02*
X2669825Y-881674D01*
X2669825Y-881674D02*
X2698396Y-881674D01*
X2698396Y-881674D02*
X2717444Y-891198D01*
X2717444Y-891198D02*
X2726968Y-900722D01*
X2726968Y-900722D02*
X2736491Y-919769D01*
X2736491Y-919769D02*
X2736491Y-967388D01*
X2736491Y-967388D02*
X2726968Y-986436D01*
X2726968Y-986436D02*
X2717444Y-995960D01*
X2717444Y-995960D02*
X2698396Y-1005484D01*
X2698396Y-1005484D02*
X2641253Y-1005484D01*
X2641253Y-1005484D02*
X2622206Y-995960D01*
X2622206Y-995960D02*
X2612682Y-986436D01*
X2926967Y-1005484D02*
X2812682Y-1005484D01*
X2869825Y-1005484D02*
X2869825Y-805484D01*
X2869825Y-805484D02*
X2850777Y-834055D01*
X2850777Y-834055D02*
X2831729Y-853103D01*
X2831729Y-853103D02*
X2812682Y-862627D01*
X3107920Y-805484D02*
X3012682Y-805484D01*
X3012682Y-805484D02*
X3003158Y-900722D01*
X3003158Y-900722D02*
X3012682Y-891198D01*
X3012682Y-891198D02*
X3031729Y-881674D01*
X3031729Y-881674D02*
X3079348Y-881674D01*
X3079348Y-881674D02*
X3098396Y-891198D01*
X3098396Y-891198D02*
X3107920Y-900722D01*
X3107920Y-900722D02*
X3117444Y-919769D01*
X3117444Y-919769D02*
X3117444Y-967388D01*
X3117444Y-967388D02*
X3107920Y-986436D01*
X3107920Y-986436D02*
X3098396Y-995960D01*
X3098396Y-995960D02*
X3079348Y-1005484D01*
X3079348Y-1005484D02*
X3031729Y-1005484D01*
X3031729Y-1005484D02*
X3012682Y-995960D01*
X3012682Y-995960D02*
X3003158Y-986436D01*
X3193634Y-805484D02*
X3193634Y-843579D01*
X3269825Y-805484D02*
X3269825Y-843579D01*
X3565063Y-1081674D02*
X3555539Y-1072150D01*
X3555539Y-1072150D02*
X3536491Y-1043579D01*
X3536491Y-1043579D02*
X3526968Y-1024531D01*
X3526968Y-1024531D02*
X3517444Y-995960D01*
X3517444Y-995960D02*
X3507920Y-948341D01*
X3507920Y-948341D02*
X3507920Y-910246D01*
X3507920Y-910246D02*
X3517444Y-862627D01*
X3517444Y-862627D02*
X3526968Y-834055D01*
X3526968Y-834055D02*
X3536491Y-815008D01*
X3536491Y-815008D02*
X3555539Y-786436D01*
X3555539Y-786436D02*
X3565063Y-776912D01*
X3622206Y-805484D02*
X3746015Y-805484D01*
X3746015Y-805484D02*
X3679348Y-881674D01*
X3679348Y-881674D02*
X3707920Y-881674D01*
X3707920Y-881674D02*
X3726968Y-891198D01*
X3726968Y-891198D02*
X3736491Y-900722D01*
X3736491Y-900722D02*
X3746015Y-919769D01*
X3746015Y-919769D02*
X3746015Y-967388D01*
X3746015Y-967388D02*
X3736491Y-986436D01*
X3736491Y-986436D02*
X3726968Y-995960D01*
X3726968Y-995960D02*
X3707920Y-1005484D01*
X3707920Y-1005484D02*
X3650777Y-1005484D01*
X3650777Y-1005484D02*
X3631729Y-995960D01*
X3631729Y-995960D02*
X3622206Y-986436D01*
X3860301Y-891198D02*
X3841253Y-881674D01*
X3841253Y-881674D02*
X3831729Y-872150D01*
X3831729Y-872150D02*
X3822206Y-853103D01*
X3822206Y-853103D02*
X3822206Y-843579D01*
X3822206Y-843579D02*
X3831729Y-824531D01*
X3831729Y-824531D02*
X3841253Y-815008D01*
X3841253Y-815008D02*
X3860301Y-805484D01*
X3860301Y-805484D02*
X3898396Y-805484D01*
X3898396Y-805484D02*
X3917444Y-815008D01*
X3917444Y-815008D02*
X3926968Y-824531D01*
X3926968Y-824531D02*
X3936491Y-843579D01*
X3936491Y-843579D02*
X3936491Y-853103D01*
X3936491Y-853103D02*
X3926968Y-872150D01*
X3926968Y-872150D02*
X3917444Y-881674D01*
X3917444Y-881674D02*
X3898396Y-891198D01*
X3898396Y-891198D02*
X3860301Y-891198D01*
X3860301Y-891198D02*
X3841253Y-900722D01*
X3841253Y-900722D02*
X3831729Y-910246D01*
X3831729Y-910246D02*
X3822206Y-929293D01*
X3822206Y-929293D02*
X3822206Y-967388D01*
X3822206Y-967388D02*
X3831729Y-986436D01*
X3831729Y-986436D02*
X3841253Y-995960D01*
X3841253Y-995960D02*
X3860301Y-1005484D01*
X3860301Y-1005484D02*
X3898396Y-1005484D01*
X3898396Y-1005484D02*
X3917444Y-995960D01*
X3917444Y-995960D02*
X3926968Y-986436D01*
X3926968Y-986436D02*
X3936491Y-967388D01*
X3936491Y-967388D02*
X3936491Y-929293D01*
X3936491Y-929293D02*
X3926968Y-910246D01*
X3926968Y-910246D02*
X3917444Y-900722D01*
X3917444Y-900722D02*
X3898396Y-891198D01*
X4174587Y-1005484D02*
X4174587Y-805484D01*
X4260301Y-1005484D02*
X4260301Y-900722D01*
X4260301Y-900722D02*
X4250777Y-881674D01*
X4250777Y-881674D02*
X4231730Y-872150D01*
X4231730Y-872150D02*
X4203158Y-872150D01*
X4203158Y-872150D02*
X4184110Y-881674D01*
X4184110Y-881674D02*
X4174587Y-891198D01*
X4384111Y-1005484D02*
X4365063Y-995960D01*
X4365063Y-995960D02*
X4355539Y-986436D01*
X4355539Y-986436D02*
X4346015Y-967388D01*
X4346015Y-967388D02*
X4346015Y-910246D01*
X4346015Y-910246D02*
X4355539Y-891198D01*
X4355539Y-891198D02*
X4365063Y-881674D01*
X4365063Y-881674D02*
X4384111Y-872150D01*
X4384111Y-872150D02*
X4412682Y-872150D01*
X4412682Y-872150D02*
X4431730Y-881674D01*
X4431730Y-881674D02*
X4441253Y-891198D01*
X4441253Y-891198D02*
X4450777Y-910246D01*
X4450777Y-910246D02*
X4450777Y-967388D01*
X4450777Y-967388D02*
X4441253Y-986436D01*
X4441253Y-986436D02*
X4431730Y-995960D01*
X4431730Y-995960D02*
X4412682Y-1005484D01*
X4412682Y-1005484D02*
X4384111Y-1005484D01*
X4565063Y-1005484D02*
X4546015Y-995960D01*
X4546015Y-995960D02*
X4536492Y-976912D01*
X4536492Y-976912D02*
X4536492Y-805484D01*
X4717444Y-995960D02*
X4698396Y-1005484D01*
X4698396Y-1005484D02*
X4660301Y-1005484D01*
X4660301Y-1005484D02*
X4641253Y-995960D01*
X4641253Y-995960D02*
X4631730Y-976912D01*
X4631730Y-976912D02*
X4631730Y-900722D01*
X4631730Y-900722D02*
X4641253Y-881674D01*
X4641253Y-881674D02*
X4660301Y-872150D01*
X4660301Y-872150D02*
X4698396Y-872150D01*
X4698396Y-872150D02*
X4717444Y-881674D01*
X4717444Y-881674D02*
X4726968Y-900722D01*
X4726968Y-900722D02*
X4726968Y-919769D01*
X4726968Y-919769D02*
X4631730Y-938817D01*
X4803158Y-995960D02*
X4822206Y-1005484D01*
X4822206Y-1005484D02*
X4860301Y-1005484D01*
X4860301Y-1005484D02*
X4879349Y-995960D01*
X4879349Y-995960D02*
X4888873Y-976912D01*
X4888873Y-976912D02*
X4888873Y-967388D01*
X4888873Y-967388D02*
X4879349Y-948341D01*
X4879349Y-948341D02*
X4860301Y-938817D01*
X4860301Y-938817D02*
X4831730Y-938817D01*
X4831730Y-938817D02*
X4812682Y-929293D01*
X4812682Y-929293D02*
X4803158Y-910246D01*
X4803158Y-910246D02*
X4803158Y-900722D01*
X4803158Y-900722D02*
X4812682Y-881674D01*
X4812682Y-881674D02*
X4831730Y-872150D01*
X4831730Y-872150D02*
X4860301Y-872150D01*
X4860301Y-872150D02*
X4879349Y-881674D01*
X4955539Y-1081674D02*
X4965063Y-1072150D01*
X4965063Y-1072150D02*
X4984111Y-1043579D01*
X4984111Y-1043579D02*
X4993634Y-1024531D01*
X4993634Y-1024531D02*
X5003158Y-995960D01*
X5003158Y-995960D02*
X5012682Y-948341D01*
X5012682Y-948341D02*
X5012682Y-910246D01*
X5012682Y-910246D02*
X5003158Y-862627D01*
X5003158Y-862627D02*
X4993634Y-834055D01*
X4993634Y-834055D02*
X4984111Y-815008D01*
X4984111Y-815008D02*
X4965063Y-786436D01*
X4965063Y-786436D02*
X4955539Y-776912D01*
D11*
X-55000Y-1133000D02*
X-55000Y-1223000D01*
X-100000Y-1178000D02*
X-10000Y-1178000D01*
D10*
X288872Y-1069484D02*
X307920Y-1069484D01*
X307920Y-1069484D02*
X326967Y-1079008D01*
X326967Y-1079008D02*
X336491Y-1088531D01*
X336491Y-1088531D02*
X346015Y-1107579D01*
X346015Y-1107579D02*
X355539Y-1145674D01*
X355539Y-1145674D02*
X355539Y-1193293D01*
X355539Y-1193293D02*
X346015Y-1231389D01*
X346015Y-1231389D02*
X336491Y-1250436D01*
X336491Y-1250436D02*
X326967Y-1259960D01*
X326967Y-1259960D02*
X307920Y-1269484D01*
X307920Y-1269484D02*
X288872Y-1269484D01*
X288872Y-1269484D02*
X269824Y-1259960D01*
X269824Y-1259960D02*
X260301Y-1250436D01*
X260301Y-1250436D02*
X250777Y-1231389D01*
X250777Y-1231389D02*
X241253Y-1193293D01*
X241253Y-1193293D02*
X241253Y-1145674D01*
X241253Y-1145674D02*
X250777Y-1107579D01*
X250777Y-1107579D02*
X260301Y-1088531D01*
X260301Y-1088531D02*
X269824Y-1079008D01*
X269824Y-1079008D02*
X288872Y-1069484D01*
X441253Y-1250436D02*
X450777Y-1259960D01*
X450777Y-1259960D02*
X441253Y-1269484D01*
X441253Y-1269484D02*
X431729Y-1259960D01*
X431729Y-1259960D02*
X441253Y-1250436D01*
X441253Y-1250436D02*
X441253Y-1269484D01*
X546015Y-1269484D02*
X584110Y-1269484D01*
X584110Y-1269484D02*
X603158Y-1259960D01*
X603158Y-1259960D02*
X612682Y-1250436D01*
X612682Y-1250436D02*
X631729Y-1221865D01*
X631729Y-1221865D02*
X641253Y-1183770D01*
X641253Y-1183770D02*
X641253Y-1107579D01*
X641253Y-1107579D02*
X631729Y-1088531D01*
X631729Y-1088531D02*
X622205Y-1079008D01*
X622205Y-1079008D02*
X603158Y-1069484D01*
X603158Y-1069484D02*
X565063Y-1069484D01*
X565063Y-1069484D02*
X546015Y-1079008D01*
X546015Y-1079008D02*
X536491Y-1088531D01*
X536491Y-1088531D02*
X526967Y-1107579D01*
X526967Y-1107579D02*
X526967Y-1155198D01*
X526967Y-1155198D02*
X536491Y-1174246D01*
X536491Y-1174246D02*
X546015Y-1183770D01*
X546015Y-1183770D02*
X565063Y-1193293D01*
X565063Y-1193293D02*
X603158Y-1193293D01*
X603158Y-1193293D02*
X622205Y-1183770D01*
X622205Y-1183770D02*
X631729Y-1174246D01*
X631729Y-1174246D02*
X641253Y-1155198D01*
X765062Y-1069484D02*
X784110Y-1069484D01*
X784110Y-1069484D02*
X803158Y-1079008D01*
X803158Y-1079008D02*
X812682Y-1088531D01*
X812682Y-1088531D02*
X822205Y-1107579D01*
X822205Y-1107579D02*
X831729Y-1145674D01*
X831729Y-1145674D02*
X831729Y-1193293D01*
X831729Y-1193293D02*
X822205Y-1231389D01*
X822205Y-1231389D02*
X812682Y-1250436D01*
X812682Y-1250436D02*
X803158Y-1259960D01*
X803158Y-1259960D02*
X784110Y-1269484D01*
X784110Y-1269484D02*
X765062Y-1269484D01*
X765062Y-1269484D02*
X746015Y-1259960D01*
X746015Y-1259960D02*
X736491Y-1250436D01*
X736491Y-1250436D02*
X726967Y-1231389D01*
X726967Y-1231389D02*
X717443Y-1193293D01*
X717443Y-1193293D02*
X717443Y-1145674D01*
X717443Y-1145674D02*
X726967Y-1107579D01*
X726967Y-1107579D02*
X736491Y-1088531D01*
X736491Y-1088531D02*
X746015Y-1079008D01*
X746015Y-1079008D02*
X765062Y-1069484D01*
X955539Y-1069484D02*
X974586Y-1069484D01*
X974586Y-1069484D02*
X993634Y-1079008D01*
X993634Y-1079008D02*
X1003158Y-1088531D01*
X1003158Y-1088531D02*
X1012682Y-1107579D01*
X1012682Y-1107579D02*
X1022205Y-1145674D01*
X1022205Y-1145674D02*
X1022205Y-1193293D01*
X1022205Y-1193293D02*
X1012682Y-1231389D01*
X1012682Y-1231389D02*
X1003158Y-1250436D01*
X1003158Y-1250436D02*
X993634Y-1259960D01*
X993634Y-1259960D02*
X974586Y-1269484D01*
X974586Y-1269484D02*
X955539Y-1269484D01*
X955539Y-1269484D02*
X936491Y-1259960D01*
X936491Y-1259960D02*
X926967Y-1250436D01*
X926967Y-1250436D02*
X917443Y-1231389D01*
X917443Y-1231389D02*
X907920Y-1193293D01*
X907920Y-1193293D02*
X907920Y-1145674D01*
X907920Y-1145674D02*
X917443Y-1107579D01*
X917443Y-1107579D02*
X926967Y-1088531D01*
X926967Y-1088531D02*
X936491Y-1079008D01*
X936491Y-1079008D02*
X955539Y-1069484D01*
X1107920Y-1269484D02*
X1107920Y-1136150D01*
X1107920Y-1155198D02*
X1117444Y-1145674D01*
X1117444Y-1145674D02*
X1136491Y-1136150D01*
X1136491Y-1136150D02*
X1165063Y-1136150D01*
X1165063Y-1136150D02*
X1184110Y-1145674D01*
X1184110Y-1145674D02*
X1193634Y-1164722D01*
X1193634Y-1164722D02*
X1193634Y-1269484D01*
X1193634Y-1164722D02*
X1203158Y-1145674D01*
X1203158Y-1145674D02*
X1222205Y-1136150D01*
X1222205Y-1136150D02*
X1250777Y-1136150D01*
X1250777Y-1136150D02*
X1269825Y-1145674D01*
X1269825Y-1145674D02*
X1279348Y-1164722D01*
X1279348Y-1164722D02*
X1279348Y-1269484D01*
X1374586Y-1269484D02*
X1374586Y-1136150D01*
X1374586Y-1155198D02*
X1384110Y-1145674D01*
X1384110Y-1145674D02*
X1403158Y-1136150D01*
X1403158Y-1136150D02*
X1431729Y-1136150D01*
X1431729Y-1136150D02*
X1450777Y-1145674D01*
X1450777Y-1145674D02*
X1460301Y-1164722D01*
X1460301Y-1164722D02*
X1460301Y-1269484D01*
X1460301Y-1164722D02*
X1469824Y-1145674D01*
X1469824Y-1145674D02*
X1488872Y-1136150D01*
X1488872Y-1136150D02*
X1517443Y-1136150D01*
X1517443Y-1136150D02*
X1536491Y-1145674D01*
X1536491Y-1145674D02*
X1546015Y-1164722D01*
X1546015Y-1164722D02*
X1546015Y-1269484D01*
X1936491Y-1059960D02*
X1765063Y-1317103D01*
X2193634Y-1069484D02*
X2212682Y-1069484D01*
X2212682Y-1069484D02*
X2231729Y-1079008D01*
X2231729Y-1079008D02*
X2241253Y-1088531D01*
X2241253Y-1088531D02*
X2250777Y-1107579D01*
X2250777Y-1107579D02*
X2260301Y-1145674D01*
X2260301Y-1145674D02*
X2260301Y-1193293D01*
X2260301Y-1193293D02*
X2250777Y-1231389D01*
X2250777Y-1231389D02*
X2241253Y-1250436D01*
X2241253Y-1250436D02*
X2231729Y-1259960D01*
X2231729Y-1259960D02*
X2212682Y-1269484D01*
X2212682Y-1269484D02*
X2193634Y-1269484D01*
X2193634Y-1269484D02*
X2174587Y-1259960D01*
X2174587Y-1259960D02*
X2165063Y-1250436D01*
X2165063Y-1250436D02*
X2155539Y-1231389D01*
X2155539Y-1231389D02*
X2146015Y-1193293D01*
X2146015Y-1193293D02*
X2146015Y-1145674D01*
X2146015Y-1145674D02*
X2155539Y-1107579D01*
X2155539Y-1107579D02*
X2165063Y-1088531D01*
X2165063Y-1088531D02*
X2174587Y-1079008D01*
X2174587Y-1079008D02*
X2193634Y-1069484D01*
X2346015Y-1250436D02*
X2355539Y-1259960D01*
X2355539Y-1259960D02*
X2346015Y-1269484D01*
X2346015Y-1269484D02*
X2336491Y-1259960D01*
X2336491Y-1259960D02*
X2346015Y-1250436D01*
X2346015Y-1250436D02*
X2346015Y-1269484D01*
X2479348Y-1069484D02*
X2498396Y-1069484D01*
X2498396Y-1069484D02*
X2517444Y-1079008D01*
X2517444Y-1079008D02*
X2526968Y-1088531D01*
X2526968Y-1088531D02*
X2536491Y-1107579D01*
X2536491Y-1107579D02*
X2546015Y-1145674D01*
X2546015Y-1145674D02*
X2546015Y-1193293D01*
X2546015Y-1193293D02*
X2536491Y-1231389D01*
X2536491Y-1231389D02*
X2526968Y-1250436D01*
X2526968Y-1250436D02*
X2517444Y-1259960D01*
X2517444Y-1259960D02*
X2498396Y-1269484D01*
X2498396Y-1269484D02*
X2479348Y-1269484D01*
X2479348Y-1269484D02*
X2460301Y-1259960D01*
X2460301Y-1259960D02*
X2450777Y-1250436D01*
X2450777Y-1250436D02*
X2441253Y-1231389D01*
X2441253Y-1231389D02*
X2431729Y-1193293D01*
X2431729Y-1193293D02*
X2431729Y-1145674D01*
X2431729Y-1145674D02*
X2441253Y-1107579D01*
X2441253Y-1107579D02*
X2450777Y-1088531D01*
X2450777Y-1088531D02*
X2460301Y-1079008D01*
X2460301Y-1079008D02*
X2479348Y-1069484D01*
X2612682Y-1069484D02*
X2736491Y-1069484D01*
X2736491Y-1069484D02*
X2669825Y-1145674D01*
X2669825Y-1145674D02*
X2698396Y-1145674D01*
X2698396Y-1145674D02*
X2717444Y-1155198D01*
X2717444Y-1155198D02*
X2726968Y-1164722D01*
X2726968Y-1164722D02*
X2736491Y-1183770D01*
X2736491Y-1183770D02*
X2736491Y-1231389D01*
X2736491Y-1231389D02*
X2726968Y-1250436D01*
X2726968Y-1250436D02*
X2717444Y-1259960D01*
X2717444Y-1259960D02*
X2698396Y-1269484D01*
X2698396Y-1269484D02*
X2641253Y-1269484D01*
X2641253Y-1269484D02*
X2622206Y-1259960D01*
X2622206Y-1259960D02*
X2612682Y-1250436D01*
X2917444Y-1069484D02*
X2822206Y-1069484D01*
X2822206Y-1069484D02*
X2812682Y-1164722D01*
X2812682Y-1164722D02*
X2822206Y-1155198D01*
X2822206Y-1155198D02*
X2841253Y-1145674D01*
X2841253Y-1145674D02*
X2888872Y-1145674D01*
X2888872Y-1145674D02*
X2907920Y-1155198D01*
X2907920Y-1155198D02*
X2917444Y-1164722D01*
X2917444Y-1164722D02*
X2926967Y-1183770D01*
X2926967Y-1183770D02*
X2926967Y-1231389D01*
X2926967Y-1231389D02*
X2917444Y-1250436D01*
X2917444Y-1250436D02*
X2907920Y-1259960D01*
X2907920Y-1259960D02*
X2888872Y-1269484D01*
X2888872Y-1269484D02*
X2841253Y-1269484D01*
X2841253Y-1269484D02*
X2822206Y-1259960D01*
X2822206Y-1259960D02*
X2812682Y-1250436D01*
X3098396Y-1136150D02*
X3098396Y-1269484D01*
X3050777Y-1059960D02*
X3003158Y-1202817D01*
X3003158Y-1202817D02*
X3126967Y-1202817D01*
X3193634Y-1069484D02*
X3193634Y-1107579D01*
X3269825Y-1069484D02*
X3269825Y-1107579D01*
X3565063Y-1345674D02*
X3555539Y-1336150D01*
X3555539Y-1336150D02*
X3536491Y-1307579D01*
X3536491Y-1307579D02*
X3526968Y-1288531D01*
X3526968Y-1288531D02*
X3517444Y-1259960D01*
X3517444Y-1259960D02*
X3507920Y-1212341D01*
X3507920Y-1212341D02*
X3507920Y-1174246D01*
X3507920Y-1174246D02*
X3517444Y-1126627D01*
X3517444Y-1126627D02*
X3526968Y-1098055D01*
X3526968Y-1098055D02*
X3536491Y-1079008D01*
X3536491Y-1079008D02*
X3555539Y-1050436D01*
X3555539Y-1050436D02*
X3565063Y-1040912D01*
X3726968Y-1069484D02*
X3688872Y-1069484D01*
X3688872Y-1069484D02*
X3669825Y-1079008D01*
X3669825Y-1079008D02*
X3660301Y-1088531D01*
X3660301Y-1088531D02*
X3641253Y-1117103D01*
X3641253Y-1117103D02*
X3631729Y-1155198D01*
X3631729Y-1155198D02*
X3631729Y-1231389D01*
X3631729Y-1231389D02*
X3641253Y-1250436D01*
X3641253Y-1250436D02*
X3650777Y-1259960D01*
X3650777Y-1259960D02*
X3669825Y-1269484D01*
X3669825Y-1269484D02*
X3707920Y-1269484D01*
X3707920Y-1269484D02*
X3726968Y-1259960D01*
X3726968Y-1259960D02*
X3736491Y-1250436D01*
X3736491Y-1250436D02*
X3746015Y-1231389D01*
X3746015Y-1231389D02*
X3746015Y-1183770D01*
X3746015Y-1183770D02*
X3736491Y-1164722D01*
X3736491Y-1164722D02*
X3726968Y-1155198D01*
X3726968Y-1155198D02*
X3707920Y-1145674D01*
X3707920Y-1145674D02*
X3669825Y-1145674D01*
X3669825Y-1145674D02*
X3650777Y-1155198D01*
X3650777Y-1155198D02*
X3641253Y-1164722D01*
X3641253Y-1164722D02*
X3631729Y-1183770D01*
X3984110Y-1269484D02*
X3984110Y-1069484D01*
X4069825Y-1269484D02*
X4069825Y-1164722D01*
X4069825Y-1164722D02*
X4060301Y-1145674D01*
X4060301Y-1145674D02*
X4041253Y-1136150D01*
X4041253Y-1136150D02*
X4012682Y-1136150D01*
X4012682Y-1136150D02*
X3993634Y-1145674D01*
X3993634Y-1145674D02*
X3984110Y-1155198D01*
X4193634Y-1269484D02*
X4174587Y-1259960D01*
X4174587Y-1259960D02*
X4165063Y-1250436D01*
X4165063Y-1250436D02*
X4155539Y-1231389D01*
X4155539Y-1231389D02*
X4155539Y-1174246D01*
X4155539Y-1174246D02*
X4165063Y-1155198D01*
X4165063Y-1155198D02*
X4174587Y-1145674D01*
X4174587Y-1145674D02*
X4193634Y-1136150D01*
X4193634Y-1136150D02*
X4222206Y-1136150D01*
X4222206Y-1136150D02*
X4241253Y-1145674D01*
X4241253Y-1145674D02*
X4250777Y-1155198D01*
X4250777Y-1155198D02*
X4260301Y-1174246D01*
X4260301Y-1174246D02*
X4260301Y-1231389D01*
X4260301Y-1231389D02*
X4250777Y-1250436D01*
X4250777Y-1250436D02*
X4241253Y-1259960D01*
X4241253Y-1259960D02*
X4222206Y-1269484D01*
X4222206Y-1269484D02*
X4193634Y-1269484D01*
X4374587Y-1269484D02*
X4355539Y-1259960D01*
X4355539Y-1259960D02*
X4346015Y-1240912D01*
X4346015Y-1240912D02*
X4346015Y-1069484D01*
X4526968Y-1259960D02*
X4507920Y-1269484D01*
X4507920Y-1269484D02*
X4469825Y-1269484D01*
X4469825Y-1269484D02*
X4450777Y-1259960D01*
X4450777Y-1259960D02*
X4441253Y-1240912D01*
X4441253Y-1240912D02*
X4441253Y-1164722D01*
X4441253Y-1164722D02*
X4450777Y-1145674D01*
X4450777Y-1145674D02*
X4469825Y-1136150D01*
X4469825Y-1136150D02*
X4507920Y-1136150D01*
X4507920Y-1136150D02*
X4526968Y-1145674D01*
X4526968Y-1145674D02*
X4536492Y-1164722D01*
X4536492Y-1164722D02*
X4536492Y-1183770D01*
X4536492Y-1183770D02*
X4441253Y-1202817D01*
X4612682Y-1259960D02*
X4631730Y-1269484D01*
X4631730Y-1269484D02*
X4669825Y-1269484D01*
X4669825Y-1269484D02*
X4688873Y-1259960D01*
X4688873Y-1259960D02*
X4698396Y-1240912D01*
X4698396Y-1240912D02*
X4698396Y-1231389D01*
X4698396Y-1231389D02*
X4688873Y-1212341D01*
X4688873Y-1212341D02*
X4669825Y-1202817D01*
X4669825Y-1202817D02*
X4641253Y-1202817D01*
X4641253Y-1202817D02*
X4622206Y-1193293D01*
X4622206Y-1193293D02*
X4612682Y-1174246D01*
X4612682Y-1174246D02*
X4612682Y-1164722D01*
X4612682Y-1164722D02*
X4622206Y-1145674D01*
X4622206Y-1145674D02*
X4641253Y-1136150D01*
X4641253Y-1136150D02*
X4669825Y-1136150D01*
X4669825Y-1136150D02*
X4688873Y-1145674D01*
X4765063Y-1345674D02*
X4774587Y-1336150D01*
X4774587Y-1336150D02*
X4793634Y-1307579D01*
X4793634Y-1307579D02*
X4803158Y-1288531D01*
X4803158Y-1288531D02*
X4812682Y-1259960D01*
X4812682Y-1259960D02*
X4822206Y-1212341D01*
X4822206Y-1212341D02*
X4822206Y-1174246D01*
X4822206Y-1174246D02*
X4812682Y-1126627D01*
X4812682Y-1126627D02*
X4803158Y-1098055D01*
X4803158Y-1098055D02*
X4793634Y-1079008D01*
X4793634Y-1079008D02*
X4774587Y-1050436D01*
X4774587Y-1050436D02*
X4765063Y-1040912D01*
D11*
X-24644Y-1477356D02*
X-24644Y-1406644D01*
X-95356Y-1406644D01*
X-95356Y-1477356D01*
X-24644Y-1477356D01*
D10*
X355539Y-1533484D02*
X241253Y-1533484D01*
X298396Y-1533484D02*
X298396Y-1333484D01*
X298396Y-1333484D02*
X279348Y-1362055D01*
X279348Y-1362055D02*
X260301Y-1381103D01*
X260301Y-1381103D02*
X241253Y-1390627D01*
X441253Y-1514436D02*
X450777Y-1523960D01*
X450777Y-1523960D02*
X441253Y-1533484D01*
X441253Y-1533484D02*
X431729Y-1523960D01*
X431729Y-1523960D02*
X441253Y-1514436D01*
X441253Y-1514436D02*
X441253Y-1533484D01*
X574586Y-1333484D02*
X593634Y-1333484D01*
X593634Y-1333484D02*
X612682Y-1343008D01*
X612682Y-1343008D02*
X622205Y-1352531D01*
X622205Y-1352531D02*
X631729Y-1371579D01*
X631729Y-1371579D02*
X641253Y-1409674D01*
X641253Y-1409674D02*
X641253Y-1457293D01*
X641253Y-1457293D02*
X631729Y-1495388D01*
X631729Y-1495388D02*
X622205Y-1514436D01*
X622205Y-1514436D02*
X612682Y-1523960D01*
X612682Y-1523960D02*
X593634Y-1533484D01*
X593634Y-1533484D02*
X574586Y-1533484D01*
X574586Y-1533484D02*
X555539Y-1523960D01*
X555539Y-1523960D02*
X546015Y-1514436D01*
X546015Y-1514436D02*
X536491Y-1495388D01*
X536491Y-1495388D02*
X526967Y-1457293D01*
X526967Y-1457293D02*
X526967Y-1409674D01*
X526967Y-1409674D02*
X536491Y-1371579D01*
X536491Y-1371579D02*
X546015Y-1352531D01*
X546015Y-1352531D02*
X555539Y-1343008D01*
X555539Y-1343008D02*
X574586Y-1333484D01*
X765062Y-1333484D02*
X784110Y-1333484D01*
X784110Y-1333484D02*
X803158Y-1343008D01*
X803158Y-1343008D02*
X812682Y-1352531D01*
X812682Y-1352531D02*
X822205Y-1371579D01*
X822205Y-1371579D02*
X831729Y-1409674D01*
X831729Y-1409674D02*
X831729Y-1457293D01*
X831729Y-1457293D02*
X822205Y-1495388D01*
X822205Y-1495388D02*
X812682Y-1514436D01*
X812682Y-1514436D02*
X803158Y-1523960D01*
X803158Y-1523960D02*
X784110Y-1533484D01*
X784110Y-1533484D02*
X765062Y-1533484D01*
X765062Y-1533484D02*
X746015Y-1523960D01*
X746015Y-1523960D02*
X736491Y-1514436D01*
X736491Y-1514436D02*
X726967Y-1495388D01*
X726967Y-1495388D02*
X717443Y-1457293D01*
X717443Y-1457293D02*
X717443Y-1409674D01*
X717443Y-1409674D02*
X726967Y-1371579D01*
X726967Y-1371579D02*
X736491Y-1352531D01*
X736491Y-1352531D02*
X746015Y-1343008D01*
X746015Y-1343008D02*
X765062Y-1333484D01*
X955539Y-1333484D02*
X974586Y-1333484D01*
X974586Y-1333484D02*
X993634Y-1343008D01*
X993634Y-1343008D02*
X1003158Y-1352531D01*
X1003158Y-1352531D02*
X1012682Y-1371579D01*
X1012682Y-1371579D02*
X1022205Y-1409674D01*
X1022205Y-1409674D02*
X1022205Y-1457293D01*
X1022205Y-1457293D02*
X1012682Y-1495388D01*
X1012682Y-1495388D02*
X1003158Y-1514436D01*
X1003158Y-1514436D02*
X993634Y-1523960D01*
X993634Y-1523960D02*
X974586Y-1533484D01*
X974586Y-1533484D02*
X955539Y-1533484D01*
X955539Y-1533484D02*
X936491Y-1523960D01*
X936491Y-1523960D02*
X926967Y-1514436D01*
X926967Y-1514436D02*
X917443Y-1495388D01*
X917443Y-1495388D02*
X907920Y-1457293D01*
X907920Y-1457293D02*
X907920Y-1409674D01*
X907920Y-1409674D02*
X917443Y-1371579D01*
X917443Y-1371579D02*
X926967Y-1352531D01*
X926967Y-1352531D02*
X936491Y-1343008D01*
X936491Y-1343008D02*
X955539Y-1333484D01*
X1107920Y-1533484D02*
X1107920Y-1400150D01*
X1107920Y-1419198D02*
X1117444Y-1409674D01*
X1117444Y-1409674D02*
X1136491Y-1400150D01*
X1136491Y-1400150D02*
X1165063Y-1400150D01*
X1165063Y-1400150D02*
X1184110Y-1409674D01*
X1184110Y-1409674D02*
X1193634Y-1428722D01*
X1193634Y-1428722D02*
X1193634Y-1533484D01*
X1193634Y-1428722D02*
X1203158Y-1409674D01*
X1203158Y-1409674D02*
X1222205Y-1400150D01*
X1222205Y-1400150D02*
X1250777Y-1400150D01*
X1250777Y-1400150D02*
X1269825Y-1409674D01*
X1269825Y-1409674D02*
X1279348Y-1428722D01*
X1279348Y-1428722D02*
X1279348Y-1533484D01*
X1374586Y-1533484D02*
X1374586Y-1400150D01*
X1374586Y-1419198D02*
X1384110Y-1409674D01*
X1384110Y-1409674D02*
X1403158Y-1400150D01*
X1403158Y-1400150D02*
X1431729Y-1400150D01*
X1431729Y-1400150D02*
X1450777Y-1409674D01*
X1450777Y-1409674D02*
X1460301Y-1428722D01*
X1460301Y-1428722D02*
X1460301Y-1533484D01*
X1460301Y-1428722D02*
X1469824Y-1409674D01*
X1469824Y-1409674D02*
X1488872Y-1400150D01*
X1488872Y-1400150D02*
X1517443Y-1400150D01*
X1517443Y-1400150D02*
X1536491Y-1409674D01*
X1536491Y-1409674D02*
X1546015Y-1428722D01*
X1546015Y-1428722D02*
X1546015Y-1533484D01*
X1936491Y-1323960D02*
X1765063Y-1581103D01*
X2193634Y-1333484D02*
X2212682Y-1333484D01*
X2212682Y-1333484D02*
X2231729Y-1343008D01*
X2231729Y-1343008D02*
X2241253Y-1352531D01*
X2241253Y-1352531D02*
X2250777Y-1371579D01*
X2250777Y-1371579D02*
X2260301Y-1409674D01*
X2260301Y-1409674D02*
X2260301Y-1457293D01*
X2260301Y-1457293D02*
X2250777Y-1495388D01*
X2250777Y-1495388D02*
X2241253Y-1514436D01*
X2241253Y-1514436D02*
X2231729Y-1523960D01*
X2231729Y-1523960D02*
X2212682Y-1533484D01*
X2212682Y-1533484D02*
X2193634Y-1533484D01*
X2193634Y-1533484D02*
X2174587Y-1523960D01*
X2174587Y-1523960D02*
X2165063Y-1514436D01*
X2165063Y-1514436D02*
X2155539Y-1495388D01*
X2155539Y-1495388D02*
X2146015Y-1457293D01*
X2146015Y-1457293D02*
X2146015Y-1409674D01*
X2146015Y-1409674D02*
X2155539Y-1371579D01*
X2155539Y-1371579D02*
X2165063Y-1352531D01*
X2165063Y-1352531D02*
X2174587Y-1343008D01*
X2174587Y-1343008D02*
X2193634Y-1333484D01*
X2346015Y-1514436D02*
X2355539Y-1523960D01*
X2355539Y-1523960D02*
X2346015Y-1533484D01*
X2346015Y-1533484D02*
X2336491Y-1523960D01*
X2336491Y-1523960D02*
X2346015Y-1514436D01*
X2346015Y-1514436D02*
X2346015Y-1533484D01*
X2479348Y-1333484D02*
X2498396Y-1333484D01*
X2498396Y-1333484D02*
X2517444Y-1343008D01*
X2517444Y-1343008D02*
X2526968Y-1352531D01*
X2526968Y-1352531D02*
X2536491Y-1371579D01*
X2536491Y-1371579D02*
X2546015Y-1409674D01*
X2546015Y-1409674D02*
X2546015Y-1457293D01*
X2546015Y-1457293D02*
X2536491Y-1495388D01*
X2536491Y-1495388D02*
X2526968Y-1514436D01*
X2526968Y-1514436D02*
X2517444Y-1523960D01*
X2517444Y-1523960D02*
X2498396Y-1533484D01*
X2498396Y-1533484D02*
X2479348Y-1533484D01*
X2479348Y-1533484D02*
X2460301Y-1523960D01*
X2460301Y-1523960D02*
X2450777Y-1514436D01*
X2450777Y-1514436D02*
X2441253Y-1495388D01*
X2441253Y-1495388D02*
X2431729Y-1457293D01*
X2431729Y-1457293D02*
X2431729Y-1409674D01*
X2431729Y-1409674D02*
X2441253Y-1371579D01*
X2441253Y-1371579D02*
X2450777Y-1352531D01*
X2450777Y-1352531D02*
X2460301Y-1343008D01*
X2460301Y-1343008D02*
X2479348Y-1333484D01*
X2612682Y-1333484D02*
X2736491Y-1333484D01*
X2736491Y-1333484D02*
X2669825Y-1409674D01*
X2669825Y-1409674D02*
X2698396Y-1409674D01*
X2698396Y-1409674D02*
X2717444Y-1419198D01*
X2717444Y-1419198D02*
X2726968Y-1428722D01*
X2726968Y-1428722D02*
X2736491Y-1447769D01*
X2736491Y-1447769D02*
X2736491Y-1495388D01*
X2736491Y-1495388D02*
X2726968Y-1514436D01*
X2726968Y-1514436D02*
X2717444Y-1523960D01*
X2717444Y-1523960D02*
X2698396Y-1533484D01*
X2698396Y-1533484D02*
X2641253Y-1533484D01*
X2641253Y-1533484D02*
X2622206Y-1523960D01*
X2622206Y-1523960D02*
X2612682Y-1514436D01*
X2831729Y-1533484D02*
X2869825Y-1533484D01*
X2869825Y-1533484D02*
X2888872Y-1523960D01*
X2888872Y-1523960D02*
X2898396Y-1514436D01*
X2898396Y-1514436D02*
X2917444Y-1485865D01*
X2917444Y-1485865D02*
X2926967Y-1447769D01*
X2926967Y-1447769D02*
X2926967Y-1371579D01*
X2926967Y-1371579D02*
X2917444Y-1352531D01*
X2917444Y-1352531D02*
X2907920Y-1343008D01*
X2907920Y-1343008D02*
X2888872Y-1333484D01*
X2888872Y-1333484D02*
X2850777Y-1333484D01*
X2850777Y-1333484D02*
X2831729Y-1343008D01*
X2831729Y-1343008D02*
X2822206Y-1352531D01*
X2822206Y-1352531D02*
X2812682Y-1371579D01*
X2812682Y-1371579D02*
X2812682Y-1419198D01*
X2812682Y-1419198D02*
X2822206Y-1438246D01*
X2822206Y-1438246D02*
X2831729Y-1447769D01*
X2831729Y-1447769D02*
X2850777Y-1457293D01*
X2850777Y-1457293D02*
X2888872Y-1457293D01*
X2888872Y-1457293D02*
X2907920Y-1447769D01*
X2907920Y-1447769D02*
X2917444Y-1438246D01*
X2917444Y-1438246D02*
X2926967Y-1419198D01*
X3098396Y-1400150D02*
X3098396Y-1533484D01*
X3050777Y-1323960D02*
X3003158Y-1466817D01*
X3003158Y-1466817D02*
X3126967Y-1466817D01*
X3193634Y-1333484D02*
X3193634Y-1371579D01*
X3269825Y-1333484D02*
X3269825Y-1371579D01*
X3565063Y-1609674D02*
X3555539Y-1600150D01*
X3555539Y-1600150D02*
X3536491Y-1571579D01*
X3536491Y-1571579D02*
X3526968Y-1552531D01*
X3526968Y-1552531D02*
X3517444Y-1523960D01*
X3517444Y-1523960D02*
X3507920Y-1476341D01*
X3507920Y-1476341D02*
X3507920Y-1438246D01*
X3507920Y-1438246D02*
X3517444Y-1390627D01*
X3517444Y-1390627D02*
X3526968Y-1362055D01*
X3526968Y-1362055D02*
X3536491Y-1343008D01*
X3536491Y-1343008D02*
X3555539Y-1314436D01*
X3555539Y-1314436D02*
X3565063Y-1304912D01*
X3726968Y-1333484D02*
X3688872Y-1333484D01*
X3688872Y-1333484D02*
X3669825Y-1343008D01*
X3669825Y-1343008D02*
X3660301Y-1352531D01*
X3660301Y-1352531D02*
X3641253Y-1381103D01*
X3641253Y-1381103D02*
X3631729Y-1419198D01*
X3631729Y-1419198D02*
X3631729Y-1495388D01*
X3631729Y-1495388D02*
X3641253Y-1514436D01*
X3641253Y-1514436D02*
X3650777Y-1523960D01*
X3650777Y-1523960D02*
X3669825Y-1533484D01*
X3669825Y-1533484D02*
X3707920Y-1533484D01*
X3707920Y-1533484D02*
X3726968Y-1523960D01*
X3726968Y-1523960D02*
X3736491Y-1514436D01*
X3736491Y-1514436D02*
X3746015Y-1495388D01*
X3746015Y-1495388D02*
X3746015Y-1447769D01*
X3746015Y-1447769D02*
X3736491Y-1428722D01*
X3736491Y-1428722D02*
X3726968Y-1419198D01*
X3726968Y-1419198D02*
X3707920Y-1409674D01*
X3707920Y-1409674D02*
X3669825Y-1409674D01*
X3669825Y-1409674D02*
X3650777Y-1419198D01*
X3650777Y-1419198D02*
X3641253Y-1428722D01*
X3641253Y-1428722D02*
X3631729Y-1447769D01*
X3984110Y-1533484D02*
X3984110Y-1333484D01*
X4069825Y-1533484D02*
X4069825Y-1428722D01*
X4069825Y-1428722D02*
X4060301Y-1409674D01*
X4060301Y-1409674D02*
X4041253Y-1400150D01*
X4041253Y-1400150D02*
X4012682Y-1400150D01*
X4012682Y-1400150D02*
X3993634Y-1409674D01*
X3993634Y-1409674D02*
X3984110Y-1419198D01*
X4193634Y-1533484D02*
X4174587Y-1523960D01*
X4174587Y-1523960D02*
X4165063Y-1514436D01*
X4165063Y-1514436D02*
X4155539Y-1495388D01*
X4155539Y-1495388D02*
X4155539Y-1438246D01*
X4155539Y-1438246D02*
X4165063Y-1419198D01*
X4165063Y-1419198D02*
X4174587Y-1409674D01*
X4174587Y-1409674D02*
X4193634Y-1400150D01*
X4193634Y-1400150D02*
X4222206Y-1400150D01*
X4222206Y-1400150D02*
X4241253Y-1409674D01*
X4241253Y-1409674D02*
X4250777Y-1419198D01*
X4250777Y-1419198D02*
X4260301Y-1438246D01*
X4260301Y-1438246D02*
X4260301Y-1495388D01*
X4260301Y-1495388D02*
X4250777Y-1514436D01*
X4250777Y-1514436D02*
X4241253Y-1523960D01*
X4241253Y-1523960D02*
X4222206Y-1533484D01*
X4222206Y-1533484D02*
X4193634Y-1533484D01*
X4374587Y-1533484D02*
X4355539Y-1523960D01*
X4355539Y-1523960D02*
X4346015Y-1504912D01*
X4346015Y-1504912D02*
X4346015Y-1333484D01*
X4526968Y-1523960D02*
X4507920Y-1533484D01*
X4507920Y-1533484D02*
X4469825Y-1533484D01*
X4469825Y-1533484D02*
X4450777Y-1523960D01*
X4450777Y-1523960D02*
X4441253Y-1504912D01*
X4441253Y-1504912D02*
X4441253Y-1428722D01*
X4441253Y-1428722D02*
X4450777Y-1409674D01*
X4450777Y-1409674D02*
X4469825Y-1400150D01*
X4469825Y-1400150D02*
X4507920Y-1400150D01*
X4507920Y-1400150D02*
X4526968Y-1409674D01*
X4526968Y-1409674D02*
X4536492Y-1428722D01*
X4536492Y-1428722D02*
X4536492Y-1447769D01*
X4536492Y-1447769D02*
X4441253Y-1466817D01*
X4612682Y-1523960D02*
X4631730Y-1533484D01*
X4631730Y-1533484D02*
X4669825Y-1533484D01*
X4669825Y-1533484D02*
X4688873Y-1523960D01*
X4688873Y-1523960D02*
X4698396Y-1504912D01*
X4698396Y-1504912D02*
X4698396Y-1495388D01*
X4698396Y-1495388D02*
X4688873Y-1476341D01*
X4688873Y-1476341D02*
X4669825Y-1466817D01*
X4669825Y-1466817D02*
X4641253Y-1466817D01*
X4641253Y-1466817D02*
X4622206Y-1457293D01*
X4622206Y-1457293D02*
X4612682Y-1438246D01*
X4612682Y-1438246D02*
X4612682Y-1428722D01*
X4612682Y-1428722D02*
X4622206Y-1409674D01*
X4622206Y-1409674D02*
X4641253Y-1400150D01*
X4641253Y-1400150D02*
X4669825Y-1400150D01*
X4669825Y-1400150D02*
X4688873Y-1409674D01*
X4765063Y-1609674D02*
X4774587Y-1600150D01*
X4774587Y-1600150D02*
X4793634Y-1571579D01*
X4793634Y-1571579D02*
X4803158Y-1552531D01*
X4803158Y-1552531D02*
X4812682Y-1523960D01*
X4812682Y-1523960D02*
X4822206Y-1476341D01*
X4822206Y-1476341D02*
X4822206Y-1438246D01*
X4822206Y-1438246D02*
X4812682Y-1390627D01*
X4812682Y-1390627D02*
X4803158Y-1362055D01*
X4803158Y-1362055D02*
X4793634Y-1343008D01*
X4793634Y-1343008D02*
X4774587Y-1314436D01*
X4774587Y-1314436D02*
X4765063Y-1304912D01*
X-110000Y-1806000D02*
X-10000Y-1706000D01*
X-110000Y-1606000D01*
X-210000Y-1706000D01*
X-110000Y-1806000D01*
X241253Y-1616531D02*
X250777Y-1607008D01*
X250777Y-1607008D02*
X269824Y-1597484D01*
X269824Y-1597484D02*
X317444Y-1597484D01*
X317444Y-1597484D02*
X336491Y-1607008D01*
X336491Y-1607008D02*
X346015Y-1616531D01*
X346015Y-1616531D02*
X355539Y-1635579D01*
X355539Y-1635579D02*
X355539Y-1654627D01*
X355539Y-1654627D02*
X346015Y-1683198D01*
X346015Y-1683198D02*
X231729Y-1797484D01*
X231729Y-1797484D02*
X355539Y-1797484D01*
X441253Y-1778436D02*
X450777Y-1787960D01*
X450777Y-1787960D02*
X441253Y-1797484D01*
X441253Y-1797484D02*
X431729Y-1787960D01*
X431729Y-1787960D02*
X441253Y-1778436D01*
X441253Y-1778436D02*
X441253Y-1797484D01*
X574586Y-1597484D02*
X593634Y-1597484D01*
X593634Y-1597484D02*
X612682Y-1607008D01*
X612682Y-1607008D02*
X622205Y-1616531D01*
X622205Y-1616531D02*
X631729Y-1635579D01*
X631729Y-1635579D02*
X641253Y-1673674D01*
X641253Y-1673674D02*
X641253Y-1721293D01*
X641253Y-1721293D02*
X631729Y-1759388D01*
X631729Y-1759388D02*
X622205Y-1778436D01*
X622205Y-1778436D02*
X612682Y-1787960D01*
X612682Y-1787960D02*
X593634Y-1797484D01*
X593634Y-1797484D02*
X574586Y-1797484D01*
X574586Y-1797484D02*
X555539Y-1787960D01*
X555539Y-1787960D02*
X546015Y-1778436D01*
X546015Y-1778436D02*
X536491Y-1759388D01*
X536491Y-1759388D02*
X526967Y-1721293D01*
X526967Y-1721293D02*
X526967Y-1673674D01*
X526967Y-1673674D02*
X536491Y-1635579D01*
X536491Y-1635579D02*
X546015Y-1616531D01*
X546015Y-1616531D02*
X555539Y-1607008D01*
X555539Y-1607008D02*
X574586Y-1597484D01*
X765062Y-1597484D02*
X784110Y-1597484D01*
X784110Y-1597484D02*
X803158Y-1607008D01*
X803158Y-1607008D02*
X812682Y-1616531D01*
X812682Y-1616531D02*
X822205Y-1635579D01*
X822205Y-1635579D02*
X831729Y-1673674D01*
X831729Y-1673674D02*
X831729Y-1721293D01*
X831729Y-1721293D02*
X822205Y-1759388D01*
X822205Y-1759388D02*
X812682Y-1778436D01*
X812682Y-1778436D02*
X803158Y-1787960D01*
X803158Y-1787960D02*
X784110Y-1797484D01*
X784110Y-1797484D02*
X765062Y-1797484D01*
X765062Y-1797484D02*
X746015Y-1787960D01*
X746015Y-1787960D02*
X736491Y-1778436D01*
X736491Y-1778436D02*
X726967Y-1759388D01*
X726967Y-1759388D02*
X717443Y-1721293D01*
X717443Y-1721293D02*
X717443Y-1673674D01*
X717443Y-1673674D02*
X726967Y-1635579D01*
X726967Y-1635579D02*
X736491Y-1616531D01*
X736491Y-1616531D02*
X746015Y-1607008D01*
X746015Y-1607008D02*
X765062Y-1597484D01*
X955539Y-1597484D02*
X974586Y-1597484D01*
X974586Y-1597484D02*
X993634Y-1607008D01*
X993634Y-1607008D02*
X1003158Y-1616531D01*
X1003158Y-1616531D02*
X1012682Y-1635579D01*
X1012682Y-1635579D02*
X1022205Y-1673674D01*
X1022205Y-1673674D02*
X1022205Y-1721293D01*
X1022205Y-1721293D02*
X1012682Y-1759388D01*
X1012682Y-1759388D02*
X1003158Y-1778436D01*
X1003158Y-1778436D02*
X993634Y-1787960D01*
X993634Y-1787960D02*
X974586Y-1797484D01*
X974586Y-1797484D02*
X955539Y-1797484D01*
X955539Y-1797484D02*
X936491Y-1787960D01*
X936491Y-1787960D02*
X926967Y-1778436D01*
X926967Y-1778436D02*
X917443Y-1759388D01*
X917443Y-1759388D02*
X907920Y-1721293D01*
X907920Y-1721293D02*
X907920Y-1673674D01*
X907920Y-1673674D02*
X917443Y-1635579D01*
X917443Y-1635579D02*
X926967Y-1616531D01*
X926967Y-1616531D02*
X936491Y-1607008D01*
X936491Y-1607008D02*
X955539Y-1597484D01*
X1107920Y-1797484D02*
X1107920Y-1664150D01*
X1107920Y-1683198D02*
X1117444Y-1673674D01*
X1117444Y-1673674D02*
X1136491Y-1664150D01*
X1136491Y-1664150D02*
X1165063Y-1664150D01*
X1165063Y-1664150D02*
X1184110Y-1673674D01*
X1184110Y-1673674D02*
X1193634Y-1692722D01*
X1193634Y-1692722D02*
X1193634Y-1797484D01*
X1193634Y-1692722D02*
X1203158Y-1673674D01*
X1203158Y-1673674D02*
X1222205Y-1664150D01*
X1222205Y-1664150D02*
X1250777Y-1664150D01*
X1250777Y-1664150D02*
X1269825Y-1673674D01*
X1269825Y-1673674D02*
X1279348Y-1692722D01*
X1279348Y-1692722D02*
X1279348Y-1797484D01*
X1374586Y-1797484D02*
X1374586Y-1664150D01*
X1374586Y-1683198D02*
X1384110Y-1673674D01*
X1384110Y-1673674D02*
X1403158Y-1664150D01*
X1403158Y-1664150D02*
X1431729Y-1664150D01*
X1431729Y-1664150D02*
X1450777Y-1673674D01*
X1450777Y-1673674D02*
X1460301Y-1692722D01*
X1460301Y-1692722D02*
X1460301Y-1797484D01*
X1460301Y-1692722D02*
X1469824Y-1673674D01*
X1469824Y-1673674D02*
X1488872Y-1664150D01*
X1488872Y-1664150D02*
X1517443Y-1664150D01*
X1517443Y-1664150D02*
X1536491Y-1673674D01*
X1536491Y-1673674D02*
X1546015Y-1692722D01*
X1546015Y-1692722D02*
X1546015Y-1797484D01*
X1936491Y-1587960D02*
X1765063Y-1845103D01*
X2193634Y-1597484D02*
X2212682Y-1597484D01*
X2212682Y-1597484D02*
X2231729Y-1607008D01*
X2231729Y-1607008D02*
X2241253Y-1616531D01*
X2241253Y-1616531D02*
X2250777Y-1635579D01*
X2250777Y-1635579D02*
X2260301Y-1673674D01*
X2260301Y-1673674D02*
X2260301Y-1721293D01*
X2260301Y-1721293D02*
X2250777Y-1759388D01*
X2250777Y-1759388D02*
X2241253Y-1778436D01*
X2241253Y-1778436D02*
X2231729Y-1787960D01*
X2231729Y-1787960D02*
X2212682Y-1797484D01*
X2212682Y-1797484D02*
X2193634Y-1797484D01*
X2193634Y-1797484D02*
X2174587Y-1787960D01*
X2174587Y-1787960D02*
X2165063Y-1778436D01*
X2165063Y-1778436D02*
X2155539Y-1759388D01*
X2155539Y-1759388D02*
X2146015Y-1721293D01*
X2146015Y-1721293D02*
X2146015Y-1673674D01*
X2146015Y-1673674D02*
X2155539Y-1635579D01*
X2155539Y-1635579D02*
X2165063Y-1616531D01*
X2165063Y-1616531D02*
X2174587Y-1607008D01*
X2174587Y-1607008D02*
X2193634Y-1597484D01*
X2346015Y-1778436D02*
X2355539Y-1787960D01*
X2355539Y-1787960D02*
X2346015Y-1797484D01*
X2346015Y-1797484D02*
X2336491Y-1787960D01*
X2336491Y-1787960D02*
X2346015Y-1778436D01*
X2346015Y-1778436D02*
X2346015Y-1797484D01*
X2479348Y-1597484D02*
X2498396Y-1597484D01*
X2498396Y-1597484D02*
X2517444Y-1607008D01*
X2517444Y-1607008D02*
X2526968Y-1616531D01*
X2526968Y-1616531D02*
X2536491Y-1635579D01*
X2536491Y-1635579D02*
X2546015Y-1673674D01*
X2546015Y-1673674D02*
X2546015Y-1721293D01*
X2546015Y-1721293D02*
X2536491Y-1759388D01*
X2536491Y-1759388D02*
X2526968Y-1778436D01*
X2526968Y-1778436D02*
X2517444Y-1787960D01*
X2517444Y-1787960D02*
X2498396Y-1797484D01*
X2498396Y-1797484D02*
X2479348Y-1797484D01*
X2479348Y-1797484D02*
X2460301Y-1787960D01*
X2460301Y-1787960D02*
X2450777Y-1778436D01*
X2450777Y-1778436D02*
X2441253Y-1759388D01*
X2441253Y-1759388D02*
X2431729Y-1721293D01*
X2431729Y-1721293D02*
X2431729Y-1673674D01*
X2431729Y-1673674D02*
X2441253Y-1635579D01*
X2441253Y-1635579D02*
X2450777Y-1616531D01*
X2450777Y-1616531D02*
X2460301Y-1607008D01*
X2460301Y-1607008D02*
X2479348Y-1597484D01*
X2612682Y-1597484D02*
X2746015Y-1597484D01*
X2746015Y-1597484D02*
X2660301Y-1797484D01*
X2850777Y-1683198D02*
X2831729Y-1673674D01*
X2831729Y-1673674D02*
X2822206Y-1664150D01*
X2822206Y-1664150D02*
X2812682Y-1645103D01*
X2812682Y-1645103D02*
X2812682Y-1635579D01*
X2812682Y-1635579D02*
X2822206Y-1616531D01*
X2822206Y-1616531D02*
X2831729Y-1607008D01*
X2831729Y-1607008D02*
X2850777Y-1597484D01*
X2850777Y-1597484D02*
X2888872Y-1597484D01*
X2888872Y-1597484D02*
X2907920Y-1607008D01*
X2907920Y-1607008D02*
X2917444Y-1616531D01*
X2917444Y-1616531D02*
X2926967Y-1635579D01*
X2926967Y-1635579D02*
X2926967Y-1645103D01*
X2926967Y-1645103D02*
X2917444Y-1664150D01*
X2917444Y-1664150D02*
X2907920Y-1673674D01*
X2907920Y-1673674D02*
X2888872Y-1683198D01*
X2888872Y-1683198D02*
X2850777Y-1683198D01*
X2850777Y-1683198D02*
X2831729Y-1692722D01*
X2831729Y-1692722D02*
X2822206Y-1702246D01*
X2822206Y-1702246D02*
X2812682Y-1721293D01*
X2812682Y-1721293D02*
X2812682Y-1759388D01*
X2812682Y-1759388D02*
X2822206Y-1778436D01*
X2822206Y-1778436D02*
X2831729Y-1787960D01*
X2831729Y-1787960D02*
X2850777Y-1797484D01*
X2850777Y-1797484D02*
X2888872Y-1797484D01*
X2888872Y-1797484D02*
X2907920Y-1787960D01*
X2907920Y-1787960D02*
X2917444Y-1778436D01*
X2917444Y-1778436D02*
X2926967Y-1759388D01*
X2926967Y-1759388D02*
X2926967Y-1721293D01*
X2926967Y-1721293D02*
X2917444Y-1702246D01*
X2917444Y-1702246D02*
X2907920Y-1692722D01*
X2907920Y-1692722D02*
X2888872Y-1683198D01*
X2993634Y-1597484D02*
X3126967Y-1597484D01*
X3126967Y-1597484D02*
X3041253Y-1797484D01*
X3193634Y-1597484D02*
X3193634Y-1635579D01*
X3269825Y-1597484D02*
X3269825Y-1635579D01*
X3565063Y-1873674D02*
X3555539Y-1864150D01*
X3555539Y-1864150D02*
X3536491Y-1835579D01*
X3536491Y-1835579D02*
X3526968Y-1816531D01*
X3526968Y-1816531D02*
X3517444Y-1787960D01*
X3517444Y-1787960D02*
X3507920Y-1740341D01*
X3507920Y-1740341D02*
X3507920Y-1702246D01*
X3507920Y-1702246D02*
X3517444Y-1654627D01*
X3517444Y-1654627D02*
X3526968Y-1626055D01*
X3526968Y-1626055D02*
X3536491Y-1607008D01*
X3536491Y-1607008D02*
X3555539Y-1578436D01*
X3555539Y-1578436D02*
X3565063Y-1568912D01*
X3726968Y-1597484D02*
X3688872Y-1597484D01*
X3688872Y-1597484D02*
X3669825Y-1607008D01*
X3669825Y-1607008D02*
X3660301Y-1616531D01*
X3660301Y-1616531D02*
X3641253Y-1645103D01*
X3641253Y-1645103D02*
X3631729Y-1683198D01*
X3631729Y-1683198D02*
X3631729Y-1759388D01*
X3631729Y-1759388D02*
X3641253Y-1778436D01*
X3641253Y-1778436D02*
X3650777Y-1787960D01*
X3650777Y-1787960D02*
X3669825Y-1797484D01*
X3669825Y-1797484D02*
X3707920Y-1797484D01*
X3707920Y-1797484D02*
X3726968Y-1787960D01*
X3726968Y-1787960D02*
X3736491Y-1778436D01*
X3736491Y-1778436D02*
X3746015Y-1759388D01*
X3746015Y-1759388D02*
X3746015Y-1711769D01*
X3746015Y-1711769D02*
X3736491Y-1692722D01*
X3736491Y-1692722D02*
X3726968Y-1683198D01*
X3726968Y-1683198D02*
X3707920Y-1673674D01*
X3707920Y-1673674D02*
X3669825Y-1673674D01*
X3669825Y-1673674D02*
X3650777Y-1683198D01*
X3650777Y-1683198D02*
X3641253Y-1692722D01*
X3641253Y-1692722D02*
X3631729Y-1711769D01*
X3984110Y-1797484D02*
X3984110Y-1597484D01*
X4069825Y-1797484D02*
X4069825Y-1692722D01*
X4069825Y-1692722D02*
X4060301Y-1673674D01*
X4060301Y-1673674D02*
X4041253Y-1664150D01*
X4041253Y-1664150D02*
X4012682Y-1664150D01*
X4012682Y-1664150D02*
X3993634Y-1673674D01*
X3993634Y-1673674D02*
X3984110Y-1683198D01*
X4193634Y-1797484D02*
X4174587Y-1787960D01*
X4174587Y-1787960D02*
X4165063Y-1778436D01*
X4165063Y-1778436D02*
X4155539Y-1759388D01*
X4155539Y-1759388D02*
X4155539Y-1702246D01*
X4155539Y-1702246D02*
X4165063Y-1683198D01*
X4165063Y-1683198D02*
X4174587Y-1673674D01*
X4174587Y-1673674D02*
X4193634Y-1664150D01*
X4193634Y-1664150D02*
X4222206Y-1664150D01*
X4222206Y-1664150D02*
X4241253Y-1673674D01*
X4241253Y-1673674D02*
X4250777Y-1683198D01*
X4250777Y-1683198D02*
X4260301Y-1702246D01*
X4260301Y-1702246D02*
X4260301Y-1759388D01*
X4260301Y-1759388D02*
X4250777Y-1778436D01*
X4250777Y-1778436D02*
X4241253Y-1787960D01*
X4241253Y-1787960D02*
X4222206Y-1797484D01*
X4222206Y-1797484D02*
X4193634Y-1797484D01*
X4374587Y-1797484D02*
X4355539Y-1787960D01*
X4355539Y-1787960D02*
X4346015Y-1768912D01*
X4346015Y-1768912D02*
X4346015Y-1597484D01*
X4526968Y-1787960D02*
X4507920Y-1797484D01*
X4507920Y-1797484D02*
X4469825Y-1797484D01*
X4469825Y-1797484D02*
X4450777Y-1787960D01*
X4450777Y-1787960D02*
X4441253Y-1768912D01*
X4441253Y-1768912D02*
X4441253Y-1692722D01*
X4441253Y-1692722D02*
X4450777Y-1673674D01*
X4450777Y-1673674D02*
X4469825Y-1664150D01*
X4469825Y-1664150D02*
X4507920Y-1664150D01*
X4507920Y-1664150D02*
X4526968Y-1673674D01*
X4526968Y-1673674D02*
X4536492Y-1692722D01*
X4536492Y-1692722D02*
X4536492Y-1711769D01*
X4536492Y-1711769D02*
X4441253Y-1730817D01*
X4612682Y-1787960D02*
X4631730Y-1797484D01*
X4631730Y-1797484D02*
X4669825Y-1797484D01*
X4669825Y-1797484D02*
X4688873Y-1787960D01*
X4688873Y-1787960D02*
X4698396Y-1768912D01*
X4698396Y-1768912D02*
X4698396Y-1759388D01*
X4698396Y-1759388D02*
X4688873Y-1740341D01*
X4688873Y-1740341D02*
X4669825Y-1730817D01*
X4669825Y-1730817D02*
X4641253Y-1730817D01*
X4641253Y-1730817D02*
X4622206Y-1721293D01*
X4622206Y-1721293D02*
X4612682Y-1702246D01*
X4612682Y-1702246D02*
X4612682Y-1692722D01*
X4612682Y-1692722D02*
X4622206Y-1673674D01*
X4622206Y-1673674D02*
X4641253Y-1664150D01*
X4641253Y-1664150D02*
X4669825Y-1664150D01*
X4669825Y-1664150D02*
X4688873Y-1673674D01*
X4765063Y-1873674D02*
X4774587Y-1864150D01*
X4774587Y-1864150D02*
X4793634Y-1835579D01*
X4793634Y-1835579D02*
X4803158Y-1816531D01*
X4803158Y-1816531D02*
X4812682Y-1787960D01*
X4812682Y-1787960D02*
X4822206Y-1740341D01*
X4822206Y-1740341D02*
X4822206Y-1702246D01*
X4822206Y-1702246D02*
X4812682Y-1654627D01*
X4812682Y-1654627D02*
X4803158Y-1626055D01*
X4803158Y-1626055D02*
X4793634Y-1607008D01*
X4793634Y-1607008D02*
X4774587Y-1578436D01*
X4774587Y-1578436D02*
X4765063Y-1568912D01*
M02*
